<svg xmlns="http://www.w3.org/2000/svg" width="50.119" height="50.065" viewBox="0 0 50.119 50.065"><defs><style>.a{fill:#0054a6;}</style></defs><g transform="translate(0 -0.5)"><path class="a" d="M35.788,133.122a.734.734,0,0,0,1.037-1.037L35.044,130.3l1.781-1.781a.734.734,0,0,0-1.037-1.037l-2.3,2.3a.733.733,0,0,0,0,1.037Zm0,0" transform="translate(-30.017 -114.361)"/><path class="a" d="M114.927,130.3l-1.781,1.781a.734.734,0,1,0,1.037,1.037l2.3-2.3a.733.733,0,0,0,0-1.037l-2.3-2.3a.733.733,0,0,0-1.037,1.037Zm0,0" transform="translate(-101.877 -114.358)"/><path class="a" d="M76.883,133.281a.733.733,0,0,0,.951-.415l1.807-4.6a.733.733,0,1,0-1.365-.536l-1.807,4.6A.734.734,0,0,0,76.883,133.281Zm0,0" transform="translate(-68.937 -114.356)"/><path class="a" d="M38.249,219.682h4.942a.734.734,0,0,0,0-1.467H38.249a.734.734,0,0,0,0,1.467Zm0,0" transform="translate(-33.844 -196.403)"/><path class="a" d="M124.933,218.215h-8.688a.734.734,0,0,0,0,1.467h8.688a.734.734,0,1,0,0-1.467Zm0,0" transform="translate(-104.205 -196.403)"/><path class="a" d="M38.249,251.288h2.105a.734.734,0,0,0,0-1.467H38.249a.734.734,0,0,0,0,1.467Zm0,0" transform="translate(-33.844 -224.915)"/><path class="a" d="M177.581,249.82a.734.734,0,0,0,0,1.467h1.282a.734.734,0,1,0,0-1.467Zm0,0" transform="translate(-159.537 -224.914)"/><path class="a" d="M93.075,250.554a.734.734,0,0,0-.733-.733h-6.3a.734.734,0,0,0,0,1.467h6.3A.734.734,0,0,0,93.075,250.554Zm0,0" transform="translate(-76.962 -224.915)"/><path class="a" d="M213.7,250.554a.734.734,0,0,0,.733.734h2.4a.734.734,0,1,0,0-1.467h-2.4A.734.734,0,0,0,213.7,250.554Zm0,0" transform="translate(-192.784 -224.915)"/><path class="a" d="M166.133,150.745h2.533a.734.734,0,1,0,0-1.467h-2.533a.734.734,0,1,0,0,1.467Zm0,0" transform="translate(-149.208 -134.214)"/><path class="a" d="M220.98,150.745h15.452a.734.734,0,0,0,0-1.467H220.98a.734.734,0,1,0,0,1.467Zm0,0" transform="translate(-198.687 -134.214)"/><path class="a" d="M297.176,182.246h-6.26a.734.734,0,0,0,0,1.467h6.26a.734.734,0,0,0,0-1.467Zm0,0" transform="translate(-261.778 -163.955)"/><path class="a" d="M247.111,182.246H244.96a.734.734,0,0,0,0,1.467h2.152a.734.734,0,0,0,0-1.467Zm0,0" transform="translate(-220.319 -163.955)"/><path class="a" d="M166.133,183.713H171.4a.734.734,0,0,0,0-1.467h-5.271a.734.734,0,1,0,0,1.467Zm0,0" transform="translate(-149.208 -163.955)"/><path class="a" d="M104.921,281.16H99.98a.733.733,0,1,0,0,1.467h4.941a.733.733,0,0,0,0-1.467Zm0,0" transform="translate(-89.532 -253.186)"/><path class="a" d="M42.045,281.16h-3.8a.733.733,0,0,0,0,1.467h3.8a.733.733,0,0,0,0-1.467Zm0,0" transform="translate(-33.844 -253.186)"/><path class="a" d="M182.478,281.16h-6.455a.733.733,0,0,0,0,1.467h6.455a.733.733,0,0,0,0-1.467Zm0,0" transform="translate(-158.131 -253.186)"/><path class="a" d="M298.61,242.668h-3.53a.734.734,0,0,0,0,1.467h3.53a.734.734,0,0,0,0-1.467Zm0,0" transform="translate(-265.534 -218.462)"/><path class="a" d="M393.71,244.135h4.983a.734.734,0,1,0,0-1.467H393.71a.734.734,0,0,0,0,1.467Zm0,0" transform="translate(-354.509 -218.462)"/><path class="a" d="M357.731,242.668H356.59a.734.734,0,1,0,0,1.467h1.142a.734.734,0,0,0,0-1.467Zm0,0" transform="translate(-321.022 -218.462)"/><path class="a" d="M295.081,325.8h3.53a.733.733,0,0,0,0-1.467h-3.53a.733.733,0,0,0,0,1.467Zm0,0" transform="translate(-265.535 -292.129)"/><path class="a" d="M393.71,325.8h4.983a.733.733,0,1,0,0-1.467H393.71a.733.733,0,1,0,0,1.467Zm0,0" transform="translate(-354.509 -292.129)"/><path class="a" d="M356.593,325.8h1.142a.733.733,0,1,0,0-1.467h-1.142a.733.733,0,1,0,0,1.467Zm0,0" transform="translate(-321.025 -292.129)"/><path class="a" d="M298.61,405.988h-3.53a.733.733,0,0,0,0,1.467h3.53a.733.733,0,0,0,0-1.467Zm0,0" transform="translate(-265.534 -365.795)"/><path class="a" d="M398.693,405.988H393.71a.733.733,0,1,0,0,1.467h4.983a.733.733,0,1,0,0-1.467Zm0,0" transform="translate(-354.509 -365.795)"/><path class="a" d="M357.731,405.988H356.59a.733.733,0,1,0,0,1.467h1.142a.733.733,0,1,0,0-1.467Zm0,0" transform="translate(-321.022 -365.795)"/><path class="a" d="M46.891.5H3.228A3.232,3.232,0,0,0,0,3.728V39.22a3.232,3.232,0,0,0,3.228,3.228h2.76a.733.733,0,1,0,0-1.467H3.228A1.763,1.763,0,0,1,1.467,39.22V36.437H28.19V37.7h-.582a1.444,1.444,0,0,0-1.443,1.443v1.837H10.448a.733.733,0,1,0,0,1.467H17.5v2.631H15.286a2.682,2.682,0,0,0-2.679,2.679v1.585a1.224,1.224,0,0,0,1.222,1.222h22.4a1.224,1.224,0,0,0,1.222-1.222V47.758a2.682,2.682,0,0,0-2.679-2.679H32.562v-.927h13.56a1.444,1.444,0,0,0,1.442-1.443v-.345a3.233,3.233,0,0,0,2.5-3.144l.055-35.492A3.231,3.231,0,0,0,46.891.5ZM27.633,34.691V31.175H46.1v3.516Zm2.024-4.983V28.164H44.074v1.543Zm14.417,6.45V37.7H29.657V36.158Zm-25.106,6.29h7.2v.261a1.444,1.444,0,0,0,1.443,1.442H31.1v.927H18.968Zm15.81,4.1a1.214,1.214,0,0,1,1.212,1.212V49.1H14.073v-1.34a1.214,1.214,0,0,1,1.213-1.212ZM46.1,42.684H27.633V39.169H46.1Zm2.5-3.464a1.762,1.762,0,0,1-1.031,1.6V39.144A1.444,1.444,0,0,0,46.122,37.7h-.582V36.437H48.6Zm0-4.249H47.541c.015-.083.024-3.82.024-3.82a1.444,1.444,0,0,0-1.443-1.443h-.582V28.164h.582a1.445,1.445,0,0,0,1.443-1.443V23.157a1.445,1.445,0,0,0-1.443-1.443H41.979a.734.734,0,0,0,0,1.467H46.1V26.7H27.633V23.181h9.782a.734.734,0,0,0,0-1.467H27.609a1.444,1.444,0,0,0-1.443,1.443v3.565a1.444,1.444,0,0,0,1.443,1.443h.582v1.543h-.582a1.444,1.444,0,0,0-1.443,1.443s.009,3.737.024,3.82H1.467V10.478H48.6Zm0-25.96H1.521V3.728A1.763,1.763,0,0,1,3.282,1.967H46.835A1.763,1.763,0,0,1,48.6,3.728Zm0,0" transform="translate(0 0)"/><path class="a" d="M35.426,29.262a2.153,2.153,0,1,0,2.153,2.152A2.155,2.155,0,0,0,35.426,29.262Zm0,2.838a.686.686,0,1,1,.686-.686A.686.686,0,0,1,35.426,32.1Zm0,0" transform="translate(-30.017 -25.946)"/><path class="a" d="M91.411,29.262a2.153,2.153,0,1,0,2.152,2.152A2.155,2.155,0,0,0,91.411,29.262Zm0,2.838a.686.686,0,1,1,.686-.686A.686.686,0,0,1,91.411,32.1Zm0,0" transform="translate(-80.521 -25.946)"/><path class="a" d="M147.4,29.262a2.153,2.153,0,1,0,2.153,2.152A2.155,2.155,0,0,0,147.4,29.262Zm0,2.838a.686.686,0,1,1,.686-.686A.686.686,0,0,1,147.4,32.1Zm0,0" transform="translate(-131.028 -25.946)"/></g></svg>