<svg xmlns="http://www.w3.org/2000/svg" width="50.987" height="50.993" viewBox="0 0 50.987 50.993"><defs><style>.a{fill:#0054a6;}</style></defs><g transform="translate(-4.755 -4.749)"><path class="a" d="M54.81,11.086A7.151,7.151,0,0,0,49.9,7.6l-.55-2.271a.753.753,0,0,0-.912-.554L44.226,5.792a.753.753,0,0,0-.555.909l.4,1.66L16.092,15.137a.753.753,0,0,0-.553.908l.27,1.114L10.728,18.39a.753.753,0,0,0-.555.909l.4,1.644-5.24,1.268a.753.753,0,0,0-.555.909l.968,4a.753.753,0,0,0,.732.576.768.768,0,0,0,.178-.022L11.893,26.4l.4,1.639a.751.751,0,0,0,.909.555l5.082-1.23.27,1.115a.754.754,0,0,0,.732.576.745.745,0,0,0,.178-.021l7.526-1.824a3.323,3.323,0,0,0,.516,1.2L15.514,52.8a2.042,2.042,0,1,0,3.666,1.8l9.028-18.36V53.7a2.044,2.044,0,1,0,4.088,0V36.238L41.323,54.6a2.056,2.056,0,0,0,1.835,1.144,2,2,0,0,0,.9-.21,2.041,2.041,0,0,0,.934-2.734L33,28.416a3.3,3.3,0,0,0,.46-2.771l13.977-3.389.4,1.662a.753.753,0,0,0,.909.555l4.217-1.022a.753.753,0,0,0,.555-.909l-.55-2.269a7.163,7.163,0,0,0,1.835-9.186ZM7.032,26.032,6.418,23.5l4.507-1.091.614,2.534Zm6.545.926-.392-1.621a.044.044,0,0,0,0-.018.142.142,0,0,1-.006-.018l-.96-3.962v-.016c0-.005,0-.01-.005-.015l-.395-1.628,4.35-1.053,1.764,7.28Zm18.2-1.42a1.818,1.818,0,0,1-.234,2.284l0,0a1.826,1.826,0,0,1-2.584,0l0,0a1.827,1.827,0,1,1,2.825-2.286Zm-13.953,28.4a.537.537,0,0,1-.99-.063.53.53,0,0,1,.027-.409l11.343-23.07v2.433Zm12.424.3a.538.538,0,0,1-.538-.538V29.822a3.08,3.08,0,0,0,1.076,0V53.7a.538.538,0,0,1-.538.538Zm13.413-.365a.537.537,0,0,1-.277.311.548.548,0,0,1-.713-.248L32.3,32.825V30.392L43.639,53.463a.528.528,0,0,1,.026.407ZM30.252,23.2a3.338,3.338,0,0,0-3.212,2.453l-7.2,1.744-2.387-9.854v-.007l-.269-1.111,27.249-6.6,2.656,10.967L32.7,24.28a3.323,3.323,0,0,0-2.45-1.081Zm18.877-.368L45.721,8.76a.055.055,0,0,0,0-.023.115.115,0,0,1-.007-.022l-.4-1.635,2.754-.667,3.816,15.753ZM50.3,9.252a5.635,5.635,0,0,1,2.271,9.375Z"/><path class="a" d="M68.587,23.908,62.8,25.31a.753.753,0,1,0,.355,1.463l5.784-1.4a.753.753,0,1,0-.355-1.463Z" transform="translate(-32.728 -10.899)"/><path class="a" d="M85.776,21.827a.751.751,0,0,0-.909-.555l-1.721.417a.753.753,0,1,0,.355,1.463l1.719-.417a.753.753,0,0,0,.557-.908Z" transform="translate(-44.317 -9.4)"/></g></svg>