<svg xmlns="http://www.w3.org/2000/svg" width="50.683" height="50.684" viewBox="0 0 50.683 50.684"><defs><style>.a{fill:#0054a6;}</style></defs><g transform="translate(-2 -1.999)"><path class="a" d="M50.994,18.049a2.534,2.534,0,0,0-2.534-2.534h-7.6a13.522,13.522,0,0,0-.084-1.476c-.019-.181-.056-.357-.084-.537-.045-.3-.09-.591-.155-.886-.048-.219-.109-.433-.169-.65-.066-.242-.133-.481-.213-.717s-.161-.457-.253-.683-.176-.422-.271-.635-.205-.446-.32-.664-.236-.422-.359-.629-.226-.39-.351-.579c-.22-.331-.458-.65-.705-.96-.042-.052-.078-.109-.121-.161a13.7,13.7,0,0,0-1.014-1.1c-.046-.043-.094-.084-.14-.127q-.485-.46-1.014-.871c-.028-.021-.052-.046-.079-.068l-.5-.376-.012.008A13.475,13.475,0,0,0,15.25,9.5l-.014,0-.169.355c-.009.021-.016.043-.025.064q-.265.58-.474,1.188c-.019.052-.04.1-.057.156-.128.386-.237.78-.329,1.183-.018.073-.041.146-.057.22-.084.377-.14.76-.189,1.148-.011.09-.031.179-.041.27a13.743,13.743,0,0,0-.068,1.425h-7.6a2.534,2.534,0,0,0-2.534,2.534V47.615H2v2.534a2.534,2.534,0,0,0,2.534,2.534H50.149a2.534,2.534,0,0,0,2.534-2.534V47.615H50.994ZM15.575,14.333a11.707,11.707,0,0,1,.869-3.393,5.246,5.246,0,0,1,5.3,2.076l.4.557a5.22,5.22,0,0,1,.98,3.051,6.944,6.944,0,0,0,4.121,6.34h0a6.6,6.6,0,0,1,3.54,3.856c-.259.084-.52.149-.782.209l-.077.02c-.186.042-.374.073-.562.106s-.367.062-.552.084c-.14.018-.28.035-.422.047-.345.03-.693.053-1.046.053A11.839,11.839,0,0,1,15.515,15.515C15.515,15.117,15.537,14.722,15.575,14.333Zm11.766,14.7c.427,0,.851-.024,1.275-.064.242-.023.478-.064.716-.1.169-.025.332-.045.5-.077.318-.059.628-.135.937-.216.078-.021.157-.039.235-.061.338-.1.676-.207,1-.328.035-.014.072-.022.108-.035l.4-.15c.034-.014.068-.024.1-.039l.187-.07,0-.018a13.58,13.58,0,0,0,6.721-6.518l.018-.008.123-.274c.008-.018.014-.036.021-.054.065-.144.129-.29.189-.437h6.063V44.236H8.758V20.584h6.063a13.53,13.53,0,0,0,12.52,8.447Zm10.89-8.923-1.166.582a2.606,2.606,0,0,1-2.464-.068l-.377-.215a2.614,2.614,0,0,1-.552-4.117,4.308,4.308,0,0,0,.694-5.176l-.521-.907a2.606,2.606,0,0,1,.75-3.422l.387-.276a12.034,12.034,0,0,1,.879.83c.073.075.141.155.211.232q.291.317.557.651.154.2.3.4c.131.179.253.362.375.549.107.169.211.338.31.507s.183.338.27.507c.1.192.193.384.28.58.075.169.14.338.206.515.078.2.157.4.224.609.061.19.11.384.161.578s.109.389.151.591c.051.24.084.484.12.728.024.16.057.318.073.481a12.027,12.027,0,0,1,.07,1.25,11.752,11.752,0,0,1-.936,4.593ZM27.342,3.689a11.733,11.733,0,0,1,6.207,1.779,4.285,4.285,0,0,0-1.167,5.575l.519.907a2.619,2.619,0,0,1-.422,3.143,4.3,4.3,0,0,0,.907,6.777l.377.215a4.257,4.257,0,0,0,3.06.465,11.877,11.877,0,0,1-4.47,3.658,8.3,8.3,0,0,0-4.428-4.79h0a5.254,5.254,0,0,1-3.117-4.8,6.9,6.9,0,0,0-1.292-4.033l-.4-.558a6.927,6.927,0,0,0-5.736-2.866,11.815,11.815,0,0,1,9.96-5.478ZM5.379,18.049a.845.845,0,0,1,.845-.845h7.72a13.3,13.3,0,0,0,.328,1.689h-7.2V45.925H47.615V18.894h-7.2c.035-.136.074-.271.106-.409.012-.052.029-.1.041-.155.079-.369.134-.746.182-1.125h7.72a.845.845,0,0,1,.845.845V47.615H5.379Zm45.615,32.1a.845.845,0,0,1-.845.845H4.534a.845.845,0,0,1-.845-.845V49.3h47.3Z"/><path class="a" d="M27.352,47.9H34.11V44.519h3.526l-6.9-8.056-6.9,8.056h3.526Zm3.379-8.838,3.232,3.77H32.42v3.379H29.041V42.83H27.5Z" transform="translate(-3.389 -5.352)"/></g></svg>