<svg xmlns="http://www.w3.org/2000/svg" width="46.567" height="50.621" viewBox="0 0 46.567 50.621"><defs><style>.a{fill:#0054a6;}</style></defs><g transform="translate(-24.43 0)"><path class="a" d="M66.935,6.583h-.611A4.277,4.277,0,0,0,65.19.854a4.445,4.445,0,0,0-6.28,1.069L55.739,6.583H28.492a4.033,4.033,0,0,0-4.062,3.994V36.112a4.033,4.033,0,0,0,4.062,3.994H44.268l-1.192,4.923H40.5a3.019,3.019,0,0,0-3.041,2.99v.624H34.291a.989.989,0,1,0,0,1.977H61.136a.989.989,0,1,0,0-1.977H57.964V48.02a3.019,3.019,0,0,0-3.041-2.99H52.351l-1.192-4.923H66.935A4.033,4.033,0,0,0,71,36.112V10.577a4.033,4.033,0,0,0-4.062-3.994ZM52.529,23.964c-1.572,1.082-4.517-.389-7.329,1.087-.686-3.505-.254-6.8,3.318-7.53a6.5,6.5,0,0,1,1.382-.129l3.637,2.654A3.159,3.159,0,0,1,52.529,23.964Zm1.013-10.6,2.846,2.076L54.2,18.067l-2.577-1.88ZM60.582,3.022a2.413,2.413,0,0,1,3.41-.58,2.323,2.323,0,0,1,.424,3.378l-6.751,8.093-3-2.191Zm-4.628,45v.624H39.473V48.02a1.023,1.023,0,0,1,1.03-1.013h14.42a1.023,1.023,0,0,1,1.03,1.013Zm-5.67-2.99h-5.14l1.192-4.923h2.756Zm18.7-8.917a2.036,2.036,0,0,1-2.051,2.017H28.492a2.036,2.036,0,0,1-2.051-2.017v-4.63h2.873a.989.989,0,1,0,0-1.977H26.441V10.577a2.036,2.036,0,0,1,2.051-2.017h25.9L49.73,15.414A6.926,6.926,0,0,0,44.5,17.584c-1.752,2.011-2.06,5.172-.915,9.394a1.013,1.013,0,0,0,1.666.46c2.6-2.443,5.838.222,8.737-2.086a5.122,5.122,0,0,0,1.521-5.743L64.73,8.561h2.205a2.036,2.036,0,0,1,2.051,2.017V29.5H37.357a.989.989,0,1,0,0,1.977H68.986Z" transform="translate(0 0)"/><path class="a" d="M103.843,298.443a1.005,1.005,0,1,0,1.182.789,1,1,0,0,0-1.182-.789Z" transform="translate(-70.702 -268.939)"/></g></svg>