<svg xmlns="http://www.w3.org/2000/svg" xmlns:xlink="http://www.w3.org/1999/xlink" width="149" height="121" viewBox="0 0 149 121"><defs><style>.a{fill:none;}.b{opacity:0.2;}.c{clip-path:url(#a);}.d{fill:#3995f0;}.e{clip-path:url(#b);}</style><clipPath id="a"><rect class="a" width="79" height="78"/></clipPath><clipPath id="b"><rect class="a" width="79" height="38"/></clipPath></defs><g class="b" transform="translate(1726 -8459)"><g class="c" transform="translate(-1656 8459)"><g transform="translate(1762 -8478)"><circle class="d" cx="2.5" cy="2.5" r="2.5" transform="translate(-1762 8478)"/></g><g transform="translate(1772 -8478)"><circle class="d" cx="2.5" cy="2.5" r="2.5" transform="translate(-1762 8478)"/></g><g transform="translate(1782 -8478)"><circle class="d" cx="2.5" cy="2.5" r="2.5" transform="translate(-1762 8478)"/></g><g transform="translate(1792 -8478)"><circle class="d" cx="2.5" cy="2.5" r="2.5" transform="translate(-1762 8478)"/></g><g transform="translate(1802 -8478)"><circle class="d" cx="2.5" cy="2.5" r="2.5" transform="translate(-1762 8478)"/></g><g transform="translate(1812 -8478)"><circle class="d" cx="2.5" cy="2.5" r="2.5" transform="translate(-1762 8478)"/></g><g transform="translate(1822 -8478)"><circle class="d" cx="2.5" cy="2.5" r="2.5" transform="translate(-1762 8478)"/></g><g transform="translate(1832 -8478)"><circle class="d" cx="2.5" cy="2.5" r="2.5" transform="translate(-1762 8478)"/></g><g transform="translate(1762 -8468)"><circle class="d" cx="2.5" cy="2.5" r="2.5" transform="translate(-1762 8478)"/></g><g transform="translate(1772 -8468)"><circle class="d" cx="2.5" cy="2.5" r="2.5" transform="translate(-1762 8478)"/></g><g transform="translate(1782 -8468)"><circle class="d" cx="2.5" cy="2.5" r="2.5" transform="translate(-1762 8478)"/></g><g transform="translate(1792 -8468)"><circle class="d" cx="2.5" cy="2.5" r="2.5" transform="translate(-1762 8478)"/></g><g transform="translate(1802 -8468)"><circle class="d" cx="2.5" cy="2.5" r="2.5" transform="translate(-1762 8478)"/></g><g transform="translate(1812 -8468)"><circle class="d" cx="2.5" cy="2.5" r="2.5" transform="translate(-1762 8478)"/></g><g transform="translate(1822 -8468)"><circle class="d" cx="2.5" cy="2.5" r="2.5" transform="translate(-1762 8478)"/></g><g transform="translate(1832 -8468)"><circle class="d" cx="2.5" cy="2.5" r="2.5" transform="translate(-1762 8478)"/></g><g transform="translate(1762 -8458)"><circle class="d" cx="2.5" cy="2.5" r="2.5" transform="translate(-1762 8478)"/></g><g transform="translate(1772 -8458)"><circle class="d" cx="2.5" cy="2.5" r="2.5" transform="translate(-1762 8478)"/></g><g transform="translate(1782 -8458)"><circle class="d" cx="2.5" cy="2.5" r="2.5" transform="translate(-1762 8478)"/></g><g transform="translate(1792 -8458)"><circle class="d" cx="2.5" cy="2.5" r="2.5" transform="translate(-1762 8478)"/></g><g transform="translate(1802 -8458)"><circle class="d" cx="2.5" cy="2.5" r="2.5" transform="translate(-1762 8478)"/></g><g transform="translate(1812 -8458)"><circle class="d" cx="2.5" cy="2.5" r="2.5" transform="translate(-1762 8478)"/></g><g transform="translate(1822 -8458)"><circle class="d" cx="2.5" cy="2.5" r="2.5" transform="translate(-1762 8478)"/></g><g transform="translate(1832 -8458)"><circle class="d" cx="2.5" cy="2.5" r="2.5" transform="translate(-1762 8478)"/></g><g transform="translate(1762 -8448)"><circle class="d" cx="2.5" cy="2.5" r="2.5" transform="translate(-1762 8478)"/></g><g transform="translate(1772 -8448)"><circle class="d" cx="2.5" cy="2.5" r="2.5" transform="translate(-1762 8478)"/></g><g transform="translate(1782 -8448)"><circle class="d" cx="2.5" cy="2.5" r="2.5" transform="translate(-1762 8478)"/></g><g transform="translate(1792 -8448)"><circle class="d" cx="2.5" cy="2.5" r="2.5" transform="translate(-1762 8478)"/></g><g transform="translate(1802 -8448)"><circle class="d" cx="2.5" cy="2.5" r="2.5" transform="translate(-1762 8478)"/></g><g transform="translate(1812 -8448)"><circle class="d" cx="2.5" cy="2.5" r="2.5" transform="translate(-1762 8478)"/></g><g transform="translate(1822 -8448)"><circle class="d" cx="2.5" cy="2.5" r="2.5" transform="translate(-1762 8478)"/></g><g transform="translate(1832 -8448)"><circle class="d" cx="2.5" cy="2.5" r="2.5" transform="translate(-1762 8478)"/></g><g transform="translate(1762 -8438)"><circle class="d" cx="2.5" cy="2.5" r="2.5" transform="translate(-1762 8478)"/></g><g transform="translate(1772 -8438)"><circle class="d" cx="2.5" cy="2.5" r="2.5" transform="translate(-1762 8478)"/></g><g transform="translate(1782 -8438)"><circle class="d" cx="2.5" cy="2.5" r="2.5" transform="translate(-1762 8478)"/></g><g transform="translate(1792 -8438)"><circle class="d" cx="2.5" cy="2.5" r="2.5" transform="translate(-1762 8478)"/></g><g transform="translate(1802 -8438)"><circle class="d" cx="2.5" cy="2.5" r="2.5" transform="translate(-1762 8478)"/></g><g transform="translate(1812 -8438)"><circle class="d" cx="2.5" cy="2.5" r="2.5" transform="translate(-1762 8478)"/></g><g transform="translate(1822 -8438)"><circle class="d" cx="2.5" cy="2.5" r="2.5" transform="translate(-1762 8478)"/></g><g transform="translate(1832 -8438)"><circle class="d" cx="2.5" cy="2.5" r="2.5" transform="translate(-1762 8478)"/></g><g transform="translate(1762 -8428)"><circle class="d" cx="2.5" cy="2.5" r="2.5" transform="translate(-1762 8478)"/></g><g transform="translate(1772 -8428)"><circle class="d" cx="2.5" cy="2.5" r="2.5" transform="translate(-1762 8478)"/></g><g transform="translate(1782 -8428)"><circle class="d" cx="2.5" cy="2.5" r="2.5" transform="translate(-1762 8478)"/></g><g transform="translate(1792 -8428)"><circle class="d" cx="2.5" cy="2.5" r="2.5" transform="translate(-1762 8478)"/></g><g transform="translate(1802 -8428)"><circle class="d" cx="2.5" cy="2.5" r="2.5" transform="translate(-1762 8478)"/></g><g transform="translate(1812 -8428)"><circle class="d" cx="2.5" cy="2.5" r="2.5" transform="translate(-1762 8478)"/></g><g transform="translate(1822 -8428)"><circle class="d" cx="2.5" cy="2.5" r="2.5" transform="translate(-1762 8478)"/></g><g transform="translate(1832 -8428)"><circle class="d" cx="2.5" cy="2.5" r="2.5" transform="translate(-1762 8478)"/></g><g transform="translate(1762 -8418)"><circle class="d" cx="2.5" cy="2.5" r="2.5" transform="translate(-1762 8478)"/></g><g transform="translate(1772 -8418)"><circle class="d" cx="2.5" cy="2.5" r="2.5" transform="translate(-1762 8478)"/></g><g transform="translate(1782 -8418)"><circle class="d" cx="2.5" cy="2.5" r="2.5" transform="translate(-1762 8478)"/></g><g transform="translate(1792 -8418)"><circle class="d" cx="2.5" cy="2.5" r="2.5" transform="translate(-1762 8478)"/></g><g transform="translate(1802 -8418)"><circle class="d" cx="2.5" cy="2.5" r="2.5" transform="translate(-1762 8478)"/></g><g transform="translate(1812 -8418)"><circle class="d" cx="2.5" cy="2.5" r="2.5" transform="translate(-1762 8478)"/></g><g transform="translate(1822 -8418)"><circle class="d" cx="2.5" cy="2.5" r="2.5" transform="translate(-1762 8478)"/></g><g transform="translate(1832 -8418)"><circle class="d" cx="2.5" cy="2.5" r="2.5" transform="translate(-1762 8478)"/></g><g transform="translate(1762 -8408)"><circle class="d" cx="2.5" cy="2.5" r="2.5" transform="translate(-1762 8478)"/></g><g transform="translate(1772 -8408)"><circle class="d" cx="2.5" cy="2.5" r="2.5" transform="translate(-1762 8478)"/></g><g transform="translate(1782 -8408)"><circle class="d" cx="2.5" cy="2.5" r="2.5" transform="translate(-1762 8478)"/></g><g transform="translate(1792 -8408)"><circle class="d" cx="2.5" cy="2.5" r="2.5" transform="translate(-1762 8478)"/></g><g transform="translate(1802 -8408)"><circle class="d" cx="2.5" cy="2.5" r="2.5" transform="translate(-1762 8478)"/></g><g transform="translate(1812 -8408)"><circle class="d" cx="2.5" cy="2.5" r="2.5" transform="translate(-1762 8478)"/></g><g transform="translate(1822 -8408)"><circle class="d" cx="2.5" cy="2.5" r="2.5" transform="translate(-1762 8478)"/></g><g transform="translate(1832 -8408)"><circle class="d" cx="2.5" cy="2.5" r="2.5" transform="translate(-1762 8478)"/></g></g><g class="e" transform="translate(-1726 8542)"><g transform="translate(1762 -8478)"><circle class="d" cx="2.5" cy="2.5" r="2.5" transform="translate(-1762 8478)"/></g><g transform="translate(1772 -8478)"><circle class="d" cx="2.5" cy="2.5" r="2.5" transform="translate(-1762 8478)"/></g><g transform="translate(1782 -8478)"><circle class="d" cx="2.5" cy="2.5" r="2.5" transform="translate(-1762 8478)"/></g><g transform="translate(1792 -8478)"><circle class="d" cx="2.5" cy="2.5" r="2.5" transform="translate(-1762 8478)"/></g><g transform="translate(1802 -8478)"><circle class="d" cx="2.5" cy="2.5" r="2.5" transform="translate(-1762 8478)"/></g><g transform="translate(1812 -8478)"><circle class="d" cx="2.5" cy="2.5" r="2.5" transform="translate(-1762 8478)"/></g><g transform="translate(1822 -8478)"><circle class="d" cx="2.5" cy="2.5" r="2.5" transform="translate(-1762 8478)"/></g><g transform="translate(1832 -8478)"><circle class="d" cx="2.5" cy="2.5" r="2.5" transform="translate(-1762 8478)"/></g><g transform="translate(1762 -8468)"><circle class="d" cx="2.5" cy="2.5" r="2.5" transform="translate(-1762 8478)"/></g><g transform="translate(1772 -8468)"><circle class="d" cx="2.5" cy="2.5" r="2.5" transform="translate(-1762 8478)"/></g><g transform="translate(1782 -8468)"><circle class="d" cx="2.5" cy="2.5" r="2.5" transform="translate(-1762 8478)"/></g><g transform="translate(1792 -8468)"><circle class="d" cx="2.5" cy="2.5" r="2.5" transform="translate(-1762 8478)"/></g><g transform="translate(1802 -8468)"><circle class="d" cx="2.5" cy="2.5" r="2.5" transform="translate(-1762 8478)"/></g><g transform="translate(1812 -8468)"><circle class="d" cx="2.5" cy="2.5" r="2.5" transform="translate(-1762 8478)"/></g><g transform="translate(1822 -8468)"><circle class="d" cx="2.5" cy="2.5" r="2.5" transform="translate(-1762 8478)"/></g><g transform="translate(1832 -8468)"><circle class="d" cx="2.5" cy="2.5" r="2.5" transform="translate(-1762 8478)"/></g><g transform="translate(1762 -8458)"><circle class="d" cx="2.5" cy="2.5" r="2.5" transform="translate(-1762 8478)"/></g><g transform="translate(1772 -8458)"><circle class="d" cx="2.5" cy="2.5" r="2.5" transform="translate(-1762 8478)"/></g><g transform="translate(1782 -8458)"><circle class="d" cx="2.5" cy="2.5" r="2.5" transform="translate(-1762 8478)"/></g><g transform="translate(1792 -8458)"><circle class="d" cx="2.5" cy="2.5" r="2.5" transform="translate(-1762 8478)"/></g><g transform="translate(1802 -8458)"><circle class="d" cx="2.5" cy="2.5" r="2.5" transform="translate(-1762 8478)"/></g><g transform="translate(1812 -8458)"><circle class="d" cx="2.5" cy="2.5" r="2.5" transform="translate(-1762 8478)"/></g><g transform="translate(1822 -8458)"><circle class="d" cx="2.5" cy="2.5" r="2.5" transform="translate(-1762 8478)"/></g><g transform="translate(1832 -8458)"><circle class="d" cx="2.5" cy="2.5" r="2.5" transform="translate(-1762 8478)"/></g><g transform="translate(1762 -8448)"><circle class="d" cx="2.5" cy="2.5" r="2.5" transform="translate(-1762 8478)"/></g><g transform="translate(1772 -8448)"><circle class="d" cx="2.5" cy="2.5" r="2.5" transform="translate(-1762 8478)"/></g><g transform="translate(1782 -8448)"><circle class="d" cx="2.5" cy="2.5" r="2.5" transform="translate(-1762 8478)"/></g><g transform="translate(1792 -8448)"><circle class="d" cx="2.5" cy="2.5" r="2.5" transform="translate(-1762 8478)"/></g><g transform="translate(1802 -8448)"><circle class="d" cx="2.5" cy="2.5" r="2.5" transform="translate(-1762 8478)"/></g><g transform="translate(1812 -8448)"><circle class="d" cx="2.5" cy="2.5" r="2.5" transform="translate(-1762 8478)"/></g><g transform="translate(1822 -8448)"><circle class="d" cx="2.5" cy="2.5" r="2.5" transform="translate(-1762 8478)"/></g><g transform="translate(1832 -8448)"><circle class="d" cx="2.5" cy="2.5" r="2.5" transform="translate(-1762 8478)"/></g></g></g></svg>