<svg xmlns="http://www.w3.org/2000/svg" xmlns:xlink="http://www.w3.org/1999/xlink" width="50" height="50" viewBox="0 0 50 50"><defs><style>.a{fill:url(#a);}.b{fill:none;}.c{fill:#fefefe;}</style><linearGradient id="a" x1="0.085" y1="0.807" x2="0.92" y2="0.273" gradientUnits="objectBoundingBox"><stop offset="0" stop-color="#fd5b1f"/><stop offset="0" stop-color="#178cfc"/><stop offset="1" stop-color="#21c6fd"/></linearGradient></defs><g transform="translate(-828 -217)"><circle class="a" cx="25" cy="25" r="25" transform="translate(828 217)"/><g transform="translate(837.937 226.937)"><rect class="b" width="30" height="30" transform="translate(0.063 0.063)"/><path class="c" d="M14.421,10.558l1.168,3.863h3.5l-2.82,2.012,1.155,3.739-3.006-2.285-3.006,2.285,1.155-3.739-2.82-2.012h3.5l1.168-3.863m0-8.558-3.006,9.937H2l7.664,5.478L6.757,26.842l7.664-5.825L22.1,26.842l-2.919-9.427,7.664-5.478H17.427L14.421,2Z" transform="translate(0.484 0.484)"/></g></g></svg>