<svg xmlns="http://www.w3.org/2000/svg" xmlns:xlink="http://www.w3.org/1999/xlink" width="50" height="50" viewBox="0 0 50 50"><defs><style>.a{fill:url(#a);}.b{fill:none;}.c{fill:#fefefe;}</style><linearGradient id="a" x1="0.085" y1="0.807" x2="0.92" y2="0.273" gradientUnits="objectBoundingBox"><stop offset="0" stop-color="#fd5b1f"/><stop offset="1" stop-color="#fd9d27"/></linearGradient></defs><g transform="translate(-125 -217)"><circle class="a" cx="25" cy="25" r="25" transform="translate(125 217)"/><g transform="translate(134.564 226.564)"><g transform="translate(0 0)"><rect class="b" width="29" height="29" transform="translate(0.436 0.436)"/></g><g transform="translate(6.562 4.084)"><path class="c" d="M13.686,3a8.333,8.333,0,0,0-1.737.174A8.675,8.675,0,0,0,7.9,18.162a2.413,2.413,0,0,1,.819,1.824v2.866A2.489,2.489,0,0,0,11.2,25.334h.347a2.456,2.456,0,0,0,4.268,0h.347a2.489,2.489,0,0,0,2.482-2.482V19.986a2.406,2.406,0,0,1,.794-1.812A8.676,8.676,0,0,0,13.686,3Zm2.482,17.371H11.2V19.13h4.963ZM11.2,22.852V21.612h4.963v1.241Zm6.588-6.526c-.112.1-.2.223-.3.323H9.865a3.827,3.827,0,0,0-.3-.335A6.2,6.2,0,1,1,19.89,11.685,6.169,6.169,0,0,1,17.793,16.326Z" transform="translate(-4.997 -3)"/><g transform="translate(5.801 7.288)"><rect class="c" width="1.241" height="3.722" transform="translate(2.268 2.638)"/><rect class="c" width="1.241" height="3.722" transform="translate(0 0.877) rotate(-45)"/><rect class="c" width="1.241" height="3.722" transform="translate(3.146 3.522) rotate(-135)"/></g></g></g></g></svg>