<svg xmlns="http://www.w3.org/2000/svg" xmlns:xlink="http://www.w3.org/1999/xlink" width="50" height="50" viewBox="0 0 50 50"><defs><style>.a{fill:url(#a);}.b{fill:#fefefe;}</style><linearGradient id="a" x1="0.085" y1="0.807" x2="0.92" y2="0.273" gradientUnits="objectBoundingBox"><stop offset="0" stop-color="#fd5b1f"/><stop offset="0.03" stop-color="#e90b18"/><stop offset="1" stop-color="#ff8189"/></linearGradient></defs><g transform="translate(-1180 -217)"><circle class="a" cx="25" cy="25" r="25" transform="translate(1180 217)"/><path class="b" d="M12.114,2.572a8.072,8.072,0,0,1,3.022,6.666c-.027,2.612-.864,5.863-1.832,9.626l-.09.352H11c-1.051-3.844-1.93-7.178-1.93-9.92a8.425,8.425,0,0,1,3.046-6.724ZM12.1,0C8.574,2.531,7.045,5.55,7.045,9.3c0,3.378,1.159,7.358,2.407,11.943h5.333c1.194-4.721,2.338-8.674,2.374-11.979C17.2,5.487,15.7,2.546,12.1,0Zm8.724,20.984L18.15,16.145c-.17.72-.345,1.426-.533,2.171L19.4,21.54,17.163,20.1l-.4,1.549,4.078,2.624a8.359,8.359,0,0,0,.361-1.814,3.05,3.05,0,0,0-.378-1.475ZM3,22.458a8.361,8.361,0,0,0,.385,1.814l4.077-2.624-.4-1.549L4.828,21.54l1.783-3.223c-.189-.745-.363-1.451-.533-2.171L3.4,20.984A3.075,3.075,0,0,0,3,22.458Zm10.566,1.814H10.638L10.08,22.25h4.045l-.559,2.023Zm.511-16.079a25.722,25.722,0,0,1-3.928,0,3.727,3.727,0,0,0-.045,1.82,15.635,15.635,0,0,0,2,.123,15.528,15.528,0,0,0,1.987-.122,3.876,3.876,0,0,0-.012-1.823Z" transform="translate(1193 230)"/></g></svg>