<svg xmlns="http://www.w3.org/2000/svg" xmlns:xlink="http://www.w3.org/1999/xlink" width="50" height="50" viewBox="0 0 50 50"><defs><style>.a{fill:url(#a);}.b{fill:none;}.c{fill:#fff;}</style><linearGradient id="a" x1="0.085" y1="0.807" x2="0.92" y2="0.273" gradientUnits="objectBoundingBox"><stop offset="0" stop-color="#1dc235"/><stop offset="1" stop-color="#24e475"/></linearGradient></defs><g transform="translate(-477 -217)"><circle class="a" cx="25" cy="25" r="25" transform="translate(477 217)"/><g transform="translate(487 227)"><path class="b" d="M0,0H29.629V29.629H0Z"/><path class="c" d="M19.9,3a7.393,7.393,0,0,0-5.556,2.58A7.393,7.393,0,0,0,8.79,3,6.724,6.724,0,0,0,2,9.79c0,4.667,4.2,8.469,10.555,14.247l1.79,1.617,1.79-1.63c6.358-5.765,10.555-9.568,10.555-14.234A6.724,6.724,0,0,0,19.9,3ZM14.469,22.2l-.123.123-.123-.123C8.346,16.876,4.469,13.358,4.469,9.79A4.219,4.219,0,0,1,8.79,5.469,4.826,4.826,0,0,1,13.2,8.383h2.309a4.8,4.8,0,0,1,4.4-2.914A4.219,4.219,0,0,1,24.222,9.79C24.222,13.358,20.346,16.876,14.469,22.2Z" transform="translate(0.469 0.704)"/></g></g></svg>