<svg xmlns="http://www.w3.org/2000/svg" width="338.862" height="286.011" viewBox="0 0 338.862 286.011">
  <g id="teamwork-header" transform="translate(-53.759 -26.536)">
    <path id="Path_8029" data-name="Path 8029" d="M151.1,169.579l-3.927,3.476L133.216,156.3l-4.506,4.635s11.583,24.252,19.8,24.808a10.424,10.424,0,0,0,10.738-6.222Z" transform="translate(146.559 20.596)" fill="#fff"/>
    <path id="Path_8030" data-name="Path 8030" d="M149.519,186.376a11.016,11.016,0,0,0,10.344-6.639.556.556,0,0,0-.1-.568l-8.108-9.884a.6.6,0,0,0-.405-.209.567.567,0,0,0-.429.139l-3.475,3.059-13.61-16.245a.544.544,0,0,0-.417-.209.579.579,0,0,0-.44.174l-4.506,4.635a.6.6,0,0,0-.1.66c.475,1,11.8,24.565,20.282,25.133Zm9.128-6.744a9.787,9.787,0,0,1-10.02,5.55c-7.286-.487-17.665-21.112-19.147-24.113l3.776-3.882L146.8,173.409a.556.556,0,0,0,.405.209.579.579,0,0,0,.429-.139l3.475-3.047Z" transform="translate(146.484 20.52)" fill="#231f20"/>
    <path id="Path_8031" data-name="Path 8031" d="M125.885,253.91s2.224,6.28,2.027,7.821-7.691,9.432-9.776,9.42-8.108-.533-8.479-1.854,5.282-2.445,6.128-2.932.88-4.635.88-4.635Z" transform="translate(199.969 36.089)" fill="#fff"/>
    <path id="Path_8032" data-name="Path 8032" d="M118.275,271.814c2.5,0,10.135-8.262,10.356-9.93s-1.83-7.427-2.062-8.111a.6.6,0,0,0-.394-.359.556.556,0,0,0-.533.116l-9.267,7.833a.568.568,0,0,0-.209.429,10.432,10.432,0,0,1-.614,4.148,14.136,14.136,0,0,1-1.494.487c-2.409.73-4.3,1.356-4.784,2.317a1.032,1.032,0,0,0-.093.823c.672,2.12,8.954,2.317,9.035,2.317Zm7.471-16.836c.822,2.422,1.842,5.852,1.726,6.755-.255,1.889-7.911,8.922-9.2,8.922h0c-3.046,0-7.6-.73-7.923-1.448.209-.487,3.035-1.333,4.1-1.645a10.425,10.425,0,0,0,1.749-.6c.938-.533,1.158-3.163,1.158-4.867Z" transform="translate(199.829 36.006)" fill="#231f20"/>
    <path id="Path_8033" data-name="Path 8033" d="M74.651,199.446s-11.676,34-10.008,39.2,14.444,33.1,14.444,33.1l9.267-7.833S81.81,238.982,82.4,234.949s9.846-24.009,9.846-24.009,11.583,27.5,18.788,27.67,31.623,2.6,31.623,2.6l-2.919-10.672s-24.325-5.446-26.086-8.111S106,190.86,106,190.86L76.03,197.071" transform="translate(237.546 26.082)" fill="#231f20"/>
    <path id="Path_8034" data-name="Path 8034" d="M79.165,272.408a.672.672,0,0,0,.382-.139l9.267-7.833a.568.568,0,0,0,.185-.591c-2.247-8.586-6.382-25.631-5.942-28.713.486-3.326,7.321-18.354,9.267-22.7,1.008,2.317,3.359,7.474,6.186,12.63,5.143,9.351,9.383,14.125,12.614,14.206,7.135.162,31.275,2.572,31.576,2.6a.6.6,0,0,0,.51-.2.626.626,0,0,0,.116-.533l-2.9-10.672a.568.568,0,0,0-.429-.406c-9.267-2.086-24.534-6.072-25.738-7.868-1.413-2.086-5.942-23.348-7.564-31.355a.545.545,0,0,0-.243-.371.591.591,0,0,0-.44-.081l-29.978,6.2a.591.591,0,0,0,.232,1.159l29.41-6.083c.985,4.809,5.908,28.667,7.622,31.2s22.391,7.427,26.1,8.273l2.583,9.513c-4.344-.417-24.406-2.317-30.835-2.514-5.641-.139-15.058-19.768-18.267-27.323a.568.568,0,0,0-.521-.348h0a.568.568,0,0,0-.521.336c-.382.811-9.371,20.15-9.962,24.194-.556,3.859,5.05,25.643,5.873,28.817l-8.352,7.1c-1.981-4.345-12.614-27.682-14.109-32.34-1.321-4.125,6.788-29.432,10.02-38.84a.608.608,0,1,0-1.158-.371c-.475,1.39-11.722,34.229-10.02,39.57s13.9,32.015,14.479,33.151a.533.533,0,0,0,.394.324Z" transform="translate(237.468 26.004)" fill="#231f20"/>
    <path id="Path_8035" data-name="Path 8035" d="M93.642,173.274c1.344,3.244,7.842,10.243,7.564,10.568,1.286-1.506,3.116-2.63,4.506-4.125.88-.95,4.935-4.368,4.911-5.6.2,10.428.614,20.672,1.483,31.065,9.267,4.554,33.812-.614,34.136-1.7,1.158-4.032-1.054-11.019-1.506-15.121-.834-7.752-1.228-15.573-2.421-23.267a16.064,16.064,0,0,0-1.969-6.222c-2.4-3.743-8.271-5.145-12.371-3.476-6.2,2.538-14.873-1.24-20.456,2.016a15.559,15.559,0,0,0-3.591,3.279l-5.792,6.535a43.762,43.762,0,0,1-3,3.349c-.463.429-1.494.846-1.68,1.495a2.051,2.051,0,0,0,.185,1.205Z" transform="translate(200.091 20.342)" fill="#0054af"/>
    <path id="Path_8036" data-name="Path 8036" d="M121.576,138.69a4.5,4.5,0,0,0-1.158-.429c-1.541-.382-1.61,0-2.687-1.159a11.512,11.512,0,0,0-6.058-3.244c-4.436-.857-7.969.973-7.576,6.014a14.417,14.417,0,0,0,1.946,5.678c2.073,3.824,5.247,7.451,9.51,8.32,1.263.266,3.672.452,4.738-.463a11.694,11.694,0,0,0,3.765-10.788,6.745,6.745,0,0,0-.88-2.387A4.542,4.542,0,0,0,121.576,138.69Z" transform="translate(210.116 17.002)" fill="#fff"/>
    <path id="Path_8037" data-name="Path 8037" d="M117.765,154.676a4.632,4.632,0,0,0,2.977-.811,12.227,12.227,0,0,0,3.962-11.332,7.058,7.058,0,0,0-.961-2.6,5.051,5.051,0,0,0-1.865-1.692,4.922,4.922,0,0,0-1.239-.487c-.417-.1-.73-.151-1-.2-.625-.1-.741-.127-1.4-.834a11.93,11.93,0,0,0-6.382-3.418c-2.7-.521-5-.081-6.487,1.251a6.224,6.224,0,0,0-1.772,5.376,14.6,14.6,0,0,0,2.016,5.909c1.842,3.383,5.05,7.624,9.9,8.609a11.453,11.453,0,0,0,2.247.22Zm-8.039-20.417a9.386,9.386,0,0,1,1.909.2,10.875,10.875,0,0,1,5.794,3.059,2.884,2.884,0,0,0,2.062,1.159,4.441,4.441,0,0,1,.9.174,3.868,3.868,0,0,1,.973.382h0a3.823,3.823,0,0,1,1.436,1.309,5.923,5.923,0,0,1,.8,2.167,11.08,11.08,0,0,1-3.579,10.255c-.741.626-2.687.649-4.24.324-4.413-.9-7.4-4.867-9.128-8.03a13.688,13.688,0,0,1-1.865-5.446,5.03,5.03,0,0,1,1.378-4.415A5.269,5.269,0,0,1,109.726,134.259Zm11.885,4.519Z" transform="translate(210.081 16.913)" fill="#231f20"/>
    <path id="Path_8038" data-name="Path 8038" d="M112.056,155.579l-.846,6.755a4.969,4.969,0,0,0,5.664,3.349c4.564-.568,5.5-3.673,5.5-3.673l1.378-12.514s-3.081-2.132-1.3-9.165a22.094,22.094,0,0,1-11.711.278s-2.317,7.636-2.317,11.147S112.009,155.521,112.056,155.579Z" transform="translate(205.539 18.061)" fill="#fff"/>
    <path id="Path_8039" data-name="Path 8039" d="M116.059,166.392a9.043,9.043,0,0,0,.938,0c4.877-.6,5.942-3.94,5.989-4.079l1.4-12.63a.6.6,0,0,0-.243-.545s-2.722-2.051-1.077-8.54a.556.556,0,0,0-.174-.568.533.533,0,0,0-.579-.116,21.909,21.909,0,0,1-11.375.255.591.591,0,0,0-.695.394c-.093.324-2.317,7.775-2.317,11.321a4.31,4.31,0,0,0,3.556,4.264l-.788,6.234a.764.764,0,0,0,0,.232,5.583,5.583,0,0,0,5.363,3.777Zm7.089-16.593-1.3,12.236s-.9,2.653-4.992,3.163a4.39,4.39,0,0,1-5-2.839l.834-6.628a.568.568,0,0,0-.162-.475.718.718,0,0,0-.405-.185,3.36,3.36,0,0,1-3.046-3.244c0-2.85,1.61-8.679,2.131-10.428a23.159,23.159,0,0,0,10.518-.127C120.611,146.682,122.465,149.093,123.148,149.8Z" transform="translate(205.485 17.989)" fill="#231f20"/>
    <path id="Path_8040" data-name="Path 8040" d="M106.173,148.082a2.954,2.954,0,0,1,1.158-1.437,5.2,5.2,0,0,1,1.645-.6,2.038,2.038,0,0,1,.95-.058,1.529,1.529,0,0,1,.614.3,2.225,2.225,0,0,1,.938,1.24,2.527,2.527,0,0,1-.093,1.275,5.239,5.239,0,0,1-.486,1.309,3.6,3.6,0,0,1-2.166,1.669,3.543,3.543,0,0,1-2.7-.371" transform="translate(220.55 18.954)" fill="#fff"/>
    <path id="Path_8041" data-name="Path 8041" d="M107.9,152.555a4.053,4.053,0,0,0,1.054-.139,4.135,4.135,0,0,0,2.514-1.935,5.574,5.574,0,0,0,.556-1.46,3.28,3.28,0,0,0,.093-1.553,2.885,2.885,0,0,0-1.158-1.576,2.525,2.525,0,0,0-.811-.394,2.675,2.675,0,0,0-1.158,0,5.64,5.64,0,0,0-1.83.684,3.476,3.476,0,0,0-1.39,1.726.579.579,0,1,0,1.089.394,2.317,2.317,0,0,1,.927-1.159,4.632,4.632,0,0,1,1.46-.521,1.911,1.911,0,0,1,.7-.07,1.343,1.343,0,0,1,.405.209,1.773,1.773,0,0,1,.707.915,2.133,2.133,0,0,1-.081,1,4.636,4.636,0,0,1-.44,1.159,2.99,2.99,0,0,1-4.124,1.089.567.567,0,0,0-.788.209.58.58,0,0,0,.2.788A4.076,4.076,0,0,0,107.9,152.555Z" transform="translate(220.482 18.872)" fill="#231f20"/>
    <path id="Path_8042" data-name="Path 8042" d="M119.581,144.82s-2.838,3.105-2.317,3.789,2.05.521,2.05.521" transform="translate(199.555 18.774)" fill="#fff"/>
    <path id="Path_8043" data-name="Path 8043" d="M118.807,149.812h.5a.583.583,0,0,0-.127-1.159,2.7,2.7,0,0,1-1.46-.2,12.282,12.282,0,0,1,2.317-3.14.591.591,0,0,0,0-.823.567.567,0,0,0-.811,0c-3.139,3.476-2.606,4.241-2.432,4.5a2.548,2.548,0,0,0,2.015.823Zm-1.158-1.309Z" transform="translate(199.576 18.695)" fill="#231f20"/>
    <path id="Path_8113" data-name="Path 8113" d="M.579,1.622c.32,0,.579-.363.579-.811S.9,0,.579,0,0,.363,0,.811.259,1.622.579,1.622Z" transform="translate(321.66 163.93) rotate(-176.31)" fill="#231f20"/>
    <path id="Path_8114" data-name="Path 8114" d="M.579,1.622c.32,0,.579-.363.579-.811S.9,0,.579,0,0,.363,0,.811.259,1.622.579,1.622Z" transform="translate(316.609 163.382) rotate(-168.76)" fill="#231f20"/>
    <path id="Path_8044" data-name="Path 8044" d="M117.686,151.188a5.964,5.964,0,0,0,3.1-.73.591.591,0,0,0,.2-.8.568.568,0,0,0-.8-.185c-1.587.973-4.518.417-5.514.127a.6.6,0,0,0-.324,1.159,13.421,13.421,0,0,0,3.336.429Z" transform="translate(201.878 19.498)" fill="#231f20"/>
    <path id="Path_8045" data-name="Path 8045" d="M113.3,153.49s4.077,1.506,6.73.406c0,0-3.475,5.307-7.309,4.229Z" transform="translate(204.295 20.15)" fill="#231f20"/>
    <path id="Path_8046" data-name="Path 8046" d="M113.874,158.926c3.672,0,6.6-4.426,6.73-4.635a.579.579,0,0,0-.707-.846c-2.409,1-6.267-.394-6.3-.417a.6.6,0,0,0-.51,0,.545.545,0,0,0-.266.417l-.591,4.635a.579.579,0,0,0,.417.637A4.632,4.632,0,0,0,113.874,158.926Zm4.761-4.009c-1.158,1.3-3.116,3.094-5.212,2.827l.429-3.407a12.981,12.981,0,0,0,4.784.579Z" transform="translate(204.207 20.068)" fill="#231f20"/>
    <path id="Path_8047" data-name="Path 8047" d="M54.247,225.167s5.653-.8,7.738-.348,9.452,24.565,6.232,23.615-11.039-12.6-11.039-12.6Z" transform="translate(323.037 31.45)" fill="#fff"/>
    <path id="Path_8048" data-name="Path 8048" d="M68.436,249.127a1,1,0,0,0,.707-.29c1.251-1.228-.139-7.277-1.541-12.132-.568-1.993-3.475-11.958-5.4-12.375-2.166-.475-7.715.313-7.946.348a.591.591,0,0,0-.405.255.568.568,0,0,0-.069.475l2.826,10.66a.6.6,0,0,0,.081.174c.811,1.159,8.016,11.807,11.34,12.827a1.158,1.158,0,0,0,.405.058ZM60.27,225.339a8.384,8.384,0,0,1,1.68.127c1.158.66,4.958,11.437,6.2,18.435.521,2.943.313,3.812.22,4.044-2.525-.9-8.444-9.061-10.61-12.271l-2.687-9.93a44.649,44.649,0,0,1,5.2-.406Z" transform="translate(322.991 31.37)" fill="#231f20"/>
    <path id="Path_8049" data-name="Path 8049" d="M221.252,176.171s-14.108,5.319-15.719,4.577,2.514-19.154,2.514-19.154l-5.479-1.275s-7.008,24.634-3.927,28.829,18.985.232,22.611-4.09S221.252,176.171,221.252,176.171Z" transform="translate(2.841 21.234)" fill="#fff"/>
    <path id="Path_8050" data-name="Path 8050" d="M204.336,191.582c6.232,0,14.873-2.978,17.479-6.083,3.88-4.635,0-9.571,0-9.617a.6.6,0,0,0-.66-.185c-6.568,2.48-13.9,4.843-15.2,4.635-.568-1.286.938-10.336,2.768-18.54a.579.579,0,0,0-.44-.7l-5.479-1.275a.579.579,0,0,0-.683.406c-.73,2.549-6.95,25.028-3.834,29.327.915,1.251,2.745,1.923,5.433,2.016Zm16.819-14.646a6.4,6.4,0,0,1-.232,7.821c-2.467,2.932-11.282,5.794-17.143,5.655-2.317-.081-3.869-.614-4.552-1.541-2.317-3.175,1.877-20.637,3.869-27.809l4.379,1.02c-2.687,12.167-3.382,18.644-2.062,19.258,1.691.707,12.012-2.978,15.788-4.4Z" transform="translate(2.673 21.153)" fill="#231f20"/>
    <path id="Path_8051" data-name="Path 8051" d="M192.851,112.043l-75.118,39.918c21.893,41.239,73.809,57.125,115.034,35.225s57.106-73.845,35.213-115.073S194.148,14.989,152.935,36.888A85.081,85.081,0,0,0,119.493,68.95Z" transform="translate(40.695 0.081)" fill="#fff"/>
    <path id="Path_8052" data-name="Path 8052" d="M193.4,197.73A85.585,85.585,0,1,0,119.139,68.788a.568.568,0,0,0,.208.788l72.465,42.56-74.215,39.4a.591.591,0,0,0-.243.788,84.993,84.993,0,0,0,50.619,41.61A86.548,86.548,0,0,0,193.4,197.73Zm-.822-170.054a85.413,85.413,0,0,1,25.09,3.789,84.348,84.348,0,1,1-99.015,120.82l74.62-39.651a.568.568,0,0,0,.3-.5.6.6,0,0,0-.29-.521L120.425,68.788A84.4,84.4,0,0,1,153.357,37.5a83.378,83.378,0,0,1,39.221-9.826Z" transform="translate(40.551 0)" fill="#231f20"/>
    <path id="Path_8053" data-name="Path 8053" d="M100.391,158.652c1.494,1.7,7.749,6.674,7.749,6.674s11.016,21.193,16.217,21.193,30.534-14.067,30.534-14.067,2.849-2.688,0-7.59-27.105,9.838-27.105,9.838l-14.155-14.194s-1.251-3.777-1.494-5.214-.069-4.635-1.575-4.206-.521,5.179-.521,5.179-5.05-6.153-6.788-4.183S98.92,156.949,100.391,158.652Z" transform="translate(182.951 19.762)" fill="#fff"/>
    <path id="Path_8054" data-name="Path 8054" d="M124.47,187.171c5.259,0,29.769-13.569,30.812-14.136l.116-.093c.127-.116,3.151-3.059.1-8.3a2.5,2.5,0,0,0-1.633-1.159c-5.572-1.425-22.97,8.795-25.889,10.544l-13.738-13.7c-.208-.684-1.216-3.777-1.413-5.006,0-.3-.081-.672-.116-1.078-.116-1.39-.232-2.827-1.054-3.418a1.355,1.355,0,0,0-1.158-.185c-1.274.336-1.378,2.317-1.239,3.916-1.344-1.4-3.475-3.291-5-3.326a1.818,1.818,0,0,0-1.355.591l-.162.174c-1.865,2.167-4.436,5.122-2.687,7.161h0a100.784,100.784,0,0,0,7.715,6.663C109.2,168.446,119.177,187.171,124.47,187.171Zm30.175-15.063c-8.745,4.843-26.213,13.9-30.175,13.9s-12.661-15.063-15.684-20.857a.486.486,0,0,0-.151-.185,95.718,95.718,0,0,1-7.668-6.593c-1.1-1.286,1.158-3.9,2.687-5.643l.151-.174a.533.533,0,0,1,.463-.2c1.378,0,4.066,2.688,5.433,4.368a.591.591,0,0,0,.7.151.579.579,0,0,0,.324-.637c-.452-2.19-.394-4.38.1-4.507h.162c.382.266.5,1.7.568,2.572a7.866,7.866,0,0,0,.127,1.159c.243,1.46,1.46,5.156,1.506,5.307a.951.951,0,0,0,.139.232l14.155,14.183a.591.591,0,0,0,.718.081c5.514-3.349,20.85-11.819,25.379-10.637a1.332,1.332,0,0,1,.915.6c2.409,4.125.486,6.454.151,6.825ZM100.527,158.77Z" transform="translate(182.815 19.69)" fill="#231f20"/>
    <path id="Path_8055" data-name="Path 8055" d="M97.905,166.6l7.448,12.746s13.3-5.261,14.56-10-1.158-12.6-4.251-11.761S97.905,166.6,97.905,166.6Z" transform="translate(221.23 20.791)" fill="#0054af"/>
    <path id="Path_8056" data-name="Path 8056" d="M277.2,164.382l11.5-3.036,3.475-22.838,8.884-3.708s-1.158,30.069-5.189,32.7c-7.83,5.191-21.545,6.952-21.545,6.952Z" transform="translate(-163.938 17.184)" fill="#fff"/>
    <path id="Path_8057" data-name="Path 8057" d="M274.433,175.166h.081c.568-.081,13.9-1.889,21.788-7.091,4.112-2.723,5.317-30.046,5.444-33.163a.614.614,0,0,0-.255-.5.625.625,0,0,0-.556-.058l-8.873,3.708a.545.545,0,0,0-.347.44L288.31,160.96,277.19,163.9a.556.556,0,0,0-.405.394l-2.907,10.139a.6.6,0,0,0,.127.533.556.556,0,0,0,.429.2Zm26.109-39.4c-.521,11.97-2.2,29.559-4.877,31.285-6.5,4.3-17.282,6.269-20.421,6.767l2.56-8.945,11.166-2.955a.568.568,0,0,0,.429-.463l3.406-22.514Z" transform="translate(-164.076 17.107)" fill="#231f20"/>
    <path id="Path_8058" data-name="Path 8058" d="M343.96,264.283c-.22.626-2.317,4.148-1.853,4.832s7.135,4.948,5.155,5.585-13.367-.9-13.367-.9l6.892-18.076Z" transform="translate(-279.496 36.376)" fill="#fff"/>
    <path id="Path_8059" data-name="Path 8059" d="M345.619,275.508a7.308,7.308,0,0,0,1.958-.174,1.008,1.008,0,0,0,.753-.788c.174-1-1.158-2.19-4.158-4.507a16.686,16.686,0,0,1-1.448-1.159,17,17,0,0,1,1.4-3.233,10.237,10.237,0,0,0,.521-1.089.58.58,0,0,0,0-.394l-3.185-8.551a.556.556,0,0,0-.533-.382h0a.579.579,0,0,0-.544.371l-6.95,18.076a.591.591,0,0,0,.463.788C334.9,274.581,341.854,275.508,345.619,275.508Zm1.529-1.263c-1.575.359-7.911-.278-12.313-.846l6.081-15.956,2.56,6.952-.382.765c-1.263,2.5-1.761,3.719-1.344,4.392a8.76,8.76,0,0,0,1.726,1.46A19.474,19.474,0,0,1,347.148,274.245Z" transform="translate(-279.638 36.298)" fill="#231f20"/>
    <path id="Path_8060" data-name="Path 8060" d="M301.125,260.09s-3.95,11.379-3.278,11.645,17.375,4.113,16.645,3.094-8.514-5.087-8.606-4.635,1.054-5.527,1.054-5.527Z" transform="translate(-204.541 37.07)" fill="#fff"/>
    <path id="Path_8061" data-name="Path 8061" d="M314.057,275.562c.51,0,.857-.058.961-.2a.719.719,0,0,0,0-.788c-.591-.834-6.267-4.067-8.444-4.762.208-.846.5-2.317.985-4.925a.568.568,0,0,0-.208-.568l-5.792-4.635a.6.6,0,0,0-.521-.1.579.579,0,0,0-.382.371c-4.135,11.888-3.533,12.132-2.954,12.364C297.817,272.41,310.373,275.562,314.057,275.562Zm-7.888-4.693a47.641,47.641,0,0,1,6.8,3.534c-3.568-.5-12.6-2.48-14.549-3.036a86.631,86.631,0,0,1,3.046-10.231l4.9,3.882c-.209,1.159-.892,4.728-.973,5.145h0a.614.614,0,0,0,.463.707.369.369,0,0,0,.347,0Zm.255-.463h.093a.533.533,0,0,1-.255.359,1.438,1.438,0,0,0,.162-.359Z" transform="translate(-204.603 36.986)" fill="#231f20"/>
    <path id="Path_8062" data-name="Path 8062" d="M339.88,203.009s11.676,24.148,11.827,31.8-9.857,39.814-9.857,39.814l-10.17-1.692s7.587-32.143,6.44-35.5-9.915-24.982-9.915-24.982-3.475,18.54-5.9,25.364-17.943,36.117-17.943,36.117l-10.657-2.051s14.12-32.757,14.641-38.412,3.3-35.92,3.3-35.92Z" transform="translate(-237.029 27.142)" fill="#231f20"/>
    <path id="Path_8063" data-name="Path 8063" d="M341.938,275.271a.579.579,0,0,0,.556-.406c.405-1.321,10.02-32.34,9.88-40s-11.41-31.042-11.884-32.039a.579.579,0,0,0-.417-.313l-28.217-5.423a.566.566,0,0,0-.683.51l-3.3,35.92c-.51,5.5-14.468,37.913-14.607,38.238a.58.58,0,0,0,0,.5.6.6,0,0,0,.394.3l10.691,2.063a.579.579,0,0,0,.625-.3c.626-1.159,15.522-29.385,17.966-36.187,1.992-5.562,4.633-18.54,5.56-23.51,2.131,5.284,8.213,20.382,9.139,23.174.811,2.317-3.417,22.329-6.452,35.19a.579.579,0,0,0,.081.452.591.591,0,0,0,.394.243l10.182,1.692Zm-2.317-71.678c1.251,2.63,11.5,24.333,11.641,31.285s-8.433,35.109-9.684,39.153l-9.07-1.506c1.239-5.3,7.4-31.969,6.278-35.237s-9.556-24.113-9.9-25.005a.579.579,0,0,0-.6-.348.568.568,0,0,0-.51.464c0,.185-3.475,18.54-5.873,25.283-2.317,6.292-15.881,32.2-17.711,35.654l-9.533-1.842c2.062-4.8,13.9-32.618,14.41-37.925s2.838-30.845,3.243-35.237Z" transform="translate(-237.118 27.069)" fill="#231f20"/>
    <path id="Path_8064" data-name="Path 8064" d="M285.9,166.535l27.163-10.255-.869,14.368L290.626,180.2Z" transform="translate(-189.339 20.593)" fill="#0054af"/>
    <path id="Path_8065" data-name="Path 8065" d="M332.671,167.458c-.811-1.159-17.584-4.959-22.657-.753s-8.479,33.927-9.267,43.1L333.76,212.2S337.154,173.564,332.671,167.458Z" transform="translate(-228.465 21.941)" fill="#0054af"/>
    <path id="Path_8066" data-name="Path 8066" d="M300.675,208.115a.579.579,0,0,0,.568-.533c.093-1.1,2.085-26.963.614-33.36a.579.579,0,0,0-.695-.44.568.568,0,0,0-.429.7c1.425,6.222-.626,32.745-.637,33.012a.579.579,0,0,0,.533.626Z" transform="translate(-195.114 23.369)" fill="#231f20"/>
    <path id="Path_8067" data-name="Path 8067" d="M319.619,165.494a9.461,9.461,0,0,1-5.085.243,3.811,3.811,0,0,1-2-1.1,1.785,1.785,0,0,1-.208-2.144,2.664,2.664,0,0,1-2.178-1.159,4.7,4.7,0,0,1-.846-2.375,3.245,3.245,0,0,1,.961-3.013c-.811-.475-1.7-1.078-1.853-2a2.99,2.99,0,0,1,.185-1.39,14.866,14.866,0,0,1,1.158-2.572c.232-.429.591-.915,1.089-.892A4.833,4.833,0,0,1,312,144.127a3.961,3.961,0,0,1,2.317-1.159,15.584,15.584,0,0,1,2.792.336,4.864,4.864,0,0,1,4.054-1.622A3.36,3.36,0,0,1,323.65,144a7.3,7.3,0,0,1,3.116.417,3.591,3.591,0,0,1,2.131,2.19,2.387,2.387,0,0,1-1.054,2.735,2.526,2.526,0,0,1,1.969,2.711,3.093,3.093,0,0,1-2.317,2.572.95.95,0,0,0-.475.185,1.275,1.275,0,0,0-.267.579c-.22.649-.846.9-1.158,1.448a17.28,17.28,0,0,0-.973,2.549,23.357,23.357,0,0,1-1.1,2.387,15.066,15.066,0,0,1-1.332,2.665c-.556.672-1.158.626-1.934.869Z" transform="translate(-232.15 18.273)" fill="#fff"/>
    <path id="Path_8068" data-name="Path 8068" d="M316.654,166.636a12.055,12.055,0,0,0,3.255-.51h0l.614-.174c.174-.058.348-.093.5-.127a2.757,2.757,0,0,0,1.7-.939,7.382,7.382,0,0,0,1.019-1.877,7.554,7.554,0,0,1,.394-.881c.359-.718.788-1.576,1.158-2.445.1-.267.2-.568.29-.869a8.392,8.392,0,0,1,.637-1.587,2.238,2.238,0,0,1,.429-.463,2.746,2.746,0,0,0,.8-1.1v-.139a.926.926,0,0,1,.07-.2h.162a3.7,3.7,0,0,0,2.815-3.094,3.175,3.175,0,0,0-1.46-2.955,3.1,3.1,0,0,0,.521-2.7,4.171,4.171,0,0,0-2.467-2.584,7.434,7.434,0,0,0-2.942-.463,3.962,3.962,0,0,0-2.768-2.317,5.432,5.432,0,0,0-4.367,1.553,15.881,15.881,0,0,0-2.676-.278,4.633,4.633,0,0,0-2.653,1.356,5.412,5.412,0,0,0-1.494,4.971,2.561,2.561,0,0,0-.88,1.008,16.37,16.37,0,0,0-1.158,2.665,3.477,3.477,0,0,0-.22,1.669,3.209,3.209,0,0,0,1.517,2.028,4.242,4.242,0,0,0-.626,2.955,5.273,5.273,0,0,0,.961,2.665,3.475,3.475,0,0,0,1.819,1.251,2.573,2.573,0,0,0,.591,2.039,4.262,4.262,0,0,0,2.317,1.275,8.407,8.407,0,0,0,2.143.266Zm2.942-1.622a9.1,9.1,0,0,1-4.8.232,3.2,3.2,0,0,1-1.7-.9,1.24,1.24,0,0,1-.185-1.425.568.568,0,0,0,0-.614.51.51,0,0,0-.533-.3,2.189,2.189,0,0,1-1.691-.9,4.092,4.092,0,0,1-.741-2.086c0-.417-.116-1.842.741-2.468a.591.591,0,0,0,.232-.5.579.579,0,0,0-.278-.475c-.707-.417-1.471-.927-1.587-1.611a2.422,2.422,0,0,1,.174-1.159,14.969,14.969,0,0,1,1.066-2.468c.243-.44.405-.579.556-.591a.51.51,0,0,0,.487-.243.568.568,0,0,0,.081-.545,4.254,4.254,0,0,1,1.042-4.345,3.475,3.475,0,0,1,2-1.02c.266,0,2.015.185,2.432.278a.556.556,0,0,0,.718-.139h0a4.355,4.355,0,0,1,3.475-1.425,2.757,2.757,0,0,1,2.05,1.9.568.568,0,0,0,.579.417,6.577,6.577,0,0,1,2.873.371,2.966,2.966,0,0,1,1.784,1.819,1.808,1.808,0,0,1-.753,2.063.579.579,0,0,0,.174,1.078,1.97,1.97,0,0,1,1.483,2.086,2.5,2.5,0,0,1-1.888,2.063,1.656,1.656,0,0,0-.718.324,1.6,1.6,0,0,0-.394.718,1.506,1.506,0,0,1-.521.718,3.558,3.558,0,0,0-.637.718,9.461,9.461,0,0,0-.741,1.831c-.093.29-.174.556-.278.811a22.773,22.773,0,0,1-1.066,2.317c-.162.313-.3.637-.44.973a6.232,6.232,0,0,1-.834,1.587,1.575,1.575,0,0,1-1.066.533l-.591.151-.579.174Z" transform="translate(-232.279 18.197)" fill="#231f20"/>
    <path id="Path_8069" data-name="Path 8069" d="M307.878,153.52s3.324,2.793,3.07,3.65-1.981.857-1.981.857" transform="translate(-212.695 20.155)" fill="#fff"/>
    <path id="Path_8070" data-name="Path 8070" d="M309.057,158.686c.243,0,2.154,0,2.525-1.275.243-.811-.846-2.236-3.255-4.253a.567.567,0,0,0-.811.07.591.591,0,0,0,.07.823,11.2,11.2,0,0,1,2.873,3.105c-.058.174-.811.371-1.413.371a.579.579,0,0,0,0,1.159Z" transform="translate(-212.774 20.076)" fill="#231f20"/>
    <path id="Path_8071" data-name="Path 8071" d="M315.138,147.171a1.089,1.089,0,0,1,.649.406,7.442,7.442,0,0,1,1.4,2.317,44.461,44.461,0,0,1,1.714,5.179q1.008,3.476,1.842,6.952c.359,1.483-3.406,2.653-4.2,2.41l2.317,5.6s-1.656,1.043-5.131.533-3.718-1.217-3.718-1.217l-1.738-6.732a4.971,4.971,0,0,0,3.081-4.056,10.313,10.313,0,0,1,.162-1.819c.255-.614.822-.892.915-1.634a2.2,2.2,0,0,0-.66-1.866c-.116-.1-.243-.232-.208-.371a.417.417,0,0,1,.162-.209,1.889,1.889,0,0,0,0-2.665c.95-.29,1.3-1.437,1.506-2.41-.069.3,1.517-.382,1.541-.382a.938.938,0,0,1,.371-.035Z" transform="translate(-222.955 19.146)" fill="#fff"/>
    <path id="Path_8072" data-name="Path 8072" d="M315.633,171.439a7.3,7.3,0,0,0,3.626-.753.591.591,0,0,0,.232-.718l-1.992-4.82a7.076,7.076,0,0,0,3.313-1.472,1.634,1.634,0,0,0,.6-1.622c-.568-2.317-1.158-4.635-1.853-6.952l-.139-.487a40.342,40.342,0,0,0-1.6-4.762,7.869,7.869,0,0,0-1.529-2.561,1.668,1.668,0,0,0-.973-.568h0a1.551,1.551,0,0,0-.556,0l-.162.058a7.521,7.521,0,0,1-1.008.359h-.127a.568.568,0,0,0-.683.452h0c-.174.811-.452,1.773-1.158,1.97a.568.568,0,0,0-.394.429.591.591,0,0,0,.174.556,1.3,1.3,0,0,1,0,1.808.915.915,0,0,0-.348.5.962.962,0,0,0,.371.927,1.646,1.646,0,0,1,.487,1.379,1.4,1.4,0,0,1-.382.7,3.405,3.405,0,0,0-.5.788,3.476,3.476,0,0,0-.162,1.3,3.852,3.852,0,0,1,0,.649,4.415,4.415,0,0,1-2.687,3.685.568.568,0,0,0-.394.7l1.726,6.744c.185.521,1.043,1.159,4.193,1.645a13,13,0,0,0,1.923.081Zm2.572-1.553a9.044,9.044,0,0,1-4.309.266,7.643,7.643,0,0,1-3.278-.915l-1.575-6.13a5.794,5.794,0,0,0,2.977-4.38,4.8,4.8,0,0,0,.058-.834,2.7,2.7,0,0,1,.081-.869,2.32,2.32,0,0,1,.324-.51,2.491,2.491,0,0,0,.625-1.275,2.77,2.77,0,0,0-.741-2.248,2.411,2.411,0,0,0,.6-1.587,2.5,2.5,0,0,0-.266-1.159,3.732,3.732,0,0,0,1.1-1.993,9.432,9.432,0,0,0,1.228-.429.405.405,0,0,1,.139,0h0c.058,0,.139.081.313.243a7.1,7.1,0,0,1,1.274,2.2A38.46,38.46,0,0,1,318.3,154.9l.151.5c.66,2.317,1.286,4.635,1.842,6.952a.8.8,0,0,1-.243.487,5.663,5.663,0,0,1-3.243,1.228.625.625,0,0,0-.591.185.556.556,0,0,0-.1.591Zm-2.965-22.641Z" transform="translate(-223.057 19.072)" fill="#231f20"/>
    <path id="Path_8073" data-name="Path 8073" d="M319.806,155.859a3.209,3.209,0,0,0-1.158-1.379,4.54,4.54,0,0,0-1.158-.8,1.586,1.586,0,0,0-1.355,0,1.46,1.46,0,0,0-.7.985,2.932,2.932,0,0,0,.058,1.228,5.144,5.144,0,0,0,3.591,3.708l-.174-.1" transform="translate(-230.253 20.156)" fill="#fff"/>
    <path id="Path_8074" data-name="Path 8074" d="M319.081,160.246a.579.579,0,0,0,.533-.348.6.6,0,0,0-.232-.73l-.185-.1a.5.5,0,0,0-.336-.07,4.634,4.634,0,0,1-2.815-3.163,2.2,2.2,0,0,1,0-.973.869.869,0,0,1,.405-.6,1,1,0,0,1,.846,0,3.936,3.936,0,0,1,1,.707,2.688,2.688,0,0,1,.95,1.159.579.579,0,0,0,1.1-.359,3.7,3.7,0,0,0-1.263-1.611,5.061,5.061,0,0,0-1.286-.892,2.142,2.142,0,0,0-1.865,0,2.062,2.062,0,0,0-.985,1.367,3.477,3.477,0,0,0,.058,1.495,5.712,5.712,0,0,0,4.008,4.125Z" transform="translate(-230.223 20.08)" fill="#231f20"/>
    <path id="Path_8075" data-name="Path 8075" d="M314.515,162.291a6.416,6.416,0,0,1-3.475-1.1s1.158,3.476,4.494,3.592Z" transform="translate(-220.931 21.372)" fill="#231f20"/>
    <path id="Path_8076" data-name="Path 8076" d="M315.576,165.437a.6.6,0,0,0,.475-.243.626.626,0,0,0,.058-.556l-1.031-2.491a.579.579,0,0,0-.533-.359,5.791,5.791,0,0,1-3.093-.962.59.59,0,0,0-.695,0,.568.568,0,0,0-.22.66c.058.162,1.344,3.859,5.016,3.986Zm-1.436-2.514.51,1.159a4.321,4.321,0,0,1-2.154-1.506,8.522,8.522,0,0,0,1.61.348Z" transform="translate(-220.927 21.297)" fill="#231f20"/>
    <path id="Path_8115" data-name="Path 8115" d="M.857.672c.474,0,.857-.15.857-.336S1.331,0,.857,0,0,.15,0,.336.384.672.857.672Z" transform="translate(92.814 173.181) rotate(-104.47)" fill="#231f20"/>
    <path id="Path_8077" data-name="Path 8077" d="M311.089,159.686a2.5,2.5,0,0,0,1.807-.707.579.579,0,1,0-.846-.788c-.093.093-.915.846-2.49-.209a.579.579,0,0,0-.8.162.568.568,0,0,0,.162.8A3.81,3.81,0,0,0,311.089,159.686Z" transform="translate(-215.721 20.848)" fill="#231f20"/>
    <path id="Path_8078" data-name="Path 8078" d="M243.784,161.257l.208.267,68.689-50.184-78.547-32.7a85.224,85.224,0,0,0,9.649,82.617Z" transform="translate(-121.45 8.27)" fill="#fff"/>
    <path id="Path_8079" data-name="Path 8079" d="M244.012,162.183a.6.6,0,0,0,.336-.1l68.689-50.2a.568.568,0,0,0,.232-.533.6.6,0,0,0-.348-.475l-78.535-32.7a.614.614,0,0,0-.452,0,.591.591,0,0,0-.313.313,86.291,86.291,0,0,0,9.718,83.2h0l.209.278a.556.556,0,0,0,.463.22Zm-.208-.846Zm67.716-49.825-67.392,49.246a85.12,85.12,0,0,1-9.661-81.331Z" transform="translate(-121.469 8.189)" fill="#231f20"/>
    <path id="Path_8080" data-name="Path 8080" d="M290.7,175.28s25.622-9.965,26.746-12.63c.88-2.063.672-4.878.973-7.057.475-3.407.394-6.813,1.158-10.22a2.562,2.562,0,0,0,.058-1.159,2.527,2.527,0,0,0-.486-.858c-.417-.614-3-5.075-.834-4.959a1.008,1.008,0,0,1,.591.348c.278.29,1.158,1.159,1.158,1.159a32.056,32.056,0,0,1,.73-4.253,2.5,2.5,0,0,1,3.035-1.6,3.6,3.6,0,0,1,2.734,2.144,4.531,4.531,0,0,1,.081,1.367,62.464,62.464,0,0,0-.243,9.525,81.562,81.562,0,0,1,.649,8.378,74.922,74.922,0,0,1-.394,8.528c-.22,1.819-.405,4.229-1.633,5.7-3.209,3.882-25.275,16.848-31.275,14.067S290.7,175.28,290.7,175.28Z" transform="translate(-208.054 17.051)" fill="#fff"/>
    <path id="Path_8081" data-name="Path 8081" d="M296.022,184.782c4.274,0,10.842-2.966,14.827-4.982,6.533-3.314,13.02-7.566,14.769-9.675,1.239-1.506,1.494-3.777,1.7-5.6v-.406a75.246,75.246,0,0,0,.405-8.6,68.114,68.114,0,0,0-.544-7.393l-.1-1.043a36.522,36.522,0,0,1,.069-6.651c.07-.915.139-1.854.174-2.793a4.742,4.742,0,0,0-.1-1.541,4.147,4.147,0,0,0-3.162-2.549,3.069,3.069,0,0,0-3.7,1.923,18.647,18.647,0,0,0-.626,3.256l-.336-.336a1.505,1.505,0,0,0-.961-.521,1.251,1.251,0,0,0-1.286.626c-.834,1.506,1.587,5.214,1.622,5.249a2.95,2.95,0,0,1,.394.672,2.1,2.1,0,0,1-.069.9,44.747,44.747,0,0,0-.718,6.095c-.1,1.367-.208,2.793-.394,4.171-.1.742-.151,1.518-.2,2.317a14.06,14.06,0,0,1-.741,4.554c-.707,1.68-15.881,8.227-26.422,12.329a.591.591,0,0,0-.313.267,7.627,7.627,0,0,0-.475,5.411,6.65,6.65,0,0,0,3.776,3.835A5.488,5.488,0,0,0,296.022,184.782Zm27.256-50.173a2.455,2.455,0,0,1,.568.07,3.1,3.1,0,0,1,2.317,1.738,3.977,3.977,0,0,1,.058,1.159c0,.927-.1,1.842-.162,2.758a38.679,38.679,0,0,0-.081,6.86l.116,1.043a66.214,66.214,0,0,1,.533,7.265,72.428,72.428,0,0,1-.394,8.459v.406c-.2,1.68-.429,3.754-1.448,4.994-3.336,4.044-25.032,16.477-30.58,13.9a5.561,5.561,0,0,1-3.162-3.163,6.34,6.34,0,0,1,.255-4.3c4.772-1.866,25.715-10.162,26.85-12.873a15.218,15.218,0,0,0,.834-4.936,16.616,16.616,0,0,1,.185-2.317c.2-1.425.3-2.862.394-4.253a45.463,45.463,0,0,1,.7-5.933,3.026,3.026,0,0,0,.058-1.448,2.8,2.8,0,0,0-.51-.962c-.846-1.159-1.946-3.731-1.6-4.1h0a.324.324,0,0,1,.2,0,.775.775,0,0,1,.209.185l1.158,1.159a.556.556,0,0,0,.591.139.626.626,0,0,0,.394-.487,27.221,27.221,0,0,1,.683-4.079A1.923,1.923,0,0,1,323.278,134.609Z" transform="translate(-208.23 16.969)" fill="#231f20"/>
    <path id="Path_8082" data-name="Path 8082" d="M308.495,183.916l20.908-7.265L327.92,159.27s-19.495,7.254-22.46,11.193S300.421,184.658,308.495,183.916Z" transform="translate(-225.289 21.068)" fill="#0054af"/>
    <path id="Path_8083" data-name="Path 8083" d="M309.236,182.272c4.726,0,17.479-6.176,19.031-6.952a.568.568,0,0,0,.266-.765.579.579,0,0,0-.776-.266c-6.464,3.163-16.888,7.555-19.159,6.732a3.592,3.592,0,0,1-2.224-4.125.591.591,0,1,0-1.158-.232,4.693,4.693,0,0,0,2.965,5.446,2.942,2.942,0,0,0,1.054.162Z" transform="translate(-227.107 23.442)" fill="#231f20"/>
    <path id="Path_8084" data-name="Path 8084" d="M166.67,222.219l1.158,2.317c3.151,6.072,5.27,18.991,11.653,24.97,2.317,2.2,24.256,17.45,24.256,17.45l2.85-7.659s-16.553-16.883-18.267-18.655c-2.189-2.236-11.525-34.623-11.525-34.623Z" transform="translate(55.246 28.488)" fill="#fff"/>
    <path id="Path_8085" data-name="Path 8085" d="M203.855,267.563a.452.452,0,0,0,.174,0,.568.568,0,0,0,.371-.359l2.792-7.659a.58.58,0,0,0-.127-.6l-18.279-18.655c-1.529-1.564-7.633-21.413-11.363-34.379a.6.6,0,0,0-.486-.417.591.591,0,0,0-.568.266l-10.124,16.222a.6.6,0,0,0,0,.579l1.158,2.317a60.408,60.408,0,0,1,3,7.821c2.073,6.211,4.436,13.233,8.78,17.311,2.317,2.2,23.422,16.883,24.325,17.5A.6.6,0,0,0,203.855,267.563Zm2.12-8.111-2.409,6.6C200,263.566,182.078,250.994,180,249.093c-4.147-3.87-6.452-10.753-8.491-16.825a60.5,60.5,0,0,0-3.058-8l-1.054-2.028,9.267-14.82c1.888,6.535,9.267,31.529,11.294,33.6,1.587,1.692,15.916,16.3,18.012,18.447Z" transform="translate(55.186 28.403)" fill="#231f20"/>
    <path id="Path_8086" data-name="Path 8086" d="M164.051,252s6.313,1.054,6.267,1.993-5.074,16.848-6.95,16.222-2.108-10.5-2.108-10.5Z" transform="translate(97.781 35.786)" fill="#231f20"/>
    <path id="Path_8087" data-name="Path 8087" d="M163.537,270.789a1.239,1.239,0,0,0,.649-.209c2.409-1.611,6.718-15.782,6.765-16.535,0-.429.07-1.448-6.753-2.584a.568.568,0,0,0-.637.371l-2.792,7.659a.672.672,0,0,0,0,.22c.058,2.387.394,10.266,2.49,11.019A.834.834,0,0,0,163.537,270.789Zm6.232-16.662c-.359,1.981-4.738,14.971-6.267,15.5-.7-.278-1.483-4.774-1.61-9.838l2.595-7.1a20.5,20.5,0,0,1,5.282,1.437Z" transform="translate(97.727 35.699)" fill="#231f20"/>
    <path id="Path_8088" data-name="Path 8088" d="M199.88,216.45s-.3.95-.776,2.5c-2.05,6.524-7.367,26.361-7.541,28.968C191.355,251.143,201.9,274.5,201.9,274.5l8-1.414s-5.85-25.075-5.792-27.508c0-3.14,14.41-33.441,14.41-33.441Z" transform="translate(14.484 29.459)" fill="#fff"/>
    <path id="Path_8089" data-name="Path 8089" d="M201.942,275.163h.093l8.027-1.414a.521.521,0,0,0,.382-.255.556.556,0,0,0,.081-.452c-1.622-6.952-5.85-25.422-5.792-27.392,0-2.2,8.595-21.054,14.352-33.2a.568.568,0,0,0-.07-.6.591.591,0,0,0-.579-.209l-18.6,4.334a.579.579,0,0,0-.417.394l-.788,2.5c-1.969,6.28-7.379,26.326-7.564,29.1-.209,3.279,9.267,24.461,10.425,26.871A.579.579,0,0,0,201.942,275.163Zm7.321-2.456-6.95,1.228c-4.2-9.351-10.24-23.673-10.089-25.9.162-2.491,5.4-22.016,7.506-28.829l.683-2.19,17.12-3.986c-2.838,5.991-13.9,29.663-13.958,32.595C203.517,247.979,208.347,268.836,209.262,272.706Z" transform="translate(14.438 29.378)" fill="#231f20"/>
    <path id="Path_8090" data-name="Path 8090" d="M179.653,156.711a12.449,12.449,0,0,1,4.877,1.367c2.641,1.263,5.166,3.349,5.792,6.222a10.431,10.431,0,0,1-1.541,6.813,32.552,32.552,0,0,0-3.139,6.373c-.637,2.317-.348,5.052,1.471,6.593a24.682,24.682,0,0,1-6.765-3.951,6.234,6.234,0,0,1-2.2-3.916,8.113,8.113,0,0,1,.9-3.627,16,16,0,0,0,1.656-5.342,5.2,5.2,0,0,0-2.178-4.867c-1.413-.823-6.035-.753-5.305-3.349C173.745,157.047,178.008,156.653,179.653,156.711Z" transform="translate(63.936 20.661)" fill="#fff"/>
    <path id="Path_8091" data-name="Path 8091" d="M187.164,184.737a.579.579,0,0,0,.371-1.02c-1.761-1.495-1.8-4.16-1.286-5.991a20.4,20.4,0,0,1,2.189-4.635c.3-.533.614-1.066.9-1.611,1.517-2.827,2.027-5.122,1.6-7.207-.73-3.58-4.112-5.689-6.058-6.628a13.086,13.086,0,0,0-5.108-1.425h0s-6.232-.209-7.054,2.735a2.086,2.086,0,0,0,.162,1.68c.637,1.089,2.259,1.472,3.683,1.808a6.856,6.856,0,0,1,1.714.533,4.636,4.636,0,0,1,1.9,4.322,15.265,15.265,0,0,1-1.506,4.913l-.093.232a8.3,8.3,0,0,0-.95,3.9,6.652,6.652,0,0,0,2.386,4.3,25.285,25.285,0,0,0,6.95,4.056.6.6,0,0,0,.2.035Zm-7.437-27.369a11.812,11.812,0,0,1,4.633,1.309c1.761.846,4.807,2.723,5.433,5.794.371,1.808-.1,3.847-1.483,6.419-.29.533-.591,1.066-.892,1.6a21.056,21.056,0,0,0-2.317,4.9,8.206,8.206,0,0,0,.243,5.3,18.624,18.624,0,0,1-4.633-2.932,5.7,5.7,0,0,1-2.016-3.476,7.533,7.533,0,0,1,.857-3.36l.1-.232a16.225,16.225,0,0,0,1.6-5.3,5.794,5.794,0,0,0-2.467-5.411,7.98,7.98,0,0,0-2.039-.649c-1.158-.278-2.56-.614-2.954-1.275a.973.973,0,0,1,0-.776c.417-1.483,4.043-1.97,5.9-1.889Z" transform="translate(63.861 20.583)" fill="#231f20"/>
    <path id="Path_8092" data-name="Path 8092" d="M187.807,157.425a4.961,4.961,0,0,1,.6,3.21,3.848,3.848,0,0,1-.776,2.051,2.942,2.942,0,0,1-2.433.95,1.621,1.621,0,0,1-1.089-.452,1.82,1.82,0,0,1-.394-.915C183.22,159.94,184.923,152.871,187.807,157.425Z" transform="translate(53.72 20.537)" fill="#231f20"/>
    <path id="Path_8093" data-name="Path 8093" d="M185.505,164.3a3.474,3.474,0,0,0,2.641-1.159,4.265,4.265,0,0,0,.915-2.317,5.494,5.494,0,0,0-.695-3.58h0c-1.158-1.854-2.236-1.923-2.907-1.645-1.83.742-2.618,5.1-2.236,6.952a2.411,2.411,0,0,0,.533,1.159,2.143,2.143,0,0,0,1.471.637Zm1.888-6.5a4.4,4.4,0,0,1,.521,2.839,3.28,3.28,0,0,1-.649,1.738,2.4,2.4,0,0,1-1.946.753,1.158,1.158,0,0,1-.707-.266,1.322,1.322,0,0,1-.255-.637c-.348-1.622.5-5.191,1.529-5.62.533-.2,1.228.765,1.506,1.159Z" transform="translate(53.647 20.465)" fill="#231f20"/>
    <path id="Path_8094" data-name="Path 8094" d="M192.179,173.679a3.637,3.637,0,0,0,3.475,1.089,8.8,8.8,0,0,0,3.938-1.587,14.927,14.927,0,0,0,6.174-14.449c-.927-5.55-6.452-11.077-12.406-8.969a7.322,7.322,0,0,0-4.379,4.368,2.2,2.2,0,0,0-2.317.6c-1.541,1.53-1.483,3.175-.66,5.017,1.355,3.036,3.023,5.921,4.24,9.015C190.9,170.562,191.171,172.5,192.179,173.679Z" transform="translate(34.162 19.486)" fill="#fff"/>
    <path id="Path_8095" data-name="Path 8095" d="M195.027,175.461a5.582,5.582,0,0,0,.753,0,9.114,9.114,0,0,0,4.216-1.68,15.4,15.4,0,0,0,6.406-15.063,12.746,12.746,0,0,0-5.792-8.632,8.5,8.5,0,0,0-7.332-.788,7.878,7.878,0,0,0-4.529,4.218,2.976,2.976,0,0,0-2.386.892,4.636,4.636,0,0,0-.776,5.666c.556,1.251,1.158,2.491,1.772,3.7.857,1.715,1.738,3.476,2.444,5.284a18.48,18.48,0,0,1,.591,1.761,9.12,9.12,0,0,0,1.494,3.326h0a3.949,3.949,0,0,0,3.139,1.321Zm1.031-25.492a7.747,7.747,0,0,1,3.915,1.159,11.645,11.645,0,0,1,5.294,7.821,14.417,14.417,0,0,1-5.931,13.9,7.967,7.967,0,0,1-3.672,1.495,3.057,3.057,0,0,1-2.942-.881h0a8.437,8.437,0,0,1-1.263-2.908c-.185-.614-.382-1.24-.625-1.854-.73-1.842-1.622-3.638-2.479-5.376-.6-1.159-1.216-2.422-1.761-3.65-.834-1.866-.672-3.175.544-4.38a1.621,1.621,0,0,1,1.668-.475.544.544,0,0,0,.463,0,.579.579,0,0,0,.324-.336,6.638,6.638,0,0,1,4.031-4.009,7.03,7.03,0,0,1,2.432-.521Z" transform="translate(34.059 19.407)" fill="#231f20"/>
    <path id="Path_8096" data-name="Path 8096" d="M204.461,159.28s-3.614,3.071-3.324,4.009,2.166.915,2.166.915" transform="translate(17.467 21.069)" fill="#fff"/>
    <path id="Path_8097" data-name="Path 8097" d="M203.3,164.839h0a.568.568,0,0,0,.568-.579.579.579,0,0,0-.579-.579h0c-.6,0-1.483-.185-1.587-.51a13.439,13.439,0,0,1,3.139-3.4.579.579,0,1,0-.741-.881c-1.784,1.518-3.834,3.546-3.475,4.635C201.01,164.839,202.956,164.839,203.3,164.839Z" transform="translate(17.443 20.979)" fill="#231f20"/>
    <path id="Path_8098" data-name="Path 8098" d="M192.561,180.666c4.043.324,10.981-3.743,11.027-3.893a81.613,81.613,0,0,0,1.83-8A5.4,5.4,0,0,1,202,164.259c-.672-3.731-4.112-4.3-5.444-9.189-1.981.834-2.317,3.731-2.815,5.527-.718,2.526-1.367,5.064-1.969,7.624-.371,1.622,3.753,2.862,4.633,2.6Z" transform="translate(27.363 20.401)" fill="#fff"/>
    <path id="Path_8099" data-name="Path 8099" d="M193.039,181.351c3.985,0,10.935-3.6,11.166-4.322a76.747,76.747,0,0,0,1.853-8.111.591.591,0,0,0-.417-.66,4.843,4.843,0,0,1-3-4.044,8.228,8.228,0,0,0-2.5-4.322,11.148,11.148,0,0,1-2.954-4.925.579.579,0,0,0-.788-.371c-1.911.811-2.456,3.094-2.9,4.936-.081.336-.162.66-.255.962-.707,2.538-1.367,5.11-1.958,7.659a1.7,1.7,0,0,0,.649,1.715,7.586,7.586,0,0,0,3.684,1.576c-.672,1.738-.973,2.526-3.475,9.05a.591.591,0,0,0,0,.521.6.6,0,0,0,.452.267Zm10.124-4.843c-.95.637-6.162,3.476-9.684,3.673l3.533-9.05a.583.583,0,0,0-.718-.765,6.242,6.242,0,0,1-3.591-1.321c-.232-.22-.324-.417-.29-.591.591-2.526,1.251-5.087,1.958-7.6.081-.3.162-.649.255-1.008a7.394,7.394,0,0,1,1.668-3.789,12.538,12.538,0,0,0,2.989,4.635,7.208,7.208,0,0,1,2.224,3.754,6.188,6.188,0,0,0,3.324,4.751A74.81,74.81,0,0,1,203.163,176.508Z" transform="translate(27.29 20.318)" fill="#231f20"/>
    <path id="Path_8100" data-name="Path 8100" d="M200.21,164.83a2.131,2.131,0,0,0,3.232,0" transform="translate(19.54 21.95)" fill="#fff"/>
    <path id="Path_8101" data-name="Path 8101" d="M201.976,166.27a2.687,2.687,0,0,0,1.958-.939.579.579,0,0,0,0-.823.591.591,0,0,0-.822,0,1.425,1.425,0,0,1-1.158.579,2.143,2.143,0,0,1-1.274-.614.556.556,0,0,0-.811,0,.58.58,0,0,0,0,.811,3.3,3.3,0,0,0,2.108,1Z" transform="translate(19.465 21.866)" fill="#231f20"/>
    <path id="Path_8102" data-name="Path 8102" d="M197.736,168.772a4.632,4.632,0,0,0,3.579-.672s-1.263,3.835-4.865,3.986Z" transform="translate(26.022 22.469)" fill="#231f20"/>
    <path id="Path_8103" data-name="Path 8103" d="M196.584,172.706h0c3.961-.174,5.328-4.206,5.386-4.38a.591.591,0,0,0-.22-.66.579.579,0,0,0-.695,0,3.984,3.984,0,0,1-3.07.545.591.591,0,0,0-.683.359l-1.286,3.314a.568.568,0,0,0,.069.545A.591.591,0,0,0,196.584,172.706Zm3.591-3.326a4.854,4.854,0,0,1-2.7,2.028l.764-1.947a5.975,5.975,0,0,0,1.934-.035Z" transform="translate(25.889 22.382)" fill="#231f20"/>
    <path id="Path_8116" data-name="Path 8116" d="M.371,1.877c.2,0,.371-.42.371-.939S.575,0,.371,0,0,.42,0,.939.166,1.877.371,1.877Z" transform="translate(223.291 180.373) rotate(-167.83)" fill="#231f20"/>
    <path id="Path_8104" data-name="Path 8104" d="M192.933,162.032a3.592,3.592,0,0,1,1.158-1.518,5.132,5.132,0,0,1,1.239-.881,1.7,1.7,0,0,1,1.483,0,1.564,1.564,0,0,1,.753,1.066,2.932,2.932,0,0,1,0,1.344,5.619,5.619,0,0,1-3.88,4.079l.185-.116" transform="translate(33.767 21.098)" fill="#fff"/>
    <path id="Path_8105" data-name="Path 8105" d="M193.818,166.755h.151a6.163,6.163,0,0,0,4.3-4.507,3.594,3.594,0,0,0,0-1.6,2.155,2.155,0,0,0-1.054-1.448,2.316,2.316,0,0,0-1.981,0,5.408,5.408,0,0,0-1.39.973,4.021,4.021,0,0,0-1.378,1.8.556.556,0,0,0,.382.718.579.579,0,0,0,.718-.382,3.128,3.128,0,0,1,1.031-1.263,4.332,4.332,0,0,1,1.1-.776,1.158,1.158,0,0,1,.973,0,1.008,1.008,0,0,1,.475.684,2.538,2.538,0,0,1,0,1.089,5.086,5.086,0,0,1-3.116,3.476.486.486,0,0,0-.324.081l-.185.1a.579.579,0,0,0,.3,1.078Z" transform="translate(33.635 21.021)" fill="#231f20"/>
    <path id="Path_8106" data-name="Path 8106" d="M193.441,176.211s11.815-5.979,16.008-1.993,3.962,17,4.182,38.771l-25.483-1.761S187.708,179.374,193.441,176.211Z" transform="translate(23.332 23.223)" fill="#0054af"/>
    <path id="Path_8107" data-name="Path 8107" d="M210.926,207.727l12.128,32.444s-31.113,10.66-45.384,8.192L185.4,206Z" transform="translate(26.037 28.485)" fill="#231f20"/>
    <path id="Path_8108" data-name="Path 8108" d="M182.808,249.449c15.3,0,39.453-8.2,40.542-8.6a.579.579,0,0,0,.336-.3.614.614,0,0,0,0-.452l-12.128-32.444a.591.591,0,0,0-.51-.382l-25.483-1.761a.556.556,0,0,0-.6.475l-7.726,42.456a.51.51,0,0,0,.093.429.568.568,0,0,0,.371.243,29.97,29.97,0,0,0,5.108.336Zm39.65-9.5c-4.216,1.39-30.823,9.965-44.017,8.111L185.97,206.7l24.7,1.692Z" transform="translate(25.88 28.407)" fill="#231f20"/>
    <path id="Path_8109" data-name="Path 8109" d="M213.7,264.74s2.247,5.991,1.413,6.419-17.12,4.044-17.479,2.074,8.039-7.08,8.039-7.08Z" transform="translate(10.686 37.808)" fill="#231f20"/>
    <path id="Path_8110" data-name="Path 8110" d="M199.713,274.46c4.8,0,15.058-2.422,15.638-2.711s1.309-.66-1.158-7.138a.568.568,0,0,0-.637-.359l-8.027,1.414a.568.568,0,0,0-.2.069c-2.05,1.251-8.7,5.492-8.305,7.682a1.078,1.078,0,0,0,.625.753A4.979,4.979,0,0,0,199.713,274.46Zm14.989-3.685c-1.9.684-15.336,3.383-16.564,2.317-.1-.742,3.406-3.673,7.726-6.315l7.437-1.321a20.863,20.863,0,0,1,1.355,5.319Zm0,.093Z" transform="translate(10.771 37.729)" fill="#231f20"/>
    <path id="Path_8111" data-name="Path 8111" d="M224.254,177.886c-3.846,1.344-17.491,10.6-18.533,9.27s-6.255-15.573-6.232-16.535,3.046-1.657,2.062-2.028l-3.174-1.159s.927-5.933-2.78-6.234c-1.448-.127-2.525,2.456-2.224,6.35.162,2.178,2.8,24.519,6.128,28.6s8.688,3.117,18.672-2.433,14.676-10,13.321-13.209S228.726,176.334,224.254,177.886Z" transform="translate(-0.763 21.373)" fill="#fff"/>
    <path id="Path_8112" data-name="Path 8112" d="M204.909,199.28c3.649,0,8.224-2,13.587-4.982,10.61-5.9,15.058-10.428,13.576-13.9-1.6-3.777-3.475-4.449-7.9-2.9h0a69.023,69.023,0,0,0-7.993,4.264c-3.568,2.074-8.919,5.237-10.02,5.087-1.158-1.6-5.954-14.866-6.046-16.106a4.483,4.483,0,0,1,1.158-.73c.672-.371,1.158-.637,1.158-1.159a.776.776,0,0,0-.579-.672l-2.745-1.02c.1-1.066.2-3.638-1.019-5.191a3.173,3.173,0,0,0-2.317-1.228,1.876,1.876,0,0,0-1.483.591c-1.077,1.066-1.587,3.476-1.367,6.385,0,.232,2.583,24.414,6.255,28.91a7.1,7.1,0,0,0,5.734,2.654Zm22.877-21.436c1.738,0,2.421,1.066,3.22,2.966s-.788,5.643-13.066,12.468c-10.043,5.585-14.908,6.28-17.943,2.572s-5.792-24.982-6.012-28.273c-.22-3.059.417-4.855,1.042-5.469a.625.625,0,0,1,.568-.255,1.969,1.969,0,0,1,1.517.788c1.158,1.541.741,4.739.73,4.774a.579.579,0,0,0,.382.626l2.456.915h0c-.8.429-1.714.927-1.726,1.738,0,1.02,5.166,15.469,6.359,16.917.857,1.043,3.336-.174,11.444-4.878a68.622,68.622,0,0,1,7.8-4.183,10.422,10.422,0,0,1,3.232-.753Z" transform="translate(-0.866 21.3)" fill="#231f20"/>
  </g>
</svg>
