<svg xmlns="http://www.w3.org/2000/svg" width="172.726" height="137.234" viewBox="0 0 172.726 137.234">
  <g id="mission" transform="translate(-66.347 -42.2)">
    <path id="Path_8117" data-name="Path 8117" d="M253.13,54.771c12.666,8.606,18.758-6.092,25.324,3.359V44.619C266.716,38.527,268.152,52.065,253.13,54.771Z" transform="translate(-58.489 -0.269)" fill="#0054af"/>
    <path id="Path_8118" data-name="Path 8118" d="M208.114,93.96v20.269H179.2v20.262H150.273v20.269H121.357V175.03H92.44v20.262H246.887V93.96Z" transform="translate(-8.171 -16.208)" fill="#fff"/>
    <path id="Path_8119" data-name="Path 8119" d="M246.724,195.492H92.277a.357.357,0,0,1-.357-.357V174.886a.357.357,0,0,1,.357-.357h28.546V154.61a.357.357,0,0,1,.357-.357h28.566V134.362a.35.35,0,0,1,.35-.35h28.566V114.093a.35.35,0,0,1,.35-.357H207.58v-19.9a.357.357,0,0,1,.357-.357h38.787a.357.357,0,0,1,.357.357v101.3A.357.357,0,0,1,246.724,195.492Zm-154.062-.687H246.374V94.167H208.3v19.919a.35.35,0,0,1-.35.35H179.385v19.919a.357.357,0,0,1-.357.357h-28.56v19.919a.357.357,0,0,1-.357.357H121.544v19.919a.35.35,0,0,1-.35.35H92.662Z" transform="translate(-8.008 -16.058)" fill="#231f20"/>
    <rect id="Rectangle_2147" data-name="Rectangle 2147" width="21.691" height="14.067" rx="2.68" transform="translate(71.08 119.194) rotate(19.66)" fill="#fff"/>
    <path id="Path_8120" data-name="Path 8120" d="M85.744,174.789a2.294,2.294,0,0,1-.735-.124h0l-16.959-6.058a2.184,2.184,0,0,1-1.319-2.789l3.489-9.788a2.212,2.212,0,0,1,1.126-1.236,2.177,2.177,0,0,1,1.662-.082l16.965,6.058a2.184,2.184,0,0,1,1.319,2.789l-3.5,9.781a2.184,2.184,0,0,1-2.054,1.449Zm-.5-.769a1.5,1.5,0,0,0,1.909-.907l3.5-9.781a1.5,1.5,0,0,0-.907-1.909l-16.959-6.1a1.511,1.511,0,0,0-1.147.062,1.449,1.449,0,0,0-.762.859l-3.5,9.781a1.49,1.49,0,0,0,.907,1.9l16.959,6.065Z" transform="translate(-0.081 -35.193)" fill="#231f20"/>
    <path id="Path_8121" data-name="Path 8121" d="M90.486,166.577h-.117l-16.148-5.77a.343.343,0,0,1,.234-.646l16.148,5.77a.348.348,0,1,1-.117.687Z" transform="translate(-2.397 -36.933)" fill="#d1d3d4"/>
    <path id="Path_8122" data-name="Path 8122" d="M90.012,159.457a.323.323,0,0,1-.117,0l-7.555-2.7a.337.337,0,0,1-.192-.172.33.33,0,0,1,0-.268l.515-1.442a1.738,1.738,0,0,1,2.212-1.051l4.932,1.765a1.731,1.731,0,0,1,1.051,2.212l-.515,1.442A.35.35,0,0,1,90.012,159.457ZM82.9,156.208l6.869,2.466.405-1.126a1.044,1.044,0,0,0-.632-1.333l-4.932-1.758a1.051,1.051,0,0,0-1.374.632Z" transform="translate(-4.939 -34.923)" fill="#231f20"/>
    <path id="Path_8123" data-name="Path 8123" d="M169.965,88.329s3.166-1.2,3.345-1.923a4.1,4.1,0,0,0-.543-2.061s3.613-2.747,3.07-3.3-9.218,4.636-9.218,4.636" transform="translate(-31.4 -12.15)" fill="#fff"/>
    <path id="Path_8124" data-name="Path 8124" d="M169.809,88.523a.349.349,0,1,1-.124-.687c1.573-.6,3.036-1.374,3.139-1.7a3.483,3.483,0,0,0-.515-1.779.343.343,0,0,1,.1-.44,16.43,16.43,0,0,0,2.905-2.686,64.544,64.544,0,0,0-8.668,4.588.337.337,0,0,1-.467-.124.33.33,0,0,1,.117-.467c8.929-5.316,9.437-4.808,9.616-4.581a.536.536,0,0,1,.151.433c-.048.79-1.985,2.4-3.029,3.208a3.572,3.572,0,0,1,.44,2.019c-.206.81-2.555,1.779-3.558,2.164a.391.391,0,0,1-.1.048Z" transform="translate(-31.244 -12.001)" fill="#231f20"/>
    <path id="Path_8125" data-name="Path 8125" d="M92.864,148.22s-.522,1.374-.783,2.431a13.9,13.9,0,0,0-.192,2.933c-.275-.275-.687-.309-.968-.549a3.791,3.791,0,0,1-.185,1.243,1.257,1.257,0,0,1-.886.824,1.683,1.683,0,0,1-.687-.041c-.79-.179-2.1-.522-2.356-1.429a1.9,1.9,0,0,1,.11-1.065,47.024,47.024,0,0,1,3.118-5.818" transform="translate(-6.396 -32.739)" fill="#fff"/>
    <path id="Path_8126" data-name="Path 8126" d="M89.543,155.327a2.35,2.35,0,0,1-.543-.076c-.687-.151-2.294-.508-2.61-1.669a2.232,2.232,0,0,1,.11-1.257,48.582,48.582,0,0,1,3.153-5.9.343.343,0,0,1,.577.357,43.1,43.1,0,0,0-3.077,5.749,1.621,1.621,0,0,0-.11.865c.213.756,1.587,1.065,2.1,1.181a1.326,1.326,0,0,0,.529.041.934.934,0,0,0,.625-.611,3.434,3.434,0,0,0,.165-1.133.343.343,0,0,1,.2-.3.35.35,0,0,1,.357.048,1.573,1.573,0,0,0,.371.2h0a11.636,11.636,0,0,1,.206-2.411c.261-1.037.776-2.411.8-2.466a.345.345,0,0,1,.646.24s-.522,1.374-.776,2.39a14.025,14.025,0,0,0-.179,2.837.342.342,0,0,1-.584.254,1.223,1.223,0,0,0-.412-.227h0a2.692,2.692,0,0,1-.172.831,1.621,1.621,0,0,1-1.14,1.037,1.67,1.67,0,0,1-.234.021Z" transform="translate(-6.262 -32.6)" fill="#231f20"/>
    <path id="Path_8127" data-name="Path 8127" d="M110.613,118c-.4.22-14.87,17.522-16.828,21l-4.7-2.322s4.808-10.653,15.956-24.329C109.857,109.25,110.613,118,110.613,118Z" transform="translate(-7.119 -21.758)" fill="#0054af"/>
    <path id="Path_8128" data-name="Path 8128" d="M127.918,140.39s18.648,2.747,19.012,5.88-3.249,19.033-3.249,19.033l-8.091-.852s3.125-13.888,2.294-14.534-15.379-1.82-15.379-1.82l-12.968,39.762-7.858-1.2,9.149-43.107Z" transform="translate(-11.064 -30.747)" fill="#231f20"/>
    <path id="Path_8129" data-name="Path 8129" d="M109.381,188.05h-.048l-7.865-1.2a.316.316,0,0,1-.227-.144.323.323,0,0,1-.055-.261l9.142-43.1a.337.337,0,0,1,.275-.261l17.1-3.18a.3.3,0,0,1,.11,0c.048,0,4.732.687,9.4,1.779,9.65,2.219,9.843,3.86,9.9,4.4.364,3.125-3.1,18.5-3.256,19.15a.337.337,0,0,1-.371.268l-8.084-.859a.343.343,0,0,1-.24-.144.33.33,0,0,1-.062-.275c1.456-6.436,2.747-13.517,2.377-14.232-.646-.392-9.348-1.236-14.864-1.683L109.7,187.816A.343.343,0,0,1,109.381,188.05Zm-7.452-1.82,7.219,1.1,12.9-39.488a.343.343,0,0,1,.35-.234c3.434.275,14.692,1.223,15.537,1.889s-.687,8.146-2.061,14.506l7.4.776c.488-2.191,3.5-15.846,3.173-18.621-.24-2.061-11.546-4.513-18.662-5.57l-16.821,3.118Z" transform="translate(-10.907 -30.595)" fill="#231f20"/>
    <path id="Path_8130" data-name="Path 8130" d="M132.089,130.3,115,133.463l4.245-25.249s8.6-.323,10.138.563S132.089,130.3,132.089,130.3Z" transform="translate(-15.235 -20.654)" fill="#fff"/>
    <path id="Path_8131" data-name="Path 8131" d="M114.842,133.667a.357.357,0,0,1-.343-.405l4.252-25.249a.337.337,0,0,1,.33-.282c.886-.034,8.737-.3,10.3.6s2.6,16.9,2.885,21.787a.343.343,0,0,1-.282.357l-17.1,3.18Zm4.54-25.263-4.121,24.487,16.306-3.015c-.57-9.843-1.662-20.29-2.528-20.929-1.147-.673-7.109-.625-9.664-.543Z" transform="translate(-15.077 -20.501)" fill="#231f20"/>
    <path id="Path_8132" data-name="Path 8132" d="M118.734,105.71c-.254.165.488,3.84.529,4.176.385,3.1.914,6.25,1.2,9.348.549,6.12-3.07,12.611-5.728,17.858a3.517,3.517,0,0,1-1.47,1.772A3.146,3.146,0,0,1,111.6,139a16.917,16.917,0,0,1-6.7-2.232,1.628,1.628,0,0,1-.687-.632,1.758,1.758,0,0,1,.192-1.456c2.672-5.983,2.823-15.427,3.7-21.918C114.05,106.314,114.634,108.354,118.734,105.71Z" transform="translate(-11.833 -19.888)" fill="#0054af"/>
    <path id="Path_8133" data-name="Path 8133" d="M139.422,101.743c.1,0,.515,10.694.549,11.12.275,3.249-1.106,10.193-2.679,12.975.082-3.524-1.731-8.064-3.256-11.175-.742-1.518-.9-4.808-1.065-6.456,0-.165-.46-3.846-.543-3.853S136.7,101.214,139.422,101.743Z" transform="translate(-20.693 -18.626)" fill="#0054af"/>
    <path id="Path_8134" data-name="Path 8134" d="M124.67,112.06l-1.3,1.264,1.051.728s-1.106,8.242-5.007,9.41-5.406.769-5.406.769l-2.15,2.782s3.338.955,3.579,1.037,7.315-1.573,8.435-5.955a45.49,45.49,0,0,0,1.3-7.885l.687-.886Z" transform="translate(-14.252 -21.876)" fill="#231f20"/>
    <path id="Path_8135" data-name="Path 8135" d="M122.275,119.221a.33.33,0,0,1-.275-.144l-3.3-4.478a.343.343,0,0,1,0-.44l1.841-1.9-2.28-.6a.323.323,0,0,1-.24-.234.337.337,0,0,1,.076-.33l3.015-3.235a.345.345,0,1,1,.5.474l-2.624,2.809,2.294.6a.343.343,0,0,1,.247.234.35.35,0,0,1-.082.337l-2.061,2.116,3.118,4.245a.343.343,0,0,1-.275.549Z" transform="translate(-16.177 -20.527)" fill="#231f20"/>
    <path id="Path_8136" data-name="Path 8136" d="M110.811,145.833a.35.35,0,0,1-.131-.687c1.951-.8,5.495-2.377,5.536-2.39a.343.343,0,0,1,.453.172.337.337,0,0,1-.172.453c-.034,0-3.592,1.594-5.557,2.4A.446.446,0,0,1,110.811,145.833Z" transform="translate(-13.793 -31.479)" fill="#231f20"/>
    <path id="Path_8137" data-name="Path 8137" d="M134.77,98.39c.3-.172,22.927-12.48,22.927-12.48l4.025,4.052-23.442,15.18Z" transform="translate(-21.426 -13.687)" fill="#0054af"/>
    <path id="Path_8138" data-name="Path 8138" d="M142.775,111.908h0a.35.35,0,0,1-.316-.378c0-.055.453-5.495-.769-7.4a.343.343,0,0,1,.577-.371c1.374,2.116.893,7.6.879,7.837a.357.357,0,0,1-.371.316Z" transform="translate(-23.579 -19.231)" fill="#231f20"/>
    <path id="Path_8139" data-name="Path 8139" d="M136.252,115.169h-.117a.337.337,0,0,1-.206-.433l1.855-5.158-2.246-.536a.343.343,0,0,1-.213-.515l1.484-2.363-1.923-.385a.343.343,0,0,1-.268-.405.337.337,0,0,1,.405-.268l2.411.481a.337.337,0,0,1,.247.2.343.343,0,0,1,0,.316l-1.525,2.363,2.15.515a.385.385,0,0,1,.227.172.364.364,0,0,1,0,.282l-1.985,5.495a.33.33,0,0,1-.3.24Z" transform="translate(-21.376 -19.696)" fill="#231f20"/>
    <path id="Path_8140" data-name="Path 8140" d="M151.654,175.42l-1.374,4.7,14.156.247c-.721-3.139-5.495-4.121-5.495-4.121" transform="translate(-26.283 -41.717)" fill="#fff"/>
    <path id="Path_8141" data-name="Path 8141" d="M164.264,180.546h0l-14.156-.247a.323.323,0,0,1-.268-.137.364.364,0,0,1-.055-.3l1.374-4.7a.357.357,0,0,1,.687.192l-1.257,4.272,13.229.22c-.989-2.541-5.083-3.386-5.124-3.4a.343.343,0,0,1-.275-.4.35.35,0,0,1,.405-.275c.206.041,5.035,1.037,5.8,4.348a.33.33,0,0,1-.069.3A.337.337,0,0,1,164.264,180.546Z" transform="translate(-26.124 -41.554)" fill="#231f20"/>
    <path id="Path_8142" data-name="Path 8142" d="M123.471,96.469c-3.276,1.154-5.357-4.478-5.873-6.965a4.341,4.341,0,0,1-.1-1.655,3.743,3.743,0,0,1,1.923-2.431,23.64,23.64,0,0,1,2.94-1.257,14.2,14.2,0,0,0,5.653-4.307c.5-.639,1.071-1.374,1.889-1.374a1.765,1.765,0,0,1,1.312.735,3.606,3.606,0,0,1,.433,3.5,6.837,6.837,0,0,1-2.328,2.747c.646.728.941.9.879,1.861a7.644,7.644,0,0,1-.762,2.6,18.392,18.392,0,0,1-1.518,2.425c-1.14,1.7-2.287,3.283-4.293,4.08Z" transform="translate(-16.006 -11.361)" fill="#fff"/>
    <path id="Path_8143" data-name="Path 8143" d="M122.481,96.795a2.85,2.85,0,0,1-1.436-.4c-2.2-1.236-3.517-5.117-3.908-7a4.636,4.636,0,0,1-.151-1.806,4.121,4.121,0,0,1,2.061-2.665,12.515,12.515,0,0,1,2.061-.92l.92-.357a13.833,13.833,0,0,0,5.495-4.2c.549-.687,1.2-1.525,2.157-1.525h0a2.1,2.1,0,0,1,1.58.859,3.963,3.963,0,0,1,.488,3.84,6.7,6.7,0,0,1-2.157,2.672,2.061,2.061,0,0,1,.728,1.848,8.174,8.174,0,0,1-.8,2.747,13.793,13.793,0,0,1-1.188,1.951l-.357.515c-1.223,1.82-2.4,3.393-4.451,4.2l-.172.069h0a3.07,3.07,0,0,1-.872.172Zm.865-.5Zm6.4-17.632h0c-.632,0-1.14.687-1.594,1.223a14.486,14.486,0,0,1-5.818,4.451c-.309.131-.625.247-.941.371a12.61,12.61,0,0,0-1.958.824,3.434,3.434,0,0,0-1.758,2.2,4.184,4.184,0,0,0,.1,1.525c.426,2.061,1.731,5.495,3.572,6.539a2.116,2.116,0,0,0,1.848.172l.151-.055c1.868-.742,2.933-2.164,4.121-3.949l.364-.522a13.05,13.05,0,0,0,1.133-1.855,7.555,7.555,0,0,0,.728-2.473,1.415,1.415,0,0,0-.556-1.374l-.234-.261a.35.35,0,0,1-.089-.254.371.371,0,0,1,.124-.24l.151-.124a6.374,6.374,0,0,0,2.061-2.493,3.269,3.269,0,0,0-.378-3.166,1.415,1.415,0,0,0-1.023-.536Z" transform="translate(-15.848 -11.185)" fill="#231f20"/>
    <path id="Path_8144" data-name="Path 8144" d="M136.07,95.55s1.7,2.246,1.415,2.747-1.374.254-1.374.254" transform="translate(-21.833 -16.706)" fill="#fff"/>
    <path id="Path_8145" data-name="Path 8145" d="M136.576,98.8a3,3,0,0,1-.646-.076.352.352,0,1,1,.151-.687c.35.076.9.089,1.01-.089a7.85,7.85,0,0,0-1.374-2.383.346.346,0,1,1,.549-.419c.838,1.113,1.772,2.555,1.436,3.139a1.2,1.2,0,0,1-1.126.515Z" transform="translate(-21.701 -16.538)" fill="#231f20"/>
    <path id="Path_8146" data-name="Path 8146" d="M131.868,87.994c1.044.742,1.147,4.526,1.216,5.639q.124,2.342.158,4.691c0,.989-2.555,1.175-3.029.914l.687,3.881a5.247,5.247,0,0,1-3.338-.405c-2.129-.824-2.184-1.312-2.184-1.312l-.117-4.526a3.228,3.228,0,0,0,2.569-2.177,13.454,13.454,0,0,0,.632-5.179S130.851,87.266,131.868,87.994Z" transform="translate(-18.448 -14.295)" fill="#fff"/>
    <path id="Path_8147" data-name="Path 8147" d="M129.823,103.408a7.17,7.17,0,0,1-2.583-.536c-2.026-.783-2.377-1.333-2.4-1.594l-.124-4.554a.343.343,0,0,1,.323-.35,2.892,2.892,0,0,0,2.267-1.964,13.23,13.23,0,0,0,.6-5.021.364.364,0,0,1,.11-.282c.44-.405,2.692-2.4,3.874-1.552h0c.968.687,1.223,3.215,1.374,5.6v.3c.089,1.559.144,3.139.165,4.7a1.058,1.058,0,0,1-.6.92,4.657,4.657,0,0,1-2.342.44l.57,3.386a.343.343,0,0,1-.227.378A3.1,3.1,0,0,1,129.823,103.408Zm-4.3-2.246a4.9,4.9,0,0,0,1.964,1.072,5.852,5.852,0,0,0,2.816.46l-.6-3.558a.343.343,0,0,1,.144-.337.35.35,0,0,1,.364,0,3.737,3.737,0,0,0,2.26-.3c.172-.1.254-.206.254-.309,0-1.552-.076-3.125-.158-4.677v-.3c-.055-1.106-.227-4.485-1.051-5.076-.515-.364-1.978.584-2.892,1.374a13.126,13.126,0,0,1-.687,5.165,3.7,3.7,0,0,1-2.528,2.335Z" transform="translate(-18.279 -14.138)" fill="#231f20"/>
    <path id="Path_8148" data-name="Path 8148" d="M135.724,100.937A1.848,1.848,0,0,1,133.56,99.9" transform="translate(-21.047 -18.068)" fill="#fff"/>
    <path id="Path_8149" data-name="Path 8149" d="M135.07,101.185a2.239,2.239,0,0,1-2-1.278.344.344,0,0,1,.6-.33,1.49,1.49,0,0,0,1.758.872.343.343,0,1,1,.213.653A1.937,1.937,0,0,1,135.07,101.185Z" transform="translate(-20.881 -17.911)" fill="#231f20"/>
    <path id="Path_8150" data-name="Path 8150" d="M130.569,96.4a2.061,2.061,0,0,0-.5-1.044,3.187,3.187,0,0,0-.611-.687,1.037,1.037,0,0,0-.859-.206.962.962,0,0,0-.584.529,1.786,1.786,0,0,0-.144.783,3.338,3.338,0,0,0,1.738,2.871l-.1-.082" transform="translate(-19.265 -16.358)" fill="#fff"/>
    <path id="Path_8151" data-name="Path 8151" d="M129.4,98.868a.206.206,0,0,1-.117,0,3.668,3.668,0,0,1-1.916-3.166,2.171,2.171,0,0,1,.179-.941,1.278,1.278,0,0,1,.8-.687,1.374,1.374,0,0,1,1.154.254,3.331,3.331,0,0,1,.687.749,2.445,2.445,0,0,1,.57,1.223.337.337,0,0,1-.316.364.343.343,0,0,1-.364-.316,1.917,1.917,0,0,0-.44-.865,2.844,2.844,0,0,0-.543-.6.687.687,0,0,0-.563-.151.632.632,0,0,0-.364.343,1.525,1.525,0,0,0-.11.639,3.022,3.022,0,0,0,1.374,2.459.3.3,0,0,1,.172.076.426.426,0,0,1,.089.495A.371.371,0,0,1,129.4,98.868Z" transform="translate(-19.108 -16.233)" fill="#231f20"/>
    <path id="Path_8152" data-name="Path 8152" d="M131.546,103.882a4.156,4.156,0,0,1-2.026-1.2,3.485,3.485,0,0,0,2.322,2.926Z" transform="translate(-19.782 -18.939)" fill="#231f20"/>
    <path id="Path_8153" data-name="Path 8153" d="M131.684,105.8h-.089a3.785,3.785,0,0,1-2.576-3.228.343.343,0,0,1,.611-.247,3.764,3.764,0,0,0,1.841,1.078.343.343,0,0,1,.261.275l.288,1.731a.33.33,0,0,1-.11.309.316.316,0,0,1-.227.082Zm-1.7-2.294a2.809,2.809,0,0,0,1.257,1.422l-.158-.927a5.3,5.3,0,0,1-1.1-.495Z" transform="translate(-19.625 -18.785)" fill="#231f20"/>
    <ellipse id="Ellipse_3268" data-name="Ellipse 3268" cx="0.556" cy="0.22" rx="0.556" ry="0.22" transform="translate(113.005 78.357) rotate(-84.08)" fill="#231f20"/>
    <line id="Line_583" data-name="Line 583" x1="1.126" y1="0.433" transform="translate(112.595 76.914)" fill="#fff"/>
    <path id="Path_8154" data-name="Path 8154" d="M134.652,93.369a.392.392,0,0,1-.124,0l-1.126-.433a.35.35,0,0,1-.192-.446.343.343,0,0,1,.44-.2l1.126.433a.35.35,0,0,1,.192.446A.33.33,0,0,1,134.652,93.369Z" transform="translate(-20.93 -15.679)" fill="#231f20"/>
    <line id="Line_584" data-name="Line 584" y1="8.757" x2="7.755" transform="translate(92.725 99.47)" fill="#fff"/>
    <path id="Path_8155" data-name="Path 8155" d="M104.6,134.532a.33.33,0,0,1-.227-.57l7.748-8.757a.35.35,0,0,1,.488,0,.343.343,0,0,1,0,.488l-7.748,8.757A.357.357,0,0,1,104.6,134.532Z" transform="translate(-11.877 -25.961)" fill="#231f20"/>
    <path id="Path_8156" data-name="Path 8156" d="M101.484,204.86l-1.374,4.7,14.156.24c-.687-3.132-5.495-4.121-5.495-4.121" transform="translate(-10.572 -50.936)" fill="#fff"/>
    <path id="Path_8157" data-name="Path 8157" d="M114.093,209.979h0l-14.156-.24a.343.343,0,0,1-.323-.44l1.374-4.7a.357.357,0,1,1,.687.192l-1.257,4.265,13.229.227c-.989-2.541-5.083-3.386-5.124-3.4a.35.35,0,0,1,.13-.687c.206.041,5.035,1.037,5.8,4.348a.35.35,0,0,1-.069.3.33.33,0,0,1-.288.137Z" transform="translate(-10.413 -50.773)" fill="#231f20"/>
    <path id="Path_8158" data-name="Path 8158" d="M289.837,77.7a.357.357,0,0,1-.357-.357V42.557a.357.357,0,0,1,.357-.357.364.364,0,0,1,.357.357V77.347A.357.357,0,0,1,289.837,77.7Z" transform="translate(-69.872)" fill="#231f20"/>
    <rect id="Rectangle_2148" data-name="Rectangle 2148" width="14.046" height="16.437" transform="translate(168.32 162.647)" fill="#231f20"/>
    <path id="Path_8159" data-name="Path 8159" d="M228.71,234.19H214.657a.337.337,0,0,1-.337-.343V217.4a.343.343,0,0,1,.337-.343H228.71a.343.343,0,0,1,.337.343V233.84a.337.337,0,0,1-.337.35Zm-13.737-.687h13.366V217.747H215Z" transform="translate(-46.336 -54.756)" fill="#231f20"/>
    <path id="Path_8160" data-name="Path 8160" d="M162.966,218.441h-10.3a.343.343,0,0,1-.343-.343V208.3a.343.343,0,0,1,.343-.343h10.3a.343.343,0,0,1,.343.343V218.1A.343.343,0,0,1,162.966,218.441Zm-9.939-.687h9.616v-9.08h-9.616Z" transform="translate(-26.922 -51.906)" fill="#d1d3d4"/>
    <path id="Path_8161" data-name="Path 8161" d="M195.316,218.441h-10.3a.343.343,0,0,1-.343-.343V208.3a.343.343,0,0,1,.343-.343h10.3a.343.343,0,0,1,.343.343V218.1A.343.343,0,0,1,195.316,218.441Zm-9.939-.687h9.616v-9.08h-9.616Z" transform="translate(-37.052 -51.906)" fill="#d1d3d4"/>
    <path id="Path_8162" data-name="Path 8162" d="M260.026,218.441h-10.3a.343.343,0,0,1-.343-.343V208.3a.343.343,0,0,1,.343-.343h10.3a.343.343,0,0,1,.343.343V218.1A.343.343,0,0,1,260.026,218.441Zm-9.939-.687H259.7v-9.08h-9.616Z" transform="translate(-57.315 -51.906)" fill="#d1d3d4"/>
    <path id="Path_8163" data-name="Path 8163" d="M292.376,218.441h-10.3a.343.343,0,0,1-.343-.343V208.3a.343.343,0,0,1,.343-.343h10.3a.343.343,0,0,1,.343.343V218.1A.343.343,0,0,1,292.376,218.441Zm-9.939-.687h9.616v-9.08h-9.616Z" transform="translate(-67.445 -51.906)" fill="#d1d3d4"/>
    <path id="Path_8164" data-name="Path 8164" d="M260.026,189h-10.3a.343.343,0,0,1-.343-.343v-9.808a.343.343,0,0,1,.343-.343h10.3a.343.343,0,0,1,.343.343v9.795a.343.343,0,0,1-.343.357Zm-9.939-.687H259.7V179.2h-9.616Z" transform="translate(-57.315 -42.681)" fill="#d1d3d4"/>
    <path id="Path_8165" data-name="Path 8165" d="M292.376,189h-10.3a.343.343,0,0,1-.343-.343v-9.808a.343.343,0,0,1,.343-.343h10.3a.343.343,0,0,1,.343.343v9.795a.343.343,0,0,1-.343.357Zm-9.939-.687h9.616V179.2h-9.616Z" transform="translate(-67.445 -42.681)" fill="#d1d3d4"/>
    <path id="Path_8166" data-name="Path 8166" d="M195.316,189h-10.3a.343.343,0,0,1-.343-.343v-9.808a.343.343,0,0,1,.343-.343h10.3a.343.343,0,0,1,.343.343v9.795a.343.343,0,0,1-.343.357Zm-9.939-.687h9.616V179.2h-9.616Z" transform="translate(-37.052 -42.681)" fill="#d1d3d4"/>
    <path id="Path_8167" data-name="Path 8167" d="M227.666,189h-10.3a.343.343,0,0,1-.343-.343v-9.808a.343.343,0,0,1,.343-.343h10.3a.343.343,0,0,1,.343.343v9.795a.343.343,0,0,1-.343.357Zm-9.932-.687h9.616V179.2h-9.616Z" transform="translate(-47.182 -42.681)" fill="#d1d3d4"/>
    <path id="Path_8168" data-name="Path 8168" d="M260.026,159.568h-10.3a.343.343,0,0,1-.343-.343v-9.8a.343.343,0,0,1,.343-.343h10.3a.343.343,0,0,1,.343.343v9.8A.35.35,0,0,1,260.026,159.568Zm-9.939-.687H259.7v-9.115h-9.616Z" transform="translate(-57.315 -33.469)" fill="#d1d3d4"/>
    <path id="Path_8169" data-name="Path 8169" d="M292.376,159.568h-10.3a.343.343,0,0,1-.343-.343v-9.8a.343.343,0,0,1,.343-.343h10.3a.343.343,0,0,1,.343.343v9.8A.35.35,0,0,1,292.376,159.568Zm-9.939-.687h9.616v-9.115h-9.616Z" transform="translate(-67.445 -33.469)" fill="#d1d3d4"/>
    <rect id="Rectangle_2149" data-name="Rectangle 2149" width="14.699" height="4.197" transform="translate(212.032 73.555)" fill="#fff"/>
    <path id="Path_8170" data-name="Path 8170" d="M292.979,92.241H278.287a.357.357,0,0,1-.357-.357v-4.2a.357.357,0,0,1,.357-.357h14.692a.357.357,0,0,1,.357.357v4.224A.357.357,0,0,1,292.979,92.241Zm-14.342-.687h13.991V88.037H278.665Z" transform="translate(-66.255 -14.132)" fill="#231f20"/>
    <rect id="Rectangle_2150" data-name="Rectangle 2150" width="1.326" height="3.228" transform="translate(79.66 125.056) rotate(19.46)" fill="#d1d3d4"/>
  </g>
</svg>
