<svg xmlns="http://www.w3.org/2000/svg" xmlns:xlink="http://www.w3.org/1999/xlink" width="73.992" height="72.142" viewBox="0 0 73.992 72.142"><defs><style>.a{fill:url(#a);}.b{fill:#ff7f18;}</style><radialGradient id="a" cx="0.329" cy="0.224" r="0.781" gradientTransform="translate(-0.01 0.01) scale(0.973 0.968)" gradientUnits="objectBoundingBox"><stop offset="0" stop-color="#423325" stop-opacity="0.98"/><stop offset="1" stop-color="#1c0a00"/></radialGradient></defs><path class="a" d="M24.8,155.549H92.629v65.976H24.8Z" transform="translate(-21.72 -152.466)"/><path class="b" d="M3.083,133.829H70.909V199.8H3.083ZM0,202.888H73.991V130.746H0Zm48.464-46.43c0-.247.092-.37.37-.37h4.84c.246,0,.37.092.37.37v24.325c0,.246-.062.37-.37.37H48.9c-.308,0-.4-.154-.4-.4V156.458Zm-.339-7a3.145,3.145,0,0,1,6.289,0,2.946,2.946,0,0,1-3.206,3.145A2.9,2.9,0,0,1,48.125,149.46ZM34.252,166.6c-.863-3.422-2.9-10.883-3.669-14.49h-.062c-.647,3.607-2.281,9.711-3.576,14.49ZM25.681,171.6l-2.436,9.249c-.062.246-.154.308-.462.308H18.251c-.308,0-.37-.092-.308-.462L26.7,150.045a9.987,9.987,0,0,0,.308-2.559c0-.216.092-.308.247-.308h6.474c.216,0,.308.062.37.308l9.8,33.265c.062.246,0,.4-.247.4H38.537c-.247,0-.4-.062-.462-.277l-2.528-9.28H25.681Z" transform="translate(0 -130.746)"/></svg>