<svg xmlns="http://www.w3.org/2000/svg" width="98.401" height="58.844" viewBox="0 0 98.401 58.844"><defs><style>.a{fill:#252f3f;}.b{fill:#fd9a27;fill-rule:evenodd;}</style></defs><path class="a" d="M37.762,22.471a9.9,9.9,0,0,0,.36,2.913,17.518,17.518,0,0,0,1.047,2.356,1.424,1.424,0,0,1,.229.753,1.3,1.3,0,0,1-.622.982l-2.062,1.375a1.569,1.569,0,0,1-.851.295,1.506,1.506,0,0,1-.982-.458A10.125,10.125,0,0,1,33.7,29.147c-.327-.556-.655-1.178-1.015-1.931a12.09,12.09,0,0,1-9.622,4.516,8.967,8.967,0,0,1-6.545-2.356A8.407,8.407,0,0,1,14.1,23.093a8.425,8.425,0,0,1,2.978-6.742A11.906,11.906,0,0,1,25.1,13.8a25.912,25.912,0,0,1,3.469.262c1.211.164,2.455.425,3.764.72V12.391c0-2.487-.524-4.222-1.538-5.236-1.047-1.015-2.815-1.505-5.335-1.505a14.89,14.89,0,0,0-3.535.425,26.077,26.077,0,0,0-3.535,1.113,9.39,9.39,0,0,1-1.145.425,2.007,2.007,0,0,1-.524.1c-.458,0-.687-.327-.687-1.015v-1.6a2.071,2.071,0,0,1,.229-1.145,2.451,2.451,0,0,1,.916-.687A18.842,18.842,0,0,1,21.3,1.787a19.842,19.842,0,0,1,5.105-.622c3.895,0,6.742.884,8.575,2.651,1.8,1.767,2.716,4.451,2.716,8.051v10.6ZM24.475,27.445a10.606,10.606,0,0,0,3.371-.589,7.293,7.293,0,0,0,3.109-2.095,5.2,5.2,0,0,0,1.113-2.095,11.749,11.749,0,0,0,.327-2.847V18.445a27.331,27.331,0,0,0-3.011-.556,24.66,24.66,0,0,0-3.076-.2A7.545,7.545,0,0,0,21.431,19a4.562,4.562,0,0,0-1.6,3.764,4.568,4.568,0,0,0,1.211,3.469A4.538,4.538,0,0,0,24.475,27.445Zm26.28,3.535a1.827,1.827,0,0,1-1.244-.327,2.667,2.667,0,0,1-.687-1.276l-7.691-25.3a5.733,5.733,0,0,1-.295-1.309.718.718,0,0,1,.785-.818h3.207a1.814,1.814,0,0,1,1.276.327,2.678,2.678,0,0,1,.655,1.276l5.5,21.665L57.365,3.555a2.3,2.3,0,0,1,.622-1.276A2.251,2.251,0,0,1,59.3,1.951h2.618a1.97,1.97,0,0,1,1.309.327,2.205,2.205,0,0,1,.622,1.276l5.171,21.927L74.678,3.555a2.806,2.806,0,0,1,.655-1.276,2.135,2.135,0,0,1,1.276-.327h3.044a.727.727,0,0,1,.818.818,3.263,3.263,0,0,1-.065.524,4.655,4.655,0,0,1-.229.818l-7.887,25.3a2.509,2.509,0,0,1-.687,1.276,2.094,2.094,0,0,1-1.244.327H67.544a1.97,1.97,0,0,1-1.309-.327,2.32,2.32,0,0,1-.622-1.309L60.54,8.267,55.5,29.344a2.554,2.554,0,0,1-.622,1.309,2.029,2.029,0,0,1-1.309.327Zm42.054.884a21.657,21.657,0,0,1-5.04-.589,14.888,14.888,0,0,1-3.764-1.309,2.358,2.358,0,0,1-1.015-.916,2.31,2.31,0,0,1-.2-.916V26.464c0-.687.262-1.015.753-1.015a1.853,1.853,0,0,1,.589.1c.2.065.491.2.818.327a17.8,17.8,0,0,0,3.6,1.145,19.654,19.654,0,0,0,3.895.393,8.83,8.83,0,0,0,4.778-1.08,3.524,3.524,0,0,0,1.7-3.109,3.187,3.187,0,0,0-.884-2.291,8.211,8.211,0,0,0-3.305-1.7l-4.745-1.473a9.982,9.982,0,0,1-5.236-3.338,7.8,7.8,0,0,1-1.636-4.745,7.284,7.284,0,0,1,.884-3.633,8.415,8.415,0,0,1,2.356-2.684,10.387,10.387,0,0,1,3.4-1.7A14.264,14.264,0,0,1,93.889,1.1a16.429,16.429,0,0,1,2.193.131c.753.1,1.44.229,2.127.36.655.164,1.276.327,1.865.524a7.143,7.143,0,0,1,1.375.589,2.83,2.83,0,0,1,.982.818,1.764,1.764,0,0,1,.295,1.08V6.14c0,.687-.262,1.047-.753,1.047a3.4,3.4,0,0,1-1.244-.393,14.972,14.972,0,0,0-6.284-1.276,8.447,8.447,0,0,0-4.353.916,3.16,3.16,0,0,0-1.538,2.913,3.09,3.09,0,0,0,.982,2.324,9.776,9.776,0,0,0,3.6,1.8l4.647,1.473a9.954,9.954,0,0,1,5.073,3.142,7.406,7.406,0,0,1,1.505,4.582,8.413,8.413,0,0,1-.851,3.8,8.8,8.8,0,0,1-2.389,2.88,10.549,10.549,0,0,1-3.633,1.833A15.563,15.563,0,0,1,92.809,31.864Z" transform="translate(-10.031 -1.1)"/><g transform="translate(0 36.685)"><path class="b" d="M90.631,127.18c-10.767,7.953-26.411,12.175-39.862,12.175A72.114,72.114,0,0,1,2.1,120.8c-1.015-.916-.1-2.16,1.113-1.44a98.145,98.145,0,0,0,48.7,12.927,97.179,97.179,0,0,0,37.145-7.593C90.86,123.874,92.4,125.871,90.631,127.18Z" transform="translate(-1.668 -117.195)"/><path class="b" d="M259.475,118.071c-1.375-1.767-9.1-.851-12.6-.425-1.047.131-1.211-.785-.262-1.473,6.153-4.32,16.265-3.076,17.444-1.636,1.178,1.473-.327,11.585-6.087,16.429-.884.753-1.735.36-1.342-.622C257.936,127.1,260.849,119.806,259.475,118.071Z" transform="translate(-166.028 -113.192)"/></g></svg>