<svg xmlns="http://www.w3.org/2000/svg" width="155.688" height="44.853" viewBox="0 0 155.688 44.853"><defs><style>.a{fill:#1587d9;}</style></defs><g transform="translate(0 0)"><path class="a" d="M7.374,38.95c7.44-1.314,13.585-2.4,13.655-2.417l.128-.027-7.024-8.355c-3.863-4.6-7.024-8.372-7.024-8.394,0-.041,7.253-20.014,7.293-20.085.014-.024,4.949,8.5,11.964,20.656L38.4,41.185l.092.16-22.322,0-22.322,0L7.374,38.95Zm85.6-2.021c-3.4-.218-5.374-2.153-5.9-5.774-.139-.963-.14-.988-.154-7.243l-.014-6.053H89.92l.012,5.855c.011,5.277.017,5.9.068,6.267a5.552,5.552,0,0,0,1.306,3.247,3.748,3.748,0,0,0,2.106,1.1,8.009,8.009,0,0,0,2.02,0,4.464,4.464,0,0,0,2.289-1.243,6.05,6.05,0,0,0,1.543-2.957l.089-.4.01-5.9.01-5.9h3.071V36.489H99.4V35.017a11.154,11.154,0,0,0-.034-1.461,1.21,1.21,0,0,0-.173.265,6.177,6.177,0,0,1-2.352,2.354,6.6,6.6,0,0,1-3.865.754Zm34.489-.015a7.967,7.967,0,0,1-3.495-1.141,8.517,8.517,0,0,1-3.84-6.617,15.993,15.993,0,0,1-.037-3.373,10.959,10.959,0,0,1,2.154-5.381,11,11,0,0,1,1.3-1.3,8.1,8.1,0,0,1,3.32-1.585,10.789,10.789,0,0,1,2.692-.157,7.08,7.08,0,0,1,4.772,2.452,9.369,9.369,0,0,1,1.927,5.826c.013.382.016,1.05.007,1.486l-.017.793-6.582.008-6.582.008v.294a7.279,7.279,0,0,0,.593,2.779,6.11,6.11,0,0,0,1.339,1.958,5.884,5.884,0,0,0,3.337,1.411,13.013,13.013,0,0,0,2.18-.084,9.241,9.241,0,0,0,4.11-1.7c.137-.1.267-.2.29-.213a5.553,5.553,0,0,1,.041,1.371v1.4l-.311.192a10.893,10.893,0,0,1-4.41,1.529,25.324,25.324,0,0,1-2.788.041Zm5.728-11.785a5.981,5.981,0,0,0-1.524-4.018,4.189,4.189,0,0,0-2.324-1.127,6.866,6.866,0,0,0-1.8.051,4.715,4.715,0,0,0-2.462,1.308,6.708,6.708,0,0,0-1.629,2.608,8.371,8.371,0,0,0-.315,1.282l-.022.157h10.079ZM43.915,36.448c.008-.023,2.243-5.894,4.967-13.048l4.953-13.006h3.183l.132.339c.4,1.035,9.915,25.729,9.915,25.742s-.762.015-1.693.015H63.678l-1.371-3.65-1.371-3.65H49.9l-.048.124c-.026.068-.612,1.71-1.3,3.65l-1.254,3.526H45.6a9.147,9.147,0,0,1-1.682-.041ZM59.929,26.4c0-.006-.923-2.507-2.05-5.558-2.109-5.708-2.227-6.051-2.394-6.968-.078-.43-.118-.442-.164-.05a9.11,9.11,0,0,1-.288,1.255c-.055.173-1,2.78-2.111,5.794s-2.011,5.493-2.011,5.508,2.029.028,4.509.028,4.509,0,4.509-.011Zm8.159,9.61v-.475l5.5-7.56,5.5-7.56L74.107,20.4l-4.979-.017-.009-1.263-.009-1.263h14.4v.854l-5.5,7.6c-3.025,4.181-5.5,7.608-5.5,7.617s2.445.016,5.434.016h5.434v2.544H68.088Zm40.355.453c-.012-.012-.022-4.2-.022-9.315V17.859h3.006v1.916c0,1.054.013,1.916.028,1.916a1.705,1.705,0,0,0,.163-.383,6.622,6.622,0,0,1,1.679-2.586,4.352,4.352,0,0,1,2.375-1.181,4.92,4.92,0,0,1,.991-.036,4.389,4.389,0,0,1,1.379.193l.124.04v3.12l-.355-.178a3.793,3.793,0,0,0-1.99-.4,3.6,3.6,0,0,0-1.189.233,3.762,3.762,0,0,0-1.894,1.547,8.987,8.987,0,0,0-1.257,3.615c-.025.221-.039,2.021-.045,5.571l-.009,5.244h-1.481C109.131,36.489,108.455,36.48,108.443,36.467ZM-19.415,36.4c0-.012,3.31-5.757,7.355-12.767l7.355-12.746L3.865,3.7c4.714-3.956,8.584-7.2,8.6-7.2a1.507,1.507,0,0,1-.138.347L3.02,16.8l-9.141,19.6-6.647.008C-16.424,36.42-19.415,36.414-19.415,36.4Z" transform="translate(19.415 3.507)"/></g></svg>