<svg xmlns="http://www.w3.org/2000/svg" width="27.845" height="27.844" viewBox="0 0 27.845 27.844"><defs><style>.a{fill:none;}.b{fill:#0054a6;}</style></defs><path class="a" d="M0,0H27.845V27.845H0Z"/><path class="b" d="M7.8,18.082a1.164,1.164,0,0,1,1.16,1.16,2.327,2.327,0,0,1-2.32,2.32,3.278,3.278,0,0,1-.58-.058,4.579,4.579,0,0,0,.58-2.262,1.164,1.164,0,0,1,1.16-1.16M21.34,3a1.188,1.188,0,0,0-.824.336l-10.4,10.4,3.191,3.191,10.4-10.4a1.155,1.155,0,0,0,0-1.636L22.153,3.336A1.132,1.132,0,0,0,21.34,3ZM7.8,15.762A3.476,3.476,0,0,0,4.32,19.243,2.354,2.354,0,0,1,2,21.563a6,6,0,0,0,4.641,2.32,4.639,4.639,0,0,0,4.641-4.641A3.476,3.476,0,0,0,7.8,15.762Z" transform="translate(0.32 0.481)"/></svg>