<svg xmlns="http://www.w3.org/2000/svg" width="30.113" height="30.1" viewBox="0 0 30.113 30.1"><defs><style>.a{fill:none;}.b{fill:#0054a6;}</style></defs><path class="a" d="M0,0H30.1V30.1H0Z"/><path class="b" d="M15.06,6.508a6.926,6.926,0,0,1,6.773,5.556l.376,1.881,1.906.138a3.742,3.742,0,0,1-.276,7.475H7.535a5.013,5.013,0,0,1-.552-10l1.342-.138.627-1.191A6.845,6.845,0,0,1,15.06,6.508M15.06,4A9.42,9.42,0,0,0,6.707,9.067a7.523,7.523,0,0,0,.828,15h16.3a6.253,6.253,0,0,0,.452-12.492A9.417,9.417,0,0,0,15.06,4Z" transform="translate(0.003 1.017)"/></svg>