<svg xmlns="http://www.w3.org/2000/svg" width="32.854" height="32.854" viewBox="0 0 32.854 32.854"><defs><style>.a{fill:none;}.b{fill:#0054a6;}</style></defs><path class="a" d="M0,0H32.854V32.854H0Z"/><path class="b" d="M5.476,6.738H30.116V4H5.476A2.746,2.746,0,0,0,2.738,6.738V21.8H0V25.9H19.165V21.8H5.476Zm26.01,2.738H23.272A1.373,1.373,0,0,0,21.9,10.845V24.534A1.373,1.373,0,0,0,23.272,25.9h8.214a1.373,1.373,0,0,0,1.369-1.369V10.845A1.373,1.373,0,0,0,31.485,9.476ZM30.116,21.8H24.641V12.214h5.476Z" transform="translate(0 1.476)"/></svg>