<svg xmlns="http://www.w3.org/2000/svg" width="139.23" height="48.235" viewBox="0 0 139.23 48.235"><defs><style>.a,.b{fill:#157cfc;}.b{fill-rule:evenodd;}</style></defs><g transform="translate(0 0)"><path class="a" d="M23.923,47.839V38.564A14.717,14.717,0,0,0,37.594,18.493a13.886,13.886,0,0,0-8.273-8.245A14.735,14.735,0,0,0,9.248,23.918H0A24.009,24.009,0,0,1,31.545,1.187,23.129,23.129,0,0,1,46.654,16.295,24.005,24.005,0,0,1,23.923,47.84Z" transform="translate(0 0)"/><path class="b" d="M23.534,22.1v9.248H14.285V22.1Zm-9.248,9.248v7.066H7.206v-7.08Zm-7.08,0H1.266v-5.94h5.94Z" transform="translate(0.416 7.266)"/><path class="a" d="M57.762,2.76a13.421,13.421,0,0,0-7.84-2.2h-6.68V21.8h6.741a12.89,12.89,0,0,0,7.84-2.339,8.312,8.312,0,0,0,2.72-3.388,12.67,12.67,0,0,0,.954-5.01A12.407,12.407,0,0,0,60.543,6.1,7.7,7.7,0,0,0,57.775,2.76ZM47.169,4.141h2.1a10.77,10.77,0,0,1,5.714,1.382c1.621,1,2.432,2.864,2.432,5.534,0,2.768-.8,4.724-2.432,5.774A10.3,10.3,0,0,1,49.3,18.213H47.157V4.133ZM66.112.28a2.386,2.386,0,0,0-1.67.668,2.193,2.193,0,0,0-.668,1.622,2.385,2.385,0,0,0,.668,1.67,2.3,2.3,0,0,0,1.67.668,2.472,2.472,0,0,0,1.67-.668,2.3,2.3,0,0,0,.668-1.67A2.193,2.193,0,0,0,67.782.948,2.5,2.5,0,0,0,66.112.28ZM64.2,6.818h3.77V21.8H64.2Zm17.466,1.24A5.716,5.716,0,0,0,77.9,6.436a6.738,6.738,0,0,0-5.153,2.147,7.5,7.5,0,0,0-2.052,5.392,7.588,7.588,0,0,0,2,5.344,6.947,6.947,0,0,0,5.153,2.1,5.79,5.79,0,0,0,3.721-1.193v.332a3.868,3.868,0,0,1-1,2.864,3.676,3.676,0,0,1-2.72,1c-1.718,0-2.817-.668-4.151-2.481l-2.578,2.481.048.1A9.107,9.107,0,0,0,73.7,26.763a7.611,7.611,0,0,0,4.2,1.1,7.159,7.159,0,0,0,5.392-2.052,7.5,7.5,0,0,0,2-5.44V6.768H81.57V8.057Zm-.989,8.859a3.229,3.229,0,0,1-2.578,1.1,3.318,3.318,0,0,1-2.578-1.1,4.216,4.216,0,0,1-.954-2.923,4.481,4.481,0,0,1,.954-2.958,3.171,3.171,0,0,1,2.578-1.1,3.318,3.318,0,0,1,2.578,1.1,4.359,4.359,0,0,1,1,2.958A4.282,4.282,0,0,1,80.678,16.916Zm7.906-10.1h3.77V21.8h-3.77ZM90.494.28a2.385,2.385,0,0,0-1.67.668,2.192,2.192,0,0,0-.668,1.622,2.385,2.385,0,0,0,.668,1.67,2.3,2.3,0,0,0,1.67.668,2.472,2.472,0,0,0,1.67-.668,2.3,2.3,0,0,0,.668-1.67A2.192,2.192,0,0,0,92.164.948,2.365,2.365,0,0,0,90.494.28ZM100.61,2.76H96.889V6.815H94.742V10.25h2.147v6.2q0,2.934,1.145,4.151c.764.811,2.147,1.193,4.055,1.193l1.814-.048h.191V18.314l-1.289.048a2.3,2.3,0,0,1-1.767-.478,3.248,3.248,0,0,1-.429-2V10.206h3.531V6.77H100.61v-4ZM121.795.519h3.77V21.8h-3.77ZM117.071,7.96a7.129,7.129,0,0,0-4.677-1.479,7.954,7.954,0,0,0-3.481.8,6.193,6.193,0,0,0-2.578,2.385l.048.048L108.814,12a3.921,3.921,0,0,1,3.578-2.147,2.942,2.942,0,0,1,1.956.621,2.1,2.1,0,0,1,.764,1.621v.718a9.549,9.549,0,0,0-2.768-.429,7.317,7.317,0,0,0-4.518,1.289,4.5,4.5,0,0,0-1.718,3.77,4.19,4.19,0,0,0,1.479,3.388,5.646,5.646,0,0,0,3.628,1.241,6.336,6.336,0,0,0,4.008-1.575V21.74h3.721V12.1a5.761,5.761,0,0,0-1.86-4.151Zm-6.68,8.111a3.324,3.324,0,0,1,1.814-.429,9.14,9.14,0,0,1,2.864.525v1.479a4.542,4.542,0,0,1-3.245,1.145,2.43,2.43,0,0,1-1.528-.429,1.355,1.355,0,0,1-.525-1.1A1.315,1.315,0,0,1,110.391,16.071ZM76.92,42.4a10.283,10.283,0,0,1-1.908,1.767,3.6,3.6,0,0,1-1.956.525,3.345,3.345,0,0,1-2.72-1.241,4.649,4.649,0,0,1-1.1-3.149,4.593,4.593,0,0,1,1.1-3.149,3.492,3.492,0,0,1,2.72-1.241,5.043,5.043,0,0,1,3.578,2.052l2.481-2.385a7.581,7.581,0,0,0-11.5-.858,7.505,7.505,0,0,0-2.2,5.581,7.74,7.74,0,0,0,2.2,5.581,7.281,7.281,0,0,0,5.342,2.259A7.607,7.607,0,0,0,79.4,44.8l-2.482-2.4Zm15.507-7.538A5.259,5.259,0,0,0,90.28,33.1a7.181,7.181,0,0,0-3.1-.668,6.371,6.371,0,0,0-5.105,2.291,8.641,8.641,0,0,0-1.908,5.63,7.884,7.884,0,0,0,2.052,5.581,7.222,7.222,0,0,0,5.44,2.147,7.632,7.632,0,0,0,6.2-3.054l.1-.1-2.481-2.385c-.239.286-.571.571-.858.858a4.918,4.918,0,0,1-1.1.8,4.159,4.159,0,0,1-1.908.429,3.6,3.6,0,0,1-2.578-.906,3.48,3.48,0,0,1-1.1-2.291h9.973l.048-1.382a10.515,10.515,0,0,0-.381-2.768,8.043,8.043,0,0,0-1.145-2.432Zm-8.254,3.531a3.6,3.6,0,0,1,1-1.767,2.662,2.662,0,0,1,1.956-.764,2.708,2.708,0,0,1,2.1.764,2.883,2.883,0,0,1,.764,1.767h-5.82Zm22.712-4.5a7.129,7.129,0,0,0-4.677-1.479,7.954,7.954,0,0,0-3.481.8A6.193,6.193,0,0,0,96.148,35.6l.048.048,2.432,2.291a3.921,3.921,0,0,1,3.578-2.147,2.942,2.942,0,0,1,1.956.621,2.1,2.1,0,0,1,.764,1.621v.718a9.549,9.549,0,0,0-2.768-.429,7.317,7.317,0,0,0-4.518,1.289,4.5,4.5,0,0,0-1.718,3.77A4.19,4.19,0,0,0,97.4,46.77a5.646,5.646,0,0,0,3.628,1.241,6.336,6.336,0,0,0,4.008-1.575v1.241h3.721V38.039a5.761,5.761,0,0,0-1.86-4.151Zm-6.68,8.111a3.324,3.324,0,0,1,1.814-.429,9.14,9.14,0,0,1,2.864.525v1.479a4.542,4.542,0,0,1-3.245,1.145,2.43,2.43,0,0,1-1.528-.429,1.355,1.355,0,0,1-.525-1.1,1.315,1.315,0,0,1,.621-1.193Zm22.9-7.84a5.566,5.566,0,0,0-4.39-1.767,5.11,5.11,0,0,0-3.628,1.289v-.906h-3.675V47.72h3.77V39.479a4.062,4.062,0,0,1,.8-2.658,2.773,2.773,0,0,1,2.243-.954,2.368,2.368,0,0,1,1.956.858,3.6,3.6,0,0,1,.718,2.339v8.684h3.77V39.065a7.029,7.029,0,0,0-1.575-4.867ZM52.538,48.055A10.974,10.974,0,1,1,63.513,37.079,10.975,10.975,0,0,1,52.538,48.055Zm0-18.071a7.109,7.109,0,1,0,7.109,7.109,7.126,7.126,0,0,0-7.109-7.109Z" transform="translate(13.666 0.092)"/></g></svg>