<svg xmlns="http://www.w3.org/2000/svg" width="55.639" height="102.297" viewBox="0 0 55.639 102.297"><defs><style>.a,.b{fill:#f88527;}.a{font-size:21px;font-family:OfficinaSans-Bold, ITC Officina Sans;font-weight:700;letter-spacing:0.035em;}.c{fill:#9e501e;}</style></defs><g transform="translate(0)"><text class="a" transform="translate(11 97.297)"><tspan x="0" y="0">EC2</tspan></text><g transform="translate(0)"><path class="b" d="M19.338,98.192l-6.5,1.484V57.565l6.5,1.486V98.192" transform="translate(-10.046 -45.054)"/><path class="b" d="M50.867,55.624l-8.113,2.306V9.261l8.113,2.3v44.06m10.407,2.554L50.867,61.986V5.2L61.274,9.011V58.177M89.1,53.265,61.274,67.178V0L89.1,13.913V53.265" transform="translate(-33.462)"/><path class="c" d="M22.265,2.774,27.812,0V67.178l-5.547-2.773V2.774M13.111,7.35,17.4,5.2V61.975l-4.294-2.147V7.35m-7.239,3.62,3.42-1.71V57.918l-3.42-1.711V10.971M2.79,12.511,0,13.906V53.273l2.79,1.394V12.511"/></g></g></svg>