<svg xmlns="http://www.w3.org/2000/svg" width="64.406" height="98.719" viewBox="0 0 64.406 98.719"><defs><style>.a,.c{fill:#f88527;}.a{font-size:21px;font-family:OfficinaSans-Bold, ITC Officina Sans;font-weight:700;letter-spacing:0.035em;}.b{fill:#9e501e;}.d{fill:#6d3a14;}.e{fill:#fdc192;}.f{fill:#f78527;}</style></defs><text class="a" transform="translate(15.307 93.719)"><tspan x="0" y="0">ECS</tspan></text><g transform="translate(0)"><path class="b" d="M3.448,56.079l13.59-25.038L3.448,3.992,0,5.7V54.372ZM36.454,16.544,13.925,12.76,19.013,5.6l22.764,10.11Zm.268,26.88L10.009,47.811l5.59,7.7L41.778,44.2Z" transform="translate(0 0.025)"/><path class="c" d="M11.461,5.834V54.206L3.426,56.079V3.992Z" transform="translate(0.022 0.025)"/><path class="b" d="M11.437,60.121,7.22,58.012V2.109L11.437,0l7.934,33.441Zm30.3-44.388-5.356.837v26.8l5.356.837,4.887-13.624Z" transform="translate(0.046)"/><g transform="translate(11.472)"><path class="c" d="M19.612,2.345V57.813l-8.2,2.31V0Z" transform="translate(-11.4)"/><path class="c" d="M47.3,49.978v-6.8L11.4,49.844V60.121Zm.067-39.769v6.6L11.4,9.976V0Z" transform="translate(-11.4)"/><path class="c" d="M41.513,51.5V8.55l5.756,1.573v39.8Z" transform="translate(-11.209 0.054)"/></g><path class="d" d="M58.842,12.507l5.289,12.218L48.7,25.462l-5.456-.368Z" transform="translate(0.275 0.079)"/><path class="b" d="M43.243,15.051V25.094l15.6-.9V12.507Z" transform="translate(0.275 0.079)"/><path class="d" d="M36.105,24.62l-7.465-.5L44.474,8.183l8.034,15.4Z" transform="translate(0.182 0.052)"/><g transform="translate(28.822 8.235)"><path class="b" d="M28.64,11.865V24.118l15.834-1.338V8.183Zm14.7,33.308V35.13l20.889.335L58.935,47.682Z" transform="translate(-28.64 -8.183)"/><path class="b" d="M28.64,48.177V35.925l23.868.535-8.034,15.4Z" transform="translate(-28.64 -8.007)"/></g><path class="e" d="M36.105,35.432l-7.465.5,15.834,1.338,8.034-.8Zm22.83.4,5.289-.536-15.432-.7-5.456.368Z" transform="translate(0.182 0.22)"/><path class="f" d="M58.835,12.534V24.218l5.289.536V14.107Zm-6.428-1.942V23.58l-8.034-.8V8.183Zm6.428,37.091V36l5.289-.534V46.109Zm-6.428,1.942V36.637l-8.034.8v14.6Z" transform="translate(0.282 0.052)"/></g></svg>