<svg xmlns="http://www.w3.org/2000/svg" width="43" height="43" viewBox="0 0 43 43"><defs><style>.a,.b,.c,.e{fill:none;}.a,.b{stroke:#0054a6;stroke-width:1.5px;}.a{stroke-linecap:round;}.d,.f{stroke:none;}.f{fill:#0054a6;}</style></defs><g transform="translate(-2585 5167)"><line class="a" x2="2.064" transform="translate(2589.532 -5150.263)"/><line class="a" x2="2.064" transform="translate(2621.032 -5150.263)"/><line class="a" x2="2.064" transform="translate(2589.532 -5144.34)"/><line class="a" x2="2.064" transform="translate(2621.032 -5144.34)"/><line class="a" x2="2.064" transform="translate(2589.532 -5138.417)"/><line class="a" x2="2.064" transform="translate(2621.032 -5138.417)"/><line class="a" x2="2.064" transform="translate(2621.032 -5132.494)"/><line class="a" x2="2.064" transform="translate(2589.532 -5132.494)"/><g class="b" transform="translate(2600 -5164)"><rect class="d" width="6" height="6" rx="0.5"/><rect class="e" x="0.75" y="0.75" width="4.5" height="4.5" rx="0.25"/></g><g class="b" transform="translate(2607 -5164)"><rect class="d" width="6" height="6" rx="0.5"/><rect class="e" x="0.75" y="0.75" width="4.5" height="4.5" rx="0.25"/></g><g class="b" transform="translate(2600 -5155)"><rect class="d" width="6" height="6" rx="0.5"/><rect class="e" x="0.75" y="0.75" width="4.5" height="4.5" rx="0.25"/></g><g class="b" transform="translate(2607 -5155)"><rect class="d" width="6" height="6" rx="0.5"/><rect class="e" x="0.75" y="0.75" width="4.5" height="4.5" rx="0.25"/></g><g class="b" transform="translate(2600 -5147)"><rect class="d" width="6" height="6" rx="0.5"/><rect class="e" x="0.75" y="0.75" width="4.5" height="4.5" rx="0.25"/></g><g class="b" transform="translate(2607 -5147)"><rect class="d" width="6" height="6" rx="0.5"/><rect class="e" x="0.75" y="0.75" width="4.5" height="4.5" rx="0.25"/></g><g class="b" transform="translate(2600 -5138)"><rect class="d" width="6" height="6" rx="0.5"/><rect class="e" x="0.75" y="0.75" width="4.5" height="4.5" rx="0.25"/></g><g class="b" transform="translate(2607 -5138)"><rect class="d" width="6" height="6" rx="0.5"/><rect class="e" x="0.75" y="0.75" width="4.5" height="4.5" rx="0.25"/></g><g class="b" transform="translate(2585 -5130)"><rect class="d" width="43" height="6" rx="0.5"/><rect class="e" x="0.75" y="0.75" width="41.5" height="4.5" rx="0.25"/></g><g class="b" transform="translate(2596 -5167)"><rect class="d" width="21" height="39"/><rect class="e" x="0.75" y="0.75" width="19.5" height="37.5"/></g><g class="c" transform="translate(2594.737 -5160.465) rotate(90)"><path class="d" d="M0,.045,31.831,0V8.256L6.9,8.283Z"/><path class="f" d="M 30.33068466186523 1.502144813537598 L 3.208595275878906 1.540812015533447 L 7.597429275512695 6.782215595245361 L 30.33068466186523 6.757980823516846 L 30.33068466186523 1.502144813537598 M 31.83068466186523 2.86102294921875e-06 L 31.83068466186523 8.256382942199707 L 6.897653579711914 8.282963752746582 L 3.814697265625e-06 0.04538345336914062 L 31.83068466186523 2.86102294921875e-06 Z"/></g><g class="c" transform="translate(2626.211 -5160.477) rotate(90)"><path class="d" d="M0,8.243l31.853.045V.027L6.9,0Z"/><path class="f" d="M 30.35340118408203 6.786736965179443 L 30.35340118408203 1.525010704994202 L 7.602354049682617 1.500746726989746 L 3.208592653274536 6.748030662536621 L 30.35340118408203 6.786736965179443 M 31.85340118408203 8.288878440856934 L 5.920410330872983e-07 8.24345874786377 L 6.902580738067627 -1.256408722838387e-06 L 31.85340118408203 0.02660874277353287 L 31.85340118408203 8.288878440856934 Z"/></g></g></svg>