<svg xmlns="http://www.w3.org/2000/svg" width="29.886" height="29.886" viewBox="0 0 29.886 29.886"><defs><style>.a{fill:none;}.b{fill:#0054a6;}</style></defs><path class="a" d="M0,0H29.886V29.886H0Z"/><path class="b" d="M20.056,3a7.457,7.457,0,0,0-5.6,2.6A7.457,7.457,0,0,0,8.849,3,6.782,6.782,0,0,0,2,9.849c0,4.707,4.234,8.543,10.647,14.37l1.806,1.631,1.806-1.644c6.413-5.815,10.647-9.651,10.647-14.358A6.782,6.782,0,0,0,20.056,3ZM14.577,22.364l-.125.125-.125-.125C8.4,17,4.491,13.448,4.491,9.849A4.256,4.256,0,0,1,8.849,5.491a4.868,4.868,0,0,1,4.446,2.939h2.329a4.837,4.837,0,0,1,4.433-2.939,4.256,4.256,0,0,1,4.358,4.358C24.415,13.448,20.5,17,14.577,22.364Z" transform="translate(0.491 0.736)"/></svg>