<svg xmlns="http://www.w3.org/2000/svg" width="47" height="70.5" viewBox="0 0 47 70.5"><defs><style>.a{fill:#0acf83;}.b{fill:#a259ff;}.c{fill:#f24e1e;}.d{fill:#ff7262;}.e{fill:#1abcfe;}</style></defs><path class="a" d="M11.75,223.5A11.754,11.754,0,0,0,23.5,211.75V200H11.75a11.75,11.75,0,0,0,0,23.5Z" transform="translate(0 -153)"/><path class="b" d="M0,111.75A11.754,11.754,0,0,1,11.75,100H23.5v23.5H11.75A11.754,11.754,0,0,1,0,111.75Z" transform="translate(0 -76.5)"/><path class="c" d="M0,11.75A11.754,11.754,0,0,1,11.75,0H23.5V23.5H11.75A11.754,11.754,0,0,1,0,11.75Z"/><path class="d" d="M100,0h11.75a11.75,11.75,0,0,1,0,23.5H100Z" transform="translate(-76.5)"/><path class="e" d="M123.5,111.75A11.75,11.75,0,1,1,111.75,100,11.754,11.754,0,0,1,123.5,111.75Z" transform="translate(-76.5 -76.5)"/></svg>