<svg xmlns="http://www.w3.org/2000/svg" width="64" height="96" viewBox="0 0 64 96"><defs><style>.a{fill:#f68223;font-size:16px;font-family:HelveticaNeue-Medium, Helvetica Neue;font-weight:500;}.b{fill:#ffc24a;}.c{fill:#ffa712;}.d{fill:#fea729;}.e{fill:#f4bd62;}.f{fill:#ffa50e;}.g{fill:#fea528;}.h{fill:#f6820c;}.i{fill:#fde068;}.j{fill:#fcca3f;}.k{fill:#eeab37;}</style></defs><g transform="translate(-807 -2379)"><text class="a" transform="translate(839 2472)"><tspan x="-31.728" y="0">Firebase</tspan></text><g transform="translate(815 2379)"><path class="b" d="M0,52.548.394,52,19.038,16.621l.039-.375L10.859.809a1.525,1.525,0,0,0-2.853.481Z" transform="translate(0 0)"/><path class="c" d="M1.253,53.187l.3-.581L20,17.6,11.8,2.1a1.385,1.385,0,0,0-2.635.479Z" transform="translate(-1.02 -1.06)"/><path class="d" d="M1.253,53.187l.3-.581L20,17.6,11.8,2.1a1.385,1.385,0,0,0-2.635.479Z" transform="translate(-1.02 -1.06)"/><path class="e" d="M108.47,68.008l6.119-6.267-6.121-11.685a1.577,1.577,0,0,0-2.778,0l-3.27,6.237v.531l6.05,11.184Z" transform="translate(-83.402 -40.085)"/><path class="f" d="M108.621,68.784l5.949-6.093-5.949-11.328a1.37,1.37,0,0,0-2.5-.11l-3.288,6.333-.1.324Z" transform="translate(-83.662 -41.122)"/><path class="g" d="M108.621,68.784l5.949-6.093-5.949-11.328a1.37,1.37,0,0,0-2.5-.11l-3.288,6.333-.1.324Z" transform="translate(-83.662 -41.122)"/><path class="h" d="M0,123.479l.179-.18.649-.264L24.684,99.268l.3-.823L19.035,87.1Z" transform="translate(0 -70.931)"/><path class="i" d="M25.832,122.781l21.59-12.041L41.257,72.769a1.476,1.476,0,0,0-2.5-.806L0,110.795,21.467,122.78a4.48,4.48,0,0,0,4.366,0" transform="translate(0 -58.247)"/><path class="j" d="M48.28,111.433,42.161,73.75a1.3,1.3,0,0,0-2.247-.821L1.29,111.515l21.231,11.867a4.446,4.446,0,0,0,4.333,0l21.426-11.95Z" transform="translate(-1.05 -59.041)"/><path class="k" d="M25.833,292.964a4.48,4.48,0,0,1-4.366,0L.174,281.149,0,281.332l21.466,11.986a4.48,4.48,0,0,0,4.366,0l21.59-12.041-.053-.325L25.833,292.964Z" transform="translate(-0.001 -228.784)"/></g></g></svg>