<svg xmlns="http://www.w3.org/2000/svg" xmlns:xlink="http://www.w3.org/1999/xlink" width="111.131" height="46.814" viewBox="0 0 111.131 46.814"><defs><style>.a{fill:#39cefd;}.b{fill:#03569b;}.c{fill:url(#a);}.d{fill:#16b9fd;}.e{fill:#59c9fa;}.f{fill:#757575;}.g{fill:#24b6f5;}.h{fill:#0a589f;}</style><linearGradient id="a" x1="0.197" y1="1.193" x2="0.699" y2="0.448" gradientUnits="objectBoundingBox"><stop offset="0" stop-color="#1a237e" stop-opacity="0.4"/><stop offset="0.01" stop-color="#1a237e" stop-opacity="0"/></linearGradient></defs><path class="a" d="M15.5,35.667l17.057-17.06h-12.4L9.305,29.464ZM0,20.16,20.16,0h12.4L6.2,26.362Z"/><path class="b" d="M20.158,40.318h12.4L21.707,29.464l-6.2,6.2Z"/><path class="c" d="M21.707,29.464l-6.2,6.2,9.2-3.187Z"/><path class="d" d="M9.3,29.46l6.2-6.2,6.2,6.2-6.2,6.2Z"/><path class="e" d="M32.56,18.606,21.708,29.464,32.56,40.32H20.16L9.3,29.464,20.16,18.606ZM20.16,0,0,20.16l6.2,6.2L32.56,0Z"/><path class="f" d="M36.5,10.808H47.34v2.12H38.7v6.414h7.8v2.094H38.7v8.115H36.5Zm13.463,0h2.225V29.552H49.963ZM60.327,29.97a4.759,4.759,0,0,1-3.7-1.414A5.8,5.8,0,0,1,55.379,24.6V16.2H57.6v8.063a3.921,3.921,0,0,0,.864,2.8,3.079,3.079,0,0,0,2.33.9,3.441,3.441,0,0,0,2-.6,3.842,3.842,0,0,0,1.36-1.57,4.419,4.419,0,0,0,.5-2.042V16.2h2.224V29.55h-2.12V27.6h-.105A4.4,4.4,0,0,1,62.9,29.279a5.137,5.137,0,0,1-2.566.68Zm15.116-.208a4.329,4.329,0,0,1-1.518-.262,3.48,3.48,0,0,1-1.152-.707,3.21,3.21,0,0,1-.785-1.152,4.3,4.3,0,0,1-.262-1.6V18.217H69.4V16.2h2.33V12.43h2.225V16.2H77.2v2.016H73.95v7.278a2.574,2.574,0,0,0,.42,1.623,1.8,1.8,0,0,0,1.44.576,2.712,2.712,0,0,0,1.466-.445v2.173a3.416,3.416,0,0,1-.812.262,5.285,5.285,0,0,1-1.02.08Zm9.437,0a4.329,4.329,0,0,1-1.518-.262,3.48,3.48,0,0,1-1.152-.707,3.21,3.21,0,0,1-.785-1.152,4.3,4.3,0,0,1-.262-1.6V18.217h-2.33V16.2h2.33V12.43h2.225V16.2h3.246v2.016H83.388v7.278a2.574,2.574,0,0,0,.42,1.623,1.8,1.8,0,0,0,1.44.576,2.712,2.712,0,0,0,1.466-.445v2.173a3.416,3.416,0,0,1-.812.262,5.285,5.285,0,0,1-1.02.08Zm9.8.208a6.548,6.548,0,0,1-3.43-.916,6.474,6.474,0,0,1-2.382-2.513,7.816,7.816,0,0,1-.838-3.64,8.067,8.067,0,0,1,.785-3.56,6.566,6.566,0,0,1,2.278-2.592,6.024,6.024,0,0,1,3.4-.97,6.288,6.288,0,0,1,3.4.9,5.657,5.657,0,0,1,2.2,2.408,7.694,7.694,0,0,1,.785,3.534,2.551,2.551,0,0,1-.08.68H90.254a5.306,5.306,0,0,0,.733,2.566,4.289,4.289,0,0,0,1.65,1.57,4.582,4.582,0,0,0,2.12.524,4.344,4.344,0,0,0,3.953-2.408l1.885.916a6.692,6.692,0,0,1-2.356,2.566,6.448,6.448,0,0,1-3.56.942Zm3.848-8.508a4.332,4.332,0,0,0-.47-1.675,3.565,3.565,0,0,0-1.335-1.414,4.1,4.1,0,0,0-2.25-.576,3.785,3.785,0,0,0-2.67,1.02,4.825,4.825,0,0,0-1.414,2.644h8.142Zm4.934-5.262h2.12v2.147h.105a3.517,3.517,0,0,1,1.518-1.806,4.392,4.392,0,0,1,3.926-.471v2.408a4.148,4.148,0,0,0-1.885-.42,3.1,3.1,0,0,0-1.78.55,3.963,3.963,0,0,0-1.3,1.492,4.316,4.316,0,0,0-.47,2v7.46h-2.225V16.2Z"/><rect class="g" width="9" height="9" transform="translate(9.25 29.5) rotate(-45)"/><path class="h" d="M0,0H9V16L.088,6.888Z" transform="translate(15.25 35.5) rotate(-45)"/></svg>