<svg xmlns="http://www.w3.org/2000/svg" width="135.798" height="64.235" viewBox="0 0 135.798 64.235"><defs><style>.a{fill:#ed412d;}.b{fill:#3e82f7;}.c{fill:#33ac54;}.d{fill:#febd2c;}.e{fill:#5f6368;}</style></defs><path class="a" d="M68.862,13.3l1.393.024,3.784-3.784.183-1.6a17,17,0,0,0-27.712,8.259,2.048,2.048,0,0,1,1.3-.073l7.562-1.244s.39-.645.584-.605a9.447,9.447,0,0,1,12.91-.974Z" transform="translate(4.966 -3.633)"/><path class="b" d="M76.6,15.439a17.031,17.031,0,0,0-5.133-8.273l-5.359,5.359a9.435,9.435,0,0,1,3.524,7.352v.946a4.724,4.724,0,0,1,0,9.447H60.184l-.946.95V36.89l.946.941h9.449a12.276,12.276,0,0,0,6.955-22.392Z" transform="translate(7.733 -2.865)"/><path class="c" d="M53.559,33.788h9.447V26.225H53.559a4.675,4.675,0,0,1-1.944-.422l-1.363.418L46.468,30l-.331,1.278a12.125,12.125,0,0,0,7.424,2.508Z" transform="translate(4.885 1.187)"/><path class="d" d="M54.428,12.175A12.283,12.283,0,0,0,47.01,34.251l5.478-5.478a4.723,4.723,0,1,1,6.245-6.245l5.478-5.478a12.267,12.267,0,0,0-9.788-4.87Z" transform="translate(4.016 -1.776)"/><path class="e" d="M13.69,55.267a9.2,9.2,0,0,1-6.664-2.739,9.14,9.14,0,0,1,0-13.167,9.2,9.2,0,0,1,6.664-2.74,8.911,8.911,0,0,1,6.39,2.569l-1.8,1.8a6.477,6.477,0,0,0-4.593-1.82,6.39,6.39,0,0,0-4.743,1.981,6.89,6.89,0,0,0,0,9.594,6.391,6.391,0,0,0,4.743,1.981A6.337,6.337,0,0,0,18.4,50.855a5.383,5.383,0,0,0,1.388-3.208H13.694V45.1h8.575a8.134,8.134,0,0,1,.122,1.583,8.044,8.044,0,0,1-2.207,5.959,8.588,8.588,0,0,1-6.507,2.617Zm19.929-1.7a6.215,6.215,0,0,1-8.551,0,6.12,6.12,0,0,1,0-8.57,6.215,6.215,0,0,1,8.551,0,6.12,6.12,0,0,1,0,8.57Zm-6.664-1.68a3.278,3.278,0,0,0,4.779,0,3.923,3.923,0,0,0,.011-5.223,3.329,3.329,0,0,0-4.8,0,3.923,3.923,0,0,0,.011,5.223Zm19.811,1.68a6.215,6.215,0,0,1-8.551,0,6.12,6.12,0,0,1,0-8.57,6.215,6.215,0,0,1,8.551,0,6.12,6.12,0,0,1,0,8.57ZM40.1,51.883a3.278,3.278,0,0,0,4.779,0,3.923,3.923,0,0,0,.011-5.223,3.329,3.329,0,0,0-4.8,0,3.923,3.923,0,0,0,.011,5.223Zm15.306,8.79A5.286,5.286,0,0,1,52.043,59.6a6.186,6.186,0,0,1-1.955-2.481l2.3-.953a3.754,3.754,0,0,0,1.136,1.5,2.892,2.892,0,0,0,1.889.635,3.069,3.069,0,0,0,2.353-.909,3.7,3.7,0,0,0,.852-2.617v-.852h-.091a3.836,3.836,0,0,1-3.16,1.366,5.49,5.49,0,0,1-4.026-1.751,5.8,5.8,0,0,1-1.729-4.232,5.868,5.868,0,0,1,1.729-4.265,5.477,5.477,0,0,1,4.026-1.762,4.311,4.311,0,0,1,1.853.387,3.78,3.78,0,0,1,1.307.953h.091v-.967h2.5V54.439a6.271,6.271,0,0,1-1.6,4.7A5.667,5.667,0,0,1,55.409,60.7Zm.183-7.757a2.934,2.934,0,0,0,2.287-1.034A3.743,3.743,0,0,0,58.8,49.3a3.826,3.826,0,0,0-.92-2.617,2.922,2.922,0,0,0-2.287-1.045,3.125,3.125,0,0,0-2.364,1.045,3.684,3.684,0,0,0-.979,2.617,3.612,3.612,0,0,0,.979,2.583,3.136,3.136,0,0,0,2.364,1.035Zm9.985-15.662V54.905H62.937V37.253Zm7.231,18.013a5.734,5.734,0,0,1-4.254-1.729,5.846,5.846,0,0,1-1.707-4.276,5.909,5.909,0,0,1,1.648-4.322,5.417,5.417,0,0,1,4.015-1.685,5.083,5.083,0,0,1,2.025.4,4.772,4.772,0,0,1,1.546,1.023,7.11,7.11,0,0,1,.979,1.216,7.451,7.451,0,0,1,.592,1.183l.274.682L69.9,51.083a3.052,3.052,0,0,0,2.912,1.82,3.44,3.44,0,0,0,2.956-1.659l2.045,1.366a6.67,6.67,0,0,1-1.933,1.842,5.5,5.5,0,0,1-3.073.816Zm-3.343-6.184,5.357-2.228a1.825,1.825,0,0,0-.852-.92,2.751,2.751,0,0,0-1.388-.351,3.114,3.114,0,0,0-2.171.953,3.21,3.21,0,0,0-.968,2.547Zm22.315,6.184a8.319,8.319,0,0,1-8.463-8.507,8.319,8.319,0,0,1,8.463-8.507,7.534,7.534,0,0,1,5.981,2.66L96.3,42.324a5.478,5.478,0,0,0-4.529-2.07,6.21,6.21,0,0,0-6.335,6.5,6.308,6.308,0,0,0,1.831,4.711,6.17,6.17,0,0,0,4.5,1.8A6.381,6.381,0,0,0,96.768,50.9l1.455,1.455a7.925,7.925,0,0,1-2.8,2.127,8.546,8.546,0,0,1-3.657.782Zm10.416-.36H100.1V38.62h2.094Zm3.412-9.812a5.846,5.846,0,0,1,8.234,0,6.379,6.379,0,0,1,0,8.485,5.846,5.846,0,0,1-8.234,0,6.379,6.379,0,0,1,0-8.485Zm1.558,7.162a3.514,3.514,0,0,0,5.113,0,3.955,3.955,0,0,0,1.081-2.922,4,4,0,0,0-1.081-2.922,3.514,3.514,0,0,0-5.113,0,3.955,3.955,0,0,0-1.081,2.922A4,4,0,0,0,107.165,52.255Zm19.868,2.65h-2V53.359h-.091a3.74,3.74,0,0,1-1.455,1.339,4.266,4.266,0,0,1-2.07.56,3.917,3.917,0,0,1-3.171-1.275,5.111,5.111,0,0,1-1.081-3.412V43.747h2.094v6.481q0,3.119,2.751,3.117a2.557,2.557,0,0,0,2.116-1.045,3.811,3.811,0,0,0,.818-2.412V43.747h2.094V54.895Zm7.095.362a4.9,4.9,0,0,1-3.73-1.707,6.494,6.494,0,0,1,0-8.463,4.9,4.9,0,0,1,3.73-1.707,4.786,4.786,0,0,1,2.289.544A3.814,3.814,0,0,1,137.93,45.3h.091l-.091-1.546V38.617h2.094V54.905h-2V53.359h-.091a3.868,3.868,0,0,1-1.513,1.366,4.82,4.82,0,0,1-2.289.541Zm.341-1.911a3.336,3.336,0,0,0,2.514-1.092,4.642,4.642,0,0,0,0-5.844,3.415,3.415,0,0,0-5.017.011,4.609,4.609,0,0,0,0,5.844,3.323,3.323,0,0,0,2.5,1.1Z" transform="translate(-4.226 3.538)"/></svg>