<svg xmlns="http://www.w3.org/2000/svg" width="30" height="31" viewBox="0 0 30 31"><defs><style>.a{fill:none;}.b{fill:#0054a6;}</style></defs><g transform="translate(-1170 -932)"><g transform="translate(1170 933.246)"><rect class="a" width="30" height="30" transform="translate(0 -0.246)"/><g transform="translate(6.224 3.737)"><path class="b" d="M13.72,3a8.366,8.366,0,0,0-1.744.174A8.708,8.708,0,0,0,7.916,18.222a2.422,2.422,0,0,1,.822,1.831V22.93a2.5,2.5,0,0,0,2.491,2.491h.349a2.465,2.465,0,0,0,4.285,0h.349A2.5,2.5,0,0,0,18.7,22.93V20.053a2.416,2.416,0,0,1,.8-1.819A8.71,8.71,0,0,0,13.72,3Zm2.491,17.439H11.229V19.193h4.983ZM11.229,22.93V21.684h4.983V22.93Zm6.614-6.552c-.112.1-.2.224-.3.324H9.884a3.842,3.842,0,0,0-.3-.336,6.225,6.225,0,1,1,10.364-4.646A6.194,6.194,0,0,1,17.843,16.378Z" transform="translate(-4.997 -3)"/></g></g><rect class="b" width="1.246" height="3.737" transform="translate(1184.325 932)"/><rect class="b" width="2" height="4" transform="translate(1199 944) rotate(90)"/><rect class="b" width="2" height="4" transform="translate(1171 946) rotate(-90)"/><rect class="b" width="1.246" height="3.737" transform="translate(1173.114 937.706) rotate(-45)"/><rect class="b" width="1.246" height="3.737" transform="translate(1193.926 940.361) rotate(-135)"/></g></svg>