<svg xmlns="http://www.w3.org/2000/svg" width="71.83" height="71.83" viewBox="0 0 71.83 71.83"><defs><style>.a{fill:#dc395f;}.b{fill:#fff;}</style></defs><path class="a" d="M65.318,0H6.512A6.512,6.512,0,0,0,0,6.512V65.319A6.512,6.512,0,0,0,6.512,71.83H65.318a6.512,6.512,0,0,0,6.512-6.512V6.512A6.512,6.512,0,0,0,65.318,0"/><path class="b" d="M57.595,58.375a4.324,4.324,0,1,0-4.388-4.324,4.338,4.338,0,0,0,4.388,4.324M48.5,81.529a14.851,14.851,0,0,0-.387,3.248c0,3.808,2.065,6.336,6.453,6.336,3.639,0,6.59-2.161,8.714-5.651l-1.3,5.206h7.226L73.336,74.1c1.033-4.194,3.033-6.371,6.066-6.371a3.611,3.611,0,0,1,3.872,3.936,7.73,7.73,0,0,1-.323,2.323L80.821,81.6a11.445,11.445,0,0,0-.451,3.226c0,3.615,2.129,6.259,6.581,6.259,3.807,0,6.84-2.451,8.518-8.323l-2.839-1.1c-1.42,3.934-2.646,4.645-3.614,4.645s-1.484-.645-1.484-1.935a8.56,8.56,0,0,1,.323-2l2.065-7.418a16.361,16.361,0,0,0,.71-4.706c0-5.549-3.356-8.446-7.421-8.446-3.807,0-7.679,3.434-9.615,7.048l1.419-6.487H63.98l-1.549,5.714h5.163L64.414,80.812c-2.5,5.549-7.082,5.64-7.657,5.511-.945-.213-1.549-.572-1.549-1.8a12.169,12.169,0,0,1,.452-2.953l4.84-19.2H48.239L46.69,68.085h5.1L48.5,81.529" transform="translate(-33.589 -35.775)"/></svg>