<svg xmlns="http://www.w3.org/2000/svg" width="73" height="99.911" viewBox="0 0 73 99.911"><defs><style>.a,.b{fill:#fc7e23;}.a{font-size:21px;font-family:OfficinaSans-Bold, ITC Officina Sans;font-weight:700;letter-spacing:0.035em;}</style></defs><g transform="translate(-0.266 0)"><text class="a" transform="translate(0.266 94.911)"><tspan x="0" y="0">Lambda</tspan></text><path class="b" d="M29.977,32.758c-.229.325-.421.592-.607.863L20.5,46.683q-4.126,6.074-8.26,12.142a.558.558,0,0,1-.393.229Q6.007,59,.173,58.927A1.484,1.484,0,0,1,0,58.9a2.077,2.077,0,0,1,.109-.237L8.252,46.043q3.611-5.591,7.226-11.18,4.006-6.21,8.009-12.428c.394-.611.8-1.211,1.178-1.834a.756.756,0,0,0,.081-.551c-.719-2.292-1.452-4.579-2.184-6.865-.313-.979-.641-1.953-.935-2.938a.5.5,0,0,0-.575-.411c-2.445.01-4.875.007-7.313.007-.463,0-.465,0-.465-.457q0-4.5-.009-8.991c0-.334.109-.408.423-.408q7.362.013,14.726,0a.473.473,0,0,1,.518.349Q32.814,10.1,36.7,19.861l9.06,22.765c.938,2.356,1.882,4.71,2.81,7.071.111.288.226.342.516.253,2.573-.8,5.151-1.569,7.722-2.366.324-.1.441-.033.542.288.877,2.757,1.772,5.508,2.66,8.262.03.095.053.191.089.324-.184.068-.357.144-.534.193q-8.772,2.78-17.535,5.562c-.279.088-.362-.007-.456-.242Q38.9,55.189,36.208,48.413q-2.63-6.635-5.263-13.271c-.263-.664-.522-1.332-.785-2C30.118,33.033,30.06,32.933,29.977,32.758Z" transform="translate(7.156 0.017)"/></g></svg>