<svg xmlns="http://www.w3.org/2000/svg" xmlns:xlink="http://www.w3.org/1999/xlink" width="140" height="40" viewBox="0 0 140 40"><defs><style>.a{fill:#fff;}.b{clip-path:url(#a);}.c{fill:#20313d;}.c,.d,.e,.f,.g{fill-rule:evenodd;}.d{fill:#344154;}.e{fill:#b8c4c2;}.f{fill:#13934c;}.g{fill:#18ab4c;}</style><clipPath id="a"><rect class="a" width="140" height="40" transform="translate(0 -0.216)"/></clipPath></defs><g class="b" transform="translate(0 0.216)"><path class="c" d="M135.543,37.161c-.126.025-.253.305-.253.458-.025,1.018-.049,3.716-.049,5.549a.188.188,0,0,0,.151.153c.379.025,1.29.051,2.074.051a5.389,5.389,0,0,0,2.075-.305,2.709,2.709,0,0,0,1.34-2.546c0-2.469-1.719-3.411-4.275-3.411a4.027,4.027,0,0,0-1.061.051Zm6.525,11.378c0-2.52-1.846-3.92-5.184-3.92a14.594,14.594,0,0,0-1.467.025c-.077.026-.177.077-.177.153,0,1.807-.026,4.684.049,5.8a1.924,1.924,0,0,0,.835,1.374,5.753,5.753,0,0,0,2.2.305,3.463,3.463,0,0,0,3.743-3.742ZM130.383,35.761c.253,0,1.012.076,2.958.076,1.848,0,3.313-.051,5.11-.051,2.2,0,5.235.789,5.235,4.1a3.988,3.988,0,0,1-2.631,3.564c-.075.025-.075.076,0,.1,2.124.535,4,1.858,4,4.352,0,2.444-1.518,4-3.717,4.964a12.033,12.033,0,0,1-4.7.789c-1.29,0-4.754-.153-6.677-.1-.2-.077.177-.993.355-1.145a4.693,4.693,0,0,0,1.289-.2c.683-.178.759-.382.86-1.425.051-.891.051-4.047.051-6.287,0-3.08.026-5.167,0-6.185-.025-.789-.3-1.044-.86-1.2-.43-.076-1.138-.178-1.719-.254C129.8,36.728,130.231,35.863,130.383,35.761ZM115.79,51.593a5.074,5.074,0,0,0,2.858.687,5.585,5.585,0,0,0,4.047-1.451c1.34-1.221,2.275-3.1,2.275-6.108a7.305,7.305,0,0,0-3.313-6.593,8.9,8.9,0,0,0-4.754-1.12,3.769,3.769,0,0,0-1.416.178.747.747,0,0,0-.253.407c-.051.509-.051,4.429-.051,6.72,0,2.367,0,5.676.051,6.058a1.583,1.583,0,0,0,.556,1.222Zm-5.741-15.832c.481,0,2.327.076,3.213.076,1.593,0,2.731-.076,5.74-.076a9.318,9.318,0,0,1,6.171,1.985,8.277,8.277,0,0,1,2.808,6.516,8.545,8.545,0,0,1-3.491,7.331,11.637,11.637,0,0,1-7.258,2.062c-1.72,0-4.679-.051-7.132-.076h-.026c-.126-.229.2-1.12.4-1.145a4.007,4.007,0,0,0,1.164-.229c.531-.2.633-.484.708-1.426.075-1.756.051-3.869.051-6.262,0-1.705.025-5.04-.026-6.109-.075-.891-.455-1.12-1.214-1.273-.379-.076-.885-.178-1.593-.254-.1-.179.353-.967.479-1.12Z" transform="translate(-4.894 -20.481)"/><path class="c" d="M98.335,51.225a5.059,5.059,0,0,1-1.644-.433.777.777,0,0,1-.2-.407c-.05-.891-.05-3.436-.05-5.141a6.031,6.031,0,0,0-.809-3.411,3.447,3.447,0,0,0-2.934-1.527,6.746,6.746,0,0,0-3.844,1.833c-.025.025-.227.2-.2-.076,0-.28.051-.84.076-1.222a.662.662,0,0,0-.177-.534,16.789,16.789,0,0,1-3.92,1.018c-.607.128-.758.713-.126.917h.025a5.592,5.592,0,0,1,1.492.662.8.8,0,0,1,.228.713c.025,1.909.025,4.836-.05,6.44-.025.636-.2.865-.658.967L85.588,51a9.934,9.934,0,0,1-1.062.2,1.5,1.5,0,0,0,0,1.145c.278,0,1.745-.076,2.959-.076,1.669,0,2.529.076,2.959.076a1.666,1.666,0,0,0,.127-1.145,4.655,4.655,0,0,1-1.163-.178c-.455-.1-.582-.331-.607-.865-.05-1.349-.05-4.2-.05-6.134a1.232,1.232,0,0,1,.3-.942,3.811,3.811,0,0,1,2.352-.865,2.6,2.6,0,0,1,1.745.586,2.51,2.51,0,0,1,.809,1.6c.126,1.094.076,3.258.076,5.142,0,1.018-.076,1.273-.455,1.4a4.785,4.785,0,0,1-1.164.229,1.5,1.5,0,0,0,0,1.146c.733,0,1.593-.076,2.858-.076,1.568,0,2.58.076,2.984.076a1.787,1.787,0,0,0,.076-1.095ZM105.34,41.5c-1.34,0-2.175,1.043-2.175,2.672,0,1.655.733,3.564,2.807,3.564a1.952,1.952,0,0,0,1.315-.509,3.383,3.383,0,0,0,.81-2.342c0-2.113-1.037-3.385-2.757-3.385Zm-.177,11.25a2.163,2.163,0,0,0-1.087.28c-1.062.687-1.543,1.349-1.543,2.138A2.257,2.257,0,0,0,103.418,57a4.474,4.474,0,0,0,3.035.942c2.58,0,3.718-1.4,3.718-2.774a1.944,1.944,0,0,0-1.467-1.96,10.155,10.155,0,0,0-3.541-.458Zm.177,6.618a5.571,5.571,0,0,1-3.617-1.069,3.362,3.362,0,0,1-1.34-2.52,1.958,1.958,0,0,1,.506-1.273,13.439,13.439,0,0,1,2.327-1.884c.05-.025.076-.051.076-.1a.168.168,0,0,0-.1-.127,2.416,2.416,0,0,1-1.644-1.6v-.051c-.025-.153-.076-.305.152-.458.177-.127.43-.28.708-.458a10.369,10.369,0,0,0,1.163-.764.187.187,0,0,0,.051-.153.168.168,0,0,0-.1-.127,3.711,3.711,0,0,1-2.655-3.895,3.872,3.872,0,0,1,1.618-3.207,7.4,7.4,0,0,1,3.642-1.247h.076a7.714,7.714,0,0,1,2.782.611,4.652,4.652,0,0,0,1.644.254,2.182,2.182,0,0,0,1.77-.661,1.39,1.39,0,0,1,.1.509,1.932,1.932,0,0,1-.329,1.171,1.432,1.432,0,0,1-1.113.484h-.127a5.588,5.588,0,0,1-.658-.1l-.1.051c-.025.051,0,.1.025.178l.025.051a9.452,9.452,0,0,1,.151,1.094,4.132,4.132,0,0,1-1.72,3.691,5.8,5.8,0,0,1-2.959,1.146,3.17,3.17,0,0,0-.354.025c-.126,0-.3.026-.329.026h-.025c-.2.051-.708.305-.708.738,0,.382.227.84,1.315.917.227.025.455.025.708.051a22.044,22.044,0,0,1,4.072.509,2.851,2.851,0,0,1,1.9,2.724c0,1.884-1.34,3.64-3.566,4.734a8.091,8.091,0,0,1-3.364.738ZM119.755,41.63a2.341,2.341,0,0,0-1.365.381c-.986.611-1.492,1.833-1.492,3.615,0,3.335,1.67,5.676,4.047,5.676a2.564,2.564,0,0,0,1.745-.611c.733-.611,1.112-1.833,1.112-3.538,0-3.309-1.644-5.523-4.046-5.523Zm.456,10.894c-4.3,0-5.842-3.182-5.842-6.16a5.521,5.521,0,0,1,2.5-4.836,7.58,7.58,0,0,1,3.87-1.145,5.437,5.437,0,0,1,5.589,5.778,5.922,5.922,0,0,1-2.656,5.269,6.985,6.985,0,0,1-3.465,1.094ZM75.143,41.629a2.339,2.339,0,0,0-1.366.382c-.986.611-1.492,1.833-1.492,3.615,0,3.335,1.669,5.676,4.047,5.676a2.565,2.565,0,0,0,1.745-.611c.733-.611,1.113-1.833,1.113-3.538C79.19,43.844,77.571,41.629,75.143,41.629ZM75.6,52.524c-4.3,0-5.842-3.182-5.842-6.16a5.521,5.521,0,0,1,2.5-4.836,7.576,7.576,0,0,1,3.87-1.145,5.437,5.437,0,0,1,5.589,5.778,5.921,5.921,0,0,1-2.656,5.269A6.82,6.82,0,0,1,75.6,52.524Zm-28.907-.255a1.1,1.1,0,0,1-.076-.585.865.865,0,0,1,.076-.382,9.279,9.279,0,0,0,1.113-.229c.506-.127.708-.407.733-1.043.076-1.527.076-4.429.051-6.44v-.051a.774.774,0,0,0-.278-.713,5.693,5.693,0,0,0-1.517-.662c-.228-.076-.379-.2-.354-.356,0-.153.152-.331.481-.382a18.417,18.417,0,0,0,3.869-.993.632.632,0,0,1,.127.407l-.025.28c-.025.28-.051.611-.051.942a.2.2,0,0,0,.2.178.355.355,0,0,0,.152-.051,7.11,7.11,0,0,1,3.844-1.731,3.271,3.271,0,0,1,2.934,1.807.19.19,0,0,0,.177.1.18.18,0,0,0,.151-.076,7.664,7.664,0,0,1,3.971-1.833c2.352,0,3.743,1.756,3.743,4.735,0,.84,0,1.934-.025,2.927,0,.891-.025,1.705-.025,2.291a.8.8,0,0,0,.455.611,5.367,5.367,0,0,0,1.467.356h.025a2.052,2.052,0,0,1-.152.967,6.187,6.187,0,0,1-.632-.025q-.96-.05-1.922-.051c-1.568,0-2.377.025-3.162.076a2.5,2.5,0,0,1,0-.967A7.809,7.809,0,0,0,63,51.149c.506-.153.632-.382.658-1.044,0-.484.1-4.607-.051-5.6a2.5,2.5,0,0,0-2.58-2.214,4.467,4.467,0,0,0-2.579.992.456.456,0,0,0-.1.255v.026a11.788,11.788,0,0,1,.1,2.087v1.654c0,1.145-.025,2.215,0,3.029a.745.745,0,0,0,.607.789c.152.025.253.051.379.076.228.051.455.1.809.178a1.38,1.38,0,0,1-.025.713.489.489,0,0,1-.1.255c-.86-.025-1.745-.051-3.035-.051-.379,0-1.037.026-1.593.026-.456,0-.885.025-1.138.025a1.35,1.35,0,0,1-.076-.509.8.8,0,0,1,.1-.458,1.7,1.7,0,0,1,.354-.051c.3-.051.556-.1.809-.153.43-.127.582-.356.607-.916a44.437,44.437,0,0,0-.025-5.829,2.387,2.387,0,0,0-2.479-2.214,4.623,4.623,0,0,0-2.579.993.825.825,0,0,0-.228.585v1.5c0,1.833,0,4.124.025,5.116a.788.788,0,0,0,.708.789,5.27,5.27,0,0,0,.582.1l.455.076a2.147,2.147,0,0,1-.076.967c-.253,0-.556-.025-.911-.025-.531-.026-1.214-.051-1.973-.051-.885,0-1.517.025-2.023.051a6.067,6.067,0,0,0-.936-.051Z" transform="translate(-23.782 -19.12)"/><path class="d" d="M37.14,62.111,36.1,61.754s.127-5.32-1.77-5.7c-1.264-1.477.2-62.616,4.755-.2a3.711,3.711,0,0,0-1.846,2.138,19.758,19.758,0,0,0-.1,4.124Z" transform="translate(-27.534 -22.853)"/><path class="e" d="M37.14,62.111,36.1,61.754s.127-5.32-1.77-5.7c-1.264-1.477.2-62.616,4.755-.2a3.711,3.711,0,0,0-1.846,2.138,19.758,19.758,0,0,0-.1,4.124Z" transform="translate(-27.534 -22.853)"/><path class="d" d="M37.189,58.079s9.08-6.007,6.955-18.505c-2.048-9.086-6.879-12.065-7.41-13.21a12.883,12.883,0,0,1-1.138-2.24l.38,25.275c0,.026-.784,7.738,1.214,8.68" transform="translate(-27.026 -23.963)"/><path class="f" d="M37.189,58.079s9.08-6.007,6.955-18.505c-2.048-9.086-6.879-12.065-7.41-13.21a12.883,12.883,0,0,1-1.138-2.24l.38,25.275c0,.026-.784,7.738,1.214,8.68" transform="translate(-27.026 -23.963)"/><path class="d" d="M37.039,58.433s-8.523-5.854-8.017-16.163c.48-10.309,6.5-15.374,7.663-16.29a2.378,2.378,0,0,0,.835-1.935c.531,1.146.43,17.13.506,19.014C38.253,50.313,37.62,57.059,37.039,58.433Z" transform="translate(-29 -23.986)"/><path class="g" d="M37.039,58.433s-8.523-5.854-8.017-16.163c.48-10.309,6.5-15.374,7.663-16.29a2.378,2.378,0,0,0,.835-1.935c.531,1.146.43,17.13.506,19.014C38.253,50.313,37.62,57.059,37.039,58.433Z" transform="translate(-29 -23.986)"/></g></svg>