<svg xmlns="http://www.w3.org/2000/svg" width="117.275" height="60.893" viewBox="0 0 117.275 60.893"><defs><style>.a{fill:#0b608c;}.a,.b,.c{fill-rule:evenodd;}.b{fill:#344154;}.c{fill:#e68f23;}</style></defs><path class="a" d="M43,71.475h3.87V56.142L52.915,69.51c.685,1.607,1.668,2.2,3.573,2.2a3.283,3.283,0,0,0,3.543-2.2l6.014-13.368V71.475h3.9V56.142A2.344,2.344,0,0,0,68.1,53.551c-2.947-.893-4.913-.119-5.805,1.876l-5.924,13.22-5.717-13.22c-.863-1.994-2.859-2.768-5.836-1.876A2.348,2.348,0,0,0,43,56.142V71.475ZM73.16,59h3.9v8.426c-.029.476.149,1.548,2.263,1.577,1.1.03,8.4,0,8.455,0V58.94h3.9V72.725c0,3.394-4.2,4.138-6.163,4.168H73.249V74.3h12.3c2.5-.268,2.2-1.518,2.2-1.935V71.355H79.5c-3.841-.03-6.312-1.727-6.341-3.662C73.16,67.515,73.249,59.059,73.16,59Zm83.661-9.766a13.782,13.782,0,0,0-5.776.834c-.446.18-1.16.18-1.219.745.238.237.266.625.476.953a6.969,6.969,0,0,0,1.547,1.816c.626.477,1.251.953,1.906,1.37,1.16.714,2.471,1.131,3.6,1.846.656.417,1.31.953,1.966,1.4.326.238.535.626.952.774v-.09c-.208-.267-.268-.654-.476-.953-.3-.3-.6-.566-.894-.863a14.085,14.085,0,0,0-3.1-3.007c-.952-.655-3.036-1.548-3.424-2.65l-.058-.06a12.145,12.145,0,0,0,2.053-.477c1.013-.267,1.936-.208,2.978-.476.477-.12.952-.268,1.429-.417v-.268c-.535-.536-.922-1.251-1.488-1.756a39.766,39.766,0,0,0-4.914-3.662c-.922-.6-2.114-.983-3.095-1.488-.359-.179-.954-.268-1.162-.566a11.976,11.976,0,0,1-1.221-2.293c-.863-1.638-1.7-3.453-2.441-5.18a31.916,31.916,0,0,0-1.518-3.394,30.018,30.018,0,0,0-11.523-11.135,14.275,14.275,0,0,0-3.811-1.221c-.744-.03-1.488-.089-2.233-.119a11.775,11.775,0,0,1-1.369-1.042c-1.7-1.072-6.074-3.394-7.325-.328-.8,1.935,1.191,3.84,1.876,4.823a14.1,14.1,0,0,1,1.519,2.233c.208.506.268,1.042.477,1.578a35.647,35.647,0,0,0,1.547,3.99,14.367,14.367,0,0,0,1.1,1.846c.238.328.655.476.743,1.012a8.49,8.49,0,0,0-.683,2.233,13.107,13.107,0,0,0,.863,10c.477.744,1.608,2.382,3.127,1.756,1.34-.536,1.041-2.233,1.428-3.722.091-.357.03-.6.208-.833v.059c.417.833.834,1.637,1.221,2.471a17,17,0,0,0,3.872,3.99c.713.536,1.28,1.459,2.172,1.786v-.09H136.1a3.331,3.331,0,0,0-.686-.6,14.541,14.541,0,0,1-1.547-1.786,38.3,38.3,0,0,1-3.334-5.419c-.477-.923-.894-1.935-1.28-2.858-.181-.358-.181-.893-.477-1.072a11.2,11.2,0,0,0-1.43,2.025,16.723,16.723,0,0,0-.833,4.5c-.121.03-.06,0-.121.06-.951-.238-1.28-1.221-1.636-2.054a12.872,12.872,0,0,1-.269-7.95c.208-.625,1.1-2.59.746-3.186-.181-.566-.774-.893-1.1-1.34a11.968,11.968,0,0,1-1.071-1.905c-.715-1.668-1.071-3.513-1.846-5.181a15.8,15.8,0,0,0-1.489-2.292,14.733,14.733,0,0,1-1.637-2.322c-.148-.328-.357-.863-.118-1.221a.472.472,0,0,1,.416-.387c.387-.328,1.489.089,1.876.268a15.223,15.223,0,0,1,2.947,1.488c.417.3.864.863,1.4,1.013h.625c.954.208,2.024.06,2.917.327a19.055,19.055,0,0,1,4.289,2.055,26.411,26.411,0,0,1,9.288,10.182c.357.685.505,1.31.834,2.024.626,1.459,1.4,2.947,2.024,4.377A19.653,19.653,0,0,0,146.7,43.4c.447.625,2.232.952,3.036,1.28a21.143,21.143,0,0,1,2.055.833c1.012.625,2.024,1.34,2.977,2.024.477.356,1.966,1.1,2.054,1.7Z" transform="translate(-43 -16)"/><path class="b" d="M107.513,21.666a4.708,4.708,0,0,0-1.22.149v.059h.058a9.648,9.648,0,0,0,.954,1.221c.238.476.447.953.685,1.429l.058-.059a1.68,1.68,0,0,0,.626-1.489,6.67,6.67,0,0,1-.357-.625c-.178-.3-.565-.446-.8-.685Z" transform="translate(-24.06 -14.304)"/><path class="c" d="M82.76,62.825H93.954a8.493,8.493,0,0,0,3.573-.744c1.7-.774,2.5-1.816,2.5-3.185V56.038c0-1.1-.923-2.144-2.768-2.858a9.747,9.747,0,0,0-3.305-.566h-4.7c-1.578,0-2.322-.477-2.531-1.518a1.467,1.467,0,0,1-.029-.357V48.982a1.344,1.344,0,0,1,.029-.327c.208-.8.625-1.013,2-1.161h11.462V44.9H89.28a10.066,10.066,0,0,0-3.156.328c-2.293.714-3.305,1.846-3.305,3.84v2.264c0,1.756,1.965,3.245,5.3,3.6.357.03.744.03,1.131.03h4.02a1.806,1.806,0,0,1,.416.03c1.221.119,1.757.327,2.114.773a.906.906,0,0,1,.3.715v2.263a1.323,1.323,0,0,1-.536.923,2.78,2.78,0,0,1-1.668.536c-.149,0-.237.03-.387.03H82.76v2.588Zm41.5-4.495c0,2.65,2,4.138,5.986,4.436.387.03.743.059,1.13.059H141.5v-2.59H131.29c-2.265,0-3.127-.566-3.127-1.935V44.9h-3.9V58.33Zm-21.764.118V49.22c0-2.352,1.667-3.782,4.914-4.228.357-.03.713-.06,1.042-.06h7.382c.387,0,.716.03,1.1.06,3.246.446,4.883,1.876,4.883,4.228v9.229a3.4,3.4,0,0,1-2.293,3.6l3.811,3.453h-4.494l-3.1-2.8-3.127.179h-4.168a9.115,9.115,0,0,1-2.262-.3c-2.47-.686-3.691-2-3.691-4.14Zm4.2-.207a2.267,2.267,0,0,0,.091.387c.208,1.071,1.219,1.667,2.767,1.667h3.514l-3.216-2.918h4.5l2.827,2.561a1.862,1.862,0,0,0,.984-1.251,1.686,1.686,0,0,0,.03-.387V49.457a1.448,1.448,0,0,0-.03-.357c-.208-1.012-1.22-1.577-2.739-1.577h-5.866c-1.727,0-2.858.744-2.858,1.934Zm36.592,4.614h.566V60.683h.743v-.447h-2.084v.447h.774v2.173Zm4.317,0h.535v-2.62h-.8l-.655,1.787-.715-1.787h-.774v2.62h.507V60.862h.03l.744,1.994h.386l.744-1.994v1.994Z" transform="translate(-31.102 -7.351)"/></svg>