<svg xmlns="http://www.w3.org/2000/svg" width="95" height="80.402" viewBox="0 0 95 80.402"><defs><style>.a,.c{fill:#2ad8fd;}.b{fill:#f7fbfe;}.c{font-size:16px;font-family:HelveticaNeue-Medium, Helvetica Neue;font-weight:500;}</style></defs><g transform="translate(7435 4302.402)"><g transform="translate(-7418 -4302.402)"><path class="a" d="M110.128,36.7q-.989-.336-1.993-.621.167-.67.308-1.345c1.509-7.247.522-13.086-2.847-15.007-3.23-1.843-8.513.079-13.849,4.673q-.789.681-1.542,1.4-.5-.478-1.026-.938c-5.592-4.913-11.2-6.983-14.563-5.055-3.227,1.848-4.183,7.337-2.825,14.205q.2,1.02.458,2.029c-.793.223-1.559.46-2.292.713-6.556,2.261-10.743,5.806-10.743,9.482,0,3.8,4.494,7.606,11.323,9.915q.831.279,1.674.518-.274,1.087-.486,2.187c-1.3,6.749-.284,12.108,2.935,13.945,3.325,1.9,8.9-.053,14.337-4.752q.644-.557,1.292-1.178.815.779,1.674,1.511c5.263,4.481,10.46,6.29,13.676,4.448,3.321-1.9,4.4-7.659,3-14.663q-.16-.8-.371-1.638.588-.172,1.152-.356c7.1-2.327,11.717-6.089,11.717-9.937,0-3.689-4.321-7.258-11.009-9.536Z" transform="translate(-59.215 -19.029)"/><path class="b" d="M107.98,53.084c-.338.111-.686.218-1.04.322a61.041,61.041,0,0,0-3.136-7.762A61.026,61.026,0,0,0,106.818,38q.95.272,1.841.575c5.731,1.951,9.226,4.837,9.226,7.061,0,2.369-3.776,5.443-9.9,7.453Zm-2.543,4.986a21.935,21.935,0,0,1,.3,8.086c-.369,1.967-1.11,3.278-2.027,3.8-1.951,1.118-6.125-.335-10.625-4.167q-.774-.659-1.557-1.4a61.6,61.6,0,0,0,5.19-6.521,62.361,62.361,0,0,0,8.387-1.279q.189.757.335,1.482Zm-25.72,11.7c-1.907.666-3.425.685-4.343.162-1.953-1.114-2.765-5.417-1.658-11.189q.2-1.023.452-2.034a62.821,62.821,0,0,0,8.345,1.2,63.825,63.825,0,0,0,5.315,6.5q-.576.552-1.18,1.075a22.442,22.442,0,0,1-6.932,4.294Zm-8.932-16.7a22.487,22.487,0,0,1-7.222-3.8c-1.536-1.3-2.311-2.594-2.311-3.642,0-2.231,3.362-5.076,8.968-7.01q1.056-.362,2.131-.664a62.352,62.352,0,0,0,3.018,7.738,63.3,63.3,0,0,0-3.056,7.848q-.77-.218-1.529-.473ZM73.78,32.9c-1.164-5.885-.391-10.324,1.554-11.438,2.072-1.187,6.653.505,11.481,4.747.309.271.619.555.929.849a62.865,62.865,0,0,0-5.275,6.459,65.27,65.27,0,0,0-8.263,1.271q-.237-.938-.426-1.888ZM100.49,39.43q-.908-1.552-1.883-3.064c1.976.247,3.869.575,5.646.976a55.474,55.474,0,0,1-1.982,5.276q-.858-1.612-1.781-3.188ZM89.6,28.933a56.109,56.109,0,0,1,3.644,4.352q-3.657-.171-7.319,0c1.2-1.57,2.435-3.028,3.675-4.351ZM78.635,39.448q-.911,1.564-1.748,3.168c-.77-1.808-1.429-3.585-1.968-5.3,1.767-.391,3.651-.711,5.614-.954q-.986,1.521-1.9,3.087ZM80.59,55.088a56.888,56.888,0,0,1-5.707-.908c.547-1.747,1.22-3.562,2.007-5.409q.84,1.605,1.756,3.17.934,1.6,1.944,3.146Zm9.081,7.427c-1.254-1.339-2.5-2.819-3.726-4.412q1.778.069,3.623.069,1.893,0,3.738-.082A55.805,55.805,0,0,1,89.671,62.515ZM102.3,48.678a55.227,55.227,0,0,1,2.079,5.39,56.7,56.7,0,0,1-5.776.974q.982-1.54,1.9-3.118.934-1.6,1.8-3.246ZM98.21,50.616q-1.407,2.418-2.971,4.742c-1.837.13-3.736.2-5.671.2s-3.8-.059-5.607-.175q-1.6-2.317-3.026-4.75t-2.642-4.936q1.223-2.518,2.634-4.939h0q1.41-2.42,3-4.729c1.842-.138,3.73-.21,5.639-.21s3.808.073,5.649.211q1.575,2.3,2.984,4.713t2.67,4.916q-1.241,2.526-2.661,4.959Zm5.457-29.227c2.073,1.183,2.88,5.955,1.577,12.212q-.128.611-.278,1.218a64,64,0,0,0-8.28-1.294,61.622,61.622,0,0,0-5.234-6.464q.7-.664,1.424-1.292c4.572-3.936,8.844-5.491,10.791-4.38Z" transform="translate(-58.605 -18.428)"/><path class="a" d="M84.319,35.756a5.471,5.471,0,1,1-5.529,5.471,5.5,5.5,0,0,1,5.529-5.471" transform="translate(-53.357 -14.024)"/></g><text class="c" transform="translate(-7435 -4225)"><tspan x="0" y="0">React Native</tspan></text></g></svg>