<svg xmlns="http://www.w3.org/2000/svg" width="193.245" height="67.922" viewBox="0 0 193.245 67.922"><defs><style>.a{fill:#158bc4;}.b{fill:#fff;}.c{fill:#60b43d;stroke:#fff;stroke-miterlimit:10;}.d{fill:#0e0e0f;}</style></defs><g transform="translate(0 0.5)"><g transform="translate(0 0)"><path class="a" d="M102.971,100.886A28.486,28.486,0,1,1,74.486,72.4a28.484,28.484,0,0,1,28.486,28.486" transform="translate(-46 -70.551)"/><path class="b" d="M109.054,196.877a2.277,2.277,0,1,1-2.277-2.277,2.279,2.279,0,0,1,2.277,2.277" transform="translate(-96.426 -175.886)"/><path class="b" d="M111.854,242.177a2.277,2.277,0,1,1-2.277-2.277,2.279,2.279,0,0,1,2.277,2.277" transform="translate(-98.84 -214.934)"/><path class="b" d="M121.954,290.176a2.277,2.277,0,1,1-2.277-2.277,2.279,2.279,0,0,1,2.277,2.277" transform="translate(-107.546 -256.308)"/><path class="b" d="M144.554,333.176a2.277,2.277,0,1,1-2.277-2.277,2.279,2.279,0,0,1,2.277,2.277" transform="translate(-127.027 -293.374)"/><path class="b" d="M321.254,393.277A2.277,2.277,0,1,1,318.977,391a2.279,2.279,0,0,1,2.277,2.277" transform="translate(-279.34 -345.18)"/><path class="b" d="M351.254,357.777a2.277,2.277,0,1,1-2.277-2.277,2.279,2.279,0,0,1,2.277,2.277" transform="translate(-305.2 -314.579)"/><path class="b" d="M264.254,106.777a2.277,2.277,0,1,1-2.277-2.277,2.279,2.279,0,0,1,2.277,2.277" transform="translate(-230.207 -98.22)"/><path class="b" d="M220.854,91.577a2.277,2.277,0,1,1-2.277-2.277,2.279,2.279,0,0,1,2.277,2.277" transform="translate(-192.797 -85.118)"/><circle class="c" cx="15.181" cy="15.181" r="15.181" transform="translate(29.024 8.364)"/><circle class="c" cx="12.421" cy="12.421" r="12.421" transform="translate(10.986 42.08)"/><circle class="c" cx="8.281" cy="8.281" r="8.281" transform="translate(4.899 0)"/></g><g transform="translate(66.384 4.196)"><path class="d" d="M527,155.042h2.76V160.4c1.325-3.257,4.085-5.8,9.716-5.8,6.4,0,10.71,4.306,10.71,11.1v17.169h-2.76V166.248c0-5.576-3.423-9.054-8.557-9.054-5.576,0-9.109,4.306-9.109,10.71v14.961H527Z" transform="translate(-527 -145.602)"/><path class="d" d="M730.6,167.629c0-8.667,5.907-14.629,13.58-14.629,7.563,0,12.918,6.238,12.918,13.856,0,0,0,.828-.055,1.38H733.3c.166,6.68,4.637,11.427,10.986,11.427,5.189,0,8.778-2.208,10.434-4.306v3.257c-2.595,2.319-5.741,3.644-10.434,3.644-8,0-13.691-5.852-13.691-14.464Zm23.573-1.877a10.061,10.061,0,0,0-9.992-10.158,10.663,10.663,0,0,0-10.765,10.158Z" transform="translate(-702.501 -144.222)"/><path class="d" d="M968.429,152.6A14.629,14.629,0,1,1,953.8,167.229,14.379,14.379,0,0,1,968.429,152.6Zm0,26.664a12.036,12.036,0,1,0-11.869-12.035A11.685,11.685,0,0,0,968.429,179.264Z" transform="translate(-894.896 -143.878)"/><path class="d" d="M1189.684,157.8h3.091l-11.814,25.173h17.169v-9.109H1201v22.413h-2.871V185.623H1176.6Z" transform="translate(-1086.947 -148.36)"/><path class="d" d="M1383.528,98.84h2.76v31.688c0,6.238-3.588,7.508-7.066,7.508a8.545,8.545,0,0,1-1.822-.166v-2.595a13.432,13.432,0,0,0,2.1.166c2.815,0,4.03-1.38,4.03-4.913Zm-.607-7.453a1.988,1.988,0,1,1,1.987,1.932A1.979,1.979,0,0,1,1382.92,91.387Z" transform="translate(-1260.034 -89.4)"/></g></g></svg>