<svg xmlns="http://www.w3.org/2000/svg" xmlns:xlink="http://www.w3.org/1999/xlink" width="89.648" height="55.69" viewBox="0 0 89.648 55.69"><defs><style>.a{fill:#fff;}.b{clip-path:url(#a);}.c,.f{fill:#47b04b;}.d{fill:#36474f;}.e{fill:#348f37;}.f{fill-rule:evenodd;}</style><clipPath id="a"><rect class="a" width="89.648" height="55.69" transform="translate(0 0)"/></clipPath></defs><g class="b"><path class="c" d="M84.363,66.879a1.757,1.757,0,0,1-.85-.225l-2.691-1.619c-.4-.226-.2-.308-.081-.348a4.881,4.881,0,0,0,1.214-.553.184.184,0,0,1,.2.02l2.064,1.25a.254.254,0,0,0,.243,0l8.073-4.735a.237.237,0,0,0,.121-.225v-9.45a.237.237,0,0,0-.121-.226l-8.073-4.714a.253.253,0,0,0-.243,0l-8.073,4.714a.258.258,0,0,0-.122.226v9.45a.259.259,0,0,0,.122.226l2.205,1.291c1.194.615,1.942-.1,1.942-.82V51.813a.248.248,0,0,1,.243-.246H81.57a.248.248,0,0,1,.243.246V61.14A2.261,2.261,0,0,1,79.426,63.7a3.435,3.435,0,0,1-1.861-.513l-2.125-1.23a1.734,1.734,0,0,1-.85-1.5v-9.45a1.734,1.734,0,0,1,.85-1.5l8.073-4.735a1.786,1.786,0,0,1,1.7,0l8.073,4.735a1.734,1.734,0,0,1,.85,1.5v9.45a1.734,1.734,0,0,1-.85,1.5l-8.073,4.735a2.047,2.047,0,0,1-.85.184Zm2.489-6.5c-3.541,0-4.269-1.64-4.269-3.034a.248.248,0,0,1,.243-.246h1.052a.209.209,0,0,1,.222.205c.162,1.086.627,1.619,2.772,1.619,1.7,0,2.428-.39,2.428-1.312,0-.533-.2-.922-2.853-1.189-2.206-.226-3.582-.717-3.582-2.5,0-1.66,1.376-2.644,3.683-2.644,2.59,0,3.865.9,4.026,2.87a.334.334,0,0,1-.061.185.249.249,0,0,1-.162.082H89.3a.238.238,0,0,1-.223-.184c-.243-1.127-.87-1.5-2.529-1.5-1.862,0-2.084.656-2.084,1.148,0,.595.263.779,2.772,1.107,2.489.328,3.662.8,3.662,2.562C90.878,59.356,89.421,60.381,86.851,60.381Z" transform="translate(-40.043 -11.349)"/><path class="d" d="M67.257,37.572a1.045,1.045,0,0,0-.526-.9l-8.579-5a1.234,1.234,0,0,0-.465-.144h-.081a.952.952,0,0,0-.465.144l-8.579,5a1.045,1.045,0,0,0-.526.9l.02,13.447a.511.511,0,0,0,.263.451.454.454,0,0,0,.506,0l5.1-2.952a1.045,1.045,0,0,0,.526-.9V41.323a1.045,1.045,0,0,1,.526-.9L57.14,39.15a.97.97,0,0,1,.526-.144.862.862,0,0,1,.506.144l2.165,1.271a1.044,1.044,0,0,1,.526.9v6.293a1.046,1.046,0,0,0,.526.9l5.1,2.952a.489.489,0,0,0,.526,0,.511.511,0,0,0,.263-.451Zm41.237-18.51a.55.55,0,0,0-.506,0,.536.536,0,0,0-.263.451V32.837a.4.4,0,0,1-.182.328.383.383,0,0,1-.364,0l-2.145-1.25a1.031,1.031,0,0,0-1.032,0l-8.579,5.022a1.046,1.046,0,0,0-.526.9V47.862a1.046,1.046,0,0,0,.526.9L104,53.786a1.031,1.031,0,0,0,1.032,0l8.579-5.022a1.045,1.045,0,0,0,.526-.9V22.874a1.054,1.054,0,0,0-.526-.922l-5.119-2.89Zm-.789,25.5a.236.236,0,0,1-.121.225l-2.934,1.722a.3.3,0,0,1-.263,0l-2.934-1.722a.258.258,0,0,1-.121-.225V41.118a.236.236,0,0,1,.121-.225l2.934-1.722a.3.3,0,0,1,.263,0l2.934,1.722a.257.257,0,0,1,.121.225Zm29.339-3.526a1.028,1.028,0,0,0,.507-.9V37.695a1.07,1.07,0,0,0-.507-.9l-8.518-5a1.031,1.031,0,0,0-1.032,0l-8.58,5.022a1.046,1.046,0,0,0-.526.9V47.739a1.046,1.046,0,0,0,.526.9l8.519,4.919a.994.994,0,0,0,1.012,0l5.159-2.91a.519.519,0,0,0,0-.9l-8.621-5.022a.536.536,0,0,1-.262-.451V41.138a.512.512,0,0,1,.262-.451l2.692-1.558a.489.489,0,0,1,.526,0l2.691,1.558a.537.537,0,0,1,.262.451V43.6a.51.51,0,0,0,.264.451.489.489,0,0,0,.526,0l5.1-3.013Z" transform="translate(-47.989 -19)"/><path class="e" d="M109.891,35.6a.181.181,0,0,1,.2,0l1.64.963a.215.215,0,0,1,.1.184v1.927a.215.215,0,0,1-.1.184l-1.64.963a.181.181,0,0,1-.2,0l-1.64-.963a.218.218,0,0,1-.1-.184V36.752a.218.218,0,0,1,.1-.184l1.64-.963Z" transform="translate(-30 -14.04)"/><g transform="translate(23.478 12.69)"><path class="c" d="M76.189,28.908a1.031,1.031,0,0,0-1.032,0l-8.519,4.981a1.026,1.026,0,0,0-.506.9v9.983a1.071,1.071,0,0,0,.506.9l8.519,4.981a1.031,1.031,0,0,0,1.032,0l8.519-4.981a1.027,1.027,0,0,0,.506-.9V34.791a1.071,1.071,0,0,0-.506-.9Z" transform="translate(-66.052 -28.767)"/><path class="c" d="M75.159,28.909,66.621,33.89a1.065,1.065,0,0,0-.546.9v9.983a.994.994,0,0,0,.263.656l9.591-16.645a1.142,1.142,0,0,0-.769.123Zm.83,21.851a1.234,1.234,0,0,0,.243-.1l8.539-4.981a1.045,1.045,0,0,0,.526-.9V34.792a1.051,1.051,0,0,0-.3-.717l-9,16.686Z" transform="translate(-66.069 -28.767)"/><path class="c" d="M84.688,33.881,76.129,28.9a1.4,1.4,0,0,0-.263-.1L66.275,45.442a1.069,1.069,0,0,0,.283.246l8.559,4.981a.975.975,0,0,0,.789.1l9-16.685a1.061,1.061,0,0,0-.223-.205Z" transform="translate(-66.009 -28.758)"/><path class="c" d="M85.293,44.77V34.788a1.065,1.065,0,0,0-.546-.9L76.187,28.9a.887.887,0,0,0-.324-.123L85.232,45a.418.418,0,0,0,.061-.225ZM66.617,33.886a1.066,1.066,0,0,0-.546.9v9.983a1.11,1.11,0,0,0,.546.9l8.559,4.981a.942.942,0,0,0,.668.123L66.677,33.865l-.061.021Z" transform="translate(-66.07 -28.763)"/><path class="f" d="M84.633,45.677a1.164,1.164,0,0,0,.506-.656L75.75,28.786a1.015,1.015,0,0,0-.728.123l-8.5,4.961L75.689,50.8a1.4,1.4,0,0,0,.384-.123l8.559-5Z" transform="translate(-65.935 -28.767)"/><path class="f" d="M82.515,41.938l-8.539,4.981a1.211,1.211,0,0,1-.384.123l.162.308,9.469-5.555v-.123l-.243-.41a.953.953,0,0,1-.465.676Z" transform="translate(-63.819 -25.029)"/><path class="f" d="M82.515,41.938l-8.539,4.981a1.211,1.211,0,0,1-.384.123l.162.308,9.469-5.555v-.123l-.243-.41a.953.953,0,0,1-.465.676Z" transform="translate(-63.819 -25.029)"/></g></g></svg>