<svg xmlns="http://www.w3.org/2000/svg" xmlns:xlink="http://www.w3.org/1999/xlink" width="73.821" height="71.976" viewBox="0 0 73.821 71.976"><defs><style>.a{fill:url(#a);}.b{fill:#31c5f0;}</style><radialGradient id="a" cx="0.329" cy="0.224" r="0.781" gradientTransform="translate(-0.01 0.01) scale(0.973 0.968)" gradientUnits="objectBoundingBox"><stop offset="0" stop-color="#34364e" stop-opacity="0.98"/><stop offset="1" stop-color="#0c0824"/></radialGradient></defs><path class="a" d="M24.8,155.549h67.67v65.824H24.8Z" transform="translate(-21.727 -152.473)"/><path class="b" d="M3.076,133.822h67.67v65.824H3.076ZM0,202.722H73.821V130.746H0Zm49.768-42.447c-2.43,0-3.26,1.23-3.26,2.245,0,1.107.554,1.876,3.814,3.568,4.829,2.338,6.336,4.583,6.336,7.874,0,4.921-3.753,7.567-8.828,7.567a13.382,13.382,0,0,1-6.306-1.323c-.215-.092-.246-.246-.246-.492v-4.522c0-.308.154-.4.369-.246a11.417,11.417,0,0,0,6.182,1.815c2.43,0,3.445-1.015,3.445-2.4,0-1.107-.707-2.092-3.814-3.691-4.368-2.092-6.182-4.214-6.182-7.751,0-3.968,3.107-7.259,8.489-7.259a14.144,14.144,0,0,1,5.506.861.681.681,0,0,1,.308.615v4.214c0,.246-.154.4-.461.308a10.39,10.39,0,0,0-5.352-1.384Zm-26.453,3.66c.707.062,1.261.062,2.492.062,3.6,0,6.982-1.261,6.982-6.152,0-3.906-2.43-5.875-6.521-5.875-1.23,0-2.4.062-2.953.092ZM17.84,147.6c0-.215.431-.369.677-.369,1.969-.092,4.891-.154,7.936-.154,8.52,0,11.842,4.675,11.842,10.643,0,7.813-5.66,11.165-12.611,11.165-1.169,0-1.569-.062-2.4-.062v11.811c0,.246-.092.369-.369.369H18.209c-.246,0-.369-.092-.369-.369V147.6Z" transform="translate(0 -130.746)"/></svg>