<svg xmlns="http://www.w3.org/2000/svg" width="63.086" height="65.771" viewBox="0 0 63.086 65.771"><defs><style>.a{fill:#fff;stroke:#060606;stroke-width:1.5px;}.b{fill:#2c5f93;}</style></defs><g transform="translate(0.751 0.75)"><path class="a" d="M63.467,42.125A3.436,3.436,0,0,0,59.886,39.5a7.455,7.455,0,0,0-1.511.174,17.066,17.066,0,0,1-2.69.352c6.036-10.281,9.954-24.561,6.073-29.519A19.53,19.53,0,0,0,46.116,3h-.343a21.473,21.473,0,0,0-4.181.5L36.36,4.628a20.451,20.451,0,0,0-2.195-.165h-.289a14.246,14.246,0,0,0-6.339,1.421l-1.827-.72A28.688,28.688,0,0,0,15.68,2.994c-.21,0-.419,0-.629.012A12.71,12.71,0,0,0,5.9,7.046C3.028,10.18,1.72,14.764,2.016,20.673c.015.305,3.589,30.521,13.723,30.521h.13a5.9,5.9,0,0,0,3.743-1.573,7.014,7.014,0,0,0,3.132,1.227,15.733,15.733,0,0,0,3.531.406A11.617,11.617,0,0,0,31.3,50.174c0,1.285-.009,2.912-.023,4.991v.11l.007.11a20,20,0,0,0,1.038,5.4c1.535,4.175,4.185,6.475,7.464,6.475.136,0,.275,0,.415-.013A10.45,10.45,0,0,0,47.505,63.2a13.112,13.112,0,0,0,2.686-7.34l.012-.127V49.651l.15.015.637.055.061.006.061,0c.181.009.368.012.556.012a17.562,17.562,0,0,0,6.741-1.422C60.16,47.508,64.162,45.276,63.467,42.125Z" transform="translate(-1.975 -2.994)"/><path class="b" d="M41.145,46.89c0-.3.018-.549.026-.825-.015-.367-.026-.635-.026-.635s.018-.013.047-.032c.218-3.9,1.294-5.408,2.446-6.265-.161-.223-.346-.464-.52-.694-.486-.638-1.092-1.43-1.741-2.445l-.12-.231c-.1-.239-.334-.653-.635-1.2-1.728-3.125-5.323-9.626-2.862-13.733,1.078-1.8,3.1-2.836,6.018-3.092C42.584,14.351,38.114,6.169,27.98,6h-.009c-8.822-.143-11.721,7.874-12.664,12.664a10.96,10.96,0,0,1,4.141-.885h.063c3.344.025,5.644,1.809,6.313,4.9a28.324,28.324,0,0,1,.718,6.065,19.5,19.5,0,0,1-1.522,7.9l-.225.6c-.181.488-.372.942-.553,1.368s-.346.822-.464,1.171a8.883,8.883,0,0,1,1.643.555l.221.1a1.6,1.6,0,0,1,.2.1,4.413,4.413,0,0,1,2.174,3.261c.089.727.074,5.685.044,10.011a17.047,17.047,0,0,0,.866,4.594c.6,1.627,2.09,4.733,4.956,4.555A7.542,7.542,0,0,0,39.083,60a10.252,10.252,0,0,0,2.065-5.78V46.89Z" transform="translate(4.162 -1.611)"/><path class="b" d="M20.242,39.93a10.827,10.827,0,0,1-3.073-8.844,34.066,34.066,0,0,0,.054-7.445c-.042-.521-.07-.91-.069-1.124a.264.264,0,0,1,0-.034c0-.006,0-.01,0-.016.177-4.412,1.878-11.372,6.561-15.509A25.144,25.144,0,0,0,14.234,5C8.769,5.2,3.48,8.981,4.012,19.606c.2,3.987,4.705,27.9,10.865,27.746a3.921,3.921,0,0,0,2.734-1.717c1.485-1.786,2.928-3.405,3.955-4.533A11.125,11.125,0,0,1,20.242,39.93ZM52.236,19.213a2,2,0,0,1-.032.6,25.925,25.925,0,0,1-.247,3.909c-.108.929-.219,1.888-.25,2.851a16.464,16.464,0,0,0,.242,2.856c.329,2.3.67,4.905-1.117,7.94a13.3,13.3,0,0,1,.848,1.222c6.732-10.916,9.445-23.892,6.856-27.2A16.664,16.664,0,0,0,44.9,5a18.469,18.469,0,0,0-3.611.429C48.7,9.025,52,16.724,52.236,19.213Zm5.808,22.4c-3.892.8-5.764.375-6.672-.184-.146.105-.292.194-.428.277-.543.329-1.4.851-1.614,4.063.121.023.228.037.359.064l.635.057a14.526,14.526,0,0,0,5.933-1.141C59.449,43.271,61.188,40.966,58.044,41.615ZM30.331,44.606a1.464,1.464,0,0,0-.718-1.069l-.158-.069a4.671,4.671,0,0,0-2.078-.5h-.006c-.185.015-.369.028-.555.028-.076,0-.15-.01-.226-.013-.692.533-1.676.945-4.112,1.446-4.352,1.108-1.783,2.417-.114,2.62,1.615.4,5.454.9,8-1.181C30.36,45.216,30.349,44.766,30.331,44.606Z" transform="translate(-1.054 -2.074)"/><path class="b" d="M23.32,19.636a2.156,2.156,0,0,1-1.843.707,2.767,2.767,0,0,1-2.069-2.2h0c.064-.546,1.1-.831,2.3-.635a4.481,4.481,0,0,1,1.122.333,2.984,2.984,0,0,0-2.6-1.726,7.028,7.028,0,0,0-5.2,1.6c.01.161.029.367.048.609a36.767,36.767,0,0,1-.073,8.086A8,8,0,0,0,17.3,32.827a6.79,6.79,0,0,0,3.67,2.1,12.93,12.93,0,0,1,.749-2.081c.165-.387.34-.8.505-1.244l.237-.624a16.78,16.78,0,0,0,1.327-6.868A24.148,24.148,0,0,0,23.32,19.636Zm20.687,5.12a19.022,19.022,0,0,1-.27-3.363c.034-1.084.153-2.106.269-3.094.091-.778.161-1.526.2-2.264-1.882.156-3.132.7-3.725,1.618a4.286,4.286,0,0,1,.829-.188c1.3-.169,2.253.206,2.363.93a1.59,1.59,0,0,1-.567,1.221,2.556,2.556,0,0,1-1.433.713,2.276,2.276,0,0,1-.28.018,2.476,2.476,0,0,1-1.386-.438c.164,2.881,2.288,6.735,3.334,8.626.223.4.4.727.539,1A9.561,9.561,0,0,0,44.007,24.756Z" transform="translate(3.997 3.009)"/></g></svg>