<svg xmlns="http://www.w3.org/2000/svg" width="40.449" height="40.449" viewBox="0 0 40.449 40.449"><defs><style>.a{fill:none;}.b{fill:#0054a6;}</style></defs><path class="a" d="M0,0H40.449V40.449H0Z"/><path class="b" d="M33.336,16.483V13.112H29.966V9.741A3.381,3.381,0,0,0,26.6,6.371H23.224V3H19.854V6.371H16.483V3H13.112V6.371H9.741A3.381,3.381,0,0,0,6.371,9.741v3.371H3v3.371H6.371v3.371H3v3.371H6.371V26.6a3.381,3.381,0,0,0,3.371,3.371h3.371v3.371h3.371V29.966h3.371v3.371h3.371V29.966H26.6A3.381,3.381,0,0,0,29.966,26.6V23.224h3.371V19.854H29.966V16.483ZM26.6,26.6H9.741V9.741H26.6Z" transform="translate(2.056 2.056)"/></svg>