<svg xmlns="http://www.w3.org/2000/svg" xmlns:xlink="http://www.w3.org/1999/xlink" width="130" height="46" viewBox="0 0 130 46"><defs><style>.a{fill:#fff;}.b{clip-path:url(#a);}.c{fill:#ce0814;}</style><clipPath id="a"><rect class="a" width="130" height="46" transform="translate(0 -0.496)"/></clipPath></defs><g class="b" transform="translate(0 0.496)"><path class="c" d="M136.452,56.452v5.913h10.73a6.125,6.125,0,0,0,6.1-6.076V54a6.047,6.047,0,0,0-6.1-6.076h-5.349V45.181h10.6V39.236H142.259a6.233,6.233,0,0,0-6.136,6.174v2.058a6.122,6.122,0,0,0,6.136,6.076c7.385.033-1.772,0,5.054,0v2.875Zm-57.5-1.437s5.743-.49,5.743-7.873-6.957-8.069-6.957-8.069H65.205V62.365h6.3V56.746l5.448,5.619h9.32l-7.318-7.35Zm-2.429-4.769H71.506V44.92H76.56a2.625,2.625,0,0,1,1.411,2.646,2.7,2.7,0,0,1-1.444,2.679Zm23.727-11.009h-6.4a6.131,6.131,0,0,0-6.1,6.076V62.365h6.4V58.281h6.006v4.084h6.2V45.312c0-4.966-4.529-6.076-6.1-6.076Zm-.1,12.447H94.117V46.031s0-1.274,2-1.274h2.2c1.772,0,1.8,1.274,1.8,1.274v5.652Zm9.123-12.447h6.662V62.365h-6.662Zm16.015,17.151V39.236h-6.63V62.365h15.588V56.387Z" transform="translate(-23.363 -16.891)"/><path d="M34.768,66.718H60.693S55.738,44.209,72.146,35.1c3.577-1.731,14.965-8.2,33.6,5.521.591-.49,1.149-.882,1.149-.882S89.835,22.779,70.834,24.674c-9.55.849-21.3,9.506-28.19,20.94S34.768,66.718,34.768,66.718Z" transform="translate(-32.471 -21.244)"/><path d="M34.768,66.718H60.693S55.738,44.209,72.146,35.1c3.577-1.731,14.965-8.2,33.6,5.521.591-.49,1.149-.882,1.149-.882S89.835,22.779,70.834,24.674c-9.55.849-21.3,9.506-28.19,20.94S34.768,66.718,34.768,66.718Z" transform="translate(-32.471 -21.244)"/><path class="c" d="M34.768,67.03H60.693S55.738,44.521,72.146,35.407c3.577-1.731,14.965-8.2,33.6,5.521.591-.49,1.149-.882,1.149-.882S89.835,23.091,70.834,24.986c-9.583.849-21.331,9.506-28.223,20.94S34.768,67.03,34.768,67.03ZM88.785,26.815l.131-2.189a16.1,16.1,0,0,0-3.183-1.143L85.6,25.64C86.684,26,87.734,26.391,88.785,26.815Z" transform="translate(-32.471 -21.556)"/><path class="c" d="M86.2,34.185l-.131,2.058a18.387,18.387,0,0,1,3.249.392l.131-2.025A23.343,23.343,0,0,0,86.2,34.185ZM74.056,23.993h.328L73.728,22a26.3,26.3,0,0,0-3.15.2l.624,1.927a27.842,27.842,0,0,1,2.855-.131Zm1.575,12.022.755,2.254a20.805,20.805,0,0,1,2.855-1.143l-.722-2.156A23.917,23.917,0,0,0,75.631,36.014Zm-14.9-8.592-1.477-2.254c-.82.425-1.674.882-2.56,1.4l1.51,2.287C59.059,28.338,59.879,27.848,60.733,27.423Zm6.728,14.7,1.575,2.352a18.167,18.167,0,0,1,1.936-2.32l-1.477-2.221A18.113,18.113,0,0,0,67.46,42.123ZM62.7,52.643l2.658,2.091a25.972,25.972,0,0,1,.689-3.822l-2.363-1.862a30.944,30.944,0,0,0-.985,3.593ZM48.328,37.125,46,35.1c-.853.817-1.674,1.633-2.429,2.45L46.1,39.706A33.147,33.147,0,0,1,48.328,37.125Zm-9.911,14.6-3.774-1.372c-.624,1.4-1.313,3.038-1.641,3.92l3.774,1.372C37.2,54.537,37.892,52.937,38.417,51.728ZM62.209,60.94a33.036,33.036,0,0,0,.394,4.116l3.938,1.4a42.959,42.959,0,0,1-.788-4.247Z" transform="translate(-32.999 -22)"/></g></svg>