<svg xmlns="http://www.w3.org/2000/svg" width="57.198" height="101.104" viewBox="0 0 57.198 101.104"><defs><style>.a{fill:#0054a6;font-size:21px;font-family:OfficinaSans-Bold, ITC Officina Sans;font-weight:700;letter-spacing:0.035em;}.b{fill:#1a476f;}.c{fill:#1f5b98;}.d{fill:#2d72b8;}.e{fill:#5294cf;}</style></defs><text class="a" transform="translate(9.405 96.104)"><tspan x="0" y="0">RDS</tspan></text><path class="b" d="M0,72.428l6.7,7.848.6-.715v-50.2L6.7,28.6,0,36.45V72.428" transform="translate(0 -22.214)"/><path class="c" d="M29.976,58.062l12.8,6.4L43.3,63.6,43.313.67,42.781,0l-12.8,6.377V58.062" transform="translate(-23.279)"/><path class="d" d="M230.115,36.45l-6.7-7.845-.749.237.149,50.793.6.641,6.7-7.847V36.45" transform="translate(-172.917 -22.214)"/><path class="e" d="M166.614,64.459l12.8-6.4V6.377L166.605,0,166,.819l.009,62.709.606.931" transform="translate(-128.911)"/><path class="d" d="M87.286,0h18.192V64.46H87.286Z" transform="translate(-67.784)"/></svg>