<svg xmlns="http://www.w3.org/2000/svg" width="33" height="33" viewBox="0 0 33 33"><defs><style>.a{fill:none;}.b{fill:#0054a6;}</style></defs><rect class="a" width="33" height="33"/><g transform="translate(5.503 1.376)"><path class="b" d="M23.523,16.739l-4.458-2.229a7.5,7.5,0,0,0,2.917-5.944,7.567,7.567,0,1,0-11.007,6.728V19.78a16.667,16.667,0,0,0-3.109-.605,2.728,2.728,0,0,0-1.94.812L4,21.94l7,7a3.185,3.185,0,0,0,2.27.949h8.668a2.736,2.736,0,0,0,2.71-2.3l1.1-6.48A4.117,4.117,0,0,0,23.523,16.739Zm-.482,3.921-1.1,6.48H13.273a.508.508,0,0,1-.33-.138L7.88,21.94l5.847,1.224V8.567a.688.688,0,1,1,1.376,0v8.255h2.421l4.76,2.38A1.385,1.385,0,0,1,23.041,20.661ZM9.6,8.567a4.815,4.815,0,0,1,9.631,0,4.766,4.766,0,0,1-1.376,3.357V8.567a3.44,3.44,0,0,0-6.879,0v3.357A4.766,4.766,0,0,1,9.6,8.567Z" transform="translate(-4 -1)"/></g></svg>