<svg xmlns="http://www.w3.org/2000/svg" width="56.935" height="101.104" viewBox="0 0 56.935 101.104"><defs><style>.a,.c{fill:#e2513d;}.a{font-size:21px;font-family:OfficinaSans-Bold, ITC Officina Sans;font-weight:700;letter-spacing:0.035em;}.b{fill:#8d301f;}.b,.c,.d,.e,.f{fill-rule:evenodd;}.d{fill:#5f1f15;}.e{fill:#f3b0a8;}.f{fill:#e6523e;}</style></defs><text class="a" transform="translate(16.291 96.104)"><tspan x="0" y="0">S3</tspan></text><path class="b" d="M4.582,13.883,0,16.049V54.114l4.582,2.159L15.828,35.078Z" transform="translate(0 -2.591)"/><path class="c" d="M29.519,50.805,5.634,56.273V13.883L29.519,19.35,40.807,35.142Z" transform="translate(-1.052 -2.591)"/><path class="b" d="M35,50.805l23.877,5.467,4.129-20.655L58.877,13.883,35,19.35Z" transform="translate(-6.533 -2.591)"/><path class="c" d="M64.356,13.883l4.591,2.166V54.114l-4.591,2.159Z" transform="translate(-12.012 -2.591)"/><path class="b" d="M22.195,45.088,32.61,46.35l8.258-8.212L32.61,29.932,22.195,31.17V45.088Z" transform="translate(-4.143 -5.587)"/><path class="d" d="M43.025,18.845,32.61,20.64,22.195,18.845,32.61,0Z" transform="translate(-4.143)"/><path class="e" d="M43.025,56.415,32.61,54.6l-10.415,1.81L32.61,75.26Z" transform="translate(-4.143 -10.192)"/><path class="f" d="M45.415,18.845,35,16.41V0L45.415,4.921Z" transform="translate(-6.533)"/><path class="b" d="M22.195,18.845,32.61,16.41V0L22.195,4.921Z" transform="translate(-4.143)"/><path class="c" d="M35,75.675l10.415-4.921V56.83L35,59.265Z" transform="translate(-6.533 -10.607)"/><path class="b" d="M32.61,75.675,22.195,70.755V56.83L32.61,59.265Z" transform="translate(-4.143 -10.607)"/><path class="c" d="M45.415,45.088,35,46.35V29.932L45.415,31.17V45.088Z" transform="translate(-6.533 -5.587)"/></svg>