<svg xmlns="http://www.w3.org/2000/svg" width="37" height="37" viewBox="0 0 37 37"><defs><style>.a,.c{fill:none;}.b{fill:#0054a6;}.c{stroke:#0054a6;stroke-width:2.5px;}</style></defs><g transform="translate(-602 -1136)"><g transform="translate(602 1136)"><rect class="a" width="37" height="37"/><g transform="translate(4.74 1.58)"><path class="b" d="M17.22,1,3,7.32V16.8c0,8.769,6.067,16.969,14.22,18.96,8.153-1.991,14.22-10.191,14.22-18.96V7.32ZM28.28,16.8a16.985,16.985,0,0,1-2.18,8.232,29.209,29.209,0,0,1-1.817,2.67,15.033,15.033,0,0,1-7.062,4.8C10.868,30.53,6.16,23.941,6.16,16.8V9.374L17.22,4.46,28.28,9.374Z" transform="translate(-3 -1)"/></g></g><line class="c" y2="32" transform="translate(621 1138.5)"/><line class="c" x2="26" transform="translate(607.5 1154.5)"/></g></svg>