<svg xmlns="http://www.w3.org/2000/svg" width="32" height="32" viewBox="0 0 32 32"><defs><style>.a{fill:none;}.b{fill:#0054a6;}</style></defs><rect class="a" width="32" height="32"/><g transform="translate(2.648 1.324)"><g transform="translate(14.353 15.717)"><path class="b" d="M24.532,19.888,17.514,12.87H16.2L12.84,16.233v1.311l7.018,7.018a1.319,1.319,0,0,0,1.867,0l2.807-2.807A1.319,1.319,0,0,0,24.532,19.888Zm-3.747,1.88L15.17,16.154l.94-.94,5.614,5.614Z" transform="translate(-12.84 -12.87)"/></g><path class="b" d="M22.312,13.168,24.179,11.3l2.807,2.807a3.972,3.972,0,0,0,0-5.614L22.3,3.807,20.431,5.674V1.94L19.5,1,14.817,5.687l.94.94H19.5L17.638,8.494l1.4,1.4-3.827,3.827L9.746,8.256V6.376l-4-4L2,6.124l4.012,4.012H7.879L13.347,15.6,12.222,16.73H9.415L2.4,23.748a1.319,1.319,0,0,0,0,1.867L5.2,28.422a1.319,1.319,0,0,0,1.867,0L14.089,21.4V18.6l6.819-6.819ZM11.745,19.987,6.131,25.6l-.94-.94,5.614-5.614h0l.94.94Z" transform="translate(-2 -1)"/></g></svg>