<svg xmlns="http://www.w3.org/2000/svg" width="71.035" height="64.275" viewBox="0 0 71.035 64.275"><defs><style>.a{fill:#ea6c00;}.a,.b,.c,.d{fill-rule:evenodd;}.b{fill:#fdad00;}.c{fill:#fdd231;}.d{fill:#feeeb7;}</style></defs><path class="a" d="M14.385,0,35.514,41.356,0,0Z" transform="translate(0 22.92)"/><path class="a" d="M14.385,41.356,35.514,0,0,41.356Z" transform="translate(71.035 64.276) rotate(180)"/><path class="b" d="M0,0H42.258L21.129,41.356Z" transform="translate(14.384 22.92)"/><path class="c" d="M21.129,0,1.112,2.116,0,22.92Z" transform="translate(14.384 0)"/><path class="c" d="M21.129,22.92,1.112,20.8,0,0Z" transform="translate(56.643 22.92) rotate(180)"/><path class="b" d="M0,0,15.5,20.8,14.385,0Z" transform="translate(71.035 22.92) rotate(180)"/><path class="b" d="M0,20.8,15.5,0,14.385,20.8Z" transform="translate(0 2.116)"/><path class="d" d="M21.129,0,0,22.92H42.258Z" transform="translate(14.384 0)"/></svg>