<svg xmlns="http://www.w3.org/2000/svg" width="33.032" height="33.321" viewBox="0 0 33.032 33.321"><defs><style>.a{fill:none;stroke:#0054a6;stroke-width:2px;}.b{fill:#0a54a6;}</style></defs><g transform="translate(-2771.795 5908.479)"><line class="a" y2="22.433" transform="translate(2788.287 -5898.293)"/><path class="a" d="M2319.505-5862.484s-.142,4.289,2.695,4.124a2.254,2.254,0,0,0,2.067-1.485,6.587,6.587,0,0,0,.5-2.639" transform="translate(458.283 -35.687)"/><path class="a" d="M2326.8-5931.17a6.6,6.6,0,0,1-.5,2.639,2.252,2.252,0,0,1-2.067,1.484c-2.836.166-2.4-4.123-2.4-4.123l1.594-7.187a2.569,2.569,0,0,1,2.869-2.116c2.576.107,21.909,0,21.909,0a2.931,2.931,0,0,1,2.6,2.116c.341,1.417,1.216,4.91,1.692,6.808.178.712.262,1.284.262,1.284" transform="translate(451 33)"/><path class="a" d="M2319.505-5862.484s-.142,4.289,2.695,4.124a2.254,2.254,0,0,0,2.067-1.485,6.587,6.587,0,0,0,.5-2.639" transform="translate(463.533 -35.687)"/><path class="a" d="M2319.505-5862.484s-.142,4.289,2.695,4.124a2.254,2.254,0,0,0,2.067-1.485,6.587,6.587,0,0,0,.5-2.639" transform="translate(468.783 -35.687)"/><path class="a" d="M2319.505-5862.484s-.142,4.289,2.695,4.124a2.254,2.254,0,0,0,2.067-1.485,6.587,6.587,0,0,0,.5-2.639" transform="translate(474.034 -35.687)"/><path class="a" d="M2319.505-5863.236s-.142,4.289,2.695,4.123a2.252,2.252,0,0,0,2.067-1.484,4.243,4.243,0,0,0,0-2.74" transform="translate(479.284 -34.935)"/><path class="a" d="M2297.488-5827.889v14.675s-.118,2.589,2.183,2.967,21.5.172,21.5.172a1.968,1.968,0,0,0,.914-.323,3.069,3.069,0,0,0,1.157-2.816c0-3.093.16-10.443,0-14.675" transform="translate(477.673 -66.154)"/><circle class="b" cx="1.5" cy="1.5" r="1.5" transform="translate(2781 -5888)"/><circle class="b" cx="1.5" cy="1.5" r="1.5" transform="translate(2792 -5888)"/></g></svg>