<svg xmlns="http://www.w3.org/2000/svg" width="57.311" height="103.489" viewBox="0 0 57.311 103.489"><defs><style>.a,.b{fill:#daa835;}.a{font-size:21px;font-family:OfficinaSans-Bold, ITC Officina Sans;font-weight:700;letter-spacing:0.035em;}.c{fill:#886a22;}.d{fill:#634a19;}.e{fill:#fbd88c;}</style></defs><g transform="translate(0 0)"><text class="a" transform="translate(11.52 98.489)"><tspan x="0" y="0">SQS</tspan></text><g transform="translate(0 0)"><path class="b" d="M156.664,22.434l-.921-.015-27.714-8.2-.017-.38V0l28.653,14.329,0,8.105" transform="translate(-99.354)"/><path class="c" d="M28.656,14.664,28.659,0,0,14.324,0,54.848l.014.007h0L28.653,69.177l.1-.132-.037-13.627-.056-.076-1.79-1.277L4.7,47.461l.112-25.633,23.842-7.164"/><path class="b" d="M45.631,117.671l-29.28,4.119,0-26.51L45.633,99.4l0,18.267" transform="translate(-12.69 -73.949)"/><path class="c" d="M44.014,131.421l10.552,1.343,0-17.609L44.016,116.5l0,14.924m-10.629-1.353,6.848.87,0-13.961-6.85.872v12.218" transform="translate(-25.911 -89.375)"/><path class="d" d="M16.36,69.292l25-7.5,28.651,8.6L45.658,73.419l-29.3-4.127" transform="translate(-12.697 -47.962)"/><path class="b" d="M156.629,129.085l-28.64,3.614,0-17.544,28.638,3.648v10.281m0,7.043-.616.027-27.934,8.456-.088.107,0,13.836,28.64-14.317v-8.108" transform="translate(-99.334 -89.375)"/><path class="e" d="M16.351,199.417l24.994,7.5,28.638-8.59L45.631,195.3l-29.28,4.119" transform="translate(-12.69 -151.576)"/></g></g></svg>