<svg xmlns="http://www.w3.org/2000/svg" width="25.55" height="45.98" viewBox="0 0 25.55 45.98"><defs><style>.a,.b,.c{fill:none;}.a,.b{stroke:#0054a6;stroke-width:2px;}.a,.c{stroke-linecap:square;}.a{stroke-miterlimit:10;}.c{stroke-linejoin:round;}.d,.e{stroke:none;}.e{fill:#0054a6;}</style></defs><g transform="translate(-239.314 -1226.288)"><ellipse class="a" cx="2.689" cy="2.689" rx="2.689" ry="2.689" transform="translate(249.101 1243.155)"/><path class="a" d="M2.534,24.7a2.394,2.394,0,1,1,3.385,3.385c-.935.935-4.747,1.362-4.747,1.362S1.6,25.636,2.534,24.7Z" transform="translate(230.83 1250.67) rotate(-45)"/><g transform="translate(-210 323)"><path class="b" d="M980.733-5948.341H990s11.2-19.477-4.577-32.122c-6.628,4.637-8.583,13.375-8.552,17.03A32.957,32.957,0,0,0,980.733-5948.341Z" transform="translate(-523.354 6885)"/><line class="b" x1="13.261" transform="translate(455.253 912.755)"/><g class="c" transform="translate(-480 6671.458)"><path class="d" d="M933.758-5746.212s-7.95,4.755-2.585,16.306c.4.486.614-3.286,1.755-5.186a4.894,4.894,0,0,1,3.139-2.359,40.513,40.513,0,0,1-1.446-4.083A31.034,31.034,0,0,1,933.758-5746.212Z"/><path class="e" d="M 932.4583740234375 -5741.89892578125 C 932.3546142578125 -5741.71728515625 932.2542724609375 -5741.525390625 932.1591186523438 -5741.32421875 C 931.573486328125 -5740.083984375 931.28955078125 -5738.69482421875 931.3152465820312 -5737.19580078125 C 931.3199462890625 -5736.92041015625 931.3350830078125 -5736.640625 931.360595703125 -5736.357421875 C 932.0171508789062 -5737.36865234375 932.7921752929688 -5738.0517578125 933.5089111328125 -5738.51220703125 C 933.2500610351562 -5739.22412109375 932.9581298828125 -5740.08349609375 932.6991577148438 -5740.9794921875 C 932.6122436523438 -5741.28076171875 932.5320434570312 -5741.58935546875 932.4583740234375 -5741.89892578125 M 933.758056640625 -5746.2119140625 C 933.758056640625 -5746.2119140625 934.01611328125 -5743.62744140625 934.62060546875 -5741.53466796875 C 935.2384033203125 -5739.396484375 936.0670166015625 -5737.45166015625 936.0670166015625 -5737.45166015625 C 936.0670166015625 -5737.45166015625 934.1676025390625 -5737.1552734375 932.9281005859375 -5735.09228515625 C 931.8546752929688 -5733.3056640625 931.6030883789062 -5729.86328125 931.2430419921875 -5729.86328125 C 931.22021484375 -5729.86328125 931.1968994140625 -5729.87744140625 931.1729736328125 -5729.90625 C 925.8084716796875 -5741.45654296875 933.758056640625 -5746.2119140625 933.758056640625 -5746.2119140625 Z"/></g><g class="c" transform="translate(-461.184 6671.481)"><path class="d" d="M931.616-5746.212s7.927,4.741,2.578,16.259c-.4.485-.612-3.276-1.75-5.17a4.879,4.879,0,0,0-3.13-2.353,40.457,40.457,0,0,0,1.442-4.072A30.941,30.941,0,0,0,931.616-5746.212Z"/><path class="e" d="M 932.9141845703125 -5741.89599609375 C 932.841552734375 -5741.591796875 932.7626953125 -5741.28857421875 932.6773071289062 -5740.9931640625 C 932.4194946289062 -5740.10107421875 932.1289672851562 -5739.24609375 931.8712158203125 -5738.5361328125 C 932.5820922851562 -5738.0791015625 933.350341796875 -5737.40185546875 934.0022583007812 -5736.40234375 C 934.02685546875 -5736.67919921875 934.0414428710938 -5736.9521484375 934.0460815429688 -5737.2216796875 C 934.0717163085938 -5738.71533203125 933.7889404296875 -5740.099609375 933.2054443359375 -5741.33544921875 C 933.11279296875 -5741.53173828125 933.01513671875 -5741.71826171875 932.9141845703125 -5741.89599609375 M 931.6160278320312 -5746.2119140625 C 931.6160278320312 -5746.2119140625 939.5427856445312 -5741.470703125 934.1936645507812 -5729.953125 C 934.1697387695312 -5729.92431640625 934.1465454101562 -5729.91015625 934.1237182617188 -5729.91015625 C 933.7647094726562 -5729.91015625 933.513916015625 -5733.3427734375 932.4436645507812 -5735.12353515625 C 931.2077026367188 -5737.18115234375 929.3135375976562 -5737.4765625 929.3135375976562 -5737.4765625 C 929.3135375976562 -5737.4765625 930.1398315429688 -5739.41650390625 930.7559204101562 -5741.54833984375 C 931.3585815429688 -5743.63427734375 931.6160278320312 -5746.2119140625 931.6160278320312 -5746.2119140625 Z"/></g></g></g></svg>