<svg xmlns="http://www.w3.org/2000/svg" xmlns:xlink="http://www.w3.org/1999/xlink" width="60.367" height="91" viewBox="0 0 60.367 91"><defs><style>.a{fill:#ef3e31;font-size:16px;font-family:HelveticaNeue-Medium, Helvetica Neue;font-weight:500;}.b{fill:url(#a);}.c{fill:url(#b);}.d{fill:#fff;}</style><linearGradient id="a" x1="-7.219" y1="4.905" x2="-7.029" y2="3.833" gradientUnits="objectBoundingBox"><stop offset="0" stop-color="#faae42"/><stop offset="1" stop-color="#ef3e31"/></linearGradient><linearGradient id="b" x1="0.598" y1="0.02" x2="0.436" y2="0.978" gradientUnits="objectBoundingBox"><stop offset="0" stop-color="#e39f3a"/><stop offset="1" stop-color="#d33929"/></linearGradient></defs><g transform="translate(-670.7 -2384)"><text class="a" transform="translate(702 2472)"><tspan x="-18.52" y="0">Swift</tspan></text><g transform="translate(670.7 2384)"><path class="b" d="M13.706,0H47.131a14.09,14.09,0,0,1,4.738.8A13.385,13.385,0,0,1,60.5,11.314a16.257,16.257,0,0,1,.165,2.616v32.6a15.269,15.269,0,0,1-.259,3.111A13.409,13.409,0,0,1,51.327,59.73a14.171,14.171,0,0,1-4.219.613c-.636,0-33.5,0-33.99-.024A13.45,13.45,0,0,1,6.329,58.08a13.623,13.623,0,0,1-4.6-5.28A13.3,13.3,0,0,1,.389,46.931V13.412A12.513,12.513,0,0,1,1.638,7.637a13.384,13.384,0,0,1,4.549-5.3A13.2,13.2,0,0,1,12.952.047,3.931,3.931,0,0,1,13.706,0Z" transform="translate(-0.294)"/><path class="c" d="M50.914,49.359a9.208,9.208,0,0,0-.707-.966,10.012,10.012,0,0,0-2.027-1.839A6.206,6.206,0,0,0,45,45.469a5.761,5.761,0,0,0-2.357.377,15.362,15.362,0,0,0-2.192,1.014c-.825.424-1.65.849-2.522,1.2a18.955,18.955,0,0,1-3.229.99,20.991,20.991,0,0,1-4.2.33,28.356,28.356,0,0,1-7.449-1.131A28.176,28.176,0,0,1,17,45.634,31.235,31.235,0,0,1,12.3,42.311a34.278,34.278,0,0,1-3.347-3.324c-.707-.825-1.391-1.7-2.027-2.593a11,11,0,0,1-.707-1.108h0L0,28.569v-15.2A13.349,13.349,0,0,1,13.341,0h11.9l8.816,8.957h0C53.955,22.487,47.52,37.408,47.52,37.408S53.177,43.772,50.914,49.359Z"/><path class="d" d="M54.285,38C74.179,51.53,67.744,66.451,67.744,66.451s5.657,6.388,3.371,11.974c0,0-2.334-3.913-6.246-3.913-3.771,0-5.987,3.913-13.577,3.913-16.9,0-24.891-14.119-24.891-14.119,15.227,10.018,25.622,2.923,25.622,2.923C45.163,63.245,30.572,44.2,30.572,44.2c12.705,10.819,18.2,13.671,18.2,13.671C45.493,55.16,36.3,41.913,36.3,41.913c7.354,7.449,21.969,17.844,21.969,17.844C62.417,48.254,54.285,38,54.285,38Z" transform="translate(-20.177 -29.043)"/></g></g></svg>