<svg xmlns="http://www.w3.org/2000/svg" width="32.756" height="32.756" viewBox="0 0 32.756 32.756"><defs><style>.a{fill:none;opacity:0.87;}.b{fill:#0054a6;}</style></defs><path class="a" d="M0,0H32.756V32.756H0Z"/><path class="b" d="M28.3,10.554H19.685l1.3-6.237.041-.437a2.055,2.055,0,0,0-.6-1.447L18.975,1,9.994,9.994a2.669,2.669,0,0,0-.805,1.924V25.567a2.738,2.738,0,0,0,2.73,2.73H24.2a2.711,2.711,0,0,0,2.511-1.665l4.122-9.622a2.7,2.7,0,0,0,.191-1v-2.73A2.738,2.738,0,0,0,28.3,10.554Zm0,5.459L24.2,25.567H11.919V11.919L17.842,6l-1.515,7.288H28.3ZM1,11.919H6.459V28.3H1Z" transform="translate(0.365 0.365)"/></svg>