<svg xmlns="http://www.w3.org/2000/svg" width="28.042" height="28.042" viewBox="0 0 28.042 28.042"><defs><style>.a{fill:none;}.b{fill:#0054a6;}</style></defs><path class="a" d="M0,0H28.042V28.042H0Z"/><path class="b" d="M23.369,20.527a2.334,2.334,0,0,0,2.325-2.337l.012-12.853A2.344,2.344,0,0,0,23.369,3H4.674A2.344,2.344,0,0,0,2.337,5.337V18.19a2.344,2.344,0,0,0,2.337,2.337H0a2.344,2.344,0,0,0,2.337,2.337H25.706a2.344,2.344,0,0,0,2.337-2.337ZM4.674,5.337H23.369V18.19H4.674Zm9.347,16.358a1.168,1.168,0,1,1,1.168-1.168A1.172,1.172,0,0,1,14.021,21.695Z" transform="translate(0 0.505)"/></svg>