<svg xmlns="http://www.w3.org/2000/svg" width="60.675" height="21.675" viewBox="0 0 60.675 21.675"><defs><style>.a{fill:none;}.b{fill:#0054a6;}</style></defs><g transform="translate(-520 -1121)"><g transform="translate(520 1121)"><path class="a" d="M0,0H21.675V21.675H0Z"/><path class="b" d="M18.063,16.547a1.8,1.8,0,0,0,1.8-1.806l.009-9.934A1.812,1.812,0,0,0,18.063,3H3.613A1.812,1.812,0,0,0,1.806,4.806v9.934a1.812,1.812,0,0,0,1.806,1.806H0a1.812,1.812,0,0,0,1.806,1.806H19.869a1.812,1.812,0,0,0,1.806-1.806ZM3.613,4.806h14.45v9.934H3.613ZM10.838,17.45a.9.9,0,1,1,.9-.9A.906.906,0,0,1,10.838,17.45Z" transform="translate(0 -0.291)"/></g><g transform="translate(559 1121)"><path class="a" d="M0,0H21.675V21.675H0Z"/><path class="b" d="M18.063,16.547a1.8,1.8,0,0,0,1.8-1.806l.009-9.934A1.812,1.812,0,0,0,18.063,3H3.613A1.812,1.812,0,0,0,1.806,4.806v9.934a1.812,1.812,0,0,0,1.806,1.806H0a1.812,1.812,0,0,0,1.806,1.806H19.869a1.812,1.812,0,0,0,1.806-1.806ZM3.613,4.806h14.45v9.934H3.613ZM10.838,17.45a.9.9,0,1,1,.9-.9A.906.906,0,0,1,10.838,17.45Z" transform="translate(0 -0.291)"/></g><g transform="translate(541 1122)"><path class="a" d="M0,0H20.146V20.146H0Z"/><path class="b" d="M6.349,10.037,3,13.394l3.349,3.358V14.234h5.884V12.555H6.349ZM18.11,8.358,14.76,5V7.518H8.876V9.2H14.76v2.518Z" transform="translate(-0.482 -0.803)"/></g></g></svg>