<svg xmlns="http://www.w3.org/2000/svg" width="35.804" height="35.804" viewBox="0 0 35.804 35.804"><defs><style>.a{fill:none;}.b{fill:#0054a6;}</style></defs><path class="a" d="M0,0H35.8V35.8H0Z"/><path class="b" d="M24.377,23.546a8.9,8.9,0,0,0-4.4,1.193,6.09,6.09,0,0,1-3.058.9,5.687,5.687,0,0,1-3.058-.9,8.711,8.711,0,0,0-8.8,0,6.045,6.045,0,0,1-3.058.9v2.909A8.9,8.9,0,0,0,6.4,27.35a6.045,6.045,0,0,1,3.058-.9,5.767,5.767,0,0,1,3.058.9,8.711,8.711,0,0,0,8.8,0,6.09,6.09,0,0,1,3.058-.9,5.687,5.687,0,0,1,3.058.9,8.8,8.8,0,0,0,4.4,1.193V25.635a5.687,5.687,0,0,1-3.058-.9A8.9,8.9,0,0,0,24.377,23.546Zm0-6.639a9.057,9.057,0,0,0-4.4,1.193,6.242,6.242,0,0,1-3.058.9,5.687,5.687,0,0,1-3.058-.9,8.756,8.756,0,0,0-4.4-1.193,8.911,8.911,0,0,0-4.4,1.193A6.2,6.2,0,0,1,2,19v2.909a9.057,9.057,0,0,0,4.4-1.193,5.672,5.672,0,0,1,6.117,0,8.756,8.756,0,0,0,4.4,1.193,8.911,8.911,0,0,0,4.4-1.193,5.672,5.672,0,0,1,6.117,0,8.8,8.8,0,0,0,4.4,1.193V19a5.687,5.687,0,0,1-3.058-.9A8.9,8.9,0,0,0,24.377,16.907Zm4.4-12.054a8.711,8.711,0,0,0-8.8,0,6.242,6.242,0,0,1-3.058.9,5.687,5.687,0,0,1-3.058-.9,8.911,8.911,0,0,0-4.4-1.193,8.756,8.756,0,0,0-4.4,1.193A6.045,6.045,0,0,1,2,5.749V8.628A9.057,9.057,0,0,0,6.4,7.434a6.045,6.045,0,0,1,3.058-.9,5.767,5.767,0,0,1,3.058.9,8.756,8.756,0,0,0,4.4,1.193,8.911,8.911,0,0,0,4.4-1.193,6.242,6.242,0,0,1,3.058-.9,5.687,5.687,0,0,1,3.058.9,8.8,8.8,0,0,0,4.4,1.193V5.719A5.945,5.945,0,0,1,28.778,4.853Zm-4.4,5.415a9.057,9.057,0,0,0-4.4,1.193,5.672,5.672,0,0,1-6.117,0,8.756,8.756,0,0,0-4.4-1.193,8.911,8.911,0,0,0-4.4,1.193,5.687,5.687,0,0,1-3.058.9v2.909a9.057,9.057,0,0,0,4.4-1.193,6.242,6.242,0,0,1,3.058-.9,5.807,5.807,0,0,1,3.058.9,8.756,8.756,0,0,0,4.4,1.193,8.911,8.911,0,0,0,4.4-1.193,6.242,6.242,0,0,1,3.058-.9,5.687,5.687,0,0,1,3.058.9,8.8,8.8,0,0,0,4.4,1.193V12.357a5.687,5.687,0,0,1-3.058-.9,8.9,8.9,0,0,0-4.4-1.193Z" transform="translate(0.984 1.8)"/></svg>