<svg xmlns="http://www.w3.org/2000/svg" width="31.328" height="31.328" viewBox="0 0 31.328 31.328"><defs><style>.a{fill:none;}.b{fill:#0054a6;}</style></defs><path class="a" d="M0,0H31.328V31.328H0Z"/><path class="b" d="M5.221,6.611h23.5V4H5.221A2.618,2.618,0,0,0,2.611,6.611V20.97H0v3.916H18.275V20.97H5.221Zm24.8,2.611H22.191a1.309,1.309,0,0,0-1.305,1.305V23.58a1.309,1.309,0,0,0,1.305,1.305h7.832a1.309,1.309,0,0,0,1.305-1.305V10.527A1.309,1.309,0,0,0,30.023,9.221ZM28.718,20.97H23.5V11.832h5.221Z" transform="translate(0 1.221)"/></svg>