<svg xmlns="http://www.w3.org/2000/svg" width="73.992" height="72.142" viewBox="0 0 73.992 72.142"><defs><style>.a{fill:#ff26be;}.b{fill:#2e001f;}.c{fill:#ffd9f2;}</style></defs><path class="a" d="M60.889,72.142H13.1A13.091,13.091,0,0,1,0,59.039V13.1A13.091,13.091,0,0,1,13.1,0H60.889a13.091,13.091,0,0,1,13.1,13.1V59.039A13.091,13.091,0,0,1,60.889,72.142Z" transform="translate(0 0)"/><path class="b" d="M160.833,170.174H115.39a11.21,11.21,0,0,1-11.19-11.19V115.39a11.21,11.21,0,0,1,11.19-11.19H160.8a11.189,11.189,0,0,1,11.19,11.19v43.563a11.172,11.172,0,0,1-11.161,11.22Z" transform="translate(-101.116 -101.116)"/><path class="c" d="M482.133,609.013l8.633,16.586c.154.246.062.494-.186.494h-5.366a.6.6,0,0,1-.648-.4c-1.974-4.07-3.978-8.139-6.044-12.516h-.062c-1.85,4.132-3.886,8.479-5.857,12.549a.6.6,0,0,1-.556.34h-5.082c-.308,0-.34-.246-.184-.432l8.447-16.095-8.169-16.278a.249.249,0,0,1,.184-.432h5.3c.308,0,.432.062.553.34,1.942,4.07,3.916,8.263,5.765,12.362h.062c1.788-4.07,3.762-8.293,5.674-12.333.154-.246.246-.4.556-.4h4.963c.246,0,.34.186.186.432Zm10.146,5.026c0-7.183,4.78-12.795,12.363-12.795a13.581,13.581,0,0,1,1.6.062v-8.169a.307.307,0,0,1,.308-.308h4.872c.246,0,.308.092.308.246v28.3a22.015,22.015,0,0,0,.154,3.022c0,.186-.062.246-.246.34a18.353,18.353,0,0,1-7.893,1.788c-6.692.027-11.472-4.1-11.469-12.49Zm13.964-7.891a4.634,4.634,0,0,0-1.788-.308c-3.886,0-6.6,2.989-6.6,7.956,0,5.674,2.776,7.956,6.26,7.956a5.78,5.78,0,0,0,2.128-.34V606.148Z" transform="translate(-452.877 -575.255)"/></svg>