<svg xmlns="http://www.w3.org/2000/svg" width="75.324" height="60.21" viewBox="0 0 75.324 60.21"><defs><style>.a{fill:#fdbd39;}.b{fill:#f69833;}.c{fill:#fecf33;}.d{fill:#ee6723;}</style></defs><path class="a" d="M242.55,1326.4l-3.94,1.44-.21,11.721,13.639-4.983c-4.682-1.568-8.1-4.332-9.489-8.178" transform="translate(-230.939 -1284.884)"/><path class="b" d="M13.674,930.3,0,935.3l7.671,8.845,3.94-1.44c-1.39-3.834-.532-8.162,2.063-12.4" transform="translate(0 -901.181)"/><path class="c" d="M375.6,284.481c-17.411,6.36-28.637,19.486-25.069,29.313l63.049-23.032c-3.568-9.827-20.569-12.641-37.98-6.281" transform="translate(-338.92 -272.278)"/><path class="d" d="M408.88,619.913c17.411-6.36,28.656-19.426,25.069-29.313L370.9,613.629c3.587,9.89,20.569,12.644,37.98,6.285" transform="translate(-359.292 -572.112)"/><path class="b" d="M434.046,590.5,371,613.532c1.233,3.405,5.943,5.083,12.547,5.083,6.441,0,14.685-1.593,23.279-4.732,17.411-6.36,29.658-16.66,27.219-23.383" transform="translate(-359.388 -572.016)"/><path class="a" d="M411.926,428.2c-6.438,0-14.685,1.593-23.279,4.732-17.411,6.36-29.658,16.657-27.219,23.379l63.049-23.032c-1.236-3.405-5.943-5.08-12.55-5.08" transform="translate(-349.816 -414.795)"/><g transform="translate(24.382 0)"><path class="d" d="M813.282,209.684c-1.856,0-4.591-1.674-8.134-4.979a105.2,105.2,0,0,1-13.517-16.125,105.3,105.3,0,0,1-10.472-18.265c-2.426-5.765-2.773-9.308-1.03-10.535a2.325,2.325,0,0,1,1.371-.4c1.418,0,4.184,1.055,9.3,6.087l.113.11-.016.156c-.034.363-.066.726-.094,1.086l-.056.71-.5-.5c-5.508-5.549-7.931-6.147-8.72-6.147a.911.911,0,0,0-.532.135c-.757.532-.808,3.136,1.546,8.723a103.84,103.84,0,0,0,10.319,17.987,103.4,103.4,0,0,0,13.314,15.887c4.438,4.141,6.438,4.588,7.092,4.588a.927.927,0,0,0,.545-.144c.8-.56.8-3.349-1.825-9.364l-.122-.275.263-.144c.263-.144.519-.285.757-.423l.316-.178.147.332c1.859,4.263,3.6,9.68,1.318,11.283A2.338,2.338,0,0,1,813.282,209.684Zm0-.657v0Z" transform="translate(-779.038 -154.384)"/><path class="d" d="M1140.209,47.519l-.025.325c-.441,5.446-1.6,11.993-4.623,12.259-.063.006-.125.006-.185.006-2.053,0-4-2.942-5.771-8.741a105.2,105.2,0,0,1-3.674-20.747,105.451,105.451,0,0,1,.028-21.073c.77-6.209,2.235-9.452,4.357-9.64.063-.006.128-.009.191-.009,1.49,0,3.734,1.687,6.031,9.543l-1.5.288a30.884,30.884,0,0,0-2.432-6.228c-.767-1.355-1.515-2.1-2.1-2.1a.4.4,0,0,0-.059,0c-.92.081-2.26,2.31-3,8.331a103.945,103.945,0,0,0-.025,20.757,103.916,103.916,0,0,0,3.615,20.437,27.852,27.852,0,0,0,2.347,5.752c.732,1.246,1.443,1.931,2,1.931a.341.341,0,0,0,.056,0c.88-.075,2.538-2.4,3.236-10.563Z" transform="translate(-1114.581 0.1)"/></g></svg>