<svg xmlns="http://www.w3.org/2000/svg" width="21.841" height="21.841" viewBox="0 0 21.841 21.841">
  <path id="Path_40" data-name="Path 40" d="M10.92,1.941a33.484,33.484,0,0,1,4.368.121,5.628,5.628,0,0,1,2.063.364,4.261,4.261,0,0,1,2.063,2.063,5.628,5.628,0,0,1,.364,2.063c0,1.092.121,1.456.121,4.368a33.483,33.483,0,0,1-.121,4.368,5.628,5.628,0,0,1-.364,2.063,4.261,4.261,0,0,1-2.063,2.063,5.628,5.628,0,0,1-2.063.364c-1.092,0-1.456.121-4.368.121a33.483,33.483,0,0,1-4.368-.121,5.628,5.628,0,0,1-2.063-.364,4.261,4.261,0,0,1-2.063-2.063,5.628,5.628,0,0,1-.364-2.063c0-1.092-.121-1.456-.121-4.368a33.484,33.484,0,0,1,.121-4.368,5.628,5.628,0,0,1,.364-2.063,4.358,4.358,0,0,1,.849-1.213,2.051,2.051,0,0,1,1.213-.849,5.628,5.628,0,0,1,2.063-.364,33.484,33.484,0,0,1,4.368-.121M10.92,0A35.852,35.852,0,0,0,6.431.121,7.491,7.491,0,0,0,3.761.607,4.75,4.75,0,0,0,1.82,1.82,4.75,4.75,0,0,0,.607,3.761,5.528,5.528,0,0,0,.121,6.431,35.852,35.852,0,0,0,0,10.92,35.851,35.851,0,0,0,.121,15.41a7.491,7.491,0,0,0,.485,2.669A4.75,4.75,0,0,0,1.82,20.02a4.75,4.75,0,0,0,1.941,1.213,7.491,7.491,0,0,0,2.669.485,35.851,35.851,0,0,0,4.489.121,35.851,35.851,0,0,0,4.489-.121,7.491,7.491,0,0,0,2.669-.485,5.091,5.091,0,0,0,3.155-3.155,7.491,7.491,0,0,0,.485-2.669c0-1.213.121-1.577.121-4.489a35.851,35.851,0,0,0-.121-4.489,7.491,7.491,0,0,0-.485-2.669A4.75,4.75,0,0,0,20.02,1.82,4.75,4.75,0,0,0,18.079.607,7.491,7.491,0,0,0,15.41.121,35.851,35.851,0,0,0,10.92,0m0,5.339A5.492,5.492,0,0,0,5.339,10.92,5.581,5.581,0,1,0,10.92,5.339m0,9.222a3.575,3.575,0,0,1-3.64-3.64,3.575,3.575,0,0,1,3.64-3.64,3.575,3.575,0,0,1,3.64,3.64,3.575,3.575,0,0,1-3.64,3.64m5.824-10.8A1.335,1.335,0,1,0,18.079,5.1a1.347,1.347,0,0,0-1.335-1.335" fill="#828282" fill-rule="evenodd" opacity="0.6"/>
</svg>
