<svg xmlns="http://www.w3.org/2000/svg" width="20.212" height="18.463" viewBox="0 0 20.212 18.463">
  <g id="linked-in-logo-of-two-letters" opacity="0.6">
    <g id="Group_453" data-name="Group 453">
      <path id="Path_618" data-name="Path 618" d="M.656,12.8H3.284a.656.656,0,0,0,.656-.656V.656A.656.656,0,0,0,3.284,0H.656A.656.656,0,0,0,0,.656V12.141A.656.656,0,0,0,.656,12.8Z" transform="translate(0 5.665)" fill="#828282"/>
      <path id="Path_619" data-name="Path 619" d="M.656,3.646H3.284A.656.656,0,0,0,3.94,2.99V.656A.656.656,0,0,0,3.284,0H.656A.656.656,0,0,0,0,.656V2.99A.656.656,0,0,0,.656,3.646Z" fill="#828282"/>
      <path id="Path_620" data-name="Path 620" d="M12.585,1.669A4,4,0,0,0,10.951.47,5.914,5.914,0,0,0,8.568,0,5.838,5.838,0,0,0,4.081,2.021c-.244.268-.421.209-.421-.153V.993A.656.656,0,0,0,3,.337H.656A.656.656,0,0,0,0,.993V12.478a.656.656,0,0,0,.656.656H3.284a.656.656,0,0,0,.656-.656V8.484a12.849,12.849,0,0,1,.3-3.421A2.826,2.826,0,0,1,5.356,3.576a3.16,3.16,0,0,1,1.837-.561,2.344,2.344,0,0,1,1.367.393,2.188,2.188,0,0,1,.82,1.1,11.743,11.743,0,0,1,.252,3.12v4.849a.656.656,0,0,0,.656.656h2.628a.656.656,0,0,0,.656-.656v-6.5a12.319,12.319,0,0,0-.217-2.65A4.341,4.341,0,0,0,12.585,1.669Z" transform="translate(6.638 5.329)" fill="#828282"/>
    </g>
  </g>
</svg>
