<svg xmlns="http://www.w3.org/2000/svg" width="21.841" height="17.715" viewBox="0 0 21.841 17.715">
  <path id="Path_39" data-name="Path 39" d="M6.916,17.715a12.627,12.627,0,0,0,12.74-12.74V4.368a9.863,9.863,0,0,0,2.184-2.305,10.072,10.072,0,0,1-2.548.728A4.721,4.721,0,0,0,21.234.364a11.129,11.129,0,0,1-2.791,1.092A4.333,4.333,0,0,0,15.167,0a4.559,4.559,0,0,0-4.489,4.489,2.366,2.366,0,0,0,.121.971A12.545,12.545,0,0,1,1.577.728,4.647,4.647,0,0,0,.971,3.033,4.821,4.821,0,0,0,2.912,6.795,4.09,4.09,0,0,1,.849,6.188h0a4.434,4.434,0,0,0,3.64,4.368,3.741,3.741,0,0,1-1.213.121,2.065,2.065,0,0,1-.849-.121,4.6,4.6,0,0,0,4.247,3.155,9.161,9.161,0,0,1-5.581,1.941A3.359,3.359,0,0,1,0,15.531a11.453,11.453,0,0,0,6.916,2.184" fill="#828282" fill-rule="evenodd" opacity="0.6"/>
</svg>
