<svg xmlns="http://www.w3.org/2000/svg" xmlns:xlink="http://www.w3.org/1999/xlink" width="113.299" height="41.813" viewBox="0 0 113.299 41.813">
  <defs>
    <clipPath id="clip-path">
      <path id="path48" d="M238.094-528.533l-2.576,15.755,6.143,19.321,10.8-1.784,21.006-27.148-6.044-11-16.548-1.883Z" transform="translate(-235.518 535.271)"/>
    </clipPath>
    <clipPath id="clip-path-2">
      <path id="path72" d="M386.91-386.709h0l13.079.549v-17.893Z" transform="translate(-386.91 404.052)"/>
    </clipPath>
  </defs>
  <g id="Group_7589" data-name="Group 7589" transform="translate(11580.828 2870.813)">
    <g id="Group_7588" data-name="Group 7588" transform="translate(-11619.518 -2912.917)">
      <g id="g20" transform="translate(78.283 59.25)">
        <path id="path22" d="M-41.168-103.02a6.091,6.091,0,0,0,3.115-.833,6.085,6.085,0,0,0,2.271-2.334,6.4,6.4,0,0,0,.844-3.178,6.44,6.44,0,0,0-.852-3.2,6.211,6.211,0,0,0-2.286-2.362,5.922,5.922,0,0,0-3.063-.844,6.272,6.272,0,0,0-3.15.844,5.908,5.908,0,0,0-2.294,2.276,6.508,6.508,0,0,0-.8,3.223,6.273,6.273,0,0,0,1.795,4.567,5.94,5.94,0,0,0,4.419,1.837m-8.092,1.545v-21.8h2.021v8.775a8.522,8.522,0,0,1,2.846-2.335,7.7,7.7,0,0,1,3.451-.774,7.671,7.671,0,0,1,5.7,2.422,8.1,8.1,0,0,1,2.36,5.875,7.99,7.99,0,0,1-2.383,5.823A7.764,7.764,0,0,1-41-101.071a7.324,7.324,0,0,1-3.479-.823,8.132,8.132,0,0,1-2.76-2.47v2.89Z" transform="translate(49.26 123.27)" fill="#0054a6"/>
      </g>
      <g id="g24" transform="translate(95.858 64.916)">
        <path id="path26" d="M-42.167-9.931a6.092,6.092,0,0,0-3.117.83A6.081,6.081,0,0,0-47.56-6.77,6.388,6.388,0,0,0-48.4-3.594a6.373,6.373,0,0,0,.852,3.177,6.2,6.2,0,0,0,2.288,2.36,5.97,5.97,0,0,0,3.082.845,6.306,6.306,0,0,0,3.147-.838A5.835,5.835,0,0,0-36.748-.316a6.443,6.443,0,0,0,.8-3.218,6.25,6.25,0,0,0-1.8-4.562,5.949,5.949,0,0,0-4.424-1.834m8.087-1.547V4.247h-1.995v-2.7A8.682,8.682,0,0,1-38.93,3.872a7.749,7.749,0,0,1-3.462.779,7.672,7.672,0,0,1-5.7-2.419,8.121,8.121,0,0,1-2.362-5.891A7.976,7.976,0,0,1-48.071-9.47a7.776,7.776,0,0,1,5.739-2.413,7.432,7.432,0,0,1,3.5.824,7.965,7.965,0,0,1,2.753,2.473v-2.891Z" transform="translate(50.456 11.883)" fill="#0054a6"/>
      </g>
      <g id="g28" transform="translate(113.421 59.482)">
        <path id="path30" d="M-14.046,0h2.023V5.839h3.208V7.587h-3.208V21.564h-2.023V7.587h-2.761V5.839h2.761Z" transform="translate(16.807)" fill="#0054a6"/>
      </g>
      <g id="g32" transform="translate(120.752 64.916)">
        <path id="path34" d="M-81.4-18.679l-1.605,1a6.722,6.722,0,0,0-5.673-2.761,6.557,6.557,0,0,0-4.77,1.849,6.024,6.024,0,0,0-1.9,4.49,6.366,6.366,0,0,0,.874,3.234,6.109,6.109,0,0,0,2.4,2.353,6.968,6.968,0,0,0,3.414.838,6.9,6.9,0,0,0,5.658-2.762L-81.4-9.387a7.583,7.583,0,0,1-3.029,2.635,9.679,9.679,0,0,1-4.328.935,8.546,8.546,0,0,1-6.186-2.369A7.708,7.708,0,0,1-97.4-13.952,8.244,8.244,0,0,1-96.252-18.2a8.09,8.09,0,0,1,3.158-3.054,9.193,9.193,0,0,1,4.494-1.1,9.578,9.578,0,0,1,3.013.477,8.418,8.418,0,0,1,2.466,1.243,6.792,6.792,0,0,1,1.72,1.952" transform="translate(97.401 22.351)" fill="#0054a6"/>
      </g>
      <g id="g36" transform="translate(138.272 59.25)">
        <path id="path38" d="M0,0H2.023V8.889a8.613,8.613,0,0,1,2.7-2.421,6.587,6.587,0,0,1,3.195-.8,5.571,5.571,0,0,1,3.127.9,5.347,5.347,0,0,1,2.018,2.406,12.758,12.758,0,0,1,.649,4.734V21.8H11.692v-7.5a18.966,18.966,0,0,0-.218-3.629,4.117,4.117,0,0,0-1.365-2.348,4.035,4.035,0,0,0-2.593-.789,5,5,0,0,0-3.29,1.214A5.69,5.69,0,0,0,2.313,11.75a20.725,20.725,0,0,0-.29,4.279V21.8H0Z" fill="#0054a6"/>
      </g>
    </g>
    <g id="g44" transform="translate(-11580.828 -2870.813)">
      <g id="g46" transform="translate(0 0)" clip-path="url(#clip-path)">
        <g id="g52" transform="translate(2.607 2.882)">
          <path id="path54" d="M-91.487-19.156A14.235,14.235,0,0,0-105.705-4.937,14.235,14.235,0,0,0-91.487,9.282,14.236,14.236,0,0,0-77.267-4.937a14.236,14.236,0,0,0-14.22-14.219m0,32.2A18,18,0,0,1-109.47-4.937,18,18,0,0,1-91.487-22.921,18,18,0,0,1-73.5-4.937,18,18,0,0,1-91.487,13.047" transform="translate(109.47 22.921)" fill="#0054a6"/>
        </g>
      </g>
    </g>
    <g id="g68" transform="translate(-11555.958 -2849.258)">
      <g id="g70" transform="translate(0 0)" clip-path="url(#clip-path-2)">
        <g id="g76" transform="translate(0.121 -0.649)">
          <path id="path78" d="M-61.5-90.727H-73.592v-3.765h8.325v-14.069H-61.5Z" transform="translate(73.592 108.561)" fill="#0054a6"/>
        </g>
      </g>
    </g>
    <g id="g64" transform="translate(-11561.5 -2855)">
      <path id="path66" d="M-91.424-23.342v-4.588L-109.394-4.894h4.11" transform="translate(109.394 27.931)" fill="#ed1c24"/>
    </g>
  </g>
</svg>
