<svg xmlns="http://www.w3.org/2000/svg" width="432.752" height="479.455" viewBox="0 0 432.752 479.455"><defs><style>.a{fill:#fff;}.b{fill:#d1d3d4;}.c{fill:#231f20;}.d{fill:#0054a6;}.e{fill:#012140;}</style></defs><g transform="translate(-89.483 -27.51)"><path class="a" d="M352.344,124.329c-.528-2.094-1.037-4.208-1.585-6.3-.274-1.1-.607-2.172-.959-3.229a3.014,3.014,0,0,0-3.053-2.27c-1.683,0-3.346.254-5.01.372a15.461,15.461,0,0,1-2.681.117,2.935,2.935,0,0,1-1.781-.744c-1.742-1.957-3.405-3.914-5.029-6.067a2.857,2.857,0,0,1-.333-2.662c.587-1.957,1.252-3.914,1.82-5.871a7.54,7.54,0,0,0,.431-2.348,2.29,2.29,0,0,0-.646-1.585,36.572,36.572,0,0,0-9.491-5.343,2.446,2.446,0,0,0-2.9.763c-1.409,1.624-2.877,3.21-4.247,4.873a4.031,4.031,0,0,1-4.051,1.624c-2.172-.352-4.364-.567-6.536-.861a2.446,2.446,0,0,1-1.957-1.37c-.685-1.213-1.311-2.466-1.957-3.7s-1.135-2.114-1.742-3.151a2.524,2.524,0,0,0-2.935-1.292c-3.112.783-6.243,1.585-9.335,2.485a2.661,2.661,0,0,0-1.957,2.779c0,1.7.254,3.386.372,5.088,0,.783.117,1.585.117,2.388a3.268,3.268,0,0,1-1.252,2.681c-1.722,1.37-3.464,2.72-5.147,4.149a3.561,3.561,0,0,1-3.64.7c-2.113-.665-4.227-1.37-6.34-1.957a2.877,2.877,0,0,0-3.777,1.409c-1.468,2.466-2.877,4.971-4.247,7.5a3.112,3.112,0,0,0,.744,4.423c1.037.979,2.172,1.84,3.249,2.779q1.135,1.037,2.231,2.114a2.838,2.838,0,0,1,.8,2.329c-.235,2.27-.47,4.54-.763,6.791a3.64,3.64,0,0,1-2.074,2.857c-1.311.626-2.622,1.233-3.914,1.957a22.968,22.968,0,0,0-2.368,1.311,2.7,2.7,0,0,0-1.292,3.151c.763,2.818,1.566,5.636,2.368,8.435a6.352,6.352,0,0,0,.568,1.233,2.446,2.446,0,0,0,2.427,1.409l5.988-.489h.45a4.227,4.227,0,0,1,4.364,1.957c1,1.409,2.153,2.7,3.229,4.051a4.266,4.266,0,0,1,.724,4.364c-.646,1.957-1.272,3.738-1.84,5.617a2.857,2.857,0,0,0,1.526,3.914q3.816,2.26,7.828,4.345a2.739,2.739,0,0,0,3.679-.626c1.155-1.233,2.251-2.544,3.346-3.914,2.368-2.779,2.916-2.994,6.536-2.505l4.227.607a3.914,3.914,0,0,1,3.17,2.231c.744,1.507,1.448,3.033,2.231,4.521a13.481,13.481,0,0,0,1.468,2.153,1.957,1.957,0,0,0,2.192.783l8.865-2.466a6.249,6.249,0,0,0,1.155-.548,2.407,2.407,0,0,0,1.429-2.427c-.157-1.957-.313-3.914-.45-5.871v-1.8a3.072,3.072,0,0,1,1.213-2.544c1.683-1.292,3.346-2.6,5.01-3.914a3.424,3.424,0,0,1,3.464-.548c1.859.646,3.738,1.213,5.617,1.82h.215c2.466.665,3.307.411,4.6-1.8s2.759-4.971,4.031-7.515a2.584,2.584,0,0,0-.724-3.679c-1.409-1.292-2.877-2.544-4.4-3.718a4.6,4.6,0,0,1-1.957-4.716c.313-1.957.528-4.071.822-6.106a2.544,2.544,0,0,1,1.37-1.957c1.8-.939,3.6-1.859,5.382-2.818a5.577,5.577,0,0,0,2.916-2.564Zm-65.89,5.871a19.433,19.433,0,0,1,21.174-17.731,19.727,19.727,0,0,1,17.4,21.058,19.413,19.413,0,0,1-20.861,17.613,19.2,19.2,0,0,1-17.652-21Z" transform="translate(-161.844 55.204)"/><path class="b" d="M313.251,179.938a3.109,3.109,0,0,0,.841-.117l2.074-.568,6.81-1.957a8.163,8.163,0,0,0,1.174-.528,3.483,3.483,0,0,0,2.113-3.464l-.215-2.6-.235-3.288a16.486,16.486,0,0,1,0-1.7,2.113,2.113,0,0,1,.822-1.8c1.624-1.233,3.209-2.5,4.814-3.757l.215-.176a2.466,2.466,0,0,1,2.544-.391c1.292.45,2.6.861,3.914,1.292l1.742.548h.254c2.935.8,4.207.294,5.695-2.251s3.014-5.46,4.07-7.554a3.523,3.523,0,0,0-.939-4.853c-1.663-1.507-3.092-2.7-4.462-3.777a3.66,3.66,0,0,1-1.546-3.8c.2-1.253.372-2.544.528-3.914l.293-2.29a1.605,1.605,0,0,1,.861-1.292l2.153-1.116c1.076-.568,2.172-1.115,3.249-1.7a6.419,6.419,0,0,0,3.346-3.033.819.819,0,0,0,0-.313v-.744a.84.84,0,0,0,0-.313l-.391-1.624-1.174-4.7c-.294-1.1-.626-2.192-.978-3.288a3.914,3.914,0,0,0-3.914-2.936,32.038,32.038,0,0,0-3.366.235l-1.683.137h-.7a9.628,9.628,0,0,1-1.82,0,2.271,2.271,0,0,1-1.155-.411c-1.839-2.094-3.562-4.227-4.971-6.028a1.84,1.84,0,0,1-.176-1.781c.254-.861.528-1.722.822-2.6s.685-2.172,1-3.268a8.389,8.389,0,0,0,.47-2.622,3.111,3.111,0,0,0-1.037-2.348,35.929,35.929,0,0,0-9.785-5.5,3.4,3.4,0,0,0-3.914,1.057L319.1,90.481c-.939,1.057-1.957,2.094-2.779,3.19a3.053,3.053,0,0,1-3.131,1.292c-1.429-.235-2.838-.411-4.266-.587l-2.309-.294a1.487,1.487,0,0,1-1.155-.861l-1.174-2.231-1.1-1.957c-.47-.881-.939-1.781-1.468-2.622a3.483,3.483,0,0,0-3.914-1.761c-3.777.959-6.654,1.722-9.354,2.505a3.64,3.64,0,0,0-2.6,3.738,32.826,32.826,0,0,0,.235,3.425,16.712,16.712,0,0,0,.157,1.7c.059.568.1,1.546.1,2.329a2.29,2.29,0,0,1-.881,1.957l-1.214.959c-1.331,1.057-2.661,2.114-3.914,3.21a2.622,2.622,0,0,1-2.72.509L274.523,104l-3.249-1.037a3.914,3.914,0,0,0-4.912,1.957c-1.487,2.505-2.916,5.03-4.266,7.515a4.051,4.051,0,0,0,.939,5.6c.626.587,1.272,1.135,1.957,1.683l1.331,1.135c.744.646,1.468,1.35,2.172,1.957a1.84,1.84,0,0,1,.548,1.546l-.137,1.253c-.2,1.84-.411,3.679-.646,5.5a2.622,2.622,0,0,1-1.526,2.114l-1.683.8L262.8,135.1c-.763.391-1.624.842-2.446,1.37a3.62,3.62,0,0,0-1.7,4.227q1.135,4.227,2.348,8.454a6.792,6.792,0,0,0,.607,1.311,3.484,3.484,0,0,0,3.425,1.957l5.988-.489a2.783,2.783,0,0,0,.509,0,3.307,3.307,0,0,1,3.425,1.566c.724,1.018,1.507,1.957,2.29,2.9l.978,1.194a3.307,3.307,0,0,1,.568,3.425c-.724,2.094-1.331,3.914-1.859,5.675a3.8,3.8,0,0,0,1.957,5.088c2.368,1.39,4.912,2.818,7.828,4.364a3.64,3.64,0,0,0,4.834-.822c.959-1.018,1.859-2.074,2.759-3.151l.626-.724c2.153-2.544,2.387-2.622,5.656-2.172l4.247.607a2.955,2.955,0,0,1,2.427,1.7l.7,1.468q.724,1.546,1.526,3.053a13.135,13.135,0,0,0,1.565,2.329,2.994,2.994,0,0,0,2.192,1.507Zm19.9-22.428a4.384,4.384,0,0,0-2.72.979l-.215.176c-1.585,1.252-3.19,2.525-4.795,3.757a4.032,4.032,0,0,0-1.585,3.288c0,.626,0,1.272,0,1.957,0,1.1.156,2.211.254,3.307l.2,2.6a1.468,1.468,0,0,1-.92,1.487h-.176a4.64,4.64,0,0,1-.783.372l-6.791,1.957-2.055.568a1.037,1.037,0,0,1-1.174-.45,12.694,12.694,0,0,1-1.37-1.957c-.509-.979-1-1.957-1.487-2.975l-.724-1.507a4.892,4.892,0,0,0-3.914-2.759l-4.227-.607c-3.914-.548-4.834-.2-7.417,2.838l-.626.744c-.881,1.037-1.761,2.074-2.7,3.053a1.742,1.742,0,0,1-2.485.45c-2.877-1.527-5.421-2.955-7.828-4.325-1.37-.8-1.546-1.272-1.076-2.857s1.116-3.5,1.82-5.578a5.225,5.225,0,0,0-.881-5.3l-1-1.213c-.763-.9-1.526-1.82-2.192-2.779a5.225,5.225,0,0,0-5.3-2.368h-.411l-5.871.47a1.409,1.409,0,0,1-1.507-.92,4.539,4.539,0,0,1-.489-1c-.8-2.818-1.585-5.617-2.348-8.435a1.683,1.683,0,0,1,.861-2.074,22.17,22.17,0,0,1,2.27-1.253l2.211-1.076,1.683-.8A4.521,4.521,0,0,0,270,131.657c.255-1.84.45-3.7.646-5.558l.137-1.233a3.738,3.738,0,0,0-1.1-3.131c-.724-.744-1.487-1.468-2.27-2.153l-1.37-1.174c-.626-.509-1.253-1.037-1.84-1.6-1.233-1.155-1.35-1.781-.568-3.229,1.35-2.466,2.759-4.971,4.227-7.476a1.957,1.957,0,0,1,2.642-.979l3.229,1.037,3.131,1a4.579,4.579,0,0,0,4.56-.9c1.272-1.076,2.583-2.114,3.914-3.151l1.213-.979a4.208,4.208,0,0,0,1.624-3.444,17.345,17.345,0,0,0-.117-2.466c-.117-.822-.1-1.174-.156-1.742,0-1.135-.2-2.192-.215-3.288a1.722,1.722,0,0,1,1.174-1.82c2.681-.783,5.558-1.546,9.3-2.485a1.565,1.565,0,0,1,1.859.861c.489.822.959,1.683,1.409,2.544l1.076,1.957c.391.763.8,1.507,1.213,2.27a3.405,3.405,0,0,0,2.6,1.84l2.329.294c1.389.176,2.8.352,4.188.568a4.99,4.99,0,0,0,4.971-1.957c.861-1.057,1.781-2.094,2.7-3.112.509-.568,1.018-1.135,1.507-1.722a1.507,1.507,0,0,1,1.84-.489,35.381,35.381,0,0,1,9.178,5.284,1.506,1.506,0,0,1,.254.822,7.185,7.185,0,0,1-.391,2.055q-.469,1.6-1,3.229l-.822,2.622a3.914,3.914,0,0,0,.509,3.562c1.448,1.82,3.17,3.914,5.049,6.106a3.914,3.914,0,0,0,2.427,1.076,11.888,11.888,0,0,0,2.211,0h.646l1.722-.157c1.076,0,2.153-.2,3.229-.215a2.113,2.113,0,0,1,2.113,1.585c.333,1.057.665,2.114.939,3.17.411,1.566.783,3.112,1.174,4.658l.352,1.487v.411a5.01,5.01,0,0,1-2.387,1.957l-3.249,1.7-2.153,1.116a3.542,3.542,0,0,0-1.957,2.759l-.294,2.329c-.176,1.253-.333,2.505-.528,3.758a5.617,5.617,0,0,0,2.29,5.636c1.331,1.037,2.72,2.211,4.344,3.7,1,.9,1.1,1.35.509,2.5-1.057,1.957-2.466,4.775-4.031,7.456-1.018,1.781-1.389,1.957-3.483,1.35l-1.957-.626-3.914-1.253a5.052,5.052,0,0,0-1.546-.509Zm-27.182-4.736a20.353,20.353,0,0,0,20.2-18.592,20.342,20.342,0,1,0-40.528-3.542,19.337,19.337,0,0,0,4.246,14.423,20.294,20.294,0,0,0,14.364,7.632q.829.079,1.663.078Zm.137-38.828h1.6a18.451,18.451,0,1,1-16.3,29.845,17.438,17.438,0,0,1-3.914-12.956h0a18.337,18.337,0,0,1,18.552-16.889Z" transform="translate(-161.89 54.588)"/><path class="b" d="M110.32,49.4s48.415-2.407,58.2,29.532v63.937s-37.632-29.63-58.2-19.747Z" transform="translate(312.938 20.91)"/><path class="c" d="M168.975,144.323a1.155,1.155,0,0,0,.431,0,.979.979,0,0,0,.548-.881V79.408a1.33,1.33,0,0,0,0-.274c-9.9-32.291-58.708-30.275-59.2-30.236a.979.979,0,0,0-.939.979V123.6a.979.979,0,0,0,.47.842.939.939,0,0,0,.939,0c19.785-9.55,56.751,19.336,57.182,19.57A.881.881,0,0,0,168.975,144.323ZM168,79.565v61.8c-7.319-5.46-37.417-26.6-56.262-19.257v-71.3C118.427,50.679,159.19,51.266,168,79.565Z" transform="translate(312.483 20.434)"/><path class="a" d="M151.822,319.487c6.634,2.192,13.366,4.129,19.843,6.674,10.8,4.247,19.569,1.311,25.44-8.083,9.2-14.541,21.976-24.678,36.2-33.974,20.88-13.7,35.225-33.035,40.9-57.459,11.546-49.18-17.1-90.885-67.73-102.549-74.7-17.163-120.273,50.883-99.8,115.465,5.538,17.476,10.724,34.424,9.354,53-.763,10.333,4.873,16.967,14.951,19.942C137.986,314.634,144.875,317.158,151.822,319.487Z" transform="translate(221.437 89.861)"/><path class="c" d="M181.333,329.545c6.908,0,12.72-3.523,17.084-10.451,9.785-15.363,23.6-25.637,35.929-33.681a94.232,94.232,0,0,0,41.311-58.046c5.46-23.308,2.231-45.443-9.335-64.015-12.231-19.57-33.268-33.759-59.139-39.708-32.759-7.535-62.074.528-82.544,22.721-22.133,23.974-29.178,60.022-18.415,94.055,5.264,16.635,10.7,33.837,9.315,52.625-.763,10.47,4.638,17.613,15.656,20.96,4.794,1.409,9.628,3.073,14.305,4.677l6.536,2.211h0l6.067,1.957c4.54,1.448,9.237,2.955,13.7,4.716A26.278,26.278,0,0,0,181.333,329.545Zm2.564-206.7a102.3,102.3,0,0,1,22.857,2.7c25.44,5.871,45.949,19.57,57.906,38.847,11.292,18.122,14.442,39.747,9.1,62.527-5.6,23.837-19.217,43.055-40.489,56.852-12.5,8.161-26.614,18.611-36.5,34.287C191,327.2,182.86,329.8,172.547,325.749c-4.56-1.781-9.276-3.288-13.855-4.756l-6.047-1.957-6.517-2.212c-4.677-1.6-9.53-3.288-14.384-4.7-10.02-2.955-14.931-9.492-14.247-18.925,1.429-19.179-4.09-36.557-9.393-53.368-10.567-33.27-3.679-68.673,17.965-92.138A76.593,76.593,0,0,1,183.9,122.843ZM152.332,319.976Z" transform="translate(220.927 89.372)"/><path class="a" d="M3.364,21.214H71.333A3.364,3.364,0,0,0,74.7,17.851V3.365A3.364,3.364,0,0,0,71.332,0H3.364A3.364,3.364,0,0,0,0,3.364V17.85A3.364,3.364,0,0,0,3.364,21.214Z" transform="translate(402.122 441.458) rotate(-161.54)"/><path class="c" d="M211.82,258.277a10.059,10.059,0,0,0,9.589-6.908l.939-2.8a10.138,10.138,0,0,0-6.4-12.8l-53.5-17.868a10.156,10.156,0,0,0-12.818,6.4l-.92,2.779a10.138,10.138,0,0,0,6.4,12.819h0l53.5,17.829a10.115,10.115,0,0,0,3.209.548Zm-52.583-38.926a8.376,8.376,0,0,1,2.583.411L215.4,237.63a8.181,8.181,0,0,1,5.088,10.314l-.939,2.779a8.043,8.043,0,0,1-4.09,4.716,8.141,8.141,0,0,1-6.243.45l-53.5-17.868a8.161,8.161,0,0,1-5.147-10.333l.92-2.779a8.18,8.18,0,0,1,7.749-5.558Zm-3.914,19.57Z" transform="translate(184.491 181.718)"/><path class="a" d="M3.364,21.214H71.333A3.364,3.364,0,0,0,74.7,17.851V3.365A3.364,3.364,0,0,0,71.332,0H3.364A3.364,3.364,0,0,0,0,3.364V17.85A3.364,3.364,0,0,0,3.364,21.214Z" transform="translate(395.387 461.598) rotate(-161.54)"/><path class="c" d="M215.175,268.6a10.176,10.176,0,0,0,9.589-6.928l.92-2.779a10.02,10.02,0,0,0-.548-7.828A9.785,9.785,0,0,0,219.265,246l-53.5-17.868a10.1,10.1,0,0,0-12.7,6.478l-.92,2.8a10.079,10.079,0,0,0,6.38,12.8h0l53.5,17.868A10.233,10.233,0,0,0,215.175,268.6Zm-52.6-38.945a7.987,7.987,0,0,1,2.6.431l53.5,17.829a8.2,8.2,0,0,1,4.716,4.11,8.005,8.005,0,0,1,.431,6.223l-.92,2.779a8.141,8.141,0,0,1-10.333,5.167l-53.5-17.868a8.141,8.141,0,0,1-5.147-10.333l.92-2.779a8.122,8.122,0,0,1,4.09-4.716,8.218,8.218,0,0,1,3.64-.842Zm-3.914,19.57Z" transform="translate(174.425 191.532)"/><path class="c" d="M158.759,238.57c-2.524,7.593,7.828,17.848,22.9,22.917s29.53,3.014,32.055-4.56Z" transform="translate(173.697 201.993)"/><path class="c" d="M198.122,265.719a33.262,33.262,0,0,0,4.912-.333c6.438-.92,10.744-3.64,12.094-7.672a1.018,1.018,0,0,0-.626-1.253L159.55,238.125a.979.979,0,0,0-1.233.607c-1.35,4.051.431,8.807,5.029,13.406a47.769,47.769,0,0,0,18.474,10.744,52.011,52.011,0,0,0,16.3,2.838Zm14.755-7.73c-1.429,2.818-4.971,4.736-10.117,5.46a50.742,50.742,0,0,1-38.023-12.682c-3.66-3.679-5.342-7.339-4.795-10.451Z" transform="translate(173.219 201.518)"/><path class="b" d="M154.471,279.358a1.018,1.018,0,0,0,.959-.744l.489-1.957c3.914-16.5,8.1-33.446,15.382-48.926a63.991,63.991,0,0,0,31.624-1.957,34.422,34.422,0,0,0,15.656-9.413,18.475,18.475,0,0,0,4.364-17.5,17.456,17.456,0,0,0-23.757-9.2c-7.045,4.071-14.579,12.29-22.427,24.424a107.641,107.641,0,0,0-6.477,11.527,65.027,65.027,0,0,1-24.109-10.294c.157-.7.313-1.389.45-2.094l.352-1.722c2.818-13.347,6.3-29.962.528-43.055-.92-2.114-4.384-9.061-9.922-10.216a8.023,8.023,0,0,0-7.319,2.388,26.91,26.91,0,0,0-7.73,23.289A43.82,43.82,0,0,0,133.3,206.263a62.079,62.079,0,0,0,10.685,9.785,222.715,222.715,0,0,1-19.276,51.607.978.978,0,0,0,.431,1.331,1,1,0,0,0,1.311-.431A224.69,224.69,0,0,0,145.7,217.261a67.181,67.181,0,0,0,23.522,10.059c-7.221,15.48-11.331,32.35-15.3,48.789l-.509,1.957a.978.978,0,0,0,.724,1.174Zm51.937-89.672a16.3,16.3,0,0,1,5.871,1.135,14.4,14.4,0,0,1,8.767,8.533,16.753,16.753,0,0,1-3.914,15.656,32.5,32.5,0,0,1-14.7,8.846,62.012,62.012,0,0,1-30.137,2.074,107.632,107.632,0,0,1,6.125-10.842c7.671-11.86,14.99-19.864,21.761-23.8A12.6,12.6,0,0,1,206.408,189.687ZM135.958,160a6.87,6.87,0,0,1,1.076.1c3.659.783,6.81,5.206,8.532,9.1,5.5,12.466,2.094,28.729-.646,41.822l-.372,1.7a7.323,7.323,0,0,1-.254,1.272,59.568,59.568,0,0,1-9.667-9.042,41.843,41.843,0,0,1-10.313-21.332,24.973,24.973,0,0,1,7.1-21.527,6.81,6.81,0,0,1,4.54-2.094Z" transform="translate(234.58 124.98)"/><path class="a" d="M299.888,76.174c.587,0,27.4,75.933,27.4,75.933h-72.72L239.34,72.73Z" transform="translate(-98.311 43.277)"/><path class="c" d="M255.1,153.556h72.642a.959.959,0,0,0,.783-.411.978.978,0,0,0,.137-.9c-26.634-75.679-27.26-76.559-28.2-76.559L239.91,72.241a.978.978,0,0,0-.783.333,1.057,1.057,0,0,0-.235.822l15.225,79.358A.959.959,0,0,0,255.1,153.556Zm71.252-1.957H255.9L241.065,74.256l58.708,3.327C301.828,82.319,316.387,123.319,326.348,151.6Z" transform="translate(-98.843 42.808)"/><path class="b" d="M267.354,115.529a.978.978,0,0,0,.783-.372,1.018,1.018,0,0,0,.157-.92L259.448,87.7a.939.939,0,0,0-.8-.665l-11.272-1.37a.939.939,0,0,0-.861.333.978.978,0,0,0-.2.92l8.2,27.144a.959.959,0,0,0,.881.685l11.9.783Zm-9.569-26.635,8.2,24.58-9.785-.626L248.626,87.8Z" transform="translate(-52.94 55.647)"/><path class="b" d="M269.675,142.04h37.906a.939.939,0,0,0,.783-.391.92.92,0,0,0,.157-.861L289.988,78.71a1,1,0,0,0-.881-.685l-35.225-2.544a.959.959,0,0,0-.8.352.939.939,0,0,0-.215.861l15.812,64.582A1,1,0,0,0,269.675,142.04Zm36.595-1.957H270.439l-15.3-62.625,33.17,2.388Z" transform="translate(-106.005 45.908)"/><path class="a" d="M269.29,107.882s-8.415-7.065-12.309-10.274-7.652-12.016-11.174-11.977,2.779,10.509,2.779,10.509S235.494,86.1,231.423,85.806s-6.36,6.576-5.342,8.709,12.113,7.339,16.223,11.449,17.612,13.308,17.612,13.308" transform="translate(-13.898 55.623)"/><path class="c" d="M260.271,120.708a.979.979,0,0,0,.548-1.8c-.137,0-13.405-9.179-17.4-13.19a57.79,57.79,0,0,0-9.589-6.693,30.232,30.232,0,0,1-6.419-4.482,7.261,7.261,0,0,1,1.331-5.441,3.464,3.464,0,0,1,3.033-1.957c2.779.2,11.468,6.165,16.634,10.118a.978.978,0,0,0,1.252,0,.959.959,0,0,0,.176-1.233c-2.368-3.914-4.109-8.239-3.64-9.022,1.644,0,3.914,3.151,5.871,5.871a31.194,31.194,0,0,0,4.794,5.871c3.914,3.21,12.29,10.274,12.29,10.274l1.272-1.487s-8.434-7.084-12.309-10.294a29.669,29.669,0,0,1-4.442-5.46c-2.427-3.464-4.736-6.732-7.338-6.732h0a1.957,1.957,0,0,0-1.761.979c-.783,1.448.274,4.4,1.546,7.045-4.286-3.073-11.115-7.652-14.11-7.828a5.4,5.4,0,0,0-4.794,2.72,8.885,8.885,0,0,0-1.487,7.378c.607,1.253,2.994,2.759,7.162,5.3a56.752,56.752,0,0,1,9.119,6.458c4.129,4.129,17.123,13.053,17.612,13.425a.92.92,0,0,0,.646.176Z" transform="translate(-14.331 55.067)"/><path class="a" d="M253.331,83.463a67.028,67.028,0,0,0-13.19-7.2c-5.342-1.761-12.114-2.955-10.587-5.225s14.207,1.018,14.207,1.018-7.4-11.331-11.546-13.582-10.1-2.074-7.162-4.227,11.742-2.485,14.892-.9,20.881,21.077,21.781,22.115S253.331,83.463,253.331,83.463Z" transform="translate(-3.321 23.777)"/><path class="c" d="M253.81,84.924a.959.959,0,0,0,.587-.2c3.914-2.936,8.669-6.811,8.845-8.454a1.252,1.252,0,0,0-.294-.979c-.176-.2-18.65-20.588-22.074-22.33s-12.583-1.468-15.93.979c-.372.274-1.35,1-1.155,1.957s1.6,1.566,3.718,2.133a21.525,21.525,0,0,1,4.736,1.7c2.642,1.429,7.123,7.378,9.785,11.155-4.56-1.018-11.35-2.133-12.779,0a1.957,1.957,0,0,0-.274,1.82c.587,1.644,3.229,2.485,7.828,3.914,1.174.333,2.387.685,3.542,1.057a67.665,67.665,0,0,1,12.916,7.084,1.018,1.018,0,0,0,.548.157Zm7.358-8.67a48.4,48.4,0,0,1-7.4,6.5A63.971,63.971,0,0,0,240.933,75.8c-1.174-.372-2.407-.744-3.62-1.076-2.329-.685-6.243-1.82-6.517-2.6.763-.939,6.908-.274,13.19,1.35a.978.978,0,0,0,1.037-.372,1,1,0,0,0,0-1.116c-.313-.47-7.573-11.566-11.9-13.895a24.285,24.285,0,0,0-5.147-1.957,15.774,15.774,0,0,1-1.957-.607l.1-.1c2.7-1.957,11.155-2.211,13.875-.822S258.487,73.241,261.168,76.255Z" transform="translate(-3.799 23.294)"/><path class="d" d="M273.57,89.192s-46.321,6.6-53.327,4.834L192.846,63.3,176.78,73.77s8.454,25.246,20.039,39.826S284.2,131.327,284.2,131.327Z" transform="translate(67.203 34.252)"/><path class="c" d="M253.1,213.27s5.342,11.547,4.129,16.146-21.9,35.129-24.892,31.685,1.526-33.27,1.526-33.27Z" transform="translate(-12.714 177.78)"/><path class="c" d="M233.413,262.8h.548c5.734-1.35,23.679-28.905,24.657-32.624,1.252-4.814-3.62-15.656-4.188-16.811a.979.979,0,0,0-.646-.528.959.959,0,0,0-.822.157l-19.237,14.482a.92.92,0,0,0-.372.626c-.763,5.069-4.423,30.549-1.292,34.15A1.722,1.722,0,0,0,233.413,262.8Zm19.745-47.654c1.624,3.758,4.4,11.253,3.581,14.4-1.37,5.186-20.019,31.215-23.288,31.215h0c-1.722-1.957,0-19.884,1.8-32.115Z" transform="translate(-13.167 177.333)"/><path class="a" d="M256.269,201.02l10.9,23.974-19.237,14.482L233.51,211.431Z" transform="translate(-26.787 166.056)"/><path class="c" d="M248.442,240.94a1.057,1.057,0,0,0,.587-.2l19.237-14.482a1,1,0,0,0,.313-1.194l-10.9-23.974a1.037,1.037,0,0,0-.567-.509.979.979,0,0,0-.744,0L233.609,211a1,1,0,0,0-.528.568,1.037,1.037,0,0,0,0,.763L247.5,240.373a.92.92,0,0,0,.665.509Zm18.023-15.774-17.612,13.308-13.444-26.107,20.939-9.57Z" transform="translate(-27.297 165.57)"/><path class="e" d="M285.38,131.83s-80.45,20.412-96.242,33.27-3.659,105.328,15.479,122.354l30.1-15.832s-16.047-70.845-10.157-76.677,72.27-14.384,72.27-14.384l43.4-48.554Z" transform="translate(1.206 99.838)"/><path class="c" d="M205.065,288.911a.9.9,0,0,0,.45-.117l30.1-15.832a.978.978,0,0,0,.509-1.076c-6.164-27.183-14.442-71.8-10.43-75.777,4.658-4.6,53.346-11.742,71.7-14.11a.92.92,0,0,0,.607-.313l43.4-48.554a.959.959,0,0,0,.176-1.037,1,1,0,0,0-.9-.587l-54.794-.176h-.254c-3.288.841-80.841,20.627-96.634,33.465-5.871,4.756-7.358,18.533-7.593,29.258-.724,32.917,9.393,82.431,23.053,94.584A.9.9,0,0,0,205.065,288.911Zm28.982-17.32-28.826,15.187c-13.033-12.584-22.6-60.551-21.9-92.627.313-14.58,2.759-24.463,6.869-27.81,15.166-12.349,92.231-32.135,95.753-33.054l52.563.2-41.722,46.656c-8.337,1.076-66.536,8.807-72.407,14.619-1.722,1.7-3.346,7.828,2.6,41.372C229.781,252.275,233.264,268.049,234.047,271.591Z" transform="translate(0.758 99.36)"/><path class="a" d="M228.3,233.41l2.524,22.1-21.331,10.216L204.64,235.23Z" transform="translate(66.055 197.055)"/><path class="c" d="M209.968,267.134a1.156,1.156,0,0,0,.431,0l21.331-10.216a1,1,0,0,0,.548-1l-2.524-22.1a.939.939,0,0,0-1.057-.861l-23.659,1.82a.939.939,0,0,0-.685.372.9.9,0,0,0-.2.763l4.912,30.393a.939.939,0,0,0,.509.7.9.9,0,0,0,.391.117Zm20.294-11.742-19.569,9.355-4.481-28.162,21.663-1.664Z" transform="translate(65.581 196.62)"/><path class="e" d="M291.195,153.674s-73.053,53.466-74.031,78.458,8.669,103.958,8.669,103.958l-36.712,8.787S162.6,239.94,171.508,213.188,231.86,130.62,231.86,130.62Z" transform="translate(74.099 98.68)"/><path class="c" d="M189.62,346.332h.235l36.634-8.826a.959.959,0,0,0,.744-1.057c0-.783-9.628-79.2-8.65-103.821.939-24.228,72.916-77.166,73.64-77.695a1.037,1.037,0,0,0,.391-.92,1.018,1.018,0,0,0-.626-.783L232.673,130.2a.959.959,0,0,0-1.076.235c-2.094,2.29-51.565,56.285-60.489,82.92S187.526,341.3,188.72,345.589A.978.978,0,0,0,189.62,346.332Zm35.636-10.509-34.912,8.357c-2.6-10.47-25.675-105.347-17.339-130.2s54.56-76.168,59.648-81.726L289.7,154.405c-10.528,7.828-72.094,54.641-73.013,78.164S224.219,327.134,225.256,335.823Z" transform="translate(73.6 98.203)"/><path class="a" d="M203.783,97.786a17.612,17.612,0,0,0,7.965-3.092c4.442-3.249,6.732-8.631,8.708-13.7a29.359,29.359,0,0,0,2.583-10.92c-.137-6.654-4.56-12.388-9.1-17.242-3.405-3.64-7.28-8.278-5.656-12.995a11.74,11.74,0,0,0,1.037-3.092c.117-2.681-3.483-4.247-5.988-3.229a12.29,12.29,0,0,0-5.362,5.871,7.691,7.691,0,0,1-1.957-6.928c.215-1,.626-2.074.117-2.936a2.916,2.916,0,0,0-1.82-1.116,13.581,13.581,0,0,0-16.066,9.785,9,9,0,0,1-.783-7.4A26.655,26.655,0,0,0,159.85,60.152a54.423,54.423,0,0,0,3.542,13.269,11.624,11.624,0,0,0,3.366,3.62c9.119,7.613,13.229,17.222,25.558,20.021a32.6,32.6,0,0,0,11.468.724Z" transform="translate(162.137 0.55)"/><path class="c" d="M200.494,99.548a27.909,27.909,0,0,0,3.679-.235,18.316,18.316,0,0,0,8.4-3.288c4.6-3.366,6.986-8.865,9.041-14.208a29.69,29.69,0,0,0,2.7-11.292c-.157-7.085-4.814-13.014-9.374-17.887-3.62-3.914-6.81-8.043-5.44-12,.117-.313.235-.607.372-.9a6.967,6.967,0,0,0,.724-2.485,4.032,4.032,0,0,0-1.84-3.484,5.988,5.988,0,0,0-5.479-.7,11.311,11.311,0,0,0-5.108,5.01,6.83,6.83,0,0,1-.841-4.971l.117-.431a4.13,4.13,0,0,0-.1-3.229,3.777,3.777,0,0,0-2.427-1.546,13.952,13.952,0,0,0-10.724,1.761,14.443,14.443,0,0,0-5.636,6.165,7.828,7.828,0,0,1,.2-4.305.979.979,0,0,0-1.252-1.233A27.965,27.965,0,0,0,160.944,46.2a27.557,27.557,0,0,0-1.6,14.482,54.8,54.8,0,0,0,3.425,13.7,12.016,12.016,0,0,0,3.386,3.758l.235.2a79.279,79.279,0,0,1,7.593,7.574c4.99,5.48,9.785,10.666,18.376,12.643A37.805,37.805,0,0,0,200.494,99.548Zm4.755-64.9a4.188,4.188,0,0,1,2.329.7,2.133,2.133,0,0,1,1.018,1.82,5.207,5.207,0,0,1-.568,1.781c-.137.352-.294.685-.411,1.037-1.957,5.617,3.131,11.057,5.871,13.973,4.305,4.6,8.708,10.177,8.845,16.6a28.027,28.027,0,0,1-2.524,10.548c-1.957,5.284-4.207,10.294-8.376,13.347a16.477,16.477,0,0,1-7.515,2.916h0a31.31,31.31,0,0,1-11.135-.724c-8.082-1.84-12.6-6.791-17.378-12.055a80.963,80.963,0,0,0-7.828-7.828l-.235-.2a10.567,10.567,0,0,1-2.877-3.092,56.4,56.4,0,0,1-3.229-13.151,25.776,25.776,0,0,1,1.487-13.464,26.106,26.106,0,0,1,13.7-14.13,9.786,9.786,0,0,0,1.331,6.321.978.978,0,0,0,1.781-.294,12.583,12.583,0,0,1,14.853-9.022,1.957,1.957,0,0,1,1.233.646c.235.391,0,1.037-.117,1.742l-.117.47a8.631,8.631,0,0,0,2.133,7.828.881.881,0,0,0,.822.294.959.959,0,0,0,.744-.47,11.233,11.233,0,0,1,4.873-5.421,3.522,3.522,0,0,1,1.292-.176Z" transform="translate(161.884 0)"/><path class="a" d="M195.055,53.71s-6.83,12.584-4.99,14.913,7.1.215,7.1.215" transform="translate(128.85 25.074)"/><path class="c" d="M193.4,71.212a14.05,14.05,0,0,0,4.579-.939A.978.978,0,0,0,198.512,69a.959.959,0,0,0-1.252-.548c-1.194.47-4.853,1.507-5.988,0-.763-.979,1.6-7.437,5.088-13.836a.959.959,0,0,0-.391-1.331,1,1,0,0,0-1.331.391c-2.133,3.914-6.928,13.425-4.892,15.989A4.462,4.462,0,0,0,193.4,71.212Z" transform="translate(128.406 24.559)"/><path class="a" d="M171.747,48.308c-4.657,4.521-2.466,13.034-1.957,18.651q1.115,11.86,2.779,23.641c.7,4.99,13.7,3.914,15.851,2.29l.274,16.674s3.914,8.885,13.894,3.151,11.879-12.74,11.879-12.74l-2.838-22.78s-8.552.8-14.5-8.983-7.1-25.442-7.1-25.442S176.287,43.886,171.747,48.308Z" transform="translate(152.49 14.604)"/><path class="c" d="M196.885,116.092a13.874,13.874,0,0,0,6.771-2.074c10.274-5.871,12.29-12.956,12.368-13.249a.8.8,0,0,0,0-.372l-2.838-22.8a1,1,0,0,0-1.057-.842c-.333,0-8.063.587-13.7-8.513-5.753-9.452-6.928-24.894-6.947-25.05a.978.978,0,0,0-1.057-.9c-.567,0-14.129,1.155-18.884,5.871h0c-4.227,4.09-3.307,10.92-2.583,16.42.137,1.057.274,2.094.372,3.033.724,7.828,1.663,15.852,2.759,23.68a4.6,4.6,0,0,0,3.249,3.542,22.19,22.19,0,0,0,12.622.117l.2,15.187a1.271,1.271,0,0,0,0,.372,10.274,10.274,0,0,0,5.675,5.225,9.256,9.256,0,0,0,3.053.352Zm17.2-15.656c-.372,1.057-2.72,6.947-11.409,11.9a9.9,9.9,0,0,1-7.984,1.468,8.317,8.317,0,0,1-4.442-3.914l-.215-16.459a1,1,0,0,0-.567-.861.959.959,0,0,0-1.018,0c-1.174.939-8.337,1.957-12.25.352-1.233-.489-1.957-1.174-1.957-1.957-1.1-7.828-1.957-15.656-2.759-23.6a28.075,28.075,0,0,0-.372-3.092c-.665-5.069-1.507-11.351,1.957-14.776s13.562-4.775,16.712-5.127c.352,3.66,1.957,16.38,7.143,24.933s11.976,9.374,14.481,9.453Z" transform="translate(151.872 14.143)"/><path class="a" d="M185.71,65.836s6.438,3.249,9.158-3.366" transform="translate(139.056 33.458)"/><path class="c" d="M189.685,68.1a6.948,6.948,0,0,0,2.446-.431,7.378,7.378,0,0,0,4.129-4.345,1,1,0,0,0-.548-1.292.979.979,0,0,0-1.272.548,5.441,5.441,0,0,1-2.994,3.249,6.81,6.81,0,0,1-4.834-.391.978.978,0,0,0-1.311.45,1,1,0,0,0,.43,1.311A9.783,9.783,0,0,0,189.685,68.1Z" transform="translate(138.583 32.974)"/><path class="a" d="M176.1,61.108a10.784,10.784,0,0,1,1.761-5.617,15.753,15.753,0,0,1,2.544-3.914,5.283,5.283,0,0,1,4.149-1.663,4.814,4.814,0,0,1,3.327,2.192,8.885,8.885,0,0,1,1.311,3.914,16.968,16.968,0,0,1-6.517,15.656l.391-.509" transform="translate(163.403 21.434)"/><path class="c" d="M183.033,73.159a.881.881,0,0,0,.567-.2,18.1,18.1,0,0,0,6.928-16.635,10.179,10.179,0,0,0-1.487-4.247,5.871,5.871,0,0,0-3.914-2.622,6.047,6.047,0,0,0-4.951,1.957,15.656,15.656,0,0,0-2.72,4.071,11.547,11.547,0,0,0-1.859,6.145,1.018,1.018,0,0,0,1.037.9.959.959,0,0,0,.9-1.037,9.785,9.785,0,0,1,1.644-5.088,14.423,14.423,0,0,1,2.388-3.6,4.129,4.129,0,0,1,3.327-1.39,3.914,3.914,0,0,1,2.622,1.761,8.1,8.1,0,0,1,1.174,3.425,16.165,16.165,0,0,1-5.871,14.56h-.1l-.411.509a.979.979,0,0,0,.783,1.585Z" transform="translate(163.044 20.988)"/><path class="c" d="M177.543,72.074s6.536-2.681,9.276-7.554c0,0,.587,12.075-9.432,16.439Z" transform="translate(163.387 35.42)"/><path class="c" d="M177.866,82.38a1.018,1.018,0,0,0,.411,0c10.509-4.579,10-17.261,10-17.4a.978.978,0,0,0-.763-.9,1,1,0,0,0-1.076.47c-2.524,4.521-8.728,7.1-8.787,7.124a.979.979,0,0,0-.607.9l-.157,8.9a.979.979,0,0,0,.45.822A.881.881,0,0,0,177.866,82.38Zm8.239-14.228a15.656,15.656,0,0,1-7.241,11.742l.1-6.654A24.638,24.638,0,0,0,186.105,68.152Z" transform="translate(162.907 34.978)"/><path class="c" d="M2.843,2.235c1.57,0,2.843-.5,2.843-1.117S4.412,0,2.843,0,0,.5,0,1.117,1.273,2.235,2.843,2.235Z" transform="translate(327.678 75.143) rotate(-104.452)"/><path class="d" d="M244.992,69s-28.943,1.35-40.567,16.909-20.978,75.072-26.673,78.986-21.879,25.95-21.683,27.066,82.876,27.4,82.876,27.4,4.853-19.081,13.973-43.8S269.1,70.683,244.992,69Z" transform="translate(130.518 39.707)"/><path class="c" d="M187.407,163.11a1.018,1.018,0,0,0,.763-.372A103.276,103.276,0,0,0,207,120.329C211.262,96.3,219.247,81.7,219.325,81.56a.972.972,0,1,0-1.7-.939c0,.137-8.219,14.991-12.544,39.356A101.319,101.319,0,0,1,186.644,161.5a.978.978,0,0,0,.137,1.37A1,1,0,0,0,187.407,163.11Z" transform="translate(113.073 50.339)"/><path class="d" d="M274.622,83.543c-.665.822-33.385,53.016-33.385,53.016l-65.068-31.313-15.89,18.318s54.833,41.45,76.223,48.476,70.45-69.377,69.9-77.773S284.015,71.9,274.622,83.543Z" transform="translate(77.287 49.373)"/><path class="c" d="M214.117,133.01a1,1,0,0,0,.841-.45s29.2-46.519,29.648-47.184a.978.978,0,0,0-1.644-1.057c-.372.568-25.342,40.315-29.119,46.343l-34.481-18.024a.98.98,0,0,0-.9,1.742l35.225,18.435A.959.959,0,0,0,214.117,133.01Z" transform="translate(104.406 53.979)"/><path class="c" d="M221.872,144.216c13.7,0,28.415-11.566,43.953-34.483a.959.959,0,0,0-.254-1.35,1,1,0,0,0-1.37.254c-16.947,25.011-32.74,36.166-46.967,33.152s-42.661-25.442-42.935-25.6a.975.975,0,1,0-1.213,1.526c1.174.939,28.963,22.839,43.757,25.97A23.487,23.487,0,0,0,221.872,144.216Z" transform="translate(93.363 77.237)"/><path class="e" d="M146.065,75.62l1.546,4.658-3.816,4.971s7.593,38.749,65.3,7.828l18.552,6.771-11.018,15.01S147.2,141.572,141.8,85.777l-.978-6.223Z" transform="translate(194.122 46.043)"/><path class="c" d="M182.991,122.669a90.019,90.019,0,0,0,13.17-1.037,114.635,114.635,0,0,0,21.292-5.4.8.8,0,0,0,.431-.333l11.018-15.01a.959.959,0,0,0-.45-1.487L209.88,92.726a.92.92,0,0,0-.783,0c-21.781,11.742-38.826,14.717-50.626,9.139a25.206,25.206,0,0,1-13.151-15.95l3.522-4.619a.978.978,0,0,0,.157-.9l-1.546-4.638a1,1,0,0,0-.626-.626.959.959,0,0,0-.881.157L140.721,79.2a.959.959,0,0,0-.391.92l.978,6.223c1.35,14.071,6.928,24.248,16.517,30.2C165.34,121.221,174.479,122.669,182.991,122.669Zm33.5-8.161c-3.327,1.213-37.182,13.073-57.632.411-9.061-5.6-14.325-15.285-15.656-28.769l-.9-5.695,3.679-2.74.959,2.877-3.483,4.56a.94.94,0,0,0-.176.783,26.557,26.557,0,0,0,14.286,17.731c12.329,5.871,29.824,2.818,52.035-8.963l16.928,6.086Z" transform="translate(193.653 45.533)"/><path class="c" d="M234.071,244.7s5.205,19.57,4.5,21.273-32.8,42.311-35.812,29.747,9.98-40.8,9.98-40.8Z" transform="translate(62.808 207.859)"/><path class="c" d="M205.847,299.58c9.256,0,33.385-31.039,34.109-32.761s-2.485-14.482-4.462-21.9a.9.9,0,0,0-.528-.626,1,1,0,0,0-.822,0l-21.331,10.216a.919.919,0,0,0-.47.47c-.548,1.155-13.092,28.69-10.039,41.431a3.522,3.522,0,0,0,3.229,3.151Zm28-53.016c2.309,8.826,4.462,18.3,4.207,19.57-1.429,2.72-25.44,32.35-32.524,31.489-.489,0-1.1-.313-1.409-1.664-2.74-11.39,8.356-36.714,9.785-39.845Z" transform="translate(62.324 207.385)"/><path class="a" d="M208.54,176.65a.92.92,0,0,0,.763-.391l27.789-35.325a.978.978,0,1,0-1.546-1.194l-27.769,35.325a.978.978,0,0,0,.157,1.37,1,1,0,0,0,.607.215Z" transform="translate(53.819 106.997)"/><path class="a" d="M293.291,172.856,292.508,126,276.5,51.05l1.566,42.429Z" transform="translate(-137.037 22.528)"/><path class="c" d="M293.77,174.316h.1a1,1,0,0,0,.881-1l-.783-46.852-16.027-75.15a1,1,0,0,0-1.076-.763A.979.979,0,0,0,276,51.57L277.567,94l15.225,79.515A.959.959,0,0,0,293.77,174.316Zm-15.4-111.551,13.7,64,.568,35.383-13.092-68.3Z" transform="translate(-137.517 22.047)"/><path class="a" d="M131.586,128.407c-.313-.92-.626-1.957-.959-2.8-.176-.47-.352-.959-.568-1.429a1.35,1.35,0,0,0-1.468-.9,12.557,12.557,0,0,0-2.25.372,8.968,8.968,0,0,1-1.213.157,1.488,1.488,0,0,1-.841-.274c-.881-.822-1.7-1.683-2.524-2.564a1.351,1.351,0,0,1-.254-1.194c.2-.9.411-1.82.607-2.72a3.427,3.427,0,0,0,0-1.1.979.979,0,0,0-.352-.685,16.574,16.574,0,0,0-4.521-1.957,1.135,1.135,0,0,0-1.292.47c-.568.783-1.174,1.546-1.722,2.368a1.957,1.957,0,0,1-1.781.9,22.2,22.2,0,0,1-2.994-.137,1.115,1.115,0,0,1-.9-.548c-.372-.528-.7-1.076-1.057-1.6s-.587-.92-.9-1.35a1.135,1.135,0,0,0-1.389-.489l-4.129,1.487a1.213,1.213,0,0,0-.744,1.35,13.288,13.288,0,0,0,.372,2.29,2.965,2.965,0,0,0,.137,1.076,1.487,1.487,0,0,1-.47,1.272c-.724.685-1.468,1.37-2.172,2.074a1.644,1.644,0,0,1-1.6.47l-2.975-.685a1.311,1.311,0,0,0-1.644.8c-.568,1.174-1.115,2.368-1.644,3.562a1.429,1.429,0,0,0,.509,1.957c.509.391,1.057.744,1.585,1.135a13.261,13.261,0,0,1,1.1.881,1.194,1.194,0,0,1,.45,1.018q0,1.556,0,3.112a1.644,1.644,0,0,1-.841,1.37c-.548.333-1.135.665-1.683,1.018a11.732,11.732,0,0,0-1.037.665,1.233,1.233,0,0,0-.45,1.487c.45,1.253.92,2.505,1.389,3.738a2.349,2.349,0,0,0,.313.528,1.1,1.1,0,0,0,1.155.548l2.7-.45h.2a1.957,1.957,0,0,1,1.957.7c.509.607,1.1,1.155,1.624,1.722a1.957,1.957,0,0,1,.509,1.957c-.215.881-.43,1.742-.607,2.622a1.323,1.323,0,0,0,.841,1.742c1.213.587,2.446,1.135,3.7,1.683a1.252,1.252,0,0,0,1.624-.431,21.566,21.566,0,0,0,1.37-1.957c.979-1.35,1.213-1.487,2.877-1.39h1.957a1.8,1.8,0,0,1,1.526.9c.391.646.783,1.311,1.194,1.957a6.651,6.651,0,0,0,.744.92.92.92,0,0,0,1.018.274l3.914-1.468c.176,0,.333-.2.509-.294a1.1,1.1,0,0,0,.548-1.155c-.137-.9-.294-1.781-.431-2.662a5.863,5.863,0,0,1,0-.822,1.311,1.311,0,0,1,.45-1.194l2.113-1.957a1.566,1.566,0,0,1,1.546-.391l2.74.646h.1c1.155.2,1.526,0,1.957-1s1.057-2.368,1.546-3.562a1.174,1.174,0,0,0-.47-1.644c-.7-.528-1.409-1.057-2.153-1.527a2.055,2.055,0,0,1-1.037-2.055,21.549,21.549,0,0,1,.117-2.8,1.214,1.214,0,0,1,.548-.979c.783-.509,1.566-.978,2.329-1.487a2.6,2.6,0,0,0,1.233-1.272ZM102,133.613a8.865,8.865,0,0,1,8.924-8.865,8.983,8.983,0,0,1,8.689,8.885,8.826,8.826,0,1,1-17.612,0Z" transform="translate(389.872 81.675)"/><path class="b" d="M116.231,155.892a1.7,1.7,0,0,0,.685-.137l3.914-1.468a3.1,3.1,0,0,0,.626-.333,2.133,2.133,0,0,0,1.037-2.172l-.43-2.662a4.343,4.343,0,0,1,0-.724c0-.254,0-.352.117-.411L124,146.3l.313-.313a.587.587,0,0,1,.646-.137l1.957.45.724.157c1.742.313,2.544,0,3.209-1.507s1.076-2.407,1.566-3.62a2.114,2.114,0,0,0-.783-2.779c-.724-.548-1.448-1.076-2.211-1.566a1.155,1.155,0,0,1-.607-1.174c0-.587,0-1.194,0-1.781v-1.037a.254.254,0,0,1,0-.2l2.348-1.487a3.425,3.425,0,0,0,1.6-1.8.783.783,0,0,0,0-.294v-.352a.879.879,0,0,0,0-.313l-.235-.7c-.235-.7-.47-1.409-.724-2.094s-.372-1-.587-1.487a2.329,2.329,0,0,0-2.485-1.507,8.778,8.778,0,0,0-1.546.254l-1.057.176h-.724a.607.607,0,0,1-.254,0c-.783-.763-1.6-1.6-2.407-2.466v-.333l.274-1.174c.117-.528.215-1.037.333-1.546a5.264,5.264,0,0,0,.117-1.37,1.957,1.957,0,0,0-.822-1.429,17.317,17.317,0,0,0-4.579-2.133,2.094,2.094,0,0,0-2.329.822l-.607.8c-.391.528-.783,1.057-1.135,1.6a.9.9,0,0,1-.9.47h-3.014a12.423,12.423,0,0,1-.744-1.057l-.607-.939c-.254-.372-.489-.744-.763-1.116a2.094,2.094,0,0,0-2.485-.822c-1.389.489-2.8.979-4.168,1.507a2.172,2.172,0,0,0-1.37,2.329,8.846,8.846,0,0,0,.254,1.6l.117.763a8.725,8.725,0,0,1,.137,1,.47.47,0,0,1-.157.47l-.548.528c-.548.509-1.115,1.037-1.644,1.585a.685.685,0,0,1-.724.2l-1.429-.333-1.526-.352a2.329,2.329,0,0,0-2.759,1.331c-.568,1.194-1.115,2.388-1.624,3.6a2.349,2.349,0,0,0,.783,3.131c.313.254.646.47.978.7l.626.45,1.037.822a.254.254,0,0,1,.117.274v3.073a.665.665,0,0,1-.352.587l-.744.431-.978.587c-.372.235-.744.47-1.1.744a2.192,2.192,0,0,0-.783,2.6c.45,1.233.92,2.485,1.409,3.738a2.977,2.977,0,0,0,.372.665,2.055,2.055,0,0,0,2.172,1.018l2.681-.43h.274a.978.978,0,0,1,1.076.411c.372.431.783.841,1.194,1.252l.47.489a1.018,1.018,0,0,1,.274,1.037c-.235.881-.45,1.781-.626,2.662a2.231,2.231,0,0,0,1.37,2.838c1.233.587,2.485,1.135,3.738,1.663a2.211,2.211,0,0,0,2.8-.7c.391-.528.783-1.057,1.155-1.6l.235-.313c.744-1.057.744-1.057,1.957-.979h1.957a.763.763,0,0,1,.724.431l.411.646c.254.45.528.9.8,1.331a6.91,6.91,0,0,0,.861,1.076A1.957,1.957,0,0,0,116.231,155.892Zm8.454-12.036a2.466,2.466,0,0,0-1.742.7l-.333.313-1.781,1.664a2.29,2.29,0,0,0-.763,1.957v.9l.431,2.681-.117.176-.313.2-3.914,1.468c-.215-.274-.431-.528-.607-.8s-.528-.841-.763-1.272l-.411-.665a2.779,2.779,0,0,0-2.309-1.37h-1.957a3.288,3.288,0,0,0-3.718,1.8l-.235.333c-.372.509-.724,1.018-1.115,1.487s-.235.254-.489.137c-1.233-.509-2.446-1.057-3.66-1.644a1.524,1.524,0,0,1-.352-.215h0a1.391,1.391,0,0,1,0-.45c.176-.861.372-1.722.587-2.564a2.9,2.9,0,0,0-.744-2.877l-.489-.509a15.027,15.027,0,0,1-1.076-1.155,2.9,2.9,0,0,0-3.033-1.037l-2.838.47-.2-.137a1.718,1.718,0,0,1-.2-.333c-.47-1.233-.939-2.466-1.389-3.718a.487.487,0,0,1,.137-.372,7.836,7.836,0,0,1,.939-.626l.939-.548.744-.45a2.623,2.623,0,0,0,1.311-2.172v-3.131a2.192,2.192,0,0,0-.8-1.781,12.951,12.951,0,0,0-1.135-.92l-.685-.489-.881-.626c-.411-.352-.411-.391-.215-.822.528-1.194,1.057-2.368,1.624-3.542.137-.274.2-.333.568-.254l1.507.352,1.448.313a2.6,2.6,0,0,0,2.524-.724c.528-.528,1.057-1.037,1.6-1.526l.548-.528a2.466,2.466,0,0,0,.763-1.957,2.9,2.9,0,0,0-.157-1.155l-.137-.8a12.629,12.629,0,0,1-.215-1.429c0-.274,0-.313.117-.333,1.35-.528,2.72-1,4.09-1.487a.287.287,0,0,1,.274.137c.117.137.47.685.7,1.037l.607.92.626.979a2.172,2.172,0,0,0,1.663.979h3.033a2.8,2.8,0,0,0,2.661-1.331q.528-.763,1.115-1.526l.607-.822c0-.117.117-.137.254,0a15.655,15.655,0,0,1,4.227,1.957,4.949,4.949,0,0,0-.176.763c-.1.489-.215,1-.333,1.507l-.274,1.213a2.27,2.27,0,0,0,.509,1.957c.822.9,1.663,1.761,2.544,2.6a2.446,2.446,0,0,0,1.507.548,8.236,8.236,0,0,0,1.115-.137l1.057-.176c.47,0,.939-.176,1.409-.215s.333,0,.47.313.391.9.548,1.37l.7,2.074.2.548a2.192,2.192,0,0,1-.763.626l-2.231,1.507a2.133,2.133,0,0,0-.978,1.742v2.779a3.033,3.033,0,0,0,1.487,2.955c.724.47,1.409.959,2.094,1.487a1.39,1.39,0,0,1,.235.215v.274c-.489,1.174-.978,2.348-1.526,3.5-.2.431-.294.509-.313.509a1.781,1.781,0,0,1-.646,0l-.783-.176-1.957-.431A2.917,2.917,0,0,0,124.685,143.856Zm-13.5,0h0a9.785,9.785,0,0,0,6.888-16.694,9.921,9.921,0,0,0-6.771-2.936h0a9.785,9.785,0,0,0-9.9,9.785,9.375,9.375,0,0,0,2.642,6.752,9.784,9.784,0,0,0,7.143,3.112Zm.117-17.613a7.945,7.945,0,0,1,5.382,2.368,7.819,7.819,0,0,1-5.519,13.367h0a7.828,7.828,0,0,1-5.753-2.446,7.574,7.574,0,0,1-2.113-5.343h0a7.828,7.828,0,0,1,7.945-7.828Zm-9.941,7.828Z" transform="translate(389.453 81.217)"/><path class="a" d="M333.3,243.994c-.431-1.7-.841-3.425-1.292-5.127-.215-.9-.489-1.761-.763-2.642a2.466,2.466,0,0,0-2.5-1.84c-1.37,0-2.72.2-4.09.294a11.744,11.744,0,0,1-2.192,0,2.426,2.426,0,0,1-1.448-.607c-1.429-1.6-2.759-3.268-4.09-4.951a2.271,2.271,0,0,1-.274-2.172c.489-1.6,1.018-3.19,1.487-4.775a6.582,6.582,0,0,0,.333-1.957,1.8,1.8,0,0,0-.509-1.292,29.682,29.682,0,0,0-7.828-4.364,1.957,1.957,0,0,0-2.368.626c-1.155,1.331-2.348,2.6-3.464,3.914a3.248,3.248,0,0,1-3.307,1.311c-1.761-.274-3.562-.45-5.323-.7a1.957,1.957,0,0,1-1.546-1.1c-.548-1-1.057-1.957-1.6-3.033s-.92-1.722-1.429-2.564a1.957,1.957,0,0,0-2.387-1.057c-2.544.646-5.088,1.311-7.593,1.957a2.153,2.153,0,0,0-1.546,2.27c0,1.37.215,2.759.313,4.129v1.957a2.661,2.661,0,0,1-1.018,2.192c-1.409,1.116-2.838,2.212-4.188,3.386a2.935,2.935,0,0,1-2.975.568c-1.722-.528-3.444-1.116-5.186-1.644a2.348,2.348,0,0,0-3.072,1.155q-1.8,3.014-3.464,6.106a2.525,2.525,0,0,0,.607,3.6c.861.8,1.781,1.507,2.642,2.29s1.233,1.116,1.82,1.722a2.251,2.251,0,0,1,.665,1.957c-.2,1.84-.391,3.7-.626,5.538a2.9,2.9,0,0,1-1.7,2.309L260.192,253a18.429,18.429,0,0,0-1.957,1.076,2.172,2.172,0,0,0-1.057,2.564c.626,2.309,1.272,4.6,1.957,6.889a5.156,5.156,0,0,0,.47,1,1.957,1.957,0,0,0,1.957,1.155l4.873-.391h.372a3.484,3.484,0,0,1,3.562,1.6c.8,1.155,1.742,2.212,2.622,3.307a3.464,3.464,0,0,1,.607,3.562c-.528,1.507-1.057,3.033-1.507,4.579a2.329,2.329,0,0,0,1.233,3.249c2.094,1.233,4.207,2.407,6.36,3.542a2.192,2.192,0,0,0,2.975-.528c.959-1,1.84-2.074,2.74-3.131,1.957-2.27,2.388-2.446,5.342-1.957l3.444.489a3.17,3.17,0,0,1,2.583,1.82c.607,1.233,1.174,2.466,1.82,3.679a10.732,10.732,0,0,0,1.194,1.761,1.6,1.6,0,0,0,1.781.626l7.241-1.957a4.5,4.5,0,0,0,.939-.431,1.957,1.957,0,0,0,1.155-1.957l-.352-4.814a12.269,12.269,0,0,1,0-1.468,2.525,2.525,0,0,1,.978-2.074c1.389-1.057,2.74-2.133,4.11-3.21a2.779,2.779,0,0,1,2.8-.45c1.526.528,3.072,1,4.6,1.487a.628.628,0,0,0,.176,0c1.957.548,2.7.352,3.738-1.448s2.25-4.071,3.307-6.145a2.114,2.114,0,0,0-.587-2.994c-1.174-1.057-2.368-2.074-3.6-3.033a3.777,3.777,0,0,1-1.546-3.914c.255-1.644.431-3.307.665-4.971a2.094,2.094,0,0,1,1.116-1.664l4.4-2.29a4.541,4.541,0,0,0,2.368-2.074Zm-53.738,4.736a15.832,15.832,0,0,1,17.28-14.443,16.106,16.106,0,0,1,14.188,17.183,15.871,15.871,0,0,1-17.025,14.384,15.656,15.656,0,0,1-14.442-17.124Z" transform="translate(-139.046 176.431)"/><path class="b" d="M301.724,289.55a3.21,3.21,0,0,0,.724-.1l1.957-.548,5.264-1.468a4.442,4.442,0,0,0,1.018-.47,2.975,2.975,0,0,0,1.781-2.975l-.157-2.094c0-.9-.137-1.82-.2-2.72a10.577,10.577,0,0,1,0-1.37,1.546,1.546,0,0,1,.607-1.331q1.957-1.448,3.757-2.935l.352-.274a1.8,1.8,0,0,1,1.957-.274l3.268,1.057,1.35.431h.2a3.542,3.542,0,0,0,4.873-1.957c1.291-2.231,2.446-4.462,3.327-6.184a3.073,3.073,0,0,0-.822-4.168c-1.37-1.233-2.524-2.231-3.64-3.092a2.8,2.8,0,0,1-1.194-2.916c.156-1.037.294-2.055.43-3.092l.235-1.957a1.115,1.115,0,0,1,.626-.92l1.761-.939,2.622-1.35a5.44,5.44,0,0,0,2.818-2.583.82.82,0,0,0,0-.293v-.607a1.954,1.954,0,0,0,0-.333l-.391-1.566c-.294-1.194-.587-2.388-.9-3.581s-.509-1.8-.8-2.681a3.483,3.483,0,0,0-3.444-2.525,14.226,14.226,0,0,0-2.74.176l-1.389.117h-.568a7.516,7.516,0,0,1-1.468,0,1.76,1.76,0,0,1-.822-.274c-1.487-1.7-2.877-3.444-4.051-4.912a1.37,1.37,0,0,1-.1-1.292c.2-.685.431-1.39.646-2.074s.567-1.8.841-2.7a7.592,7.592,0,0,0,.372-2.211,2.74,2.74,0,0,0-.9-2.055,30.628,30.628,0,0,0-8-4.5,2.974,2.974,0,0,0-3.444.9c-.391.47-.822.939-1.233,1.39-.763.861-1.507,1.722-2.231,2.6a2.29,2.29,0,0,1-2.407.979q-1.722-.274-3.464-.47l-1.957-.235a1.1,1.1,0,0,1-.8-.607l-.939-1.761-.939-1.761c-.372-.7-.763-1.409-1.174-2.094a2.994,2.994,0,0,0-3.464-1.507c-3.014.744-5.44,1.389-7.632,1.957a3.112,3.112,0,0,0-2.25,3.21,27.262,27.262,0,0,0,.2,2.818l.117,1.389v1.957a1.721,1.721,0,0,1-.646,1.429l-.92.724c-1.116.881-2.231,1.761-3.307,2.681a1.957,1.957,0,0,1-1.957.372l-2.524-.8-2.661-.842a3.366,3.366,0,0,0-4.207,1.585q-1.8,3.053-3.464,6.165a3.484,3.484,0,0,0,.783,4.775c.509.47,1.037.92,1.585,1.37l1.076.92c.607.548,1.194,1.1,1.761,1.683a1.252,1.252,0,0,1,.391,1.1l-.117,1.194c-.157,1.429-.313,2.877-.509,4.325a1.957,1.957,0,0,1-1.155,1.585l-1.311.626-1.957.9A20.463,20.463,0,0,0,258.2,253.7a3.151,3.151,0,0,0-1.468,3.64c.626,2.309,1.272,4.6,1.957,6.908a5.161,5.161,0,0,0,.509,1.1,2.975,2.975,0,0,0,2.974,1.742l4.873-.372h.431A2.465,2.465,0,0,1,270.1,267.9a22.23,22.23,0,0,0,1.957,2.388l.783.959a2.466,2.466,0,0,1,.431,2.622c-.528,1.546-1.037,3.073-1.507,4.638a3.249,3.249,0,0,0,1.683,4.364c1.957,1.155,4.031,2.309,6.38,3.562a3.209,3.209,0,0,0,4.168-.7c.783-.841,1.526-1.7,2.25-2.583l.509-.587c1.722-1.957,1.84-2.074,4.462-1.722l3.444.509a2.231,2.231,0,0,1,1.84,1.272l.607,1.213c.391.842.8,1.683,1.233,2.485a11.107,11.107,0,0,0,1.292,1.957A2.681,2.681,0,0,0,301.724,289.55Zm16.223-18.67a3.659,3.659,0,0,0-2.329.861l-.352.274-3.738,2.916a3.5,3.5,0,0,0-1.37,2.818,13.9,13.9,0,0,0,0,1.566c0,.92.137,1.82.2,2.74l.176,2.074a1.018,1.018,0,0,1-.665,1.057,3.288,3.288,0,0,1-.744.352c-1.742.509-3.483.979-5.245,1.468l-1.957.548a.712.712,0,0,1-.763-.294,9.49,9.49,0,0,1-1.1-1.624c-.411-.783-.8-1.6-1.194-2.407L298.261,282a4.149,4.149,0,0,0-3.327-2.348l-3.444-.509c-3.307-.45-4.07-.157-6.223,2.388l-.509.587c-.724.861-1.429,1.7-2.192,2.505a1.252,1.252,0,0,1-1.82.313c-2.309-1.213-4.383-2.368-6.3-3.5-1.057-.626-1.155-.9-.8-2.133.45-1.526.959-3.033,1.487-4.54a4.462,4.462,0,0,0-.763-4.5l-.8-.979c-.626-.744-1.233-1.468-1.8-2.27a4.422,4.422,0,0,0-4.5-1.957h-.294l-4.873.391a1.018,1.018,0,0,1-1.057-.646,5.746,5.746,0,0,1-.391-.8c-.646-2.29-1.292-4.579-1.957-6.869a1.194,1.194,0,0,1,.626-1.487,16.862,16.862,0,0,1,1.839-1.018l1.82-.9,1.35-.646A3.914,3.914,0,0,0,266.558,250c.2-1.448.352-2.916.509-4.384l.137-1.174a3.21,3.21,0,0,0-.939-2.681,19.091,19.091,0,0,0-1.957-1.781l-1.116-.959c-.509-.411-1.018-.842-1.487-1.292-.939-.881-1.018-1.311-.431-2.427,1.116-1.957,2.27-4.071,3.444-6.086a1.429,1.429,0,0,1,1.957-.7c.881.254,1.742.548,2.622.822l2.544.822a3.914,3.914,0,0,0,3.914-.763c1.057-.9,2.153-1.761,3.249-2.622l.92-.744a3.64,3.64,0,0,0,1.389-2.955c0-.665,0-1.35,0-1.957a4.8,4.8,0,0,0-.137-1.448c0-.881-.176-1.761-.176-2.642a1.213,1.213,0,0,1,.822-1.311c2.172-.626,4.579-1.272,7.573-1.957a1.057,1.057,0,0,1,1.311.607c.411.665.763,1.331,1.135,1.957l.939,1.761c.313.587.626,1.194.959,1.781a2.994,2.994,0,0,0,2.25,1.6l1.957.235c1.135.157,2.27.294,3.385.47a4.226,4.226,0,0,0,4.227-1.683c.7-.861,1.448-1.683,2.192-2.525L309,216.552a1.018,1.018,0,0,1,1.292-.352,28.241,28.241,0,0,1,7.495,4.227,1.6,1.6,0,0,1,.117.509,5.162,5.162,0,0,1-.293,1.624l-.822,2.681c-.235.685-.45,1.389-.665,2.094a3.268,3.268,0,0,0,.45,3.073c1.174,1.487,2.583,3.249,4.11,4.991a3.5,3.5,0,0,0,2.094.939,9.529,9.529,0,0,0,1.84,0h.528l1.429-.117c.861,0,1.742-.157,2.6-.176a1.526,1.526,0,0,1,1.546,1.155c.274.861.548,1.722.763,2.583.313,1.194.607,2.368.9,3.562l.352,1.409v.274a3.915,3.915,0,0,1-1.84,1.468l-2.642,1.39-1.781.92a3.092,3.092,0,0,0-1.644,2.388,14.118,14.118,0,0,1-.254,1.957c-.117,1.018-.255,1.957-.411,3.033a4.775,4.775,0,0,0,1.957,4.775c1.076.842,2.211,1.8,3.542,2.994.763.685.822.978.372,1.84-.841,1.683-1.957,3.914-3.268,6.086-.8,1.37-1,1.448-2.642,1l-1.468-.47c-1.076-.352-2.172-.685-3.229-1.057a4.658,4.658,0,0,0-1.487-.47Zm-22.192-3.444A16.831,16.831,0,1,0,279,249.176a15.911,15.911,0,0,0,3.5,11.9,16.77,16.77,0,0,0,11.839,6.36Zm.117-31.684h1.311A14.873,14.873,0,1,1,284.034,259.8a14.032,14.032,0,0,1-3.092-10.431h0a14.8,14.8,0,0,1,14.931-13.66Z" transform="translate(-139.463 175.926)"/><path class="a" d="M258.21,127.27c11.35,12.505,40.372,36.46,99.941,37.321l1.644,106.13s-56.947,8.748-101.585-30.863Z" transform="translate(-167.749 95.474)"/><path class="c" d="M346.614,272.942a105.1,105.1,0,0,0,13.816-.783.959.959,0,0,0,.822-.979l-1.644-106.13a.978.978,0,0,0-.959-.959c-57.828-.841-87.006-23.484-99.236-36.988a.979.979,0,0,0-1.076-.274,1,1,0,0,0-.626.92V240.338a.939.939,0,0,0,.333.724C289.236,268.754,326.79,272.942,346.614,272.942Zm12.681-2.6c-7.2.842-58.845,5.48-99.628-30.452V130.294c13.268,13.7,42.563,34.757,98,35.794Z" transform="translate(-168.227 94.995)"/><path class="b" d="M340.7,243.889a.979.979,0,0,0,.979-.939,1,1,0,0,0-.939-1.018,129.153,129.153,0,0,1-55.695-13.8,80.094,80.094,0,0,1-17.867-12.271V143.239a.979.979,0,0,0-1.957,0v73.037a.939.939,0,0,0,.274.665c.255.254,24.795,25.246,75.166,26.948Z" transform="translate(-163.35 109.82)"/><path class="b" d="M292.693,163.6a.979.979,0,0,0,0-1.957c-.137,0-14.853-1.018-22.759-6.458a.959.959,0,0,0-1.35.254.978.978,0,0,0,.235,1.35c8.356,5.754,23.131,6.771,23.757,6.811Z" transform="translate(-121.586 122.023)"/><path class="b" d="M292.638,158.937a1,1,0,0,0,.979-.959.959.959,0,0,0-.959-1c-.137,0-13.914-.47-22.72-6.478a.98.98,0,0,0-1.1,1.624c9.276,6.341,23.19,6.791,23.777,6.811Z" transform="translate(-121.531 117.548)"/><path class="b" d="M328.833,219.943a.92.92,0,0,0,.646-.274.94.94,0,0,0,0-1.37c-.176-.215-18.9-20.568-26.751-33.27a.979.979,0,0,0-.724-.47,1.037,1.037,0,0,0-.8.293l-15.186,15.656c-2.857-5.636-14.775-29.551-17.2-43.662l7.025,4.227a.983.983,0,0,0,1.018-1.683l-8.787-5.284a1.037,1.037,0,0,0-1.037,0,1.018,1.018,0,0,0-.45.939c1.761,15.813,17.612,46.264,18.336,47.556a.939.939,0,0,0,.724.509,1.017,1.017,0,0,0,.842-.274l15.245-15.813c8.3,12.9,26.125,32.291,26.321,32.506A1.018,1.018,0,0,0,328.833,219.943Z" transform="translate(-154.106 121.026)"/><path class="b" d="M298.792,164.612a.979.979,0,0,0,.939-.665l2.916-8.591a.978.978,0,1,0-1.84-.626l-2.935,8.591a1,1,0,0,0,.607,1.252Z" transform="translate(-188.213 121.012)"/><path class="a" d="M129.889,64.47s-3.327,26.087-19.569,31.684v56.754s12.231-5.5,19.569-24.443Z" transform="translate(351.568 35.372)"/><path class="c" d="M110.906,154.3a1.017,1.017,0,0,0,.411,0c.509-.235,12.681-5.871,20.059-24.991a.763.763,0,0,0,0-.352V64.942a.959.959,0,0,0-.92-.959.939.939,0,0,0-1.037.842c0,.254-3.425,25.559-18.9,30.882a1,1,0,0,0-.665.92V153.38a.979.979,0,0,0,.45.822.881.881,0,0,0,.607.1ZM129.5,128.7c-5.656,14.463-14.266,20.921-17.612,22.956V97.292c10.137-3.914,15.205-15.265,17.612-23.484Z" transform="translate(350.982 34.9)"/></g></svg>