<svg xmlns="http://www.w3.org/2000/svg" width="370.363" height="326.766" viewBox="0 0 370.363 326.766"><defs><style>.a{fill:#fff;}.b{fill:#231f20;}.c{fill:#0054a6;}.d{fill:#d1d3d4;}</style></defs><g transform="translate(-60.867 -27)"><path class="a" d="M283.962,177.22,255.256,281.648s-22.624,5.323-22.185,6.734,35.719,6.2,35.719,6.2l35.772-108.221" transform="translate(56.964 49.694)"/><path class="b" d="M268.957,295.42h-.08c-35.652-4.818-36.1-6.162-36.278-6.654a.865.865,0,0,1,.08-.679c.932-1.677,15.531-5.257,22.2-6.814l28.612-104.042a.664.664,0,1,1,1.277.359L256.061,282.006a.666.666,0,0,1-.492.479c-8.983,2.089-18.631,4.711-21.186,5.935,3.846,1.238,22.185,3.992,34.122,5.616l35.586-107.7a.679.679,0,0,1,.838-.426.665.665,0,0,1,.426.852L269.6,294.981a.665.665,0,0,1-.639.439ZM233.73,288.114Z" transform="translate(56.798 49.536)"/><path class="a" d="M324.357,173.94,331.836,295.7s-35.413,7.679-35.546,6.76,19.084-14.572,19.084-14.572l-14.466-112.44" transform="translate(77.879 48.608)"/><path class="b" d="M296.678,303.264c-.452,0-.546,0-.612-.106a.8.8,0,0,1-.293-.479c-.08-.492-.2-1.331,19.017-14.985l-14.4-112.054a.671.671,0,0,1,1.331-.173l14.466,112.44a.692.692,0,0,1-.279.639c-5.909,4.192-14.958,10.806-17.926,13.308,4.991-.652,22.038-4.165,33.27-6.654l-7.386-121.023a.665.665,0,0,1,.625-.705.679.679,0,0,1,.705.625l7.439,121.755a.652.652,0,0,1-.519.692C304.769,302.425,298.328,303.264,296.678,303.264Z" transform="translate(77.704 48.453)"/><path class="a" d="M295.966,98.93c-1.81.572-3.633,1.118-5.47,1.6a159.191,159.191,0,0,1-44.728,5.7c-5.044-.133-11.778,0-16.4-2.156-3.593-1.7-6.973-4.684-10.287-6.88-.852-.559-2.222-1.025-2.662-.133-.373.679.186,1.477.719,2.023a46.085,46.085,0,0,0,6.241,5.323,80.938,80.938,0,0,0-13.042-1.171.892.892,0,0,0-.559.12c-.492.373.146,1.091.719,1.331a26.256,26.256,0,0,0,4.1,1.331,15.969,15.969,0,0,0-3.992-.692c-.612,0-1.331,0-1.61.6-.359.785.586,1.517,1.4,1.837a37.483,37.483,0,0,0,3.992,1.331,16.223,16.223,0,0,0-4.658.6,1.224,1.224,0,0,0-.692.373,1.065,1.065,0,0,0-.146.679,3.26,3.26,0,0,0,2.662,2.462,37.038,37.038,0,0,1,3.819.692c-1.171.08-2.329-.346-3.487-.266s-2.462,1.025-2.209,2.169,1.331,1.331,2.4,1.624a219.583,219.583,0,0,0,59.7,5.03,224.788,224.788,0,0,0,29.837-3.553c8.9-1.677,18.019-3.114,24.048-10.553a20.329,20.329,0,0,0,1.331-1.743,9.236,9.236,0,0,0,1.823-6.747c-1.477-7.2-11.1-6.561-16.582-5.51a148.225,148.225,0,0,0-16.262,4.591Z" transform="translate(48.965 22.065)"/><path class="b" d="M260.279,123.561a217.945,217.945,0,0,1-48.228-5.323c-1.1-.253-2.662-.745-2.9-2.143a2.049,2.049,0,0,1,.413-1.7,2.861,2.861,0,0,1,.865-.772,3.42,3.42,0,0,1-2.1-2.662,1.624,1.624,0,0,1,.266-1.144,1.9,1.9,0,0,1,1.051-.626c.479-.133.971-.24,1.464-.333l-.852-.333a3.26,3.26,0,0,1-1.783-1.53,1.5,1.5,0,0,1,0-1.2,1.623,1.623,0,0,1,1.078-.878,1.6,1.6,0,0,1-.479-.9A1.065,1.065,0,0,1,209.5,103a1.584,1.584,0,0,1,.958-.253,82.228,82.228,0,0,1,10.54.772,47.911,47.911,0,0,1-4.219-3.833c-1.251-1.331-1.145-2.236-.825-2.808a1.544,1.544,0,0,1,1.025-.785,3.74,3.74,0,0,1,2.662.679c1.145.759,2.3,1.61,3.42,2.449a44.674,44.674,0,0,0,6.8,4.392c3.926,1.85,9.662,1.956,14.253,2.049h1.863a157.633,157.633,0,0,0,44.542-5.669c1.6-.426,3.274-.918,5.443-1.584l3.114-.985a112.319,112.319,0,0,1,13.2-3.633c4.671-.9,15.7-2.1,17.3,6.029.452,2.183-.226,4.631-2.01,7.266a22.015,22.015,0,0,1-1.331,1.783c-5.935,7.333-14.772,8.983-23.329,10.646l-1.1.213a224.616,224.616,0,0,1-29.93,3.567Q266.094,123.561,260.279,123.561ZM212.3,114.445h-.253a2.076,2.076,0,0,0-1.437.732.705.705,0,0,0-.16.625c.106.492.719.865,1.89,1.131a218.518,218.518,0,0,0,59.527,5,223.747,223.747,0,0,0,29.744-3.54l1.118-.213c8.318-1.557,16.915-3.167,22.544-10.114.439-.532.852-1.1,1.238-1.677a8.477,8.477,0,0,0,1.823-6.268c-1.424-6.96-11.538-5.816-15.81-4.991a111.049,111.049,0,0,0-13.042,3.593l-3.127.985h0c-2.183.679-3.886,1.171-5.5,1.6a158.473,158.473,0,0,1-44.915,5.722h-1.863c-4.724-.093-10.646-.2-14.8-2.183a43.329,43.329,0,0,1-7.013-4.525c-1.158-.852-2.262-1.664-3.367-2.4a2.356,2.356,0,0,0-1.57-.506.279.279,0,0,0-.186.133c-.12.24.12.719.625,1.251a46.391,46.391,0,0,0,6.148,5.323.665.665,0,0,1-.492,1.2,82.509,82.509,0,0,0-12.789-1.158,1.092,1.092,0,0,0,.266.16q1.307.538,2.662.945c.452.106.892.226,1.331.359a.652.652,0,0,1,.452.8.679.679,0,0,1-.8.479c-.439-.106-.878-.213-1.331-.346a17.3,17.3,0,0,0-2.662-.346c-.532,0-.9,0-.985.226a.266.266,0,0,0,0,.146,2.05,2.05,0,0,0,1.038.785,34.444,34.444,0,0,0,3.9,1.331.679.679,0,0,1,.479.745.665.665,0,0,1-.665.559,15.251,15.251,0,0,0-4.458.572.958.958,0,0,0-.346.133h0a.453.453,0,0,0,0,.213c.093.958,1.171,1.637,2.183,1.876a13.839,13.839,0,0,0,1.544.253,10.646,10.646,0,0,1,2.356.466.679.679,0,0,1,.439.719.692.692,0,0,1-.625.572,9.808,9.808,0,0,1-1.89-.133,9.567,9.567,0,0,0-1.224-.2Zm83.841-15.371Z" transform="translate(48.774 21.881)"/><path class="b" d="M249.2,255.36l4.791,7.293,18.631,2.209-1.823,7.146s-41.1-5.137-42.04-8.9S249.2,255.36,249.2,255.36Z" transform="translate(55.529 75.543)"/><path class="c" d="M286.44,90.5s-12.909,3.074-16.795,11.059.759,50.81.759,50.81l57.225,2.449s5.869-31.54,2.994-45.061S316.343,78.214,286.44,90.5Z" transform="translate(68.552 19.652)"/><path class="a" d="M285.122,91.771l-3.673,11.977s.08,7.08,7.918,6.268a15.69,15.69,0,0,0,11.432-7.133l2.795-21.426a6.361,6.361,0,0,1-2.249-3.992,10.352,10.352,0,0,1,0-3.567c.08-.452.586-3.1,1.1-3.194a9.316,9.316,0,0,1-8.2-2.755,17.3,17.3,0,0,1-2.662-4.259,4.445,4.445,0,0,1-.679-3.181q-3.686,2.342-7.146,5.03a19.322,19.322,0,0,0-3.447,3.221c-1.664,2.156-2.116,5.124-2.5,7.745a50.771,50.771,0,0,0-.652,9.422C277.337,91.93,285.122,91.771,285.122,91.771Z" transform="translate(71.547 11.085)"/><path class="b" d="M288.311,110.9a7.146,7.146,0,0,1-4.964-1.69,7.665,7.665,0,0,1-2.329-5.243.45.45,0,0,1,0-.186l3.433-11.232c-3.021-.2-7.625-1.7-7.8-6.454a51.665,51.665,0,0,1,.665-9.529c.373-2.555.838-5.736,2.662-7.985a19.406,19.406,0,0,1,3.553-3.327c2.316-1.8,4.738-3.5,7.2-5.07a.625.625,0,0,1,.692,0,.612.612,0,0,1,.213.665,3.992,3.992,0,0,0,.639,2.741,16.635,16.635,0,0,0,2.662,4.112,8.823,8.823,0,0,0,7.652,2.6h0a.612.612,0,0,1,.705.506.626.626,0,0,1-.346.652,10.807,10.807,0,0,0-.759,2.741,9.781,9.781,0,0,0,0,3.354,5.9,5.9,0,0,0,2,3.66.6.6,0,0,1,.253.572l-2.781,21.426a.653.653,0,0,1-.08.226,16.143,16.143,0,0,1-11.911,7.426C289.1,110.876,288.724,110.9,288.311,110.9Zm-6.082-6.867a6.574,6.574,0,0,0,1.93,4.285,6.654,6.654,0,0,0,5.323,1.331A15.144,15.144,0,0,0,300.395,103l2.662-20.973a7.066,7.066,0,0,1-2.2-4.192,10.924,10.924,0,0,1,0-3.779,15.771,15.771,0,0,1,.559-2.369,9.968,9.968,0,0,1-7.506-3.074,17.992,17.992,0,0,1-2.808-4.4,7.305,7.305,0,0,1-.812-2.3q-3.127,2.049-6.1,4.352a18.458,18.458,0,0,0-3.274,3.034c-1.584,2.049-2.01,4.924-2.382,7.466a51.657,51.657,0,0,0-.652,9.316c.186,5.323,7.12,5.323,7.386,5.323a.6.6,0,0,1,.492.24.625.625,0,0,1,.106.546Zm20.494-32.551Z" transform="translate(71.379 10.944)"/><path class="a" d="M293.936,75.759a4.339,4.339,0,0,1,1.783-2.116,7.293,7.293,0,0,1,2.475-.852,3.034,3.034,0,0,1,1.424,0,2.489,2.489,0,0,1,.892.466,3.367,3.367,0,0,1,1.331,1.89,4.219,4.219,0,0,1-.16,1.9,8.145,8.145,0,0,1-.785,1.943,5.323,5.323,0,0,1-7.306,1.8" transform="translate(76.986 15.12)"/><path class="b" d="M296.531,82.116a5.816,5.816,0,0,1-3.048-.852.546.546,0,0,1-.186-.732.519.519,0,0,1,.732-.173,4.764,4.764,0,0,0,6.574-1.624,7.626,7.626,0,0,0,.719-1.81,3.353,3.353,0,0,0,.16-1.65,2.861,2.861,0,0,0-1.171-1.57,1.983,1.983,0,0,0-.705-.386,2.835,2.835,0,0,0-1.184.08,7.027,7.027,0,0,0-2.316.785,3.859,3.859,0,0,0-1.557,1.85.519.519,0,0,1-.679.306.532.532,0,0,1-.306-.692,4.831,4.831,0,0,1,2.023-2.4,8.171,8.171,0,0,1,2.662-.918,3.5,3.5,0,0,1,1.663,0,3.26,3.26,0,0,1,1.078.559,3.872,3.872,0,0,1,1.57,2.2,4.631,4.631,0,0,1-.173,2.156,8.505,8.505,0,0,1-.838,2.076,5.842,5.842,0,0,1-3.593,2.662A6.134,6.134,0,0,1,296.531,82.116Z" transform="translate(76.866 14.964)"/><path class="b" d="M281.76,90.125a9.941,9.941,0,0,0,8.118-1.491,8.783,8.783,0,0,0,3.873-6.215s-5.935,3.766-10.78,2.089Z" transform="translate(73.073 18.333)"/><path class="b" d="M284.385,91.15a9.98,9.98,0,0,1-2.662-.333.586.586,0,0,1-.4-.692l1.211-5.6a.612.612,0,0,1,.293-.386.6.6,0,0,1,.479,0c4.511,1.557,10.207-2,10.261-2.036a.606.606,0,0,1,.9.519,9.316,9.316,0,0,1-4.112,6.654,9.981,9.981,0,0,1-5.975,1.876ZM282.6,89.82a9.316,9.316,0,0,0,7.067-1.517,8.783,8.783,0,0,0,3.42-4.618c-1.89.985-5.869,2.662-9.529,1.717Z" transform="translate(72.923 18.2)"/><path class="a" d="M287.792,68.58s-4.964,5.23-4.192,6.414,3.513.958,3.513.958" transform="translate(73.654 13.755)"/><path class="b" d="M286.683,76.713c-.958,0-2.741-.16-3.433-1.251-.852-1.331,1.85-4.6,4.259-7.146a.588.588,0,0,1,.852.812c-2.316,2.449-4.245,5.124-4.112,5.736.413.625,2.169.719,2.954.652a.587.587,0,0,1,.093,1.171A4.672,4.672,0,0,1,286.683,76.713Z" transform="translate(73.512 13.607)"/><ellipse class="b" cx="1.397" cy="0.998" rx="1.397" ry="0.998" transform="translate(366.516 84.674) rotate(-68.08)"/><ellipse class="b" cx="1.397" cy="0.998" rx="1.397" ry="0.998" transform="translate(354.194 83.991) rotate(-68.08)"/><path class="b" d="M281.174,76.546,291,76.16s-.266,6.654-5.989,7.186S281.174,76.546,281.174,76.546Z" transform="translate(72.78 16.262)"/><path class="b" d="M328.143,138.1s13.814,15.384,17.673,32.339c8.1,35.666,8.344,90.229,8.344,90.229L249.24,253.179,274.206,135.27Z" transform="translate(62.315 35.816)"/><path class="b" d="M341.146,158.138a18.923,18.923,0,0,1-6.162-1.011.7.7,0,0,1,.452-1.331,19.762,19.762,0,0,0,21.173-6.361,22.877,22.877,0,0,0,3.008-22.371c-3.008-7.453-9.462-12.882-15.7-18.139-1.091-.918-2.2-1.85-3.26-2.781-7.812-6.747-11.977-13.388-14.093-22.2-1.93-8.251-4.192-16.821-8.677-23.076-3.726-5.19-12.842-11.192-19.576-8.424a22.623,22.623,0,0,0-5.722,3.806.732.732,0,0,1-.546.146,33.975,33.975,0,0,0-11.032-.08,14.28,14.28,0,0,0-9.063,5.43,16.169,16.169,0,0,0-2.329,10.207c.066,1.038.426,2.289,1.224,2.382a.692.692,0,0,1,.6.759.679.679,0,0,1-.772.6c-1.331-.16-2.276-1.53-2.422-3.66a17.221,17.221,0,0,1,2.582-11.072A15.557,15.557,0,0,1,280.714,55a34.6,34.6,0,0,1,11.192,0,23.063,23.063,0,0,1,5.856-3.819c7.479-3.074,17.127,3.194,21.213,8.89,4.631,6.454,6.934,15.171,8.9,23.555s6.068,14.932,13.641,21.479c1.065.932,2.156,1.85,3.26,2.768,6.361,5.323,12.949,10.913,16.089,18.631a23.954,23.954,0,0,1-3.221,23.755A21.572,21.572,0,0,1,341.146,158.138Z" transform="translate(68.569 7.731)"/><path class="b" d="M335.576,268.5,334.5,261.15l-21.626,5.962-4.205-5.549s-15.837,11.485-13.614,14.027S320.578,273.487,335.576,268.5Z" transform="translate(77.399 77.458)"/><path class="d" d="M253.057,185.273a.652.652,0,0,1-.546-.279l-19.683-28.373a.679.679,0,0,1,.173-.932.652.652,0,0,1,.918.173l19.709,28.373a.652.652,0,0,1-.173.918.626.626,0,0,1-.4.12Z" transform="translate(56.848 42.532)"/><path class="d" d="M248.609,62.885a.652.652,0,0,1-.532-1.065L269.37,34.233a.665.665,0,1,1,1.051.812L249.128,62.632A.679.679,0,0,1,248.609,62.885Z" transform="translate(61.881 2.296)"/><path class="b" d="M142.072,152.486,176.18,296.706,146.556,303.8,113.965,187.287,104.5,306.833,73.761,305.25,72.71,138.3Z" transform="translate(3.918 36.819)"/><path class="a" d="M119.048,93.19c-.2.785,59.886,9.449,59.886,9.449L174.6,121.762s-39.405-4.338-60.285-7.692Z" transform="translate(17.679 21.896)"/><path class="b" d="M174.771,122.588H174.7c-.4,0-39.671-4.378-60.325-7.692a.639.639,0,0,1-.452-.279.692.692,0,0,1-.093-.519l4.724-20.88h0a.665.665,0,0,1,.8-.492.719.719,0,0,1,.266.133c2.449.878,36.8,6.029,59.567,9.316a.679.679,0,0,1,.452.279.652.652,0,0,1,.107.519L175.41,122.1a.665.665,0,0,1-.639.492Zm-59.487-8.9c19.39,3.074,54.031,6.96,58.968,7.506l3.992-17.833c-44.6-6.441-55.721-8.451-58.555-9.2Z" transform="translate(17.517 21.736)"/><path class="c" d="M92.038,87.423c.24-.745,36.65,7.027,36.65,7.027l-1.331,27.321-24.953-8.93S90.414,92.413,92.038,87.423Z" transform="translate(10.261 19.971)"/><path class="c" d="M125.171,104.019c-.546-1.477-7.439-16.728-27.534-17.221s-28.426-1.331-32.618,23.955c-4.458,26.736,9.449,73.554,9.449,73.554l76.628-17.3S130.495,118.379,125.171,104.019Z" transform="translate(1.082 19.73)"/><path class="a" d="M208.234,72.15l28.226,1.238c-3.127,10.646-.692,19.43,6.96,25.179a24.473,24.473,0,0,0,27.308,1.1c7.985-5,11.112-13.614,8.97-24.394l22.624.985-4.1,93.955-94.061-4.1a15.354,15.354,0,0,1,.106-2.209c.386-9.116.812-18.232,1.145-27.348a10.366,10.366,0,0,0-.639-4.086,3.7,3.7,0,0,0-5.323-1.943,15.584,15.584,0,0,1-18.631-4.764,15.757,15.757,0,0,1,.16-19.5,15,15,0,0,1,18.472-4.205c4.418,2.169,7.439.452,7.705-4.5.413-7.985.705-15.85,1.065-23.768A13.854,13.854,0,0,1,208.234,72.15Z" transform="translate(38.59 14.936)"/><path class="b" d="M298.345,171.048h0l-94.061-4.1a.706.706,0,0,1-.466-.226.665.665,0,0,1-.173-.479l.4-8.876c.293-6.88.6-13.774.852-20.667a9.648,9.648,0,0,0-.6-3.819,3.008,3.008,0,0,0-1.65-1.783,3.527,3.527,0,0,0-2.795.2,16.223,16.223,0,0,1-19.35-4.951,16.449,16.449,0,0,1,.173-20.321,15.664,15.664,0,0,1,19.19-4.392c1.97.958,3.633,1.118,4.8.426s1.823-2.183,1.943-4.365c.293-5.549.532-11.205.759-16.662.093-2.369.2-4.738.306-7.093v-1.65a.692.692,0,0,1,.213-.466.705.705,0,0,1,.479-.173L236.6,72.888a.626.626,0,0,1,.519.279.665.665,0,0,1,.093.572c-3.008,10.354-.679,18.857,6.76,24.46a23.835,23.835,0,0,0,26.616,1.065c7.665-4.831,10.74-13.308,8.664-23.7a.625.625,0,0,1,.146-.559.586.586,0,0,1,.532-.226l22.624.985a.639.639,0,0,1,.466.213.652.652,0,0,1,.173.479l-4.1,93.955a.639.639,0,0,1-.213.466.679.679,0,0,1-.532.173Zm-93.423-5.4,92.744,3.992L301.659,77l-21.013-.892c1.876,10.646-1.451,19.23-9.409,24.261a25.205,25.205,0,0,1-28.067-1.131c-7.732-5.829-10.3-14.453-7.426-25.059l-26.723-1.171v.985c-.093,2.369-.2,4.724-.293,7.093-.226,5.47-.466,11.126-.759,16.675-.146,2.662-1.038,4.538-2.662,5.456s-3.66.785-6.055-.4a14.333,14.333,0,0,0-17.567,3.992,15.091,15.091,0,0,0-.16,18.631,14.892,14.892,0,0,0,17.74,4.578,4.778,4.778,0,0,1,3.846-.24,4.272,4.272,0,0,1,2.4,2.542,11.046,11.046,0,0,1,.692,4.352c-.253,6.894-.559,13.787-.865,20.681Z" transform="translate(38.442 14.77)"/><path class="a" d="M210.211,79.5l2.888,23.089c-10.886-1.464-19.629,2.542-24.141,11.032a23.954,23.954,0,0,0,3.154,26.9c6.654,7.413,16.156,9.316,26.377,5.323l3.473,27.8L119.118,186.429,107.38,92.341l32.551-3.992a7.173,7.173,0,0,0,6.122-8.89,21.518,21.518,0,0,0-1.6-4.125,15.7,15.7,0,0,1,20.974-21.6,15.97,15.97,0,0,1,8.4,17.021c-.226,1.331-.532,2.662-.732,3.992-.692,4.458,3.247,9.568,8.65,8.451S204.649,80.191,210.211,79.5Z" transform="translate(15.387 8.252)"/><path class="b" d="M119.284,187.221a.6.6,0,0,1-.4-.133.625.625,0,0,1-.253-.452L106.881,92.561a.665.665,0,0,1,.586-.745l2.276-.293,30.276-3.779a6.654,6.654,0,0,0,4.671-2.861,6.308,6.308,0,0,0,.878-5.19,20.215,20.215,0,0,0-1.544-3.992,16.369,16.369,0,0,1,21.865-22.4,16.662,16.662,0,0,1,8.743,17.726c-.093.586-.213,1.158-.319,1.73s-.293,1.464-.413,2.209a7.186,7.186,0,0,0,2.183,6.068,6.228,6.228,0,0,0,5.683,1.624c3.992-.825,14.639-2.049,22.424-2.941L210.3,79a.679.679,0,0,1,.745.572l2.875,23.089a.652.652,0,0,1-.745.745c-10.553-1.411-19.1,2.475-23.449,10.646a23.409,23.409,0,0,0,3.048,26.15c6.4,7.16,15.757,9.01,25.645,5.07a.652.652,0,0,1,.9.532l3.46,27.814a.665.665,0,0,1-.133.492.639.639,0,0,1-.439.24L119.364,187.195ZM108.292,93.054l11.578,92.757,101.514-12.669-3.287-26.3c-10.141,3.753-19.7,1.69-26.323-5.736a24.766,24.766,0,0,1-3.234-27.654c4.511-8.5,13.215-12.656,23.954-11.485l-2.662-21.586-5.456.639c-7.333.838-18.418,2.116-22.3,2.928a7.546,7.546,0,0,1-6.88-1.956,8.424,8.424,0,0,1-2.608-7.2c.12-.759.266-1.517.426-2.276l.319-1.69a15.344,15.344,0,0,0-8.051-16.316,15.038,15.038,0,0,0-20.069,20.614,21.292,21.292,0,0,1,1.65,4.259,7.679,7.679,0,0,1-1.065,6.281,7.985,7.985,0,0,1-5.6,3.433l-30.276,3.793Z" transform="translate(15.22 8.099)"/><path class="a" d="M100.552,104.738V95.781s12.935,2.662,11.285-11.977-7.213-20.534-8.171-20.242L85.553,68.979,83.81,103.234S92.793,117.234,100.552,104.738Z" transform="translate(7.59 12.092)"/><path class="b" d="M93.531,110.757c-5.523,0-9.888-6.721-10.074-7a.625.625,0,0,1-.106-.4L85.041,69.1a.665.665,0,0,1,.479-.6l18.1-5.416a1.331,1.331,0,0,1,1.118.266c2.329,1.544,6.548,8.491,7.985,20.548.532,4.791-.4,8.331-2.781,10.513-2.821,2.6-6.814,2.489-8.5,2.3V104.9a.665.665,0,0,1-.093.359c-2.249,3.62-4.857,5.47-7.745,5.5ZM84.695,103.2c.652,1.038,4.445,6.228,8.837,6.228h0c2.369,0,4.551-1.61,6.521-4.711v-8.77a.626.626,0,0,1,.253-.506.679.679,0,0,1,.546-.146s5.07.972,8.145-1.863c2.049-1.89,2.835-5.044,2.342-9.316-1.491-13.188-6.215-19.164-7.439-19.656L86.345,69.635Zm16.01,1.7Z" transform="translate(7.437 11.928)"/><path class="a" d="M87.7,75.508c-.612-2.768-4.738-3.74-6.774-1.77a5.217,5.217,0,0,0,.639,7.492,6.8,6.8,0,0,0,7.985,0" transform="translate(6.206 15.118)"/><path class="b" d="M85.51,83.281a6.654,6.654,0,0,1-4.192-1.331,6.1,6.1,0,0,1-2.2-4.432,5.323,5.323,0,0,1,1.5-3.992,4.9,4.9,0,0,1,4.791-.985A4.272,4.272,0,0,1,88.5,75.629a.681.681,0,1,1-1.331.293,3.021,3.021,0,0,0-2.183-2.116,3.567,3.567,0,0,0-3.473.679,3.886,3.886,0,0,0-1.1,3.034,4.711,4.711,0,0,0,1.69,3.447,6.135,6.135,0,0,0,7.133-.08.665.665,0,1,1,.759,1.078,7.878,7.878,0,0,1-4.485,1.318Z" transform="translate(6.036 14.983)"/><path class="a" d="M94.72,72.28a52.249,52.249,0,0,1,3.034,4.338,2.821,2.821,0,0,1,.612,2.342,2.3,2.3,0,0,1-1.73,1.238,1.517,1.517,0,0,1-1.677-.452" transform="translate(11.199 14.979)"/><path class="b" d="M96.268,81a1.81,1.81,0,0,1-1.624-.8.593.593,0,0,1,1.025-.6c.133.24.639.253,1.038.16a1.848,1.848,0,0,0,1.331-.852c.253-.559-.173-1.224-.546-1.823a51.32,51.32,0,0,0-3.061-4.3.587.587,0,1,1,.918-.732,50.745,50.745,0,0,1,3.127,4.4,3.26,3.26,0,0,1,.665,2.861A2.808,2.808,0,0,1,97,80.918,3.247,3.247,0,0,1,96.268,81Z" transform="translate(11.061 14.831)"/><ellipse class="b" cx="0.772" cy="1.091" rx="0.772" ry="1.091" transform="translate(101.187 85.215) rotate(-0.06)"/><ellipse class="b" cx="0.772" cy="1.091" rx="0.772" ry="1.091" transform="translate(109.723 84.514) rotate(-5.08)"/><path class="b" d="M79.1,85.94c-.9,0-2.1-.532-3.287-2.662a20.028,20.028,0,0,1-2.741-6.654,8.264,8.264,0,0,1,1.876-6.973,5.669,5.669,0,0,1,5.9-1.424,12.935,12.935,0,0,1,3.087-9.036,27.2,27.2,0,0,1,8.717-6.468,69.6,69.6,0,0,1,12.217-4.871,14.772,14.772,0,0,1,8.371-.586c4.711,1.411,7.12,6.654,7.359,10.793A17.646,17.646,0,0,1,112.6,73.75a.692.692,0,0,1-.945-.213.679.679,0,0,1,.213-.945,16.489,16.489,0,0,0,7.386-14.453c-.213-3.753-2.3-8.344-6.375-9.555a13.6,13.6,0,0,0-7.6.586,67.778,67.778,0,0,0-11.977,4.778A25.991,25.991,0,0,0,85,60a11.032,11.032,0,0,0-2.582,9.316.665.665,0,0,1-.306.745.679.679,0,0,1-.812,0,4.112,4.112,0,0,0-5.323.559,6.84,6.84,0,0,0-1.5,5.909,19.084,19.084,0,0,0,2.542,6.122c.559.971,1.424,2.089,2.329,1.89a.692.692,0,0,1,.825.519.679.679,0,0,1-.532.812,2.129,2.129,0,0,1-.546.067Z" transform="translate(3.987 6.589)"/><path class="b" d="M98.659,88.666A37.716,37.716,0,0,1,89.53,85.06s-.173,5.989,9.023,8.85Z" transform="translate(9.482 19.207)"/><path class="b" d="M98.7,94.635h-.173c-9.515-2.954-9.435-9.156-9.435-9.422a.586.586,0,0,1,.319-.492.572.572,0,0,1,.586,0,37.675,37.675,0,0,0,8.956,3.54.572.572,0,0,1,.439.572l-.106,5.243a.586.586,0,0,1-.253.452.506.506,0,0,1-.333.106Zm-8.278-8.318c.413,1.677,1.956,4.924,7.705,6.92l.08-3.992A39.258,39.258,0,0,1,90.421,86.317Z" transform="translate(9.336 19.067)"/><path class="a" d="M78.44,129.265s31.78,36.517,51.489,27.455S178.8,111.791,178.8,111.791s9.2-9.6,7.359-10.114S178.264,107,178.264,107s6.84-8.145,4.205-8.145-7.612,6.042-7.612,6.042,8.145-9.2,4.724-8.677-7.612,5.523-7.612,5.523,8.145-7.878,4.991-7.612-11.565,8.131-11.565,8.131,3.42-7.878.785-7.612-3.154,7.293-7.146,10.966-29.424,28.107-34.148,27.854-25.738-22.863-25.738-22.863" transform="translate(5.813 22.205)"/><path class="b" d="M123.142,159.076q-11,0-26.616-11.977a143.875,143.875,0,0,1-18.458-17.207.679.679,0,0,1,0-.945.652.652,0,0,1,.932,0c.319.359,31.686,36.038,50.717,27.282,19.337-8.89,48.335-44.382,48.628-44.742,3.327-3.46,6.854-7.652,7.386-9.049-1.224.24-4.4,2.662-6.934,5.1a.665.665,0,0,1-.971-.9c2.515-3.008,4.551-6.108,4.658-7.04-1.5.12-4.152,2.555-6.042,4.631l-1.025,1.171a.665.665,0,0,1-.932,0,.679.679,0,0,1-.08-.932c.12-.146.439-.532.9-1.038,2.262-2.662,4.352-5.589,4.511-6.561h0a10.766,10.766,0,0,0-4.791,2.821c-.8.865-1.65,1.717-2.475,2.515a.665.665,0,0,1-.971-.9,33.269,33.269,0,0,1,2.356-2.422,18.752,18.752,0,0,0,3.167-4.1c-2.422.253-8.837,5.816-11.126,7.985a.665.665,0,0,1-1.065-.745c1.171-2.662,2.089-6.015,1.61-6.654h-.146c-.932.093-1.717,1.943-2.542,3.913a19.669,19.669,0,0,1-4.165,6.947l-1.331,1.331c-19.55,18.432-30.076,26.935-33.27,26.762-4.857-.279-23.954-20.734-26.19-23.076a.652.652,0,0,1,0-.932.665.665,0,0,1,.945,0c8.371,9.01,22.025,22.464,25.285,22.624,1.876.093,8.956-4.4,32.312-26.4l1.331-1.264a18.326,18.326,0,0,0,3.846-6.494c1.065-2.542,1.916-4.551,3.633-4.724a1.451,1.451,0,0,1,1.331.559c.745,1.025.2,3.407-.466,5.323,2.781-2.422,7.519-6.255,9.9-6.454a1.2,1.2,0,0,1,1.331.626c.213.466,0,1.184-.519,2.036a6.894,6.894,0,0,1,1.757-.559,1.238,1.238,0,0,1,1.451.559c.319.586,0,1.624-.732,2.861a4.751,4.751,0,0,1,2.262-.8,1.2,1.2,0,0,1,1.158.652c.359.785-.319,2.289-1.331,3.913,1.557-1.1,3.114-1.916,3.992-1.65a.958.958,0,0,1,.692.692c.452,1.664-4.658,7.306-7.745,10.527-1.158,1.424-29.451,36.038-49.067,45.061A17.035,17.035,0,0,1,123.142,159.076Z" transform="translate(5.627 21.978)"/><path class="b" d="M102,83.831a3.473,3.473,0,0,1-.439.6c-3.646,4.272-7.878.306-10.274-2.875.24.333,5.124-1.091,5.616-1.184l6.015-1.331A6.1,6.1,0,0,1,102,83.831Z" transform="translate(10.064 17.215)"/><path class="a" d="M128.2,263.252l.985,11.165s51.822-7.293,49.652-9.462-21.013-7.626-21.013-7.626" transform="translate(22.274 76.194)"/><path class="b" d="M129.351,275.247a.679.679,0,0,1-.413-.146.705.705,0,0,1-.253-.466L127.7,263.47a.668.668,0,1,1,1.331-.12l.918,10.473c17.3-2.449,44.13-6.721,48.122-8.584-2.662-1.677-13.308-5.084-20.268-7.107a.652.652,0,0,1-.452-.812.679.679,0,0,1,.825-.466c1.943.572,19.07,5.563,21.293,7.8a.838.838,0,0,1,.213.878c-.812,2.409-31.833,7.107-50.251,9.7Z" transform="translate(22.108 76.03)"/><path class="a" d="M108.258,265.347v9.063l-46.9.333s8.278-7.878,16.156-11.032" transform="translate(0.163 78.305)"/><path class="b" d="M61.523,275.612a.665.665,0,0,1-.452-1.145c.333-.319,8.451-7.985,16.369-11.165a.665.665,0,0,1,.865.373.679.679,0,0,1-.373.865c-5.869,2.342-12.057,7.439-14.639,9.728l44.489-.373v-8.4a.665.665,0,1,1,1.331,0v9.063a.679.679,0,0,1-.665.665l-46.884.386Z" transform="translate(0 78.154)"/><path class="a" d="M100.948,175.011c-3.513,0-5.762-.12-5.8-.12a.692.692,0,0,1-.625-.705.665.665,0,0,1,.705-.625,137.794,137.794,0,0,0,19.337-.519.639.639,0,0,1,.719.586.665.665,0,0,1-.586.732C109.425,174.878,104.474,175.011,100.948,175.011Z" transform="translate(11.133 48.309)"/><path class="d" d="M149.415,181.18a.625.625,0,0,1-.413-.146.679.679,0,0,1-.12-.932l13.4-17.3a.692.692,0,0,1,.932-.12.679.679,0,0,1,.12.945l-13.388,17.3a.679.679,0,0,1-.532.253Z" transform="translate(29.072 44.842)"/><path class="d" d="M203.565,235.388a.652.652,0,0,1-.652-.625l-3.992-70.147a.679.679,0,0,1,.639-.705.652.652,0,0,1,.692.626l3.992,70.147a.665.665,0,0,1-.625.705Z" transform="translate(45.668 45.29)"/><path class="a" d="M320.333,97.344a36.2,36.2,0,0,0-2.076,3.992c-5.829,12.257-13.375,27.348-28.453,29.531-10.58,1.53-21.466-.519-31.447-3.992a33.562,33.562,0,0,1-8.717-4.4c-3.167-2.409-5.842-6.029-8.637-8.876-.705-.732-1.943-1.464-2.662-.692s-.133,1.477.279,2.129a46.58,46.58,0,0,0,4.977,6.548c-2.249-.9-4.551-1.7-6.88-2.409a40.483,40.483,0,0,0-6.2-1.717,1.876,1.876,0,0,0-1.091.359.852.852,0,0,0-.226,1.051,1.238,1.238,0,0,0,.413.373,18.192,18.192,0,0,0,5.124,2.329,12.909,12.909,0,0,0-5.017-1.331c-.759,0-1.7.106-1.956.825s.492,1.477,1.184,1.9a21.386,21.386,0,0,0,4.964,2.249,30.768,30.768,0,0,0-4.232-1.743c-.9-.293-2.076-.479-2.662.293a1.57,1.57,0,0,0,0,1.717,3.992,3.992,0,0,0,1.331,1.2,19.616,19.616,0,0,0,4.458,2.049l-4.219-1.464a2.143,2.143,0,0,0-1.956,0c-.679.546-.413,1.663.106,2.382a10.114,10.114,0,0,0,3.913,2.582,62.545,62.545,0,0,0,6,2.489c13.588,5.323,25.445,12.869,40.35,14.107,16.462,1.331,34.934-3.087,47.2-14.639,7.426-6.987,15.1-19.031,13.774-29.823-.439-3.527-.985-8.4-4.086-10.646-3.314-2.462-9.316-1.251-11.977,1.557a13.64,13.64,0,0,0-1.584,2.076Z" transform="translate(54.701 21.628)"/><path class="b" d="M283.215,149.955c-2,0-3.992-.08-6.055-.253-10.74-.9-19.723-4.964-29.278-9.316-3.66-1.664-7.452-3.38-11.325-4.884l-1.331-.479A49.865,49.865,0,0,1,230.449,133l-.785-.386a8.344,8.344,0,0,1-3.354-2.409,2.422,2.422,0,0,1,0-3.287,1.863,1.863,0,0,1,.852-.373,2.954,2.954,0,0,1-.519-.625,2.209,2.209,0,0,1,0-2.462,1.956,1.956,0,0,1,1.038-.719,1.85,1.85,0,0,1-.413-1.8,2.009,2.009,0,0,1,1.81-1.251,1.451,1.451,0,0,1,0-2.276,2.409,2.409,0,0,1,1.49-.506,21.865,21.865,0,0,1,5.323,1.331l1.1.346c1.5.452,2.994.945,4.485,1.49a45.245,45.245,0,0,1-3.327-4.631c-.958-1.517-.652-2.422-.226-2.914a1.517,1.517,0,0,1,1.171-.559,3.62,3.62,0,0,1,2.422,1.211c.958.971,1.916,2.063,2.835,3.1a43.04,43.04,0,0,0,5.722,5.722,33.177,33.177,0,0,0,8.53,4.3c11.365,3.992,21.839,5.323,31.141,3.992,15.171-2.2,22.85-18.445,27.947-29.2a34.468,34.468,0,0,1,2.116-3.992h0A14.17,14.17,0,0,1,321.5,94.9c2.821-2.968,9.2-4.352,12.869-1.637,3.274,2.435,3.886,7.359,4.325,10.966v.2c1.331,10.646-6.068,22.956-13.987,30.4C314.662,144.512,299.411,149.955,283.215,149.955ZM227.667,127.89a.745.745,0,0,0-.4.106c-.306.253-.12.971.24,1.464a6.881,6.881,0,0,0,2.861,1.983l.812.413a49.512,49.512,0,0,0,4.645,1.956l1.331.492c3.9,1.517,7.705,3.247,11.378,4.911,9.4,4.259,18.259,8.278,28.785,9.156,18.019,1.5,35.479-3.886,46.7-14.439,7.665-7.213,14.825-19.057,13.561-29.278v-.2c-.426-3.354-.985-7.985-3.806-10.048-3.061-2.276-8.664-1.091-11.112,1.477a13.778,13.778,0,0,0-1.53,2h0a34.885,34.885,0,0,0-2.036,3.886c-5.2,11.006-13.069,27.641-28.945,29.943-9.515,1.331-20.2,0-31.766-4.072a35.678,35.678,0,0,1-8.9-4.5,44.047,44.047,0,0,1-5.909-5.882c-.958-1.091-1.863-2.1-2.795-3.061a2.475,2.475,0,0,0-1.424-.812.266.266,0,0,0-.213.093c-.173.2,0,.719.359,1.331a46.937,46.937,0,0,0,4.844,6.534.661.661,0,0,1-.732,1.065c-2.236-.892-4.538-1.69-6.84-2.382l-1.131-.359a29.916,29.916,0,0,0-4.831-1.331,1.331,1.331,0,0,0-.692.2.253.253,0,0,0-.093.213.866.866,0,0,0,.2.146,16.14,16.14,0,0,0,2.249,1.251,14.092,14.092,0,0,1,2.821,1.051.652.652,0,0,1,.319.825.692.692,0,0,1-.8.413,18.3,18.3,0,0,1-2.781-1.025,12.524,12.524,0,0,0-2.1-.306c-.559,0-1.171.08-1.331.373s.373.8.9,1.131c.306.2.639.386.958.559a33.046,33.046,0,0,1,3.992,1.65.679.679,0,0,1,.319.838.692.692,0,0,1-.812.4,22.371,22.371,0,0,1-3.992-1.663l-.266-.093c-.452-.146-1.53-.426-1.89,0a.918.918,0,0,0,.08.971,3.247,3.247,0,0,0,1.131.985,19.1,19.1,0,0,0,4.126,1.93l.186.067a.665.665,0,0,1-.4,1.264h-.2l-4.152-1.331a3.553,3.553,0,0,0-.918-.293Zm92.85-30.356Z" transform="translate(54.517 21.438)"/><path class="d" d="M194.785,69.586a.665.665,0,0,1-.665-.665V27.665a.665.665,0,0,1,1.331,0V68.92A.665.665,0,0,1,194.785,69.586Z" transform="translate(44.081 0)"/><path class="d" d="M136.941,58.358a.679.679,0,0,1-.532-.266L124.432,41.6a.667.667,0,0,1,1.078-.785l11.977,16.489a.679.679,0,0,1-.146.932A.705.705,0,0,1,136.941,58.358Z" transform="translate(20.985 4.48)"/><path class="b" d="M78.45,122.043a.679.679,0,0,1-.532-.266c-5.1-6.774-9.183-13.135-9.222-13.2a.665.665,0,0,1,.213-.918.652.652,0,0,1,.918.213s4.086,6.375,9.156,13.108a.665.665,0,0,1-.133.932A.626.626,0,0,1,78.45,122.043Z" transform="translate(2.556 26.646)"/><path class="a" d="M322.1,226.715a.679.679,0,0,1-.665-.586c0-.492-6.015-49.067-8.477-60.9a.679.679,0,1,1,1.331-.266c2.475,11.884,8.451,60.512,8.5,61a.652.652,0,0,1-.572.732Z" transform="translate(83.387 45.459)"/></g></svg>