<svg xmlns="http://www.w3.org/2000/svg" width="50" height="50" viewBox="0 0 50 50">
  <g id="communication" transform="translate(9713 -2982)">
    <rect id="Rectangle_2178" data-name="Rectangle 2178" width="50" height="50" transform="translate(-9713 2982)" fill="#fff" opacity="0.002"/>
    <g id="communication-2" data-name="communication" transform="translate(-9710.17 2984.464)">
      <g id="Group_805" data-name="Group 805" transform="translate(2.125 3.238)">
        <g id="Group_804" data-name="Group 804">
          <g id="Group_803" data-name="Group 803">
            <g id="Group_802" data-name="Group 802">
              <g id="Group_801" data-name="Group 801">
                <g id="Group_800" data-name="Group 800">
                  <path id="Path_1003" data-name="Path 1003" d="M22.17,3.238c-11.053,0-20.045,7-20.045,15.6,0,4.257,2.193,8.242,6.176,11.224a1.485,1.485,0,0,1,.592,1.191,12.114,12.114,0,0,0,6.122,10.586,7.037,7.037,0,0,1,2.534-7.37,1.462,1.462,0,0,1,1.107-.292,25.319,25.319,0,0,0,3.512.257c11.053,0,20.045-7,20.045-15.6S33.222,3.238,22.17,3.238Z" transform="translate(-2.125 -3.238)" fill="#8ebdea" stroke="#0054a6" stroke-linecap="round" stroke-linejoin="round" stroke-miterlimit="10" stroke-width="3"/>
                </g>
              </g>
            </g>
          </g>
        </g>
      </g>
      <g id="Group_806" data-name="Group 806" transform="translate(12.838 10.311)">
        <circle id="Ellipse_230" data-name="Ellipse 230" cx="2.627" cy="2.627" r="2.627" transform="translate(7.472 5.978)" fill="#8caedc" stroke="#0054a6" stroke-linecap="round" stroke-linejoin="round" stroke-miterlimit="10" stroke-width="2"/>
        <line id="Line_87" data-name="Line 87" x1="4.743" y2="0.777" transform="translate(2.765 9.03)" fill="#8caedc" stroke="#0054a6" stroke-linecap="round" stroke-linejoin="round" stroke-miterlimit="10" stroke-width="2"/>
        <line id="Line_88" data-name="Line 88" x2="3.606" y2="3.583" transform="translate(4.63 3.17)" fill="#8caedc" stroke="#0054a6" stroke-linecap="round" stroke-linejoin="round" stroke-miterlimit="10" stroke-width="2"/>
        <line id="Line_89" data-name="Line 89" x1="4.328" y2="4.371" transform="translate(11.964 2.382)" fill="#8caedc" stroke="#0054a6" stroke-linecap="round" stroke-linejoin="round" stroke-miterlimit="10" stroke-width="2"/>
        <line id="Line_90" data-name="Line 90" x2="2.553" y2="3.164" transform="translate(11.749 10.65)" fill="#8caedc" stroke="#0054a6" stroke-linecap="round" stroke-linejoin="round" stroke-miterlimit="10" stroke-width="2"/>
        <line id="Line_91" data-name="Line 91" x1="3.378" y2="3.608" transform="translate(4.928 10.523)" fill="#8caedc" stroke="#0054a6" stroke-linecap="round" stroke-linejoin="round" stroke-miterlimit="10" stroke-width="2"/>
        <circle id="Ellipse_231" data-name="Ellipse 231" cx="1.392" cy="1.392" r="1.392" transform="translate(2.25 0.797)" fill="#8caedc" stroke="#0054a6" stroke-linecap="round" stroke-linejoin="round" stroke-miterlimit="10" stroke-width="1"/>
        <circle id="Ellipse_232" data-name="Ellipse 232" cx="1.392" cy="1.392" r="1.392" transform="translate(15.879 0)" fill="#8caedc" stroke="#0054a6" stroke-linecap="round" stroke-linejoin="round" stroke-miterlimit="10" stroke-width="1"/>
        <circle id="Ellipse_233" data-name="Ellipse 233" cx="1.392" cy="1.392" r="1.392" transform="translate(13.782 13.503)" fill="#8caedc" stroke="#0054a6" stroke-linecap="round" stroke-linejoin="round" stroke-miterlimit="10" stroke-width="1"/>
        <circle id="Ellipse_234" data-name="Ellipse 234" cx="1.392" cy="1.392" r="1.392" transform="translate(2.585 13.755)" fill="#8caedc" stroke="#0054a6" stroke-linecap="round" stroke-linejoin="round" stroke-miterlimit="10" stroke-width="1"/>
        <circle id="Ellipse_235" data-name="Ellipse 235" cx="1.392" cy="1.392" r="1.392" transform="translate(0 8.639)" fill="#8caedc" stroke="#0054a6" stroke-linecap="round" stroke-linejoin="round" stroke-miterlimit="10" stroke-width="1"/>
      </g>
    </g>
  </g>
</svg>
