<svg xmlns="http://www.w3.org/2000/svg" width="54.587" height="52.667" viewBox="0 0 54.587 52.667"><defs><style>.a{fill:#8ebdea;stroke-width:3px;}.a,.b,.c{stroke:#0054a6;stroke-linecap:round;stroke-linejoin:round;stroke-miterlimit:10;}.b,.c{fill:#8caedc;}.b{stroke-width:2px;}</style></defs><g transform="translate(-0.625 -1.738)"><g transform="translate(2.125 3.238)"><path class="a" d="M27.919,3.238c-14.224,0-25.794,9-25.794,20.069,0,5.477,2.822,10.606,7.948,14.443a1.91,1.91,0,0,1,.762,1.533C10.8,46.577,15.258,50.76,18.713,52.9a9.056,9.056,0,0,1,3.26-9.484,1.882,1.882,0,0,1,1.425-.376,32.581,32.581,0,0,0,4.52.331c14.223,0,25.794-9,25.794-20.069S42.142,3.238,27.919,3.238Z" transform="translate(-2.125 -3.238)"/></g><g transform="translate(15.911 12.339)"><circle class="b" cx="3.381" cy="3.381" r="3.381" transform="translate(9.616 7.692)"/><line class="b" x1="6.103" y2="1" transform="translate(3.558 11.62)"/><line class="b" x2="4.641" y2="4.611" transform="translate(5.957 4.08)"/><line class="b" x1="5.569" y2="5.625" transform="translate(15.395 3.065)"/><line class="b" x2="3.285" y2="4.072" transform="translate(15.119 13.705)"/><line class="b" x1="4.346" y2="4.643" transform="translate(6.342 13.541)"/><circle class="c" cx="1.792" cy="1.792" r="1.792" transform="translate(2.895 1.026)"/><circle class="c" cx="1.792" cy="1.792" r="1.792" transform="translate(20.433 0)"/><circle class="c" cx="1.792" cy="1.792" r="1.792" transform="translate(17.735 17.376)"/><circle class="c" cx="1.792" cy="1.792" r="1.792" transform="translate(3.327 17.7)"/><circle class="c" cx="1.792" cy="1.792" r="1.792" transform="translate(0 11.116)"/></g></g></svg>