<svg xmlns="http://www.w3.org/2000/svg" width="49.493" height="54.577" viewBox="0 0 49.493 54.577"><defs><style>.a{fill:#8ebdea;}.a,.b,.c,.d,.e{stroke:#0054a6;stroke-linecap:round;stroke-linejoin:round;stroke-miterlimit:10;}.a,.d{stroke-width:3px;}.b{fill:#8caedc;}.b,.c,.e{stroke-width:2px;}.c{fill:#4a72b8;}.d,.e{fill:#5981c1;}</style></defs><g transform="translate(-5 -2.211)"><g transform="translate(14.912 3.711)"><g transform="translate(0)"><path class="a" d="M21.476,3.711l-5.749,9.957V52.776h11.5V13.668Z" transform="translate(-15.727 -3.711)"/><path class="b" d="M15.727,14.633l2.77,2.3,2.008-1.87,2.84,2.424,3.878-2.858" transform="translate(-15.727 -4.676)"/><line class="b" y2="32.413" transform="translate(4.779 10.391)"/><path class="c" d="M24.994,9.392H18.435l3.28-5.681Z" transform="translate(-15.966 -3.711)"/><rect class="d" width="11.497" height="6.539" transform="translate(0 42.527)"/></g><rect class="a" width="13.124" height="49.065" transform="translate(16.545)"/><line class="e" x2="6.562" transform="translate(16.545 6.138)"/><line class="e" x2="3.774" transform="translate(16.545 12.276)"/><line class="e" x2="6.562" transform="translate(16.545 18.413)"/><line class="e" x2="3.774" transform="translate(16.545 24.551)"/><line class="e" x2="6.562" transform="translate(16.545 30.689)"/><line class="e" x2="3.774" transform="translate(16.545 36.826)"/><line class="e" x2="6.562" transform="translate(16.545 42.964)"/></g><rect class="a" width="46.493" height="6.452" transform="translate(6.5 25.018)"/><rect class="a" width="38.299" height="23.819" transform="translate(10.597 31.469)"/><line class="d" y2="12.901" transform="translate(15.901 37.54)"/></g></svg>