<svg xmlns="http://www.w3.org/2000/svg" width="42.967" height="54.02" viewBox="0 0 42.967 54.02"><defs><style>.a,.c{fill:#8ebdea;}.a,.b,.c{stroke:#0054a6;stroke-linecap:round;stroke-linejoin:round;stroke-miterlimit:10;}.a,.b{stroke-width:3px;}.b{fill:#5981c1;}.c{stroke-width:2px;}.d{fill:#4766b0;}</style></defs><g transform="translate(-8.566 -2.5)"><path class="a" d="M12.39,8.648H47.709a2.324,2.324,0,0,0,2.324-2.324h0A2.325,2.325,0,0,0,47.708,4H12.39a2.324,2.324,0,0,0-2.324,2.324h0A2.323,2.323,0,0,0,12.39,8.648Z" transform="translate(0)"/><path class="a" d="M12.39,59.546H47.709a2.324,2.324,0,0,0,2.324-2.324h0A2.324,2.324,0,0,0,47.709,54.9H12.39a2.324,2.324,0,0,0-2.324,2.324h0A2.323,2.323,0,0,0,12.39,59.546Z" transform="translate(0 -4.527)"/><path class="a" d="M15.749,52.861C15.749,41.34,22.378,32,30.555,32S45.36,41.34,45.36,52.861H15.749Z" transform="translate(-0.505 -2.49)"/><path class="a" d="M45.36,9.1c0,11.521-6.629,20.861-14.806,20.861S15.749,20.623,15.749,9.1Z" transform="translate(-0.505 -0.454)"/><line class="b" x2="5.205" transform="translate(15.49 12.454)"/><path class="c" d="M17.422,19.224c2.416,6.895,7.454,11.64,13.281,11.64,5.236,0,9.834-3.833,12.466-9.613Z" transform="translate(-0.654 -1.354)"/><path class="c" d="M36.547,44.608a45.961,45.961,0,0,0-5.595-1.214c-2.991-.286-5.927,1.11-8.8,1.759l-5.414,1.224a28.464,28.464,0,0,0-.988,7.494H45.361a28.469,28.469,0,0,0-.988-7.494Z" transform="translate(-0.505 -3.5)"/><circle class="d" cx="1.306" cy="1.306" r="1.306" transform="translate(28.743 32.887)"/><circle class="d" cx="1.306" cy="1.306" r="1.306" transform="translate(28.743 37.382)"/></g></svg>