<svg xmlns="http://www.w3.org/2000/svg" width="56.061" height="54.086" viewBox="0 0 56.061 54.086"><defs><style>.a{fill:#8ebdea;stroke-width:3px;}.a,.b,.c,.d{stroke:#0054a6;stroke-linecap:round;stroke-linejoin:round;stroke-miterlimit:10;}.b,.c{fill:#8caedc;}.b{stroke-width:2px;}.d{fill:none;}</style></defs><g transform="translate(-0.625 -1.738)"><g transform="translate(2.125 3.238)"><path class="a" d="M28.656,3.238c-14.63,0-26.531,9.26-26.531,20.642,0,5.634,2.9,10.909,8.175,14.855a1.965,1.965,0,0,1,.784,1.576c-.031,7.5,4.55,11.806,8.1,14.012a9.314,9.314,0,0,1,3.353-9.754,1.936,1.936,0,0,1,1.465-.386,33.512,33.512,0,0,0,4.649.34c14.629,0,26.531-9.259,26.531-20.642S43.285,3.238,28.656,3.238Z" transform="translate(-2.125 -3.238)"/></g><g transform="translate(14.706 9.162)"><g transform="translate(5.957 6.013)"><path class="b" d="M35.726,34.554H26.847a1.225,1.225,0,0,0-1.222,1.222h0A1.225,1.225,0,0,0,26.847,37h8.879a1.225,1.225,0,0,0,1.222-1.222h0A1.225,1.225,0,0,0,35.726,34.554Z" transform="translate(-23.294 -18.681)"/><path class="b" d="M35.047,37.306H27.722A1.225,1.225,0,0,0,26.5,38.528h0a1.225,1.225,0,0,0,1.222,1.222h7.325a1.225,1.225,0,0,0,1.222-1.222h0A1.225,1.225,0,0,0,35.047,37.306Z" transform="translate(-23.392 -18.989)"/><path class="b" d="M38.985,25.228a8.284,8.284,0,0,0-7.993-8.548A8.284,8.284,0,0,0,23,25.228a8.666,8.666,0,0,0,3.891,7.326h8.2A8.667,8.667,0,0,0,38.985,25.228Z" transform="translate(-23 -16.68)"/><path class="b" d="M29.366,42.1H33.78l1.18-2.044H28.186Z" transform="translate(-23.581 -19.297)"/><path class="b" d="M31.088,43.169h1.529l.409-.708H30.679Z" transform="translate(-23.86 -19.566)"/><path class="c" d="M37.661,25.341A5.868,5.868,0,0,0,32,19.286" transform="translate(-24.007 -16.972)"/><path class="c" d="M25.625,26.1a6.138,6.138,0,0,0,2.756,5.189" transform="translate(-23.294 -17.735)"/><circle class="d" cx="1.8" cy="1.8" r="1.8" transform="translate(6.192 6.136)"/><line class="d" y1="6.136" transform="translate(7.993 9.737)"/></g><g transform="translate(0 13.95)"><line class="c" x2="2.516"/><line class="c" x2="2.516" transform="translate(25.383)"/></g><g transform="translate(4.086 4.086)"><line class="c" y1="1.78" x2="1.779" transform="translate(0 17.949)"/><line class="c" y1="1.779" x2="1.779" transform="translate(17.949)"/></g><g transform="translate(13.95)"><line class="c" y1="2.516"/></g><g transform="translate(4.086 4.086)"><line class="c" x1="1.779" y1="1.78" transform="translate(17.949 17.949)"/><line class="c" x1="1.779" y1="1.779"/></g></g></g></svg>