<svg xmlns="http://www.w3.org/2000/svg" width="50" height="50" viewBox="0 0 50 50">
  <g id="growth" transform="translate(9765 -2921)">
    <rect id="Rectangle_2175" data-name="Rectangle 2175" width="50" height="50" transform="translate(-9765 2921)" fill="#fff" opacity="0"/>
    <g id="growth-2" data-name="growth" transform="translate(-9765.795 2920.712)">
      <rect id="Rectangle_1240" data-name="Rectangle 1240" width="34.387" height="32.148" transform="translate(8.602 10.211)" fill="#8ebdea" stroke="#0054a6" stroke-linecap="round" stroke-linejoin="round" stroke-miterlimit="10" stroke-width="3"/>
      <g id="Group_1026" data-name="Group 1026" transform="translate(14.006 16.081)">
        <circle id="Ellipse_332" data-name="Ellipse 332" cx="2.072" cy="2.072" r="2.072" transform="translate(0 14.718)" fill="#8ebdea" stroke="#0054a6" stroke-linecap="round" stroke-linejoin="round" stroke-miterlimit="10" stroke-width="2"/>
        <circle id="Ellipse_333" data-name="Ellipse 333" cx="2.072" cy="2.072" r="2.072" transform="translate(6.392 4.034)" fill="#8ebdea" stroke="#0054a6" stroke-linecap="round" stroke-linejoin="round" stroke-miterlimit="10" stroke-width="2"/>
        <circle id="Ellipse_334" data-name="Ellipse 334" cx="2.072" cy="2.072" r="2.072" transform="translate(13.042 10.684)" fill="#8ebdea" stroke="#0054a6" stroke-linecap="round" stroke-linejoin="round" stroke-miterlimit="10" stroke-width="2"/>
        <circle id="Ellipse_335" data-name="Ellipse 335" cx="2.072" cy="2.072" r="2.072" transform="translate(19.433)" fill="#8ebdea" stroke="#0054a6" stroke-linecap="round" stroke-linejoin="round" stroke-miterlimit="10" stroke-width="2"/>
        <line id="Line_365" data-name="Line 365" y1="7.133" x2="4.267" transform="translate(3.134 7.881)" fill="#5981c1" stroke="#0054a6" stroke-linecap="round" stroke-linejoin="round" stroke-miterlimit="10" stroke-width="2"/>
        <line id="Line_366" data-name="Line 366" x2="3.72" y2="3.72" transform="translate(9.928 7.571)" fill="#5981c1" stroke="#0054a6" stroke-linecap="round" stroke-linejoin="round" stroke-miterlimit="10" stroke-width="2"/>
        <line id="Line_367" data-name="Line 367" y1="7.14" x2="4.272" transform="translate(16.174 3.843)" fill="#5981c1" stroke="#0054a6" stroke-linecap="round" stroke-linejoin="round" stroke-miterlimit="10" stroke-width="2"/>
      </g>
      <path id="Path_1234" data-name="Path 1234" d="M43.191,4.7H8.4A2.753,2.753,0,0,0,5.646,7.457h0A2.753,2.753,0,0,0,8.4,10.21H43.19a2.753,2.753,0,0,0,2.753-2.753h0A2.752,2.752,0,0,0,43.191,4.7Z" transform="translate(0 0)" fill="#8ebdea" stroke="#0054a6" stroke-linecap="round" stroke-linejoin="round" stroke-miterlimit="10" stroke-width="3"/>
      <circle id="Ellipse_336" data-name="Ellipse 336" cx="2.041" cy="2.041" r="2.041" transform="translate(23.754 42.359)" fill="#5981c1" stroke="#0054a6" stroke-linecap="round" stroke-linejoin="round" stroke-miterlimit="10" stroke-width="2"/>
    </g>
  </g>
</svg>
