<svg xmlns="http://www.w3.org/2000/svg" width="52.729" height="54.007" viewBox="0 0 52.729 54.007"><defs><style>.a{fill:#8ebdea;stroke-width:3px;}.a,.b{stroke:#0054a6;}.a,.b,.c{stroke-linecap:round;stroke-linejoin:round;stroke-miterlimit:10;}.b,.c{fill:#5981c1;stroke-width:2px;}.c{stroke:#4766b0;}</style></defs><g transform="translate(-4.146 -3.204)"><rect class="a" width="42.436" height="39.673" transform="translate(9.294 11.5)"/><g transform="translate(15.963 18.744)"><circle class="b" cx="2.557" cy="2.557" r="2.557" transform="translate(0 18.162)"/><circle class="b" cx="2.557" cy="2.557" r="2.557" transform="translate(7.888 4.978)"/><circle class="b" cx="2.557" cy="2.557" r="2.557" transform="translate(16.094 13.184)"/><circle class="b" cx="2.557" cy="2.557" r="2.557" transform="translate(23.982)"/><line class="b" y1="8.803" x2="5.266" transform="translate(3.867 9.726)"/><line class="b" x2="4.591" y2="4.591" transform="translate(12.252 9.343)"/><line class="b" y1="8.811" x2="5.271" transform="translate(19.96 4.743)"/></g><path class="a" d="M51.978,4.7H9.044a3.4,3.4,0,0,0-3.4,3.4h0a3.4,3.4,0,0,0,3.4,3.4H51.977a3.4,3.4,0,0,0,3.4-3.4h0A3.4,3.4,0,0,0,51.978,4.7Z"/><circle class="c" cx="2.519" cy="2.519" r="2.519" transform="translate(27.992 51.173)"/></g></svg>