<svg xmlns="http://www.w3.org/2000/svg" width="53.964" height="53.963" viewBox="0 0 53.964 53.963"><defs><style>.a,.b{fill:#8ebdea;}.a,.b,.c,.d,.e{stroke:#0a54a6;stroke-linecap:round;}.a,.c,.d,.e{stroke-linejoin:round;stroke-miterlimit:10;}.a{stroke-width:2px;}.b,.c,.d,.e{stroke-width:3px;}.c{fill:#8caedc;}.d{fill:#5981c1;}.e{fill:none;}</style></defs><g transform="translate(-6.861 -6.861)"><circle class="a" cx="21.463" cy="21.463" r="21.463" transform="translate(7.861 7.861)"/><path class="b" d="M14.558,0A14.558,14.558,0,1,1,0,14.558,14.558,14.558,0,0,1,14.558,0Z" transform="translate(14.766 14.766)"/><circle class="c" cx="4.523" cy="4.523" r="4.523" transform="translate(24.801 24.801)"/><g transform="translate(29.324 29.324)"><line class="d" x2="26.545" y2="26.545"/><path class="e" d="M49.827,56.571l-.205-3.577-.205-3.578,3.578.205,3.577.205" transform="translate(-26.654 -26.654)"/><path class="e" d="M45.266,52.01l-.205-3.578-.205-3.577,3.577.205,3.578.205" transform="translate(-26.947 -26.947)"/></g></g></svg>