<svg xmlns="http://www.w3.org/2000/svg" width="44.998" height="25.209" viewBox="0 0 44.998 25.209">
  <g id="start" transform="translate(-9.073 -19.414)">
    <path id="Path_1264" data-name="Path 1264" d="M33.106,39.955a11.267,11.267,0,0,0-22.533,0Z" transform="translate(0 -0.165)" fill="#8ebdea" stroke="#0054a6" stroke-linecap="round" stroke-linejoin="round" stroke-miterlimit="10" stroke-width="3"/>
    <circle id="Ellipse_355" data-name="Ellipse 355" cx="4.135" cy="4.135" r="4.135" transform="translate(44.302 34.854)" fill="#8ebdea" stroke="#0054a6" stroke-linecap="round" stroke-linejoin="round" stroke-miterlimit="10" stroke-width="3"/>
    <circle id="Ellipse_356" data-name="Ellipse 356" cx="4.135" cy="4.135" r="4.135" transform="translate(16.128 34.854)" fill="#8ebdea" stroke="#0054a6" stroke-linecap="round" stroke-linejoin="round" stroke-miterlimit="10" stroke-width="3"/>
    <path id="Path_1265" data-name="Path 1265" d="M26.41,30.6H13.625a2,2,0,0,1-2-2h0a2,2,0,0,1,2-2H26.411a2,2,0,0,1,2,2h0A2,2,0,0,1,26.41,30.6Z" transform="translate(-0.021 -0.123)" fill="#8ebdea" stroke="#0054a6" stroke-linecap="round" stroke-linejoin="round" stroke-miterlimit="10" stroke-width="2"/>
    <path id="Path_1266" data-name="Path 1266" d="M49.843,30.078a9.9,9.9,0,0,0-9.9,9.9h-8" transform="translate(-0.426 -0.193)" fill="none" stroke="#0054a6" stroke-linecap="round" stroke-linejoin="round" stroke-miterlimit="10" stroke-width="3"/>
    <path id="Path_1267" data-name="Path 1267" d="M37.034,21.031h3.96a14.652,14.652,0,0,1,4.033,10.115" transform="translate(-0.528 -0.012)" fill="none" stroke="#0054a6" stroke-linecap="round" stroke-linejoin="round" stroke-miterlimit="10" stroke-width="3"/>
    <path id="Path_1268" data-name="Path 1268" d="M45.14,20.414a2.45,2.45,0,1,0,0,4.9Z" transform="translate(-0.641 0)" fill="#8ebdea" stroke="#0054a6" stroke-linecap="round" stroke-linejoin="round" stroke-miterlimit="10" stroke-width="2"/>
  </g>
</svg>
