<svg xmlns="http://www.w3.org/2000/svg" width="50" height="50" viewBox="0 0 50 50">
  <g id="start" transform="translate(9713 -2921)">
    <rect id="Rectangle_2176" data-name="Rectangle 2176" width="50" height="50" transform="translate(-9713 2921)" fill="#fff" opacity="0"/>
    <g id="Plane_Lift_Off" data-name="Plane Lift Off" transform="translate(-9710.248 2925.006)">
      <g id="Group_776" data-name="Group 776" transform="translate(0.02 1.995)">
        <path id="Path_960" data-name="Path 960" d="M31.76,27.663a.927.927,0,0,0,1.094.185l3.708-1.854a.927.927,0,0,0,.482-1.057L34.318,14.3a68.835,68.835,0,0,0,5.858-5.265c1.131-1.149,3.393-4.6,2-6.007C41.067,1.912,35.171.8,28.385,4.878h0a34.5,34.5,0,0,0-3.708,2.67H7.4a.927.927,0,0,0-.667.278L3.58,11.089a.927.927,0,0,0,.371,1.52l10.438,3.5c-1.576,1.39-3.115,2.762-4.524,4.023L3.246,17.578a.927.927,0,0,0-1,.222l-2,2.095a.927.927,0,0,0,0,1.205L3.95,25.735a2.614,2.614,0,0,0,3.1,3.893,125,125,0,0,0,18.317-8.806Z" transform="translate(-0.02 -1.995)" fill="#8ebdea" stroke="#0054a6" stroke-width="2"/>
        <rect id="Rectangle_1071" data-name="Rectangle 1071" width="29.663" height="3.708" rx="0.5" transform="translate(14.795 33.381)" fill="#0054a6"/>
      </g>
    </g>
  </g>
</svg>
