<svg xmlns="http://www.w3.org/2000/svg" width="69.473" height="38.443" viewBox="0 0 69.473 38.443"><defs><style>.a,.b{fill:#8ebdea;}.a,.b,.c{stroke:#0054a6;stroke-linecap:round;stroke-linejoin:round;stroke-miterlimit:10;}.a,.c{stroke-width:3px;}.b{stroke-width:2px;}.c{fill:none;}</style></defs><g transform="translate(-9.073 -19.414)"><path class="a" d="M46.237,46.52a17.832,17.832,0,0,0-35.664,0Z" transform="translate(0 4.56)"/><circle class="a" cx="6.544" cy="6.544" r="6.544" transform="translate(63.957 43.269)"/><circle class="a" cx="6.544" cy="6.544" r="6.544" transform="translate(19.365 43.269)"/><path class="b" d="M35.026,32.934H14.791a3.166,3.166,0,0,1-3.166-3.166h0A3.166,3.166,0,0,1,14.791,26.6H35.027a3.166,3.166,0,0,1,3.166,3.166h0A3.167,3.167,0,0,1,35.026,32.934Z" transform="translate(0.58 3.411)"/><path class="c" d="M60.276,30.078A15.676,15.676,0,0,0,44.6,45.754H31.94" transform="translate(11.776 5.326)"/><path class="c" d="M37.034,21.031H43.3A23.19,23.19,0,0,1,49.685,37.04" transform="translate(14.584 0.34)"/><path class="b" d="M46.568,20.414a3.878,3.878,0,1,0,0,7.756Z" transform="translate(17.701 0)"/></g></svg>