<svg xmlns="http://www.w3.org/2000/svg" width="54.687" height="40.853" viewBox="0 0 54.687 40.853"><defs><style>.a{fill:#8ebdea;}.a,.b,.d{stroke:#0a54a6;stroke-linecap:round;stroke-linejoin:round;stroke-miterlimit:10;stroke-width:3px;}.b{fill:#5981c1;}.c{fill:#4766b0;}.d{fill:none;}</style></defs><g transform="translate(0.058 -8.121)"><path class="a" d="M42.673,23.556a15.464,15.464,0,0,0-30.776,0,12.009,12.009,0,0,0,1.554,23.918H41.12a12.009,12.009,0,0,0,1.554-23.918Z"/><g transform="translate(18.58 20.154)"><path class="b" d="M36.419,45.3H24.4a2.7,2.7,0,0,1-2.7-2.7V33.585a2.7,2.7,0,0,1,2.7-2.7H36.419a2.7,2.7,0,0,1,2.7,2.7V42.6A2.7,2.7,0,0,1,36.419,45.3Z" transform="translate(-21.707 -23.435)"/><g transform="translate(6.723 11.685)"><path class="c" d="M33.62,37.875a1.982,1.982,0,1,0-3.2,1.549l-.362,3.445a.264.264,0,0,0,.263.292h2.654a.265.265,0,0,0,.265-.265.276.276,0,0,0-.019-.1l-.355-3.373A1.971,1.971,0,0,0,33.62,37.875Z" transform="translate(-29.656 -35.893)"/></g><path class="d" d="M38.093,29.528a7.452,7.452,0,1,0-14.9,0Z" transform="translate(-21.935 -22.076)"/></g></g></svg>