<svg xmlns="http://www.w3.org/2000/svg" width="50.285" height="60.342" viewBox="0 0 50.285 60.342"><defs><style>.a{fill:#0054a6;}</style></defs><g transform="translate(-2 0)"><g transform="translate(2 0)"><path class="a" d="M27.143,60.342a1.149,1.149,0,0,1-.319-.043C26.574,60.236,2,53.5,2,30.621V10.057a1.255,1.255,0,0,1,.822-1.179L26.708.078a1.262,1.262,0,0,1,.87,0l23.885,8.8a1.255,1.255,0,0,1,.822,1.179V30.621c0,22.885-24.574,29.615-24.823,29.681a1.249,1.249,0,0,1-.319.04ZM4.514,10.934V30.621c0,19.817,19.737,26.314,22.628,27.159,2.891-.845,22.628-7.342,22.628-27.159V10.934L27.143,2.6Z" transform="translate(-2 0)"/></g><g transform="translate(18.343 22.628)"><path class="a" d="M17.3,24.086a1.258,1.258,0,0,1-1.257-1.257v-8.8a2.514,2.514,0,0,0-5.029,0v8.8a1.257,1.257,0,1,1-2.514,0v-8.8a5.029,5.029,0,0,1,10.057,0v8.8A1.258,1.258,0,0,1,17.3,24.086Z" transform="translate(-8.5 -9)"/></g><g transform="translate(18.343 30.171)"><path class="a" d="M17.3,14.514H9.757a1.257,1.257,0,0,1,0-2.514H17.3a1.257,1.257,0,1,1,0,2.514Z" transform="translate(-8.5 -12)"/></g><g transform="translate(33.428 22.628)"><path class="a" d="M15.757,24.086A1.258,1.258,0,0,1,14.5,22.828V10.257a1.257,1.257,0,1,1,2.514,0V22.828A1.258,1.258,0,0,1,15.757,24.086Z" transform="translate(-14.5 -9)"/></g></g></svg>