<svg xmlns="http://www.w3.org/2000/svg" width="54.245" height="58.967" viewBox="0 0 54.245 58.967"><defs><style>.a{fill:#0054a6;}</style></defs><g transform="translate(-24.43 0)"><path class="a" d="M73.943,7.669h-.712A4.982,4.982,0,0,0,71.911.994,5.177,5.177,0,0,0,64.6,2.239L60.9,7.669H29.161a4.7,4.7,0,0,0-4.731,4.652V42.066a4.7,4.7,0,0,0,4.731,4.652H47.539l-1.389,5.735h-3a3.517,3.517,0,0,0-3.542,3.483v.727H35.917a1.152,1.152,0,1,0,0,2.3H67.188a1.152,1.152,0,1,0,0-2.3H63.493v-.727a3.517,3.517,0,0,0-3.542-3.483h-3l-1.389-5.735H73.943a4.7,4.7,0,0,0,4.731-4.652V12.321a4.7,4.7,0,0,0-4.731-4.652ZM57.162,27.915c-1.831,1.261-5.262-.453-8.538,1.266-.8-4.083-.3-7.924,3.865-8.771a7.578,7.578,0,0,1,1.609-.15l4.237,3.091C58.951,25.109,58.72,26.843,57.162,27.915Zm1.18-12.345,3.315,2.419-2.55,3.057-3-2.19Zm8.2-12.05a2.811,2.811,0,0,1,3.972-.676,2.706,2.706,0,0,1,.494,3.934l-7.864,9.428-3.5-2.552ZM61.151,55.937v.727h-19.2v-.727a1.191,1.191,0,0,1,1.2-1.18h16.8a1.191,1.191,0,0,1,1.2,1.18Zm-6.6-3.483H48.559l1.389-5.735h3.21ZM76.332,42.066a2.372,2.372,0,0,1-2.389,2.349H29.161a2.372,2.372,0,0,1-2.389-2.349V36.673h3.347a1.152,1.152,0,1,0,0-2.3H26.772V12.321a2.372,2.372,0,0,1,2.389-2.349H59.333L53.9,17.955a8.068,8.068,0,0,0-6.087,2.529c-2.041,2.343-2.4,6.025-1.066,10.943a1.179,1.179,0,0,0,1.941.536c3.028-2.845,6.8.258,10.178-2.43a5.966,5.966,0,0,0,1.772-6.69L71.374,9.972h2.569a2.372,2.372,0,0,1,2.389,2.349V34.369H39.489a1.152,1.152,0,1,0,0,2.3H76.332Z" transform="translate(0 0)"/><path class="a" d="M103.977,298.446a1.171,1.171,0,1,0,1.377.92,1.17,1.17,0,0,0-1.377-.92Z" transform="translate(-69.399 -264.078)"/></g></svg>