<svg xmlns="http://www.w3.org/2000/svg" width="60" height="60" viewBox="0 0 60 60"><defs><style>.a{fill:#0054a6;}</style></defs><path class="a" d="M5,24a1,1,0,0,0,.71-.29l4-4a1,1,0,1,0-1.42-1.42l-4,4A1,1,0,0,0,5,24Z"/><path class="a" d="M5,30a1,1,0,0,0,.71-.29l10-10a1,1,0,1,0-1.42-1.42l-10,10A1,1,0,0,0,5,30Z"/><path class="a" d="M57,0H31a3,3,0,0,0-3,3V14H5a5,5,0,0,0-5,5V45a5,5,0,0,0,5,5H16v4H13a3,3,0,0,0,0,6H57a3,3,0,0,0,3-3V3A3,3,0,0,0,57,0ZM5,16H41a3,3,0,0,1,3,3V43H2V19A3,3,0,0,1,5,16ZM2,45H44a3,3,0,0,1-3,3H5A3,3,0,0,1,2,45Zm16,5H28v4H18Zm13,8H13a1,1,0,0,1,0-2H33a1,1,0,0,1,0,2Zm27-1a1,1,0,0,1-1,1H35.82A3,3,0,0,0,33,54H30V50H41a5,5,0,0,0,5-5V19a5,5,0,0,0-5-5H30V3a1,1,0,0,1,1-1H57a1,1,0,0,1,1,1Z"/><path class="a" d="M54,5H34a2,2,0,0,0-2,2V9a2,2,0,0,0,2,2H54a2,2,0,0,0,2-2V7A2,2,0,0,0,54,5ZM34,9V7H54V9Z"/><path class="a" d="M52,20a3,3,0,1,0-3-3A3,3,0,0,0,52,20Zm0-4a1,1,0,1,1-1,1A1,1,0,0,1,52,16Z"/><path class="a" d="M55,25a3,3,0,1,0-3,3A3,3,0,0,0,55,25Zm-3,1a1,1,0,1,1,1-1A1,1,0,0,1,52,26Z"/><path class="a" d="M39,52a1,1,0,0,0-1,1v2a1,1,0,0,0,2,0V53A1,1,0,0,0,39,52Z"/><path class="a" d="M43,52a1,1,0,0,0-1,1v2a1,1,0,0,0,2,0V53A1,1,0,0,0,43,52Z"/><path class="a" d="M47,52a1,1,0,0,0-1,1v2a1,1,0,0,0,2,0V53A1,1,0,0,0,47,52Z"/><path class="a" d="M51,52a1,1,0,0,0-1,1v2a1,1,0,0,0,2,0V53A1,1,0,0,0,51,52Z"/><path class="a" d="M55,52a1,1,0,0,0-1,1v2a1,1,0,0,0,2,0V53A1,1,0,0,0,55,52Z"/></svg>