<svg xmlns="http://www.w3.org/2000/svg" width="285.448" height="50.18" viewBox="0 0 285.448 50.18"><defs><style>.a{fill:#333a4f;}.b{fill:none;stroke:#556fe6;stroke-width:3px;}.c{fill:#556fe6;}</style></defs><g transform="translate(-0.861 -0.857)"><path class="a" d="M26.841,19.094l-4.225-6.316a.958.958,0,0,0-.8-.4.942.942,0,0,0-.8.414l-4.225,6.307h-4.62a.964.964,0,0,0-.964.963.809.809,0,0,0,.039.26l2.45,8.926a1.918,1.918,0,0,0,1.852,1.406H28.085a1.938,1.938,0,0,0,1.861-1.406l2.45-8.926.029-.26a.964.964,0,0,0-.964-.963Zm-7.919,0,2.894-4.237,2.893,4.237Zm2.894,7.7a1.933,1.933,0,1,1,1.362-.566A1.931,1.931,0,0,1,21.816,26.8Z" transform="translate(3.693 4.182)"/><path class="b" d="M25.991,49.537a23.59,23.59,0,1,0-23.63-23.59A23.61,23.61,0,0,0,25.991,49.537Z"/><path class="b" d="M41.35,33.5A11.073,11.073,0,1,0,30.258,22.43,11.082,11.082,0,0,0,41.35,33.5Z" transform="translate(11.648 3.758)"/><path class="a" d="M68.117,9.152H53.488V33.035H68.117V28.374H59.306V23.135H67.1V18.644H59.306V13.813h8.811Zm2.96,14.391c0,6.022,3.946,9.764,9.526,9.764a8.816,8.816,0,0,0,9.118-7.144H83.529A2.953,2.953,0,0,1,80.5,28.34c-2.075,0-3.5-1.633-3.5-4.8s1.429-4.8,3.5-4.8a3,3,0,0,1,3.028,2.177h6.192c-.987-4.525-4.355-7.144-9.118-7.144C75.024,13.779,71.077,17.555,71.077,23.543Zm40.671,0c0-6.022-4.287-9.764-9.866-9.764-5.545,0-9.866,3.742-9.866,9.764s4.219,9.764,9.8,9.764S111.748,29.564,111.748,23.543Zm-13.812,0c0-3.232,1.837-4.729,3.946-4.729,2.041,0,3.946,1.5,3.946,4.729,0,3.2-1.939,4.729-4.014,4.729C99.7,28.272,97.935,26.741,97.935,23.543Zm43.4,9.492h5.784V21.944c0-5.1-3.028-8.1-7.723-8.1a7.636,7.636,0,0,0-6.4,3.538,7.091,7.091,0,0,0-6.464-3.538,6.7,6.7,0,0,0-5.545,2.586V14.051h-5.818V33.035h5.818V22.726c0-2.484,1.429-3.844,3.64-3.844s3.64,1.361,3.64,3.844V33.035h5.784V22.726c0-2.484,1.429-3.844,3.64-3.844s3.64,1.361,3.64,3.844Z" transform="translate(21.347 2.837)"/><path class="c" d="M122.2,21.753A11.633,11.633,0,0,0,134.034,33.83c5.137,0,9.22-2.552,10.989-7.11h-3.708a7.483,7.483,0,0,1-7.28,4.423c-4.967,0-8.675-3.606-8.675-9.39,0-5.818,3.708-9.424,8.675-9.424a7.46,7.46,0,0,1,7.28,4.457h3.708c-1.769-4.593-5.852-7.178-10.989-7.178C127.4,9.607,122.2,14.642,122.2,21.753Zm27.776,11.873h3.1V14.982h-3.1Zm1.6-21.671a2.109,2.109,0,1,0-2.109-2.109A2.063,2.063,0,0,0,151.57,11.955Zm10.209,11.533c0-4.321,2.245-5.647,5.205-5.647h.816v-3.2a6.279,6.279,0,0,0-6.022,3.368V14.982h-3.1V33.626h3.1Zm8.78.782c0,5.92,3.776,9.662,9.084,9.662,4.627,0,7.655-2.586,8.607-6.294h-3.334c-.68,2.347-2.518,3.674-5.273,3.674-3.4,0-5.92-2.415-5.92-7.042,0-4.559,2.518-6.974,5.92-6.974a5.079,5.079,0,0,1,5.273,3.674h3.334c-.953-3.912-3.98-6.294-8.607-6.294C174.336,14.676,170.56,18.418,170.56,24.27Zm22.162,9.356h3.1V8.45h-3.1ZM209.36,17.3c3.2,0,5.92,2.007,5.886,5.647H203.475C203.815,19.3,206.332,17.3,209.36,17.3Zm8.709,10.58h-3.334a5.124,5.124,0,0,1-5.239,3.436,5.861,5.861,0,0,1-6.056-5.852h14.9a16.783,16.783,0,0,0,.1-1.871,8.546,8.546,0,0,0-8.947-8.913c-5.443,0-9.22,3.708-9.22,9.594,0,5.92,3.912,9.662,9.22,9.662C214.123,33.932,217.117,31.278,218.07,27.876Zm18.205.68c-.136-6.668-10.955-4.253-10.955-8.675,0-1.5,1.361-2.586,3.64-2.586,2.484,0,3.912,1.361,4.048,3.232h3.1c-.2-3.64-2.926-5.852-7.042-5.852-4.151,0-6.838,2.347-6.838,5.205,0,6.94,11.023,4.525,11.023,8.675,0,1.531-1.361,2.756-3.81,2.756-2.62,0-4.219-1.361-4.389-3.164h-3.2c.2,3.4,3.266,5.784,7.621,5.784C233.587,33.932,236.275,31.619,236.275,28.557Z" transform="translate(50.034 2.246)"/></g></svg>