<svg xmlns="http://www.w3.org/2000/svg" width="200.974" height="36.144" viewBox="0 0 200.974 36.144">
  <g id="EcomCirclesLogo" transform="translate(-0.861 -0.857)">
    <path id="Path_7717" data-name="Path 7717" d="M22.189,17.094l-2.968-4.437a.673.673,0,0,0-.562-.284.662.662,0,0,0-.562.291l-2.968,4.43H11.884a.677.677,0,0,0-.678.676.568.568,0,0,0,.027.183l1.721,6.27a1.347,1.347,0,0,0,1.3.988h8.808a1.362,1.362,0,0,0,1.308-.988l1.721-6.27.02-.183a.677.677,0,0,0-.678-.676Zm-5.563,0,2.033-2.976,2.033,2.976Zm2.033,5.411a1.358,1.358,0,1,1,.957-.4A1.357,1.357,0,0,1,18.659,22.506Z" transform="translate(-0.037 -0.042)" fill="#333a4f"/>
    <path id="Path_7718" data-name="Path 7718" d="M18.961,35.5a16.572,16.572,0,1,0-16.6-16.572A16.586,16.586,0,0,0,18.961,35.5Z" fill="none" stroke="#556fe6" stroke-width="3"/>
    <path id="Path_7719" data-name="Path 7719" d="M38.05,26.915a7.779,7.779,0,1,0-7.792-7.779A7.785,7.785,0,0,0,38.05,26.915Z" transform="translate(-0.117 -0.038)" fill="none" stroke="#556fe6" stroke-width="3"/>
    <path id="Path_7720" data-name="Path 7720" d="M63.765,9.152H53.488V25.93H63.765V22.655h-6.19V18.975h5.473V15.82H57.575V12.426h6.19Zm2.08,10.11c0,4.23,2.772,6.859,6.692,6.859A6.193,6.193,0,0,0,78.941,21.1h-4.35a2.075,2.075,0,0,1-2.127,1.53c-1.458,0-2.462-1.147-2.462-3.37s1-3.37,2.462-3.37a2.107,2.107,0,0,1,2.127,1.53h4.35A6.109,6.109,0,0,0,72.536,12.4C68.617,12.4,65.845,15.055,65.845,19.262Zm28.571,0a6.931,6.931,0,0,0-13.862,0,6.541,6.541,0,0,0,6.883,6.859A6.617,6.617,0,0,0,94.416,19.262Zm-9.7,0c0-2.27,1.291-3.322,2.772-3.322,1.434,0,2.772,1.052,2.772,3.322,0,2.247-1.362,3.322-2.82,3.322C85.955,22.584,84.712,21.508,84.712,19.262ZM115.2,25.93h4.063V18.138c0-3.585-2.127-5.688-5.425-5.688a5.364,5.364,0,0,0-4.493,2.486,4.982,4.982,0,0,0-4.541-2.486,4.7,4.7,0,0,0-3.9,1.816V12.594H96.823V25.93h4.087V18.688a2.561,2.561,0,1,1,5.115,0V25.93h4.063V18.688a2.561,2.561,0,1,1,5.115,0Z" transform="translate(-0.214 -0.028)" fill="#333a4f"/>
    <path id="Path_7721" data-name="Path 7721" d="M122.2,17.583a8.172,8.172,0,0,0,8.317,8.484,7.834,7.834,0,0,0,7.72-5h-2.605a5.257,5.257,0,0,1-5.115,3.107c-3.489,0-6.094-2.533-6.094-6.6,0-4.087,2.605-6.62,6.094-6.62a5.241,5.241,0,0,1,5.115,3.131h2.605a7.841,7.841,0,0,0-7.72-5.043A8.213,8.213,0,0,0,122.2,17.583Zm19.513,8.341h2.175v-13.1h-2.175ZM142.831,10.7a1.482,1.482,0,1,0-1.482-1.482A1.449,1.449,0,0,0,142.831,10.7ZM150,18.8c0-3.035,1.577-3.967,3.657-3.967h.574V12.588A4.411,4.411,0,0,0,150,14.954V12.827h-2.175v13.1H150Zm6.168.55c0,4.159,2.653,6.787,6.381,6.787a5.826,5.826,0,0,0,6.047-4.421h-2.342a3.514,3.514,0,0,1-3.7,2.581c-2.39,0-4.159-1.7-4.159-4.947,0-3.2,1.769-4.9,4.159-4.9a3.568,3.568,0,0,1,3.7,2.581H168.6c-.669-2.748-2.8-4.421-6.047-4.421C158.824,12.612,156.171,15.24,156.171,19.351Zm15.569,6.572h2.175V8.238H171.74Zm11.689-11.472a3.843,3.843,0,0,1,4.135,3.967h-8.269A4.056,4.056,0,0,1,183.429,14.452Zm6.118,7.433H187.2a3.6,3.6,0,0,1-3.681,2.414,4.117,4.117,0,0,1-4.254-4.111h10.468a11.792,11.792,0,0,0,.072-1.314,6,6,0,0,0-6.286-6.262c-3.824,0-6.477,2.605-6.477,6.74,0,4.159,2.748,6.787,6.477,6.787A5.889,5.889,0,0,0,189.547,21.885Zm12.789.478c-.1-4.684-7.7-2.987-7.7-6.094,0-1.052.956-1.816,2.557-1.816,1.745,0,2.748.956,2.844,2.27h2.175c-.143-2.557-2.055-4.111-4.947-4.111-2.916,0-4.8,1.649-4.8,3.657,0,4.876,7.743,3.179,7.743,6.094,0,1.075-.956,1.936-2.677,1.936-1.84,0-2.964-.956-3.083-2.223H192.2c.143,2.39,2.294,4.063,5.354,4.063C200.448,26.139,202.336,24.514,202.336,22.363Z" transform="translate(-0.501 -0.022)" fill="#556fe6"/>
  </g>
</svg>
