<svg xmlns="http://www.w3.org/2000/svg" width="35.114" height="60.944" viewBox="0 0 35.114 60.944"><defs><style>.a{fill:#0054a6;}</style></defs><g transform="translate(-108.5)"><g transform="translate(108.5)"><g transform="translate(0)"><path class="a" d="M139.151,0H112.964A4.469,4.469,0,0,0,108.5,4.464V56.481a4.469,4.469,0,0,0,4.464,4.464h26.187a4.469,4.469,0,0,0,4.464-4.464V4.464A4.469,4.469,0,0,0,139.151,0Zm2.678,48.446H116.535a.893.893,0,0,0,0,1.785h25.294v6.249a2.681,2.681,0,0,1-2.678,2.678H112.964a2.681,2.681,0,0,1-2.678-2.678V50.231h2.678a.893.893,0,0,0,0-1.785h-2.678V8.927h31.543Zm0-41.3H110.285V4.464a2.681,2.681,0,0,1,2.678-2.678h26.187a2.681,2.681,0,0,1,2.678,2.678Z" transform="translate(-108.5)"/></g></g><g transform="translate(125.164 3.571)"><g transform="translate(0)"><path class="a" d="M252.964,30h-3.571a.893.893,0,1,0,0,1.785h3.571a.893.893,0,0,0,0-1.785Z" transform="translate(-248.5 -30)"/></g></g><g transform="translate(123.379 52.017)"><path class="a" d="M236.178,437a2.678,2.678,0,1,0,2.678,2.678A2.681,2.681,0,0,0,236.178,437Zm0,3.571a.893.893,0,1,1,.893-.893A.894.894,0,0,1,236.178,440.571Z" transform="translate(-233.5 -437)"/></g><g transform="translate(121.597 3.131)"><g transform="translate(0 0)"><ellipse class="a" cx="1.5" cy="1" rx="1.5" ry="1" transform="translate(-0.494 -0.026)"/></g></g></g></svg>