<svg xmlns="http://www.w3.org/2000/svg" width="60" height="54" viewBox="0 0 60 54"><defs><style>.a{fill:#0054a6;}</style></defs><path class="a" d="M53,0H7A7.008,7.008,0,0,0,0,7V47a7.008,7.008,0,0,0,7,7H53a7.008,7.008,0,0,0,7-7V7A7.008,7.008,0,0,0,53,0Zm5,47a5.006,5.006,0,0,1-5,5H7a5.006,5.006,0,0,1-5-5V7A5.006,5.006,0,0,1,7,2H53a5.006,5.006,0,0,1,5,5Z"/><path class="a" d="M53,8H7a3,3,0,0,0-3,3V47a3,3,0,0,0,3,3H53a3,3,0,0,0,3-3V11A3,3,0,0,0,53,8ZM30,27.864,19.109,22,30,16.136,40.891,22Zm12-4.19V35.4L31,41.326V29.6ZM29,29.6V41.326L18,35.4V23.674ZM6,11a1,1,0,0,1,1-1H29v4.4L16.526,21.12c-.013.007-.028.01-.041.018A1,1,0,0,0,16,22v8.382l-10,5ZM54,47a1,1,0,0,1-1,1H7a1,1,0,0,1-1-1V37.618l10-5V36a1,1,0,0,0,.526.88l13,7a1,1,0,0,0,.948,0l13-7A1,1,0,0,0,44,36V32.618l10,5Zm0-11.618-10-5V22a1,1,0,0,0-.487-.858c-.013-.008-.028-.011-.041-.018L31,14.4V10H53a1,1,0,0,1,1,1Z"/><circle class="a" cx="1" cy="1" r="1" transform="translate(5 4)"/><circle class="a" cx="1" cy="1" r="1" transform="translate(9 4)"/><circle class="a" cx="1" cy="1" r="1" transform="translate(13 4)"/><path class="a" d="M39,6H53a1,1,0,0,0,0-2H39a1,1,0,0,0,0,2Z"/></svg>