<svg xmlns="http://www.w3.org/2000/svg" width="263.039" height="36.127" viewBox="0 0 263.039 36.127">
  <g id="salesSupportLogo" transform="translate(0)">
    <path id="Path_7730" data-name="Path 7730" d="M23.735,0H19.3V36.127h4.436Z" transform="translate(12.391 0.001)" fill="#2dcbfd"/>
    <path id="Path_7731" data-name="Path 7731" d="M14.663,29.082h4.449V0L14.663,4.9Z" transform="translate(9.415)" fill="#2dcbfd"/>
    <path id="Path_7732" data-name="Path 7732" d="M11.19,26.328h4.449V4.29L11.19,8Z" transform="translate(7.184 2.754)" fill="#2dcbfd"/>
    <path id="Path_7733" data-name="Path 7733" d="M7.33,24.224h4.449V7.567L7.33,10.374Z" transform="translate(4.706 4.858)" fill="#2dcbfd"/>
    <path id="Path_7734" data-name="Path 7734" d="M3.47,22.652H7.919V11L3.47,12.966Z" transform="translate(2.228 7.063)" fill="#2dcbfd"/>
    <path id="Path_7735" data-name="Path 7735" d="M4.437,0H0V36.126H4.437Z" transform="translate(0.001 0)" fill="#2dcbfd"/>
    <path id="Path_7736" data-name="Path 7736" d="M0,19.3v4.436H36.126V19.3Z" transform="translate(0 12.391)" fill="#2dcbfd"/>
    <path id="Path_7737" data-name="Path 7737" d="M28.782,9.268c0,9.2,9.885,10.437,9.885,17.058,0,2.3-1.012,3.126-2.621,3.126s-2.621-.828-2.621-3.126v-2.3H28.644V26c0,5.149,2.575,8.092,7.54,8.092s7.54-2.943,7.54-8.092c0-9.2-9.885-10.437-9.885-17.058,0-2.3.92-3.172,2.529-3.172S38.9,6.647,38.9,8.946V10.28h4.782V9.268c0-5.149-2.529-8.092-7.448-8.092S28.782,4.119,28.782,9.268ZM57.841,1.544h-7.4L45.289,33.728h4.644l.874-5.839h6.207l.874,5.839h5.1Zm-3.954,5.7,2.437,16.276H51.45ZM65.345,33.728H78.725v-4.6H70.4V1.544H65.345ZM85.983,6.142h8.736v-4.6H80.926V33.728H94.719v-4.6H85.983V19.7h6.943v-4.6H85.983ZM97.209,9.268c0,9.2,9.885,10.437,9.885,17.058,0,2.3-1.012,3.126-2.621,3.126s-2.621-.828-2.621-3.126v-2.3H97.071V26c0,5.149,2.575,8.092,7.54,8.092s7.54-2.943,7.54-8.092c0-9.2-9.885-10.437-9.885-17.058,0-2.3.92-3.172,2.529-3.172s2.529.874,2.529,3.172V10.28h4.782V9.268c0-5.149-2.529-8.092-7.448-8.092S97.209,4.119,97.209,9.268Zm17.616,19.586v4.874H119.7V28.854Zm7.663-19.586c0,9.2,9.885,10.437,9.885,17.058,0,2.3-1.011,3.126-2.621,3.126s-2.621-.828-2.621-3.126v-2.3H122.35V26c0,5.149,2.575,8.092,7.54,8.092s7.54-2.943,7.54-8.092c0-9.2-9.885-10.437-9.885-17.058,0-2.3.92-3.172,2.529-3.172s2.529.874,2.529,3.172V10.28h4.782V9.268c0-5.149-2.529-8.092-7.448-8.092S122.488,4.119,122.488,9.268ZM140.1,1.544V26.05c0,5.149,2.575,8.092,7.54,8.092s7.54-2.943,7.54-8.092V1.544H150.4V26.372c0,2.3-1.012,3.126-2.621,3.126s-2.621-.828-2.621-3.126V1.544Zm26,0h-7.448V33.728H163.7V21.636H166.1c5.058,0,7.54-2.8,7.54-7.954V9.5C173.635,4.348,171.153,1.544,166.1,1.544Zm0,4.6c1.609,0,2.483.736,2.483,3.035V14c0,2.3-.874,3.035-2.483,3.035H163.7V6.142Zm17.557-4.6H176.2V33.728h5.058V21.636h2.391c5.058,0,7.54-2.8,7.54-7.954V9.5C191.192,4.348,188.709,1.544,183.652,1.544Zm0,4.6c1.609,0,2.483.736,2.483,3.035V14c0,2.3-.874,3.035-2.483,3.035h-2.391V6.142Zm14.751,2.8c0-2.3,1.011-3.172,2.621-3.172s2.621.874,2.621,3.172V26.326c0,2.3-1.011,3.172-2.621,3.172s-2.621-.874-2.621-3.172ZM193.345,26c0,5.149,2.713,8.092,7.678,8.092S208.7,31.153,208.7,26V9.268c0-5.149-2.713-8.092-7.678-8.092s-7.678,2.943-7.678,8.092Zm34.368,7.724a9.478,9.478,0,0,1-.552-3.908V24.854c0-3.356-.828-5.793-3.356-6.851,2.253-1.057,3.31-3.218,3.31-6.529V8.946c0-4.966-2.253-7.4-7.494-7.4h-7.632V33.728h5.058v-13.1h1.747c2.3,0,3.31,1.1,3.31,4.092v5.058a9.9,9.9,0,0,0,.46,3.954Zm-8.23-27.586c1.793,0,2.575,1.012,2.575,3.31v3.172c0,2.575-1.149,3.4-3.035,3.4h-1.977V6.142Zm9.532,0H234.3V33.728h5.057V6.142h5.287v-4.6H229.015Z" transform="translate(18.391 0.755)" fill="#2dcbfd"/>
  </g>
</svg>
