<svg xmlns="http://www.w3.org/2000/svg" width="300.94" height="41.333" viewBox="0 0 300.94 41.333"><defs><style>.a{fill:#2dcbfd;}</style></defs><g transform="translate(0)"><path class="a" d="M24.374,0H19.3V41.332h5.076Z" transform="translate(16.957 0.001)"/><path class="a" d="M14.663,33.272h5.09V0l-5.09,5.608Z" transform="translate(12.884)"/><path class="a" d="M11.19,29.5h5.09V4.29L11.19,8.54Z" transform="translate(9.832 3.769)"/><path class="a" d="M7.33,26.624h5.09V7.567L7.33,10.779Z" transform="translate(6.441 6.648)"/><path class="a" d="M3.47,24.331H8.56V11L3.47,13.249Z" transform="translate(3.049 9.666)"/><path class="a" d="M5.077,0H0V41.331H5.077Z" transform="translate(0.001 0)"/><path class="a" d="M0,19.3v5.076H41.331V19.3Z" transform="translate(0 16.958)"/><path class="a" d="M28.8,10.434c0,10.52,11.31,11.941,11.31,19.516,0,2.63-1.157,3.577-3,3.577s-3-.947-3-3.577v-2.63H28.644v2.262c0,5.891,2.946,9.258,8.627,9.258S45.9,35.473,45.9,29.581c0-10.52-11.31-11.941-11.31-19.515,0-2.63,1.052-3.63,2.893-3.63s2.893,1,2.893,3.63v1.525h5.471V10.434c0-5.891-2.893-9.258-8.522-9.258S28.8,4.543,28.8,10.434ZM62.048,1.6H53.579L47.687,38.419H53l1-6.681h7.1l1,6.681h5.839ZM57.524,8.12l2.788,18.621H54.736Zm13.11,30.3H85.941v-5.26H76.42V1.6H70.634ZM94.245,6.857h9.994V1.6H88.459V38.419H104.24v-5.26H94.245V22.375h7.943v-5.26H94.245Zm12.844,3.577c0,10.52,11.31,11.941,11.31,19.516,0,2.63-1.157,3.577-3,3.577s-3-.947-3-3.577v-2.63h-5.471v2.262c0,5.891,2.946,9.258,8.627,9.258s8.627-3.367,8.627-9.258c0-10.52-11.31-11.941-11.31-19.515,0-2.63,1.052-3.63,2.893-3.63s2.893,1,2.893,3.63v1.525h5.471V10.434c0-5.891-2.893-9.258-8.522-9.258S107.089,4.543,107.089,10.434Zm20.154,22.409v5.576h5.576V32.843Zm8.767-22.409c0,10.52,11.31,11.941,11.31,19.516,0,2.63-1.157,3.577-3,3.577s-3-.947-3-3.577v-2.63h-5.471v2.262c0,5.891,2.946,9.258,8.627,9.258s8.627-3.367,8.627-9.258c0-10.52-11.31-11.941-11.31-19.515,0-2.63,1.052-3.63,2.893-3.63s2.893,1,2.893,3.63v1.525h5.471V10.434c0-5.891-2.893-9.258-8.522-9.258S136.01,4.543,136.01,10.434ZM156.158,1.6V29.634c0,5.891,2.946,9.258,8.627,9.258s8.627-3.367,8.627-9.258V1.6h-5.471V30c0,2.63-1.157,3.577-3,3.577s-3-.947-3-3.577V1.6Zm29.743,0h-8.522V38.419h5.786V24.584H185.9c5.786,0,8.627-3.209,8.627-9.1V10.7C194.528,4.806,191.687,1.6,185.9,1.6Zm0,5.26c1.841,0,2.841.842,2.841,3.472v5.523c0,2.63-1,3.472-2.841,3.472h-2.735V6.857ZM205.987,1.6h-8.522V38.419h5.786V24.584h2.735c5.786,0,8.627-3.209,8.627-9.1V10.7C214.614,4.806,211.774,1.6,205.987,1.6Zm0,5.26c1.841,0,2.841.842,2.841,3.472v5.523c0,2.63-1,3.472-2.841,3.472h-2.735V6.857Zm16.876,3.209c0-2.63,1.157-3.63,3-3.63s3,1,3,3.63V29.95c0,2.63-1.157,3.63-3,3.63s-3-1-3-3.63Zm-5.786,19.515c0,5.891,3.1,9.258,8.785,9.258s8.785-3.367,8.785-9.258V10.434c0-5.891-3.1-9.258-8.785-9.258s-8.785,3.367-8.785,9.258Zm39.32,8.837a10.844,10.844,0,0,1-.631-4.471V28.266c0-3.84-.947-6.628-3.84-7.838,2.577-1.21,3.787-3.682,3.787-7.47V10.066c0-5.681-2.578-8.469-8.574-8.469h-8.732V38.419h5.786V23.427h2c2.63,0,3.787,1.262,3.787,4.682v5.786c0,3,.21,3.577.526,4.524ZM246.982,6.857c2.051,0,2.946,1.157,2.946,3.787v3.63c0,2.946-1.315,3.893-3.472,3.893h-2.262V6.857Zm10.906,0h6.049V38.419h5.786V6.857h6.049V1.6H257.887Z" transform="translate(25.168 1.033)"/></g></svg>