<svg xmlns="http://www.w3.org/2000/svg" width="59.996" height="59.931" viewBox="0 0 59.996 59.931"><defs><style>.a{fill:#0054a6;}</style></defs><g transform="translate(0 -0.5)"><path class="a" d="M36.283,134.275a.878.878,0,1,0,1.242-1.242L35.393,130.9l2.132-2.132a.878.878,0,1,0-1.242-1.242l-2.753,2.753a.878.878,0,0,0,0,1.242Zm0,0" transform="translate(-29.375 -111.916)"/><path class="a" d="M115.32,130.9l-2.132,2.132a.878.878,0,1,0,1.242,1.242l2.753-2.753a.878.878,0,0,0,0-1.241l-2.753-2.753a.878.878,0,1,0-1.241,1.242Zm0,0" transform="translate(-99.698 -111.912)"/><path class="a" d="M76.974,134.467a.878.878,0,0,0,1.138-.5l2.163-5.506a.878.878,0,1,0-1.634-.642l-2.163,5.506A.878.878,0,0,0,76.974,134.467Zm0,0" transform="translate(-67.463 -111.911)"/><path class="a" d="M38.394,219.971h5.915a.878.878,0,0,0,0-1.756H38.394a.878.878,0,0,0,0,1.756Zm0,0" transform="translate(-33.12 -192.203)"/><path class="a" d="M126.79,218.215h-10.4a.878.878,0,0,0,0,1.756h10.4a.878.878,0,1,0,0-1.756Zm0,0" transform="translate(-101.976 -192.203)"/><path class="a" d="M38.394,251.577h2.52a.878.878,0,0,0,0-1.756h-2.52a.878.878,0,0,0,0,1.756Zm0,0" transform="translate(-33.12 -220.105)"/><path class="a" d="M177.726,249.82a.878.878,0,0,0,0,1.756h1.534a.878.878,0,1,0,0-1.756Zm0,0" transform="translate(-156.125 -220.105)"/><path class="a" d="M94.605,250.7a.878.878,0,0,0-.878-.878H86.19a.878.878,0,0,0,0,1.756h7.537A.878.878,0,0,0,94.605,250.7Zm0,0" transform="translate(-75.316 -220.105)"/><path class="a" d="M213.7,250.7a.878.878,0,0,0,.878.878h2.874a.878.878,0,1,0,0-1.756h-2.874A.878.878,0,0,0,213.7,250.7Zm0,0" transform="translate(-188.662 -220.105)"/><path class="a" d="M166.277,151.034h3.032a.878.878,0,1,0,0-1.756h-3.032a.878.878,0,1,0,0,1.756Zm0,0" transform="translate(-146.018 -131.344)"/><path class="a" d="M221.124,151.034h18.5a.878.878,0,0,0,0-1.756h-18.5a.878.878,0,1,0,0,1.756Zm0,0" transform="translate(-194.438 -131.344)"/><path class="a" d="M298.555,182.246h-7.493a.878.878,0,0,0,0,1.756h7.493a.878.878,0,0,0,0-1.756Zm0,0" transform="translate(-256.18 -160.449)"/><path class="a" d="M247.68,182.246H245.1a.878.878,0,0,0,0,1.756h2.576a.878.878,0,0,0,0-1.756Zm0,0" transform="translate(-215.608 -160.449)"/><path class="a" d="M166.277,184h6.31a.878.878,0,0,0,0-1.756h-6.31a.878.878,0,1,0,0,1.756Zm0,0" transform="translate(-146.018 -160.449)"/><path class="a" d="M106.04,281.16h-5.915a.878.878,0,1,0,0,1.756h5.915a.878.878,0,0,0,0-1.756Zm0,0" transform="translate(-87.617 -247.772)"/><path class="a" d="M42.938,281.16H38.394a.878.878,0,0,0,0,1.756h4.544a.878.878,0,0,0,0-1.756Zm0,0" transform="translate(-33.12 -247.772)"/><path class="a" d="M183.894,281.16h-7.727a.878.878,0,0,0,0,1.756h7.727a.878.878,0,0,0,0-1.756Zm0,0" transform="translate(-154.749 -247.772)"/><path class="a" d="M299.451,242.668h-4.225a.878.878,0,0,0,0,1.756h4.225a.878.878,0,0,0,0-1.756Zm0,0" transform="translate(-259.856 -213.791)"/><path class="a" d="M393.855,244.424h5.965a.878.878,0,1,0,0-1.756h-5.965a.878.878,0,0,0,0,1.756Zm0,0" transform="translate(-346.928 -213.79)"/><path class="a" d="M358.1,242.668h-1.367a.878.878,0,1,0,0,1.756H358.1a.878.878,0,0,0,0-1.756Zm0,0" transform="translate(-314.157 -213.791)"/><path class="a" d="M295.226,326.084h4.225a.878.878,0,0,0,0-1.756h-4.225a.878.878,0,0,0,0,1.756Zm0,0" transform="translate(-259.856 -285.882)"/><path class="a" d="M393.855,326.084h5.965a.878.878,0,1,0,0-1.756h-5.965a.878.878,0,0,0,0,1.756Zm0,0" transform="translate(-346.928 -285.882)"/><path class="a" d="M356.738,326.084H358.1a.878.878,0,1,0,0-1.756h-1.367a.878.878,0,1,0,0,1.756Zm0,0" transform="translate(-314.16 -285.882)"/><path class="a" d="M299.451,405.988h-4.225a.878.878,0,0,0,0,1.756h4.225a.878.878,0,1,0,0-1.756Zm0,0" transform="translate(-259.856 -357.973)"/><path class="a" d="M399.819,405.988h-5.965a.878.878,0,1,0,0,1.756h5.965a.878.878,0,1,0,0-1.756Zm0,0" transform="translate(-346.928 -357.973)"/><path class="a" d="M358.1,405.988h-1.367a.878.878,0,1,0,0,1.756H358.1a.878.878,0,1,0,0-1.756Zm0,0" transform="translate(-314.157 -357.973)"/><path class="a" d="M56.132.5H3.864A3.869,3.869,0,0,0,0,4.365V46.85a3.869,3.869,0,0,0,3.865,3.864h3.3a.878.878,0,1,0,0-1.756h-3.3A2.111,2.111,0,0,1,1.756,46.85V43.519h31.99v1.513h-.7a1.729,1.729,0,0,0-1.727,1.727v2.2H12.507a.878.878,0,1,0,0,1.756H20.95v3.149H18.3a3.211,3.211,0,0,0-3.207,3.207v1.9a1.465,1.465,0,0,0,1.463,1.463h26.82a1.465,1.465,0,0,0,1.463-1.463v-1.9a3.211,3.211,0,0,0-3.207-3.207H38.979v-1.11H55.212a1.729,1.729,0,0,0,1.727-1.727v-.413a3.87,3.87,0,0,0,2.991-3.763L60,4.364A3.868,3.868,0,0,0,56.132.5ZM33.079,41.429V37.22h22.1v4.209ZM35.5,35.464V33.616H52.759v1.847Zm17.258,7.721v1.848H35.5V43.185Zm-30.054,7.53h8.617v.313a1.729,1.729,0,0,0,1.727,1.727h4.174v1.11H22.705ZM41.631,55.62a1.453,1.453,0,0,1,1.451,1.451v1.6H16.847v-1.6A1.453,1.453,0,0,1,18.3,55.62ZM55.182,51h-22.1V46.789h22.1Zm2.991-4.147a2.109,2.109,0,0,1-1.235,1.916V46.759a1.729,1.729,0,0,0-1.727-1.727h-.7V43.519h3.658Zm0-5.087H56.91c.018-.1.029-4.573.029-4.573a1.729,1.729,0,0,0-1.727-1.727h-.7V33.616h.7a1.729,1.729,0,0,0,1.727-1.727V27.622a1.729,1.729,0,0,0-1.727-1.727h-4.96a.878.878,0,0,0,0,1.756h4.93V31.86h-22.1V27.651h11.71a.878.878,0,0,0,0-1.756H33.049a1.729,1.729,0,0,0-1.727,1.727v4.267a1.729,1.729,0,0,0,1.727,1.727h.7v1.847h-.7a1.729,1.729,0,0,0-1.727,1.727s.011,4.473.029,4.573H1.756V12.444H58.173Zm0-31.076H1.82V4.364A2.11,2.11,0,0,1,3.929,2.256H56.065a2.111,2.111,0,0,1,2.108,2.108Zm0,0" transform="translate(0)"/><path class="a" d="M35.85,29.262a2.577,2.577,0,1,0,2.577,2.577A2.579,2.579,0,0,0,35.85,29.262Zm0,3.4a.821.821,0,1,1,.821-.821A.822.822,0,0,1,35.85,32.659Zm0,0" transform="translate(-29.375 -25.392)"/><path class="a" d="M91.835,29.262a2.577,2.577,0,1,0,2.577,2.577A2.58,2.58,0,0,0,91.835,29.262Zm0,3.4a.821.821,0,1,1,.821-.821A.821.821,0,0,1,91.835,32.659Zm0,0" transform="translate(-78.799 -25.392)"/><path class="a" d="M147.822,29.262a2.577,2.577,0,1,0,2.577,2.577A2.579,2.579,0,0,0,147.822,29.262Zm0,3.4a.821.821,0,1,1,.821-.821A.822.822,0,0,1,147.822,32.659Zm0,0" transform="translate(-128.226 -25.392)"/></g></svg>