<svg xmlns="http://www.w3.org/2000/svg" width="26.324" height="26.324" viewBox="0 0 26.324 26.324"><defs><style>.a{fill:none;}.b{fill:#fff;}</style></defs><path class="a" d="M0,0H26.324V26.324H0Z"/><path class="b" d="M6.883,5.194a13.5,13.5,0,0,0,.494,2.841L6.06,9.351a16.261,16.261,0,0,1-.834-4.157H6.883M17.7,18.378a13.988,13.988,0,0,0,2.852.494v1.634a16.92,16.92,0,0,1-4.168-.823L17.7,18.378M7.936,3H4.1A1.1,1.1,0,0,0,3,4.1,18.645,18.645,0,0,0,21.646,22.743a1.1,1.1,0,0,0,1.1-1.1V17.818a1.1,1.1,0,0,0-1.1-1.1A12.512,12.512,0,0,1,17.73,16.1a.921.921,0,0,0-.34-.055,1.124,1.124,0,0,0-.779.318L14.2,18.772a16.616,16.616,0,0,1-7.228-7.228L9.384,9.131a1.1,1.1,0,0,0,.274-1.119A12.46,12.46,0,0,1,9.033,4.1,1.1,1.1,0,0,0,7.936,3Z" transform="translate(0.29 0.29)"/></svg>